<svg width="120" height="120" viewBox="0 0 120 120" fill="none" xmlns="http://www.w3.org/2000/svg">
<path d="M93.1009 114L9 113.957L9.05764 6L71.4922 6.02881L93.1441 26.6146L93.1009 114Z" fill="#E6E9EF"/>
<path opacity="0.6" d="M93.1009 114L9 113.957L9.05764 6L71.4922 6.02881L93.1441 26.6146L93.1009 114Z" fill="white"/>
<path d="M71.492 6.02832L93.1438 26.6142L71.4775 26.5998L71.492 6.02832Z" fill="#676879"/>
<path opacity="0.4" d="M71.492 6.02832L93.1438 26.6142L71.4775 26.5998L71.492 6.02832Z" fill="white"/>
<path d="M17.2506 26.8876L64.0117 26.9121L64.0132 24.1462L17.2521 24.1217L17.2506 26.8876Z" fill="#676879"/>
<path d="M17.2399 33.8886L64.001 33.9131L64.0024 31.1472L17.2413 31.1227L17.2399 33.8886Z" fill="#676879"/>
<path d="M17.2291 40.8779L63.9902 40.9023L63.9917 38.1364L17.2306 38.112L17.2291 40.8779Z" fill="#676879"/>
<path d="M17.2323 47.8811L85.7461 47.917L85.7475 45.1511L17.2337 45.1152L17.2323 47.8811Z" fill="#676879"/>
<path d="M17.2362 54.8674L85.75 54.9033L85.7514 52.1374L17.2376 52.1015L17.2362 54.8674Z" fill="#676879"/>
<path d="M17.2255 61.8694L85.7393 61.9053L85.7407 59.1394L17.2269 59.1035L17.2255 61.8694Z" fill="#676879"/>
<path d="M17.2147 68.8694L85.7285 68.9053L85.73 66.1394L17.2162 66.1035L17.2147 68.8694Z" fill="#676879"/>
<path d="M17.2186 75.8714L85.7324 75.9072L85.7339 73.1413L17.2201 73.1054L17.2186 75.8714Z" fill="#676879"/>
<path d="M17.2216 82.8577L85.7354 82.8936L85.7368 80.1277L17.223 80.0918L17.2216 82.8577Z" fill="#676879"/>
<path d="M17.2108 89.8596L85.7246 89.8955L85.7261 87.1296L17.2123 87.0937L17.2108 89.8596Z" fill="#676879"/>
<path d="M17.2001 96.8616L85.7139 96.8975L85.7153 94.1316L17.2015 94.0957L17.2001 96.8616Z" fill="#676879"/>
<path d="M17.204 103.863L85.7178 103.898L85.7192 101.133L17.2054 101.097L17.204 103.863Z" fill="#676879"/>
<path d="M102.22 25.9236H100.779V23.345L98.9209 21.5731L99.9005 20.5215L102.22 22.7256V25.9236Z" fill="#676879"/>
<path d="M107.929 30.089C109.85 21.91 104.777 13.7221 96.5983 11.8007C88.4193 9.87934 80.2314 14.9521 78.31 23.1311C76.3886 31.3101 81.4614 39.498 89.6404 41.4194C97.8194 43.3408 106.007 38.268 107.929 30.089Z" fill="#096561"/>
<path d="M94.7002 17.2227H91.5742V36.0078H94.7002V17.2227Z" fill="white"/>
<path d="M102.536 28.17V25.0439H83.751V28.17H102.536Z" fill="white"/>
</svg>
