<svg width="500" height="500" viewBox="0 0 500 500" fill="none" xmlns="http://www.w3.org/2000/svg">
<path d="M330.357 85.2743C332.715 70.6867 322.8 56.9499 308.213 54.5923C293.625 52.2347 279.888 62.1491 277.531 76.7367C275.173 91.3243 285.087 105.061 299.675 107.419C314.263 109.776 327.999 99.8619 330.357 85.2743Z" fill="#EBEBEB"/>
<path d="M330.478 86.7923C332.748 72.9155 323.339 59.8261 309.462 57.5562C295.586 55.2863 282.496 64.6954 280.226 78.5722C277.956 92.4489 287.366 105.538 301.242 107.808C315.119 110.078 328.208 100.669 330.478 86.7923Z" fill="#DBDBDB"/>
<path d="M315.846 104.312C328.096 99.3068 333.968 85.3186 328.963 73.0687C323.958 60.8187 309.97 54.9458 297.72 59.9512C285.47 64.9565 279.597 78.9447 284.602 91.1947C289.607 103.445 303.596 109.318 315.846 104.312Z" fill="white"/>
<path d="M305.671 60.5596H305.061V64.1796H305.671V60.5596Z" fill="#EBEBEB"/>
<path d="M294.579 63.4007L294.051 63.7056L295.86 66.8409L296.389 66.536L294.579 63.4007Z" fill="#EBEBEB"/>
<path d="M286.657 70.2301L286.352 70.7607L289.501 72.5707L289.806 72.0401L286.657 70.2301Z" fill="#EBEBEB"/>
<path d="M286.87 82.3799H283.25V82.9899H286.87V82.3799Z" fill="#EBEBEB"/>
<path d="M289.201 91.6851L286.066 93.4956L286.371 94.0238L289.506 92.2133L289.201 91.6851Z" fill="#EBEBEB"/>
<path d="M295.853 98.5462L294.045 101.682L294.573 101.987L296.382 98.8509L295.853 98.5462Z" fill="#EBEBEB"/>
<path d="M305.671 101.19H305.061V104.81H305.671V101.19Z" fill="#EBEBEB"/>
<path d="M314.893 98.5822L314.364 98.8872L316.174 102.022L316.703 101.717L314.893 98.5822Z" fill="#EBEBEB"/>
<path d="M321.535 91.6734L321.229 92.2017L324.356 94.0067L324.661 93.4784L321.535 91.6734Z" fill="#EBEBEB"/>
<path d="M327.49 82.3799H323.87V82.9899H327.49V82.3799Z" fill="#EBEBEB"/>
<path d="M324.361 71.3542L321.234 73.1592L321.539 73.6875L324.666 71.8824L324.361 71.3542Z" fill="#EBEBEB"/>
<path d="M316.183 63.388L314.375 66.5239L314.903 66.8286L316.712 63.6927L316.183 63.388Z" fill="#EBEBEB"/>
<path d="M308.9 75.0308L298.437 95.6025L298.98 95.8791L309.444 75.3074L308.9 75.0308Z" fill="#EBEBEB"/>
<path d="M304.146 74.4846L303.352 74.6436L307.813 96.9314L308.607 96.7724L304.146 74.4846Z" fill="#DBDBDB"/>
<path d="M227 254.82H55.3203V56.5596H227V254.82ZM59.3103 250.82H223V60.5596H59.3203L59.3103 250.82Z" fill="#EBEBEB"/>
<path d="M141.601 61.6099H137.601V252.82H141.601V61.6099Z" fill="#EBEBEB"/>
<path d="M230.64 64.6499H51.6904V70.2199H230.64V64.6499Z" fill="#EBEBEB"/>
<path d="M230.64 70.9199H51.6904V76.4899H230.64V70.9199Z" fill="#EBEBEB"/>
<path d="M230.64 77.1797H51.6904V82.7497H230.64V77.1797Z" fill="#EBEBEB"/>
<path d="M230.64 83.4497H51.6904V89.0197H230.64V83.4497Z" fill="#EBEBEB"/>
<path d="M230.64 89.7197H51.6904V95.2897H230.64V89.7197Z" fill="#EBEBEB"/>
<path d="M230.64 95.98H51.6904V101.55H230.64V95.98Z" fill="#EBEBEB"/>
<path d="M230.64 102.25H51.6904V107.82H230.64V102.25Z" fill="#EBEBEB"/>
<path d="M230.64 108.52H51.6904V114.09H230.64V108.52Z" fill="#EBEBEB"/>
<path d="M230.64 114.78H51.6904V120.35H230.64V114.78Z" fill="#EBEBEB"/>
<path d="M218.761 63.52H217.761V191.91H218.761V63.52Z" fill="#263238"/>
<path d="M220.03 196.57H216.48L217.37 191.47H219.14L220.03 196.57Z" fill="#263238"/>
<path d="M222.36 63.52H221.36V249.25H222.36V63.52Z" fill="#263238"/>
<path d="M223.631 253H220.091L220.971 247.9H222.751L223.631 253Z" fill="#263238"/>
<path d="M236.84 55.7798H45.4805V67.4298H236.84V55.7798Z" fill="#DBDBDB"/>
<path d="M459.481 101.66H351.601V237.51H459.481V101.66Z" fill="#EBEBEB"/>
<path d="M445.751 129.73H364.961V132.3H445.751V129.73Z" fill="#DBDBDB"/>
<path d="M433.371 135.11H364.961V137.68H433.371V135.11Z" fill="#DBDBDB"/>
<path d="M417.131 140.48H364.961V143.05H417.131V140.48Z" fill="#DBDBDB"/>
<path d="M442.931 145.86H364.961V148.43H442.931V145.86Z" fill="#DBDBDB"/>
<path d="M436.301 151.23H364.961V153.8H436.301V151.23Z" fill="#DBDBDB"/>
<path d="M438.991 161.98H364.961V164.55H438.991V161.98Z" fill="#DBDBDB"/>
<path d="M393.321 167.36H364.961V169.93H393.321V167.36Z" fill="#DBDBDB"/>
<path d="M422.151 172.73H364.961V175.3H422.151V172.73Z" fill="#DBDBDB"/>
<path d="M442.931 178.11H364.961V180.68H442.931V178.11Z" fill="#DBDBDB"/>
<path d="M432.191 183.48H364.961V186.05H432.191V183.48Z" fill="#DBDBDB"/>
<path d="M437.811 194.23H364.961V196.8H437.811V194.23Z" fill="#DBDBDB"/>
<path d="M409.061 199.61H364.961V202.18H409.061V199.61Z" fill="#DBDBDB"/>
<path d="M409.061 215.88H364.961V218.45H409.061V215.88Z" fill="#DBDBDB"/>
<path d="M438.941 226.62C443.453 226.62 447.111 222.962 447.111 218.45C447.111 213.938 443.453 210.28 438.941 210.28C434.428 210.28 430.771 213.938 430.771 218.45C430.771 222.962 434.428 226.62 438.941 226.62Z" fill="#0B7D77"/>
<path d="M377 112.13C377.982 112.13 378.935 112.458 379.71 113.06C379.742 113.083 379.769 113.113 379.789 113.147C379.809 113.182 379.822 113.22 379.826 113.259C379.831 113.298 379.827 113.338 379.816 113.376C379.805 113.414 379.786 113.45 379.76 113.48C379.738 113.511 379.709 113.537 379.676 113.557C379.643 113.577 379.606 113.59 379.568 113.596C379.53 113.602 379.491 113.6 379.453 113.59C379.416 113.58 379.381 113.563 379.35 113.54C378.682 113.008 377.854 112.719 377 112.72C376.027 112.72 375.093 113.107 374.405 113.795C373.717 114.483 373.33 115.417 373.33 116.39C373.33 117.363 373.717 118.297 374.405 118.985C375.093 119.673 376.027 120.06 377 120.06C377.848 120.073 378.673 119.786 379.33 119.25C379.361 119.224 379.398 119.205 379.437 119.194C379.476 119.184 379.516 119.181 379.556 119.188C379.596 119.195 379.634 119.21 379.668 119.233C379.701 119.255 379.729 119.285 379.75 119.32C379.78 119.346 379.804 119.378 379.82 119.415C379.837 119.451 379.845 119.49 379.845 119.53C379.845 119.57 379.837 119.609 379.82 119.645C379.804 119.681 379.78 119.714 379.75 119.74C378.971 120.332 378.019 120.652 377.04 120.65C376.481 120.65 375.927 120.54 375.41 120.326C374.893 120.112 374.424 119.798 374.028 119.402C373.632 119.007 373.319 118.537 373.105 118.02C372.89 117.503 372.78 116.949 372.78 116.39C372.78 115.83 372.89 115.276 373.105 114.76C373.319 114.243 373.632 113.773 374.028 113.378C374.424 112.982 374.893 112.668 375.41 112.454C375.927 112.24 376.481 112.13 377.04 112.13H377Z" fill="#A6A6A6"/>
<path d="M385.67 112.13C386.523 112.086 387.37 112.298 388.1 112.741C388.831 113.183 389.413 113.834 389.77 114.61C390.126 115.386 390.242 116.251 390.103 117.093C389.963 117.936 389.573 118.717 388.985 119.336C388.396 119.955 387.636 120.383 386.801 120.566C385.967 120.748 385.097 120.676 384.304 120.359C383.511 120.041 382.832 119.493 382.353 118.786C381.875 118.079 381.619 117.244 381.62 116.39C381.603 115.843 381.694 115.299 381.889 114.788C382.084 114.277 382.378 113.81 382.755 113.413C383.132 113.017 383.583 112.699 384.084 112.479C384.584 112.259 385.124 112.14 385.67 112.13ZM385.67 120.06C386.404 120.102 387.133 119.923 387.763 119.546C388.394 119.169 388.897 118.612 389.207 117.946C389.517 117.28 389.62 116.536 389.503 115.811C389.386 115.086 389.054 114.413 388.551 113.878C388.047 113.344 387.394 112.973 386.677 112.813C385.96 112.654 385.212 112.713 384.529 112.984C383.846 113.254 383.26 113.723 382.846 114.331C382.433 114.938 382.211 115.655 382.21 116.39C382.183 117.335 382.533 118.252 383.181 118.94C383.83 119.628 384.725 120.031 385.67 120.06V120.06Z" fill="#A6A6A6"/>
<path d="M392.49 113.49V120.36C392.498 120.402 392.497 120.445 392.486 120.486C392.475 120.527 392.456 120.566 392.428 120.599C392.401 120.632 392.367 120.658 392.329 120.676C392.29 120.694 392.248 120.704 392.205 120.704C392.163 120.704 392.121 120.694 392.082 120.676C392.043 120.658 392.009 120.632 391.982 120.599C391.955 120.566 391.935 120.527 391.924 120.486C391.914 120.445 391.912 120.402 391.92 120.36V112.66C391.9 112.603 391.899 112.541 391.917 112.483C391.935 112.426 391.971 112.375 392.02 112.34C392.084 112.296 392.163 112.279 392.239 112.292C392.316 112.305 392.384 112.348 392.43 112.41L397.52 119.41V112.58C397.52 112.505 397.549 112.432 397.602 112.378C397.654 112.324 397.725 112.293 397.8 112.29C397.839 112.289 397.878 112.295 397.914 112.309C397.951 112.323 397.984 112.344 398.012 112.371C398.04 112.398 398.062 112.431 398.077 112.467C398.092 112.502 398.1 112.541 398.1 112.58V120.31C398.1 120.349 398.092 120.387 398.077 120.423C398.062 120.459 398.04 120.492 398.012 120.519C397.984 120.546 397.951 120.567 397.914 120.581C397.878 120.595 397.839 120.601 397.8 120.6C397.758 120.6 397.716 120.589 397.678 120.57C397.639 120.551 397.606 120.524 397.58 120.49C397.569 120.486 397.558 120.479 397.549 120.471C397.541 120.462 397.534 120.452 397.53 120.44L392.49 113.49Z" fill="#A6A6A6"/>
<path d="M403.18 112.84H400.65C400.573 112.837 400.499 112.805 400.445 112.749C400.391 112.693 400.36 112.618 400.36 112.54C400.363 112.464 400.394 112.392 400.448 112.338C400.502 112.284 400.574 112.252 400.65 112.25H406.29C406.366 112.252 406.439 112.284 406.493 112.338C406.546 112.392 406.578 112.464 406.58 112.54C406.58 112.618 406.55 112.693 406.496 112.749C406.442 112.805 406.368 112.837 406.29 112.84H403.76V120.36C403.76 120.437 403.73 120.511 403.675 120.565C403.621 120.619 403.547 120.65 403.47 120.65C403.393 120.65 403.32 120.619 403.265 120.565C403.211 120.511 403.18 120.437 403.18 120.36V112.84Z" fill="#A6A6A6"/>
<path d="M413.001 118.75C413.001 118.499 412.94 118.251 412.821 118.029C412.702 117.808 412.53 117.619 412.321 117.48C412.017 117.279 411.678 117.136 411.321 117.06H411.261H409.261V120.38C409.248 120.449 409.212 120.511 409.158 120.556C409.104 120.601 409.036 120.625 408.966 120.625C408.896 120.625 408.828 120.601 408.774 120.556C408.72 120.511 408.684 120.449 408.671 120.38V112.56C408.675 112.489 408.702 112.422 408.75 112.369C408.797 112.316 408.861 112.281 408.931 112.27H411.331C411.874 112.276 412.399 112.465 412.82 112.808C413.242 113.151 413.534 113.626 413.65 114.157C413.767 114.687 413.699 115.242 413.46 115.729C413.22 116.216 412.822 116.608 412.331 116.84C412.368 116.866 412.408 116.886 412.451 116.9C412.789 117.082 413.072 117.352 413.271 117.681C413.47 118.01 413.577 118.386 413.581 118.77C413.563 119.106 413.597 119.444 413.681 119.77C413.703 119.846 413.744 119.915 413.801 119.97C413.869 119.962 413.938 119.976 413.997 120.011C414.057 120.045 414.103 120.097 414.131 120.16C414.15 120.237 414.141 120.318 414.106 120.389C414.071 120.46 414.013 120.517 413.941 120.55H413.771C413.654 120.539 413.543 120.497 413.448 120.428C413.353 120.36 413.278 120.267 413.231 120.16C413.036 119.717 412.957 119.232 413.001 118.75V118.75ZM411.321 112.84H409.251V116.46H411.371C411.851 116.453 412.309 116.256 412.643 115.912C412.978 115.568 413.163 115.105 413.156 114.625C413.149 114.145 412.952 113.687 412.608 113.352C412.264 113.018 411.801 112.833 411.321 112.84V112.84Z" fill="#A6A6A6"/>
<path d="M420.88 118.48H417.05L416.31 120.48C416.29 120.535 416.253 120.583 416.205 120.617C416.157 120.651 416.099 120.669 416.04 120.67H415.93C415.858 120.639 415.8 120.581 415.768 120.508C415.736 120.436 415.734 120.354 415.76 120.28L418.67 112.5C418.697 112.445 418.738 112.4 418.789 112.368C418.841 112.336 418.9 112.319 418.96 112.32C419.021 112.317 419.082 112.332 419.134 112.364C419.185 112.397 419.226 112.444 419.25 112.5L422.16 120.28C422.189 120.352 422.189 120.432 422.161 120.504C422.133 120.576 422.08 120.635 422.01 120.67H421.9C421.84 120.669 421.782 120.65 421.732 120.616C421.683 120.583 421.644 120.535 421.62 120.48L420.88 118.48ZM417.27 117.89H420.67L418.97 113.38L417.27 117.89Z" fill="#A6A6A6"/>
<path d="M427.55 112.13C428.532 112.13 429.485 112.458 430.26 113.06C430.292 113.083 430.319 113.113 430.339 113.147C430.359 113.182 430.371 113.22 430.376 113.259C430.381 113.298 430.377 113.338 430.366 113.376C430.355 113.414 430.336 113.45 430.31 113.48C430.287 113.511 430.259 113.537 430.226 113.557C430.193 113.577 430.156 113.59 430.118 113.596C430.08 113.602 430.041 113.6 430.003 113.59C429.966 113.58 429.931 113.563 429.9 113.54C429.232 113.008 428.404 112.719 427.55 112.72C426.577 112.72 425.643 113.107 424.955 113.795C424.267 114.483 423.88 115.417 423.88 116.39C423.88 117.363 424.267 118.297 424.955 118.985C425.643 119.673 426.577 120.06 427.55 120.06C428.398 120.073 429.223 119.786 429.88 119.25C429.911 119.224 429.947 119.205 429.986 119.194C430.025 119.184 430.066 119.181 430.106 119.188C430.146 119.195 430.184 119.21 430.218 119.233C430.251 119.255 430.279 119.285 430.3 119.32C430.33 119.346 430.354 119.378 430.37 119.415C430.386 119.451 430.395 119.49 430.395 119.53C430.395 119.57 430.386 119.609 430.37 119.645C430.354 119.681 430.33 119.714 430.3 119.74C429.521 120.332 428.569 120.652 427.59 120.65C427.031 120.65 426.477 120.54 425.96 120.326C425.443 120.112 424.973 119.798 424.578 119.402C424.182 119.007 423.868 118.537 423.654 118.02C423.44 117.503 423.33 116.949 423.33 116.39C423.33 115.83 423.44 115.276 423.654 114.76C423.868 114.243 424.182 113.773 424.578 113.378C424.973 112.982 425.443 112.668 425.96 112.454C426.477 112.24 427.031 112.13 427.59 112.13H427.55Z" fill="#A6A6A6"/>
<path d="M435.001 112.84H432.471C432.393 112.837 432.319 112.805 432.265 112.749C432.211 112.693 432.181 112.618 432.181 112.54C432.183 112.464 432.215 112.392 432.268 112.338C432.322 112.284 432.395 112.252 432.471 112.25H438.111C438.187 112.252 438.259 112.284 438.313 112.338C438.367 112.392 438.398 112.464 438.401 112.54C438.402 112.579 438.396 112.618 438.382 112.654C438.368 112.69 438.346 112.724 438.319 112.752C438.292 112.78 438.26 112.802 438.224 112.817C438.188 112.832 438.15 112.84 438.111 112.84H435.581V120.36C435.581 120.437 435.55 120.511 435.496 120.565C435.441 120.619 435.368 120.65 435.291 120.65C435.214 120.65 435.14 120.619 435.086 120.565C435.031 120.511 435.001 120.437 435.001 120.36V112.84Z" fill="#A6A6A6"/>
<path d="M256.99 366.14H455.1L459.22 284.86H252.87L256.99 366.14Z" fill="#EBEBEB"/>
<path d="M445.71 322.07H362.88L361.33 293.85H447.52L445.71 322.07ZM363.83 321.07H444.77L446.45 294.85H362.39L363.83 321.07Z" fill="#DBDBDB"/>
<path d="M444.18 354.53H366.13L364.86 329.06H445.77L444.18 354.53ZM367.08 353.53H443.24L444.71 330.06H365.91L367.08 353.53Z" fill="#DBDBDB"/>
<path d="M412.27 311H398.35L397.48 304.19H413.15L412.27 311ZM399.27 310H411.43L412.05 305.19H398.65L399.27 310Z" fill="#DBDBDB"/>
<path d="M412.27 345.2H398.35L397.48 338.39H413.15L412.27 345.2ZM399.27 344.2H411.43L412.05 339.39H398.65L399.27 344.2Z" fill="#DBDBDB"/>
<path d="M348.29 322.07H265.46L263.91 293.85H350.1L348.29 322.07ZM266.41 321.07H347.35L349 294.85H265L266.41 321.07Z" fill="#DBDBDB"/>
<path d="M346.76 354.53H268.71L267.44 329.06H348.35L346.76 354.53ZM269.66 353.53H345.82L347.29 330.06H268.49L269.66 353.53Z" fill="#DBDBDB"/>
<path d="M314.851 311H300.931L300.061 304.19H315.731L314.851 311ZM301.851 310H314.001L314.621 305.19H301.221L301.851 310Z" fill="#DBDBDB"/>
<path d="M314.851 345.2H300.931L300.061 338.39H315.731L314.851 345.2ZM301.851 344.2H314.001L314.621 339.39H301.221L301.851 344.2Z" fill="#DBDBDB"/>
<path d="M274.76 366.14L273.51 375L271.01 392.79H266.12V366.14H274.76Z" fill="#EBEBEB"/>
<path d="M274.76 366.14L273.51 375H266.12V366.14H274.76Z" fill="#DBDBDB"/>
<path d="M437.33 366.14L438.57 375L441.08 392.79H445.97V366.14H437.33Z" fill="#EBEBEB"/>
<path d="M437.33 366.14L438.57 375H445.97V366.14H437.33Z" fill="#DBDBDB"/>
<path d="M250 472.91C349.654 472.91 430.44 462.384 430.44 449.4C430.44 436.416 349.654 425.89 250 425.89C150.345 425.89 69.5596 436.416 69.5596 449.4C69.5596 462.384 150.345 472.91 250 472.91Z" fill="#EBEBEB"/>
<path d="M84.48 423.67C114.314 423.67 138.5 417.877 138.5 410.73C138.5 403.583 114.314 397.79 84.48 397.79C54.6455 397.79 30.46 403.583 30.46 410.73C30.46 417.877 54.6455 423.67 84.48 423.67Z" fill="#EBEBEB"/>
<path d="M33.4004 392.79L87.5504 392.55L141.7 392.46L250 392.3L358.3 392.46L412.45 392.55L466.6 392.79L412.45 393.04L358.3 393.13L250 393.29L141.7 393.13L87.5504 393.04L33.4004 392.79Z" fill="#263238"/>
<path d="M86.0704 219.61C86.0704 219.61 59.1804 215.85 65.4604 183.38C65.4604 183.38 95.5104 190.13 86.0704 219.61Z" fill="#0B7D77"/>
<path opacity="0.1" d="M86.0704 219.61C86.0704 219.61 59.1804 215.85 65.4604 183.38C65.4604 183.38 95.5104 190.13 86.0704 219.61Z" fill="black"/>
<path d="M84.7099 212.83C84.1846 211.189 83.5737 209.577 82.8799 208C82.8799 207.79 82.8799 207.58 82.8099 207.38C82.8099 206.93 82.7299 206.49 82.6999 206.04C82.6199 205.04 82.5599 204.1 82.4999 203.13C82.3899 201.19 82.2699 199.25 82.2399 197.31C82.2399 197.2 82.0699 197.21 82.0699 197.31C82.0699 199.26 82.0699 201.2 82.0699 203.14C82.0699 204.14 82.1699 205.08 82.2299 206.05C82.2299 206.27 82.2299 206.48 82.2299 206.7C80.7185 203.467 78.9108 200.38 76.8299 197.48C75.9531 196.188 75.0084 194.943 73.9999 193.75C72.9299 192.52 71.7999 191.35 70.7099 190.14C70.6399 190.06 70.5299 190.14 70.5999 190.26C72.5308 192.396 74.2646 194.702 75.7799 197.15C76.5999 198.38 77.3699 199.65 78.1099 200.94L77.8599 200.85L76.8599 200.46L74.6599 199.63C73.2199 199.09 71.7799 198.57 70.3399 198.02C70.2499 198.02 70.1899 198.14 70.2799 198.17C71.7099 198.74 73.1199 199.34 74.5399 199.95L76.6199 200.85L77.6699 201.28C77.8951 201.393 78.1336 201.477 78.3799 201.53C78.9199 202.53 79.4599 203.48 79.9599 204.48C81.207 206.996 82.3023 209.584 83.2399 212.23C83.3099 212.41 83.3699 212.6 83.4399 212.79C82.7296 212.381 81.991 212.024 81.2299 211.72L78.4499 210.46C76.5599 209.59 74.6899 208.71 72.8799 207.69C72.8613 207.68 72.8393 207.677 72.8187 207.682C72.798 207.688 72.7805 207.702 72.7699 207.72C72.7593 207.739 72.7565 207.761 72.7621 207.781C72.7677 207.802 72.7813 207.82 72.7999 207.83C74.6499 208.83 76.4599 209.92 78.3099 210.92C79.2399 211.42 80.1699 211.92 81.1199 212.37C81.9016 212.835 82.7522 213.172 83.6399 213.37C84.5421 215.831 85.1367 218.394 85.4099 221C85.7099 224.67 85.6799 228.37 85.7699 232.05H85.8599C86.1299 228.71 86.2799 225.34 86.2999 221.99C86.2606 218.872 85.7238 215.779 84.7099 212.83Z" fill="#263238"/>
<path d="M80.5707 193.74C80.311 195.638 80.2206 197.556 80.3007 199.47C80.3007 199.52 80.3807 199.52 80.3807 199.47C80.4907 197.57 80.5107 195.67 80.7307 193.78C80.7407 193.68 80.5807 193.64 80.5707 193.74Z" fill="#263238"/>
<path d="M72.8802 195.37C71.678 194.909 70.5199 194.34 69.4202 193.67C69.3302 193.61 69.2502 193.76 69.3402 193.81C70.4176 194.537 71.5972 195.1 72.8402 195.48C72.9002 195.5 73.0002 195.4 72.8802 195.37Z" fill="#263238"/>
<path d="M86.9305 271.15C86.9305 268.15 86.8505 265.21 86.8205 262.24C86.7605 252.37 86.6805 242.5 86.5005 232.63C86.3605 224.79 86.1772 216.956 85.9505 209.13C85.9498 209.109 85.944 209.09 85.9335 209.072C85.923 209.055 85.9082 209.04 85.8905 209.03C85.8905 206.89 85.8905 204.75 85.8905 202.61C85.8905 202.55 85.8305 202.53 85.7605 202.53C85.6905 202.53 85.6305 202.53 85.6405 202.61C85.6405 204.756 85.6405 206.9 85.6405 209.04C85.6405 209.04 85.5705 209.09 85.5705 209.13C85.1805 223.13 84.8305 237.02 84.7405 250.97C84.7405 253.81 84.7405 256.64 84.7405 259.48C84.6405 268.566 84.6038 277.66 84.6305 286.76C84.6305 288.2 84.6305 289.65 84.6305 291.1C84.6305 299.42 84.7205 307.74 84.7205 316.1C84.7205 316.54 85.2205 316.77 85.7205 316.79C86.2205 316.81 86.9705 316.57 86.9705 316.06C86.9705 306.89 87.0305 297.71 87.0305 288.54C87.0005 282.72 87.0005 276.93 86.9305 271.15Z" fill="#263238"/>
<path d="M75.7003 262.12C75.7003 262.12 62.7603 252.54 50.4903 259C38.2203 265.46 36.2803 290.44 36.2803 290.44C36.2803 290.44 54.2803 293.02 65.6603 282.21C76.6003 271.81 75.7003 262.12 75.7003 262.12Z" fill="#0B7D77"/>
<path d="M79.2202 262.71C76.8444 261.763 74.2711 261.42 71.7302 261.71C71.2082 261.617 70.6801 261.564 70.1502 261.55L68.3202 261.41L64.5502 261.15C62.0002 260.96 59.4402 260.8 56.8902 260.54C56.8725 260.546 56.8572 260.558 56.8464 260.573C56.8356 260.588 56.8297 260.606 56.8297 260.625C56.8297 260.644 56.8356 260.662 56.8464 260.677C56.8572 260.692 56.8725 260.704 56.8902 260.71C59.4102 261.03 61.8902 261.39 64.4402 261.64C65.7402 261.77 67.0402 261.91 68.3502 262L69.2902 262.09C68.9102 262.18 68.5202 262.27 68.1402 262.38C66.1106 262.971 64.147 263.768 62.2802 264.76C61.2802 264.94 60.2802 265.23 59.2802 265.46C57.6802 265.84 56.0902 266.25 54.5002 266.67C51.3602 267.49 48.2502 268.42 45.1302 269.33C45.0302 269.33 45.0802 269.51 45.1302 269.48C48.2402 268.72 51.3802 268.02 54.5002 267.28L59.0402 266.19L60.2302 265.91C56.7593 268.069 53.6566 270.77 51.0402 273.91C48.5221 277.009 46.3805 280.396 44.6602 284C44.6602 284.09 44.7402 284.18 44.8002 284.09C46.9297 280.407 49.528 277.015 52.5302 274C52.4702 274.17 52.4202 274.35 52.3602 274.52L51.6402 276.8C51.1602 278.33 50.6402 279.85 50.2202 281.38C50.2202 281.48 50.3502 281.51 50.3802 281.38C50.9302 279.9 51.4502 278.38 51.9702 276.93C52.2202 276.2 52.4802 275.48 52.7302 274.75C52.8702 274.37 53.0002 273.99 53.1202 273.61C53.1202 273.5 53.2102 273.38 53.2502 273.26C54.6918 271.86 56.2216 270.554 57.8302 269.35C59.9661 267.787 62.2704 266.469 64.7002 265.42C64.7002 265.64 64.6202 265.87 64.5702 266.08C64.4402 266.67 64.3102 267.26 64.1902 267.85C63.9402 269.07 63.7002 270.3 63.4602 271.53C62.9702 274.03 62.6702 276.53 62.2002 279.07C62.2002 279.18 62.3402 279.22 62.3602 279.07C62.9402 276.55 63.6902 274.07 64.2502 271.55C64.5302 270.29 64.8102 269.03 65.0802 267.77L65.4402 265.99C65.5002 265.66 65.5802 265.33 65.6202 264.99L66.3202 264.7C69.7102 263.44 73.4602 262.53 77.0802 263.23C78.7925 263.547 80.3998 264.283 81.7589 265.372C83.1181 266.46 84.1869 267.868 84.8702 269.47C84.9902 269.75 85.4302 269.57 85.3602 269.28C84.6602 266.22 82.0702 263.91 79.2202 262.71Z" fill="#263238"/>
<path d="M59.4207 273.37C59.0607 275.01 58.6907 276.65 58.3307 278.29C57.922 279.861 57.6213 281.458 57.4307 283.07C57.4307 283.14 57.5107 283.14 57.5307 283.07C58.0069 281.494 58.3744 279.887 58.6307 278.26C58.9507 276.64 59.2707 275.02 59.5807 273.4C59.6007 273.31 59.4407 273.27 59.4207 273.37Z" fill="#263238"/>
<path d="M46.9102 277.54C45.2602 278.37 43.6702 279.32 41.9102 280.01C41.9003 280.014 41.8913 280.02 41.8837 280.027C41.8761 280.034 41.8701 280.043 41.8659 280.053C41.8617 280.063 41.8595 280.073 41.8594 280.084C41.8593 280.094 41.8612 280.105 41.8652 280.115C41.8691 280.125 41.8749 280.134 41.8823 280.141C41.8898 280.149 41.8986 280.155 41.9083 280.159C41.9181 280.163 41.9286 280.165 41.9392 280.166C41.9498 280.166 41.9603 280.164 41.9702 280.16C43.6916 279.397 45.3707 278.543 47.0002 277.6C47.0002 277.6 47.0002 277.52 46.9102 277.54Z" fill="#263238"/>
<path d="M78.6105 244.52C78.6105 244.52 62.8005 245.52 55.4405 235.11C48.0805 224.7 49.7405 209.79 49.7405 209.79C49.7405 209.79 66.3505 211.79 72.9405 219.3C79.5305 226.81 78.6105 244.52 78.6105 244.52Z" fill="#0B7D77"/>
<path d="M85.9999 260.12C85.4499 258.43 84.7699 256.76 84.1299 255.12C83.4899 253.48 82.8599 251.94 82.1299 250.38C80.7219 247.194 79.1429 244.086 77.3999 241.07C76.2799 239.15 75.0799 237.28 73.8499 235.44C73.8499 235.16 73.7699 234.88 73.7299 234.6C73.6599 234.11 73.5899 233.6 73.5099 233.13C73.3499 232.13 73.1799 231.13 73.0099 230.13C72.6499 227.94 72.1999 225.77 71.8499 223.59C71.8499 223.49 71.6699 223.49 71.6899 223.59C71.9999 225.75 72.2199 227.92 72.5199 230.08C72.6699 231.14 72.8099 232.2 72.9699 233.26L73.1499 234.41C70.7386 230.881 68.1276 227.492 65.3299 224.26L64.2399 223C64.2399 222.88 64.1399 222.76 64.0899 222.64C63.9699 222.34 63.8599 222.04 63.7499 221.73C63.5099 221.11 63.2899 220.48 63.0599 219.85C62.6199 218.61 62.2199 217.36 61.8799 216.09C61.8799 215.99 61.6999 216.04 61.7299 216.09C62.0499 217.39 62.3799 218.68 62.7299 219.96C62.9199 220.58 63.1199 221.19 63.3399 221.8C63.3399 221.9 63.4099 222 63.4499 222.1C61.4499 219.9 59.3199 217.78 57.1899 215.68C57.1199 215.61 57.0099 215.68 57.0799 215.8C61.1651 220.075 64.9098 224.662 68.2799 229.52C67.8964 229.399 67.5056 229.302 67.1099 229.23C65.8899 228.99 64.6699 228.82 63.4399 228.66C60.8599 228.33 58.2899 228.01 55.7299 227.6C55.6199 227.6 55.5799 227.74 55.7299 227.76C58.1799 228.24 60.5999 228.76 63.0399 229.36C64.1899 229.62 65.3399 229.84 66.4899 230.07C67.4332 230.271 68.3619 230.535 69.2699 230.86C69.5199 231.23 69.7899 231.59 70.0399 231.96C71.1999 233.64 72.3099 235.37 73.3999 237.1L71.7899 236.79C70.5699 236.55 69.3399 236.33 68.1199 236.13C65.7099 235.73 63.2899 235.31 60.9099 234.77C60.8099 234.77 60.7699 234.91 60.9099 234.93C63.3299 235.5 65.7199 236.16 68.1199 236.8C69.2799 237.11 70.4499 237.39 71.6199 237.65L73.3699 238.03C73.6057 238.092 73.8467 238.132 74.0899 238.15C76.3999 241.89 78.5599 245.73 80.5699 249.64C81.4499 251.36 82.2999 253.1 83.1199 254.84C83.9399 256.58 84.6899 258.47 85.4699 260.29C85.5799 260.67 86.1499 260.52 85.9999 260.12Z" fill="#263238"/>
<path d="M69.8403 223.79C69.5403 222.28 69.2203 220.79 68.8403 219.27C68.8403 219.17 68.6603 219.22 68.6803 219.27C68.9803 220.75 69.2703 222.27 69.5403 223.72C69.7609 225.211 70.0579 226.69 70.4303 228.15C70.3359 226.685 70.1388 225.228 69.8403 223.79V223.79Z" fill="#263238"/>
<path d="M60.6206 223.35C59.8906 222.98 59.1105 222.69 58.3505 222.35L57.1506 221.88L56.5406 221.64C56.3069 221.565 56.0822 221.464 55.8706 221.34C55.7506 221.26 55.6806 221.46 55.8006 221.48C56.0351 221.544 56.2603 221.638 56.4706 221.76L57.0706 222.03L58.2306 222.54C58.9883 222.896 59.7663 223.206 60.5606 223.47C60.6506 223.54 60.7106 223.39 60.6206 223.35Z" fill="#263238"/>
<path d="M94.79 232.09C94.79 232.09 104.36 214.22 118.91 211.45C133.46 208.68 142.38 223.66 142.38 223.66C142.38 223.66 131.76 237.22 118.38 239.59C105 241.96 94.79 232.09 94.79 232.09Z" fill="#0B7D77"/>
<path d="M128.671 219.46C124.878 218.946 121.03 218.993 117.251 219.6L117.901 219.25L121.131 217.59C123.35 216.363 125.629 215.248 127.961 214.25C128.071 214.2 127.961 214.05 127.901 214.1C125.621 215.16 123.261 216.1 120.981 217.1C119.831 217.62 118.711 218.17 117.601 218.76C116.881 219.14 116.091 219.5 115.381 219.96C112.183 220.601 109.077 221.632 106.131 223.03L107.951 221.03C109.301 219.54 110.641 217.98 112.131 216.63C112.211 216.56 112.131 216.45 112.011 216.52C110.491 217.9 108.881 219.18 107.401 220.62C106.691 221.32 106.001 222.04 105.331 222.79C105.001 223.16 104.661 223.54 104.331 223.94C99.3316 226.616 94.9882 230.368 91.6129 234.924C88.2377 239.48 85.9145 244.728 84.8105 250.29C84.8105 250.39 84.9406 250.44 84.9706 250.34C87.0206 243.527 90.6922 237.313 95.6705 232.23C101.036 226.782 107.784 222.9 115.191 221C119.584 219.88 124.128 219.469 128.651 219.78C128.693 219.783 128.735 219.768 128.767 219.74C128.798 219.712 128.818 219.672 128.821 219.63C128.823 219.587 128.809 219.546 128.781 219.514C128.753 219.482 128.713 219.463 128.671 219.46V219.46Z" fill="#263238"/>
<path opacity="0.1" d="M142.381 223.66C142.381 223.66 131.761 237.22 118.381 239.59C108.191 241.39 99.8106 236.08 96.3806 233.46L95.6406 232.25C95.6406 232.25 102.531 226.45 115.571 223.1C128.611 219.75 142.381 223.66 142.381 223.66Z" fill="black"/>
<path d="M120.21 213.09C119.096 213.741 118.018 214.452 116.98 215.22C115.969 215.991 115.028 216.851 114.17 217.79C114.159 217.808 114.154 217.829 114.157 217.85C114.16 217.87 114.17 217.89 114.185 217.904C114.201 217.918 114.221 217.926 114.242 217.928C114.262 217.929 114.283 217.922 114.3 217.91C115.3 217.07 116.23 216.23 117.24 215.44C118.213 214.64 119.235 213.902 120.3 213.23C120.309 213.224 120.317 213.216 120.323 213.207C120.33 213.198 120.334 213.188 120.336 213.178C120.339 213.167 120.339 213.156 120.337 213.145C120.335 213.134 120.331 213.124 120.325 213.115C120.319 213.106 120.311 213.098 120.302 213.092C120.293 213.085 120.283 213.081 120.273 213.079C120.262 213.076 120.251 213.076 120.24 213.078C120.229 213.08 120.219 213.084 120.21 213.09V213.09Z" fill="#263238"/>
<path d="M128.201 216.11C127.661 216.34 127.111 216.53 126.571 216.76L124.951 217.43C124.841 217.43 124.891 217.67 125.011 217.62L126.631 216.96C127.181 216.74 127.711 216.49 128.251 216.27C128.351 216.23 128.301 216.07 128.201 216.11Z" fill="#263238"/>
<path d="M92.8799 254.58C92.8799 254.58 95.4399 272.31 108.77 278.51C122.1 284.71 138.35 278.51 138.35 278.51C138.35 278.51 132 240.16 92.8799 254.58Z" fill="#0B7D77"/>
<path d="M129.16 267C127.94 266.86 126.71 266.65 125.5 266.43L123.7 266.09L122.77 265.9C122.41 265.57 122.06 265.23 121.69 264.9C119.158 262.682 116.426 260.704 113.53 258.99C111.955 258.056 110.325 257.218 108.65 256.48H108.9L113.29 256.67C116.21 256.81 119.14 256.87 122.06 257.06C122.17 257.06 122.16 256.91 122.06 256.9C119.12 256.7 116.2 256.38 113.27 256.13L109.01 255.75L106.81 255.56L106.25 255.5C105.49 255.21 104.73 254.94 103.95 254.7C100.316 253.453 96.4081 253.238 92.6599 254.08C89.3099 254.94 85.9598 257.14 85.0898 260.67C85.0898 260.79 85.2499 260.88 85.2999 260.76C86.5499 257.76 89.8298 256.31 92.7898 255.7C94.769 255.324 96.7972 255.284 98.7898 255.58C98.9243 256.493 99.1487 257.391 99.4598 258.26C99.8298 259.51 100.19 260.76 100.57 262C101.33 264.49 102.16 267 102.9 269.45C102.9 269.471 102.908 269.491 102.923 269.506C102.938 269.521 102.959 269.53 102.98 269.53C103.001 269.53 103.021 269.521 103.036 269.506C103.051 269.491 103.06 269.471 103.06 269.45C102.44 266.96 101.91 264.45 101.31 261.95C101.02 260.73 100.71 259.51 100.41 258.29C100.236 257.438 100.012 256.596 99.7398 255.77C100.908 255.974 102.063 256.244 103.2 256.58C105.245 257.192 107.249 257.934 109.2 258.8C109.39 260.06 109.68 261.31 109.97 262.56C110.33 264.12 110.74 265.67 111.23 267.2C111.236 267.215 111.246 267.228 111.259 267.238C111.273 267.247 111.289 267.252 111.305 267.252C111.321 267.252 111.337 267.247 111.351 267.238C111.364 267.228 111.374 267.215 111.38 267.2L111.32 266.91C111.02 265.46 110.7 264.01 110.39 262.56C110.15 261.39 109.92 260.22 109.67 259.06C111.33 259.798 112.952 260.619 114.53 261.52C114.53 261.88 114.65 262.25 114.7 262.58C114.8 263.18 114.91 263.79 115.02 264.4C115.27 265.76 115.54 267.13 115.87 268.48C116.473 271.095 117.238 273.67 118.16 276.19C118.148 276.204 118.142 276.222 118.142 276.24C118.142 276.258 118.148 276.276 118.16 276.29L118.24 276.38C118.3 276.45 118.39 276.38 118.37 276.3C117.76 273.67 117.05 271.06 116.47 268.43C116.19 267.11 115.9 265.79 115.63 264.43C115.5 263.77 115.38 263.11 115.25 262.43L115.16 261.84C116.955 262.892 118.688 264.047 120.35 265.3C123.227 267.455 125.89 269.883 128.3 272.55C128.39 272.66 128.58 272.55 128.49 272.39C127.5 271.046 126.442 269.755 125.32 268.52C124.65 267.8 123.95 267.1 123.24 266.42H123.46C124.09 266.53 124.71 266.62 125.34 266.7C126.57 266.87 127.81 266.99 129.05 267.13C129.23 267.15 129.27 267 129.16 267Z" fill="#263238"/>
<path d="M119.8 273C119.8 272.85 119.8 272.69 119.72 272.54C119.64 272.39 119.59 272.16 119.56 271.96C119.29 270.77 119.06 269.58 118.84 268.38C118.84 268.3 118.7 268.32 118.7 268.38C118.781 269.967 119.119 271.531 119.7 273.01C119.7 273.06 119.81 273.01 119.8 273.01V273Z" fill="#263238"/>
<path d="M108.64 272.71C108.64 272.71 108.64 272.63 108.56 272.63C108.18 271.06 107.82 269.49 107.5 267.91C107.33 267.08 107.16 266.25 107 265.42C106.91 264.97 106.83 264.52 106.75 264.07C106.715 263.674 106.617 263.285 106.46 262.92C106.455 262.905 106.444 262.891 106.431 262.882C106.418 262.873 106.402 262.868 106.385 262.868C106.369 262.868 106.353 262.873 106.34 262.882C106.326 262.891 106.316 262.905 106.31 262.92C106.3 263.726 106.414 264.529 106.65 265.3C106.81 266.16 106.98 267.03 107.17 267.89C107.56 269.64 107.99 271.38 108.49 273.1C108.496 273.118 108.508 273.133 108.523 273.144C108.538 273.154 108.557 273.16 108.575 273.16C108.594 273.16 108.612 273.154 108.627 273.144C108.643 273.133 108.654 273.118 108.66 273.1L108.64 272.71Z" fill="#263238"/>
<path d="M128 261.87C125.56 261.54 123.13 261.19 120.69 260.87C120.59 260.87 120.55 261.02 120.69 261.03C123.12 261.39 125.56 261.69 128 262.03C128 262.05 128.05 261.89 128 261.87Z" fill="#263238"/>
<path d="M86.0507 213C86.0507 213 77.8907 177.22 116.341 162.73C116.341 162.73 127.001 209.84 86.0507 213Z" fill="#0B7D77"/>
<path d="M94.3506 192.71L94.7606 192.46L96.9406 191.24L101.401 188.75C104.331 187.1 107.231 185.4 110.181 183.75C110.281 183.75 110.181 183.56 110.101 183.61C107.101 185.22 104.101 186.73 101.151 188.3L96.7406 190.63L94.9406 191.63C96.2206 189.2 97.5906 186.82 99.1006 184.52C101.101 181.45 103.311 178.52 105.601 175.68C105.624 175.655 105.637 175.621 105.636 175.586C105.635 175.552 105.621 175.519 105.596 175.495C105.57 175.471 105.537 175.458 105.502 175.459C105.467 175.46 105.434 175.475 105.411 175.5C102.034 178.776 99.0508 182.434 96.5206 186.4C96.5206 186.27 96.5206 186.14 96.5206 186.02C96.5206 185.13 96.5906 184.24 96.6006 183.35C96.6006 181.6 96.5406 179.85 96.6006 178.11C96.6006 178 96.4406 178.01 96.4306 178.11C96.3606 179.83 96.1506 181.55 96.0506 183.27C96.0506 184.12 95.9706 184.98 95.9406 185.84C95.9406 186.3 95.9406 186.84 95.9406 187.34C95.1539 188.6 94.3973 189.877 93.6706 191.17C92.3819 193.503 91.2332 195.91 90.2306 198.38C90.2306 197.49 90.1406 196.6 90.0906 195.71C89.9706 193.71 89.7406 191.8 89.6506 189.84C89.6506 189.819 89.6422 189.798 89.6272 189.783C89.6122 189.768 89.5918 189.76 89.5706 189.76C89.5494 189.76 89.529 189.768 89.514 189.783C89.499 189.798 89.4906 189.819 89.4906 189.84C89.4906 191.84 89.4906 193.76 89.4906 195.72C89.4906 196.72 89.5506 197.72 89.6106 198.66C89.6106 199.02 89.6106 199.39 89.6806 199.75C88.458 202.949 87.4884 206.239 86.7806 209.59C86.1136 213.165 85.6363 216.774 85.3506 220.4C85.3506 220.4 85.3506 220.4 85.3506 220.4C85.7381 217.138 86.4073 213.916 87.3506 210.77C87.8206 209.08 88.3506 207.4 88.8706 205.77C90.4706 205.02 92.0006 204.08 93.5406 203.22L98.3706 200.58C101.581 198.82 104.781 197.03 108.091 195.48C108.181 195.48 108.091 195.29 108.001 195.34C104.651 196.85 101.271 198.34 98.0006 199.95C96.3606 200.78 94.7506 201.66 93.1506 202.56C91.8206 203.31 90.4406 204.06 89.1506 204.93C89.5206 203.81 89.9106 202.7 90.3406 201.61C91.5205 198.575 92.859 195.604 94.3506 192.71V192.71Z" fill="#263238"/>
<path d="M91.1104 184.52C91.1043 184.502 91.0928 184.487 91.0776 184.476C91.0623 184.465 91.0441 184.459 91.0254 184.459C91.0067 184.459 90.9885 184.465 90.9733 184.476C90.9581 184.487 90.9466 184.502 90.9404 184.52C91.0804 186.52 91.1504 188.6 91.3704 190.64C91.3704 190.664 91.3799 190.687 91.3968 190.704C91.4137 190.72 91.4366 190.73 91.4604 190.73C91.4843 190.73 91.5072 190.72 91.5241 190.704C91.5409 190.687 91.5504 190.664 91.5504 190.64C91.4804 188.6 91.2604 186.57 91.1104 184.52Z" fill="#263238"/>
<path d="M109.54 191.36C107.14 192.36 104.71 193.25 102.31 194.25C102.25 194.25 102.31 194.39 102.31 194.36C104.74 193.45 107.13 192.46 109.55 191.52C109.69 191.48 109.64 191.32 109.54 191.36Z" fill="#263238"/>
<path d="M113.2 174.85C110.846 175.93 108.562 177.156 106.36 178.52C106.344 178.537 106.335 178.56 106.333 178.583C106.33 178.607 106.336 178.631 106.348 178.651C106.361 178.671 106.379 178.687 106.401 178.696C106.423 178.704 106.447 178.706 106.47 178.7C108.7 177.39 110.97 176.14 113.28 174.99C113.38 175 113.29 174.81 113.2 174.85Z" fill="#263238"/>
<path d="M112.61 290.39H57.1602V348.84H112.61V290.39Z" fill="#455A64"/>
<path d="M56.1906 311.08H53.3506V411.2H56.1906V311.08Z" fill="#263238"/>
<path d="M116.14 311.08H113.3V411.2H116.14V311.08Z" fill="#263238"/>
<path d="M87.6701 311.08H84.8301V411.2H87.6701V311.08Z" fill="#263238"/>
<path d="M114.721 345.1H54.7705V353.19H114.721V345.1Z" fill="#263238"/>
<path d="M335.63 378.5C335.63 378.5 335.63 421.57 335.63 421.6C335.63 429.83 335.56 437.05 335.15 440.78C335.155 440.789 335.158 440.799 335.158 440.81C335.158 440.821 335.155 440.831 335.15 440.84C335.15 441.725 334.944 442.598 334.55 443.39L334.5 443.44C332.06 445.11 266.26 447.37 263.94 446.67C261.62 445.97 263.41 439.31 265.94 437.18C268.47 435.05 293.24 422.93 293.24 422.93L293.65 379.88L335.63 378.5Z" fill="#AD6359"/>
<path d="M335.62 412.75V421.6C335.62 429.83 335.55 437.05 335.14 440.78C335.145 440.789 335.148 440.799 335.148 440.81C335.148 440.821 335.145 440.831 335.14 440.84C335.036 441.71 334.835 442.565 334.54 443.39L334.49 443.44C332.05 445.11 266.25 447.37 263.93 446.67C261.61 445.97 263.4 439.31 265.93 437.18C268.46 435.05 293.23 422.93 293.23 422.93L293.11 413.93L335.62 412.75Z" fill="#C7C7C7"/>
<path d="M263.929 446.67C266.249 447.37 332.049 445.12 334.499 443.44C335.439 442.82 335.669 433.21 335.619 421.6V421.23L293.149 422.23L293.199 422.95C293.199 422.95 268.399 435.08 265.899 437.21C263.399 439.34 261.599 446 263.929 446.67Z" fill="#263238"/>
<path d="M264.58 444.1C275.67 443.44 320.43 441.86 331.43 442.1C331.52 442.1 331.52 442.16 331.43 442.17C320.43 443.05 275.69 444.28 264.59 444.32C264.36 444.28 264.35 444.11 264.58 444.1Z" fill="#455A64"/>
<path d="M289.62 423.18C293.96 422.18 299.32 422.7 302.76 425.7C302.9 425.82 302.76 426 302.59 425.96C298.371 424.759 294.037 424.011 289.66 423.73C289.594 423.723 289.533 423.694 289.487 423.646C289.441 423.599 289.414 423.537 289.409 423.472C289.404 423.406 289.423 423.341 289.461 423.288C289.5 423.234 289.556 423.196 289.62 423.18V423.18Z" fill="#455A64"/>
<path d="M286.54 425.19C290.87 424.19 296.24 424.71 299.68 427.71C299.81 427.82 299.68 428.01 299.5 427.97C295.282 426.767 290.947 426.02 286.57 425.74C286.505 425.732 286.445 425.701 286.4 425.653C286.356 425.605 286.329 425.543 286.326 425.478C286.322 425.412 286.342 425.348 286.381 425.295C286.42 425.243 286.476 425.206 286.54 425.19Z" fill="#455A64"/>
<path d="M283.45 427.19C287.79 426.19 293.15 426.72 296.59 429.71C296.73 429.83 296.59 430.02 296.42 429.98C292.202 428.775 287.867 428.024 283.49 427.74C283.424 427.733 283.363 427.704 283.317 427.656C283.272 427.609 283.244 427.547 283.239 427.482C283.234 427.416 283.253 427.351 283.291 427.297C283.33 427.244 283.386 427.206 283.45 427.19V427.19Z" fill="#455A64"/>
<path d="M339.399 218.83L339.359 221.68L337.749 347.54L337.739 348.02L336.789 423.41L290.729 422.49L299.619 218.98L299.739 216.26L300.189 192.65H339.089L339.399 218.83Z" fill="#455A64"/>
<path d="M292.66 414.81C299.85 414.74 297.78 414.66 304.97 414.68C308.49 414.68 331.62 414.77 334.9 415.35C334.97 415.35 334.97 415.49 334.9 415.5C331.6 416 308.48 415.5 304.96 415.44C297.77 415.29 299.84 415.25 292.65 415.02C292.628 415.012 292.609 414.997 292.596 414.977C292.583 414.958 292.576 414.935 292.577 414.911C292.578 414.888 292.587 414.865 292.602 414.847C292.617 414.829 292.637 414.816 292.66 414.81V414.81Z" fill="#263238"/>
<path d="M313.29 232.07C313.29 232.049 313.281 232.029 313.266 232.014C313.251 231.999 313.231 231.99 313.21 231.99C313.188 231.99 313.168 231.999 313.153 232.014C313.138 232.029 313.13 232.049 313.13 232.07C313.13 244.12 312.64 250.87 312.35 262.91C312.06 274.95 311.71 286.99 311.35 299.02C310.7 323.09 309.73 347.14 308.84 371.2C308.34 384.694 307.716 398.18 306.97 411.66C306.97 411.679 306.977 411.697 306.99 411.71C307.003 411.723 307.021 411.73 307.04 411.73C307.058 411.73 307.076 411.723 307.089 411.71C307.102 411.697 307.11 411.679 307.11 411.66C308.86 387.66 310.53 363.58 311.49 339.51C312.45 315.44 313.13 291.38 313.24 267.31C313.34 253.8 313.26 245.58 313.29 232.07Z" fill="#263238"/>
<path d="M339.39 218.83L337.75 347.54L306.88 192.65H339.08L339.39 218.83Z" fill="#263238"/>
<path d="M387.289 376.17C387.289 376.17 393.089 418.84 393.089 418.87C394.249 427.03 395.089 434.2 395.209 437.95C395.209 437.95 395.209 437.95 395.209 438.01C395.326 438.884 395.244 439.772 394.969 440.61C394.968 440.63 394.968 440.65 394.969 440.67C392.769 442.67 327.869 453.77 325.479 453.39C323.089 453.01 323.969 446.17 326.139 443.72C328.309 441.27 351.269 425.92 351.269 425.92L345.869 383.21L387.289 376.17Z" fill="#AD6359"/>
<path d="M391.899 410.11C391.899 410.11 393.089 418.84 393.089 418.87C394.249 427.03 395.089 434.2 395.209 437.95C395.209 437.95 395.209 437.95 395.209 438.01C395.228 438.883 395.148 439.755 394.969 440.61C394.968 440.63 394.968 440.65 394.969 440.67C392.769 442.67 327.869 453.77 325.479 453.39C323.089 453.01 323.969 446.17 326.139 443.72C328.309 441.27 351.269 425.92 351.269 425.92L349.899 417L391.899 410.11Z" fill="#C7C7C7"/>
<path d="M325.439 453.39C327.839 453.77 392.729 442.66 394.929 440.67C395.779 439.92 394.709 430.38 393.089 418.87L393.029 418.51L351.089 425.21L351.229 425.92C351.229 425.92 328.289 441.28 326.099 443.73C323.909 446.18 322.999 453 325.439 453.39Z" fill="#263238"/>
<path d="M325.739 450.75C336.639 448.61 380.739 441 391.739 439.75C391.829 439.75 391.839 439.8 391.739 439.82C380.989 442.18 336.799 449.43 325.799 450.97C325.539 451 325.509 450.8 325.739 450.75Z" fill="#455A64"/>
<path d="M347.73 426.65C351.9 425.11 357.28 424.87 361.09 427.37C361.24 427.47 361.09 427.68 360.95 427.66C356.609 427.034 352.214 426.876 347.84 427.19C347.774 427.192 347.71 427.17 347.659 427.129C347.608 427.088 347.572 427.03 347.559 426.966C347.546 426.902 347.556 426.835 347.587 426.777C347.619 426.719 347.669 426.674 347.73 426.65Z" fill="#455A64"/>
<path d="M344.94 429.05C349.11 427.51 354.49 427.27 358.3 429.78C358.45 429.87 358.3 430.08 358.16 430.06C353.819 429.438 349.424 429.281 345.05 429.59C344.984 429.591 344.92 429.57 344.869 429.529C344.818 429.488 344.782 429.43 344.769 429.366C344.756 429.302 344.766 429.235 344.797 429.177C344.828 429.119 344.879 429.074 344.94 429.05V429.05Z" fill="#455A64"/>
<path d="M342.16 431.46C346.33 429.92 351.7 429.68 355.52 432.18C355.67 432.28 355.52 432.49 355.38 432.47C351.04 431.839 346.644 431.681 342.27 432C342.204 432.002 342.14 431.98 342.089 431.939C342.037 431.898 342.002 431.84 341.989 431.776C341.976 431.712 341.986 431.645 342.017 431.587C342.048 431.529 342.099 431.485 342.16 431.46Z" fill="#455A64"/>
<path d="M304.149 192.61C304.319 193.41 307.039 206.03 309.859 216.87C311.909 224.79 314.019 231.75 315.229 232.47C316.599 233.28 323.279 236.24 325.519 237.17L335.749 335L349.579 425.58L394.799 418.58L362.619 220.34L357.379 192.61H304.149Z" fill="#455A64"/>
<path d="M349.85 416.49C356.95 415.35 354.85 415.57 362.01 414.49C365.49 413.97 388.37 410.58 391.7 410.67C391.77 410.67 391.79 410.79 391.7 410.81C388.52 411.81 365.58 414.81 362.09 415.25C354.96 416.17 357 415.83 349.86 416.68C349.843 416.671 349.828 416.658 349.818 416.642C349.807 416.625 349.801 416.607 349.8 416.588C349.799 416.568 349.803 416.549 349.812 416.532C349.82 416.515 349.834 416.5 349.85 416.49V416.49Z" fill="#263238"/>
<path d="M376 389.44C374.87 383.16 373.75 376.88 372.59 370.6C370.276 358.04 367.943 345.483 365.59 332.93C360.87 307.803 356.203 282.657 351.59 257.49C349.01 243.29 349.07 244.62 346.82 230.35C346.82 230.26 346.64 230.27 346.66 230.35C348.82 243.03 347.8 240.25 349.84 252.95C351.88 265.65 354.02 278.08 356.27 290.61C360.79 315.8 365.53 340.95 370.32 366.09C371.653 373.143 373.016 380.187 374.41 387.22C375.81 394.4 377.41 401.54 378.89 408.7C378.89 408.86 379.18 408.85 379.15 408.7C378.11 402.29 377.17 395.85 376 389.44Z" fill="#263238"/>
<path d="M363.57 231.29C362.37 230.98 361.08 230.88 359.86 230.69C358.86 230.53 357.86 230.35 356.86 230.14C354.978 229.803 353.195 229.052 351.64 227.94C349.94 226.62 349.07 224.61 348.25 222.68C347.756 221.54 347.256 220.4 346.75 219.26L346 217.61C345.65 216.962 345.34 216.294 345.07 215.61C345.07 215.51 344.88 215.61 344.92 215.61C345.09 216.077 345.23 216.555 345.34 217.04C345.51 217.59 345.66 218.14 345.83 218.69C346.14 219.69 346.44 220.69 346.76 221.69C347.246 223.494 347.948 225.233 348.85 226.87C350.67 229.75 353.91 230.92 357.15 231.33C358.08 231.44 359.02 231.51 359.96 231.56C361.137 231.665 362.322 231.665 363.5 231.56C363.527 231.553 363.552 231.538 363.572 231.518C363.592 231.498 363.606 231.473 363.614 231.445C363.621 231.418 363.62 231.389 363.613 231.362C363.605 231.334 363.59 231.31 363.57 231.29V231.29Z" fill="#263238"/>
<path d="M311.68 230.74C316.449 232.472 321.057 234.621 325.45 237.16C325.487 237.177 325.515 237.208 325.529 237.247C325.544 237.285 325.542 237.328 325.525 237.365C325.507 237.402 325.476 237.431 325.438 237.445C325.399 237.459 325.357 237.457 325.32 237.44C320.68 235.44 315.95 233.54 311.43 231.3C311.367 231.26 311.321 231.199 311.299 231.128C311.278 231.057 311.283 230.98 311.313 230.912C311.343 230.844 311.397 230.79 311.464 230.758C311.532 230.726 311.608 230.72 311.68 230.74V230.74Z" fill="#263238"/>
<path d="M310.28 199C310.28 198.84 310.58 198.8 310.58 199C310.576 204.177 310.837 209.35 311.36 214.5C311.57 216.89 313.49 230.09 317.64 229.13C318.33 228.97 318.64 228.28 318.79 227.24C318.775 225.873 318.59 224.512 318.24 223.19C317.78 220.42 317.41 217.65 317.18 214.86C316.691 209.662 316.748 204.427 317.35 199.24C317.35 199.206 317.363 199.173 317.388 199.148C317.412 199.124 317.445 199.11 317.48 199.11C317.514 199.11 317.547 199.124 317.572 199.148C317.596 199.173 317.61 199.206 317.61 199.24C317.494 206.451 317.915 213.661 318.87 220.81C319.39 224.24 321.12 229.41 317.53 229.94C313.94 230.47 311.53 221.82 311.06 219.45C309.914 212.696 309.652 205.822 310.28 199V199Z" fill="#263238"/>
<path d="M317.53 229.43C317.895 230.324 318.206 231.239 318.46 232.17C318.727 232.89 318.86 233.653 318.85 234.42C318.844 234.451 318.829 234.48 318.807 234.503C318.785 234.526 318.756 234.541 318.725 234.548C318.694 234.554 318.662 234.551 318.632 234.539C318.603 234.527 318.578 234.507 318.56 234.48C318.114 233.807 317.776 233.068 317.56 232.29C317.24 231.45 316.91 230.6 316.62 229.75C316.578 229.63 316.585 229.497 316.64 229.382C316.696 229.266 316.794 229.178 316.915 229.135C317.036 229.093 317.168 229.1 317.284 229.155C317.399 229.211 317.488 229.31 317.53 229.43V229.43Z" fill="#263238"/>
<path d="M363.09 223.25C357.61 222.89 299.74 216.25 299.74 216.25L300.19 192.64H304.19H357.42L362.66 220.37L363.09 223.25Z" fill="#263238"/>
<path d="M322.56 138.42C315.94 159.14 304.73 180.53 301.49 184.74C292.8 196.06 266.69 207.21 258.72 208.65C255.27 209.27 247 187.02 249.14 183.96C251.28 180.9 283.73 168.5 285.32 166.85C286.42 165.7 300.11 148.06 309.32 137.42C320.83 124.19 324.3 133 322.56 138.42Z" fill="#AD6359"/>
<path d="M256.069 179.64L268.889 205.64C268.889 205.64 296.139 193.83 302.629 185.4C309.119 176.97 320.879 148.4 322.629 139.3C324.379 130.2 321.359 123.7 309.169 137C296.979 150.3 286.879 163.55 284.699 165.77C282.519 167.99 256.069 179.64 256.069 179.64Z" fill="#EBEBEB"/>
<path d="M257.149 178.32L272.509 205.26C272.509 205.26 296.509 193.79 302.629 186.26C308.749 178.73 318.839 155.61 321.999 143.13C325.159 130.65 323.309 121.8 309.179 137.07C295.049 152.34 287.059 163.43 284.179 165.92C282.809 167 257.149 178.32 257.149 178.32Z" fill="#37474F"/>
<path d="M263.62 180.81C264.399 180.81 265.03 180.179 265.03 179.4C265.03 178.622 264.399 177.99 263.62 177.99C262.841 177.99 262.21 178.622 262.21 179.4C262.21 180.179 262.841 180.81 263.62 180.81Z" fill="#263238"/>
<path d="M270.269 177.75C271.048 177.75 271.679 177.119 271.679 176.34C271.679 175.561 271.048 174.93 270.269 174.93C269.491 174.93 268.859 175.561 268.859 176.34C268.859 177.119 269.491 177.75 270.269 177.75Z" fill="#263238"/>
<path d="M321.999 143.09C318.839 155.57 308.759 178.65 302.629 186.22C300.009 189.45 294.149 193.39 288.279 196.85L319.209 129.11C323.999 127.81 324.149 134.61 321.999 143.09Z" fill="#263238"/>
<path d="M366.11 213.34C365.95 213.52 296.77 213.73 296.11 213.02C295.22 212.02 310.85 137.02 317.95 127.81C319.46 125.81 324.47 125.28 328.73 125.81C329.841 125.935 330.938 126.16 332.01 126.48H332.13C332.994 126.735 333.809 127.134 334.54 127.66C346.38 137.12 356.36 170.19 358.69 180.12C362.59 196.51 366.68 212.69 366.11 213.34Z" fill="#EBEBEB"/>
<path d="M334.339 126.78C334.339 126.78 328.709 157.48 327.729 165.46C326.749 173.44 328.189 215.59 328.189 215.59L371.629 218.8C371.629 218.8 362.239 190.9 362.129 189.13C362.129 189.13 354.329 155.71 347.019 141.75C343.826 135.969 339.516 130.88 334.339 126.78V126.78Z" fill="#37474F"/>
<path d="M371.63 218.8L351.93 217.34L337.87 129.87V129.93L346.69 141.23C346.79 141.41 346.89 141.59 346.98 141.77C354.29 155.77 362.09 189.15 362.09 189.15C362.24 190.9 371.63 218.8 371.63 218.8Z" fill="#263238"/>
<path d="M317.529 127.45C317.529 127.45 312.919 158.54 312.419 161.11C311.919 163.68 304.939 214.38 304.939 214.38L294.069 214.72L299.739 191.54C299.739 191.54 312.349 134.07 317.529 127.45Z" fill="#37474F"/>
<path d="M323.879 144.51L320.799 138.51L316.819 142.85L317.799 147.17L321.719 147.68L323.879 144.51Z" fill="#263238"/>
<path d="M321.719 147.68L323.599 191.82L315.329 206.42L311.029 189.99L317.799 147.17L321.719 147.68Z" fill="#263238"/>
<path d="M319.987 269.675L319.933 321.515L405.493 321.605L405.547 269.765L319.987 269.675Z" fill="#0B7D77"/>
<path opacity="0.1" d="M319.983 269.681L319.957 294.091L405.517 294.18L405.543 269.77L319.983 269.681Z" fill="black"/>
<path d="M317.945 286.233L407.555 286.327L407.58 262.137L317.97 262.043L317.945 286.233Z" fill="#0B7D77"/>
<path d="M343.919 248.28L343.899 262.07L350.389 262.08L350.399 254.23L375.149 254.26L375.139 262.11H381.629L381.639 248.31L343.919 248.28Z" fill="#263238"/>
<path d="M389.404 292.076L395.244 292.083L395.256 280.523L389.416 280.516L389.404 292.076Z" fill="#263238"/>
<path d="M330.233 292.028L336.073 292.034L336.085 280.474L330.245 280.468L330.233 292.028Z" fill="#263238"/>
<path d="M343.899 136C363.199 153.51 375.449 178.52 376.279 183.57C378.279 195.78 380.809 217.18 380.379 226.57C380.219 230.05 353.849 225.83 353.899 222.11C354.069 210.47 352.519 184.87 352.449 184.42C351.979 181.29 346.239 167.22 340.449 151.96C334.659 136.7 335.779 128.65 343.899 136Z" fill="#AD6359"/>
<path d="M351.12 258.59C351.889 258.94 352.747 259.046 353.578 258.894C354.409 258.742 355.174 258.339 355.77 257.74C356.522 258.962 357.679 259.882 359.04 260.34C361.47 261.04 363.63 257.53 363.63 257.53C364.677 258.636 366.032 259.402 367.52 259.73C369.91 260.16 372.6 256.93 372.6 256.93C374.12 257.409 375.761 257.331 377.23 256.71C379.72 255.54 381.83 248.4 382.35 244.29C382.87 240.18 380.48 228.03 380.26 225.67L353.9 222.13C353.9 222.13 346.34 239.91 346.42 244.83C346.49 249 348.22 257.15 351.12 258.59Z" fill="#AD6359"/>
<path d="M355.37 257.5C354.24 253.11 354.47 248.62 354.45 244.14C354.45 244.119 354.459 244.098 354.474 244.083C354.489 244.068 354.509 244.06 354.53 244.06C354.551 244.06 354.572 244.068 354.587 244.083C354.602 244.098 354.61 244.119 354.61 244.14C354.61 248.6 355.43 253.01 355.61 257.47C355.614 257.502 355.605 257.534 355.586 257.559C355.566 257.585 355.537 257.601 355.505 257.605C355.473 257.609 355.441 257.6 355.416 257.581C355.391 257.561 355.374 257.532 355.37 257.5Z" fill="#263238"/>
<path d="M363.3 257.4C363.138 256.378 363.111 255.339 363.22 254.31C363.22 253.22 363.34 252.12 363.43 251.03C363.603 248.843 363.826 246.663 364.1 244.49C364.1 244.39 364.26 244.39 364.25 244.49C364.09 246.67 363.96 248.85 363.88 251.03C363.88 252.13 363.82 253.22 363.8 254.31C363.843 255.344 363.776 256.38 363.6 257.4C363.588 257.431 363.568 257.457 363.541 257.476C363.514 257.494 363.482 257.504 363.45 257.504C363.417 257.504 363.385 257.494 363.358 257.476C363.331 257.457 363.311 257.431 363.3 257.4V257.4Z" fill="#263238"/>
<path d="M372.6 256.84C372.472 255.912 372.499 254.969 372.68 254.05C372.78 253.05 372.87 252.05 372.96 251.05C373.14 249.05 373.31 247.05 373.41 245.05C373.41 244.95 373.57 244.95 373.57 245.05C373.47 247.05 373.4 249.11 373.29 251.14L373.11 254.14C373.131 255.054 372.992 255.964 372.7 256.83C372.695 256.839 372.689 256.847 372.68 256.852C372.672 256.858 372.663 256.861 372.653 256.862C372.643 256.863 372.633 256.862 372.624 256.858C372.614 256.854 372.606 256.848 372.6 256.84Z" fill="#263238"/>
<path d="M352.61 222.25L381.84 223.83C381.84 223.83 379.68 191.83 377.36 182.94C375.04 174.05 355.24 144.42 343.55 133.68C332.55 123.57 332.55 131.98 336.72 143.83C340.89 155.68 351.21 184.32 351.56 186.41C351.91 188.5 352.61 222.25 352.61 222.25Z" fill="#37474F"/>
<path d="M353.92 216.35C355.04 216.25 356.17 216.35 357.29 216.35C358.41 216.35 359.53 216.4 360.65 216.45C362.81 216.54 364.97 216.67 367.13 216.81L373.6 217.24C375.83 217.39 378.11 217.43 380.32 217.76C380.335 217.766 380.349 217.776 380.358 217.789C380.367 217.803 380.372 217.819 380.372 217.835C380.372 217.851 380.367 217.867 380.358 217.881C380.349 217.894 380.335 217.904 380.32 217.91C378.09 218 375.82 217.8 373.59 217.72L366.99 217.45C364.79 217.35 362.59 217.24 360.39 217.1C359.31 217.04 358.23 216.96 357.16 216.84C356.09 216.72 354.97 216.71 353.91 216.5C353.81 216.48 353.84 216.36 353.92 216.35Z" fill="#263238"/>
<path d="M321.839 137.71C322.979 137.66 330.549 131.71 332.839 127.13C332.999 126.81 332.409 123.55 331.889 119.56C331.579 117.14 331.289 114.43 331.209 111.94C331.209 111.43 329.489 112.43 329.489 112.43L326.289 113.31L315.729 116.25C316.724 119.333 317.336 122.527 317.549 125.76C317.561 126.095 317.538 126.43 317.479 126.76C317.484 126.816 317.484 126.873 317.479 126.93C317.249 128.9 319.999 137.78 321.839 137.71Z" fill="#AD6359"/>
<path d="M317.52 126.78C317.524 126.837 317.524 126.894 317.52 126.95C318.055 127.001 318.595 127.001 319.13 126.95C329.63 126.37 330.5 112.95 330.5 112.95L326.35 113.27L315.79 116.21C316.785 119.293 317.396 122.488 317.61 125.72C317.619 126.076 317.589 126.431 317.52 126.78Z" fill="#263238"/>
<path d="M330.819 90.8399C333.339 96.0499 332.919 112.31 329.569 116.44C324.729 122.44 315.569 124.35 310.169 118.24C304.939 112.33 305.869 91.1499 309.719 87.2399C315.389 81.5599 327.099 83.1399 330.819 90.8399Z" fill="#AD6359"/>
<path d="M316.88 102.7C316.88 102.7 316.96 102.7 316.96 102.8C316.9 103.89 317.02 105.16 317.96 105.54C317.96 105.54 317.96 105.61 317.96 105.6C316.79 105.41 316.65 103.73 316.88 102.7Z" fill="#263238"/>
<path d="M317.88 101.58C319.64 101.48 319.71 105.02 318.07 105.11C316.43 105.2 316.4 101.66 317.88 101.58Z" fill="#263238"/>
<path d="M310.539 103C310.539 103 310.459 103.05 310.459 103.1C310.509 104.19 310.389 105.46 309.399 105.84V105.9C310.619 105.7 310.769 104 310.539 103Z" fill="#263238"/>
<path d="M309.54 101.86C307.78 101.76 307.7 105.3 309.34 105.39C310.98 105.48 311 102 309.54 101.86Z" fill="#263238"/>
<path d="M319.249 99.94C318.759 99.82 318.329 99.64 317.869 99.48C317.359 99.3892 316.893 99.1284 316.549 98.74C316.464 98.5995 316.428 98.4342 316.448 98.2708C316.468 98.1074 316.542 97.9556 316.659 97.84C316.921 97.6395 317.231 97.5124 317.558 97.472C317.885 97.4316 318.217 97.4792 318.519 97.61C319.174 97.783 319.74 98.1928 320.109 98.76C320.186 98.8939 320.222 99.0472 320.214 99.2013C320.205 99.3554 320.153 99.5038 320.062 99.6285C319.971 99.7532 319.846 99.849 319.702 99.9042C319.557 99.9595 319.4 99.9719 319.249 99.94V99.94Z" fill="#263238"/>
<path d="M308.14 100.11C308.614 100.006 309.081 99.8755 309.54 99.7199C310.051 99.6487 310.525 99.4135 310.89 99.0499C310.983 98.9133 311.028 98.7494 311.017 98.5845C311.006 98.4196 310.94 98.263 310.83 98.1399C310.579 97.9254 310.275 97.7824 309.949 97.7261C309.624 97.6698 309.289 97.7022 308.98 97.8199C308.319 97.9596 307.734 98.3412 307.34 98.8899C307.257 99.0198 307.214 99.1709 307.215 99.325C307.216 99.4791 307.261 99.6296 307.346 99.7584C307.43 99.8873 307.55 99.989 307.691 100.051C307.832 100.114 307.988 100.134 308.14 100.11Z" fill="#263238"/>
<path d="M313.55 110.94C314.019 111.535 314.636 111.997 315.34 112.28C315.727 112.425 316.15 112.446 316.55 112.34C317.43 112.09 317.43 111.34 317.26 110.6C317.162 110.252 317.024 109.917 316.85 109.6C315.92 110.386 314.764 110.855 313.55 110.94Z" fill="#263238"/>
<path d="M315.34 112.28C315.727 112.425 316.15 112.446 316.55 112.34C317.43 112.09 317.43 111.34 317.26 110.6C316.799 110.627 316.36 110.807 316.012 111.111C315.664 111.415 315.428 111.827 315.34 112.28V112.28Z" fill="#FF9ABB"/>
<path d="M307.479 92.68C308.049 91.28 308.719 89.87 309.549 89.57C310.379 89.27 310.969 91.31 312.879 91.4C315.449 91.53 316.649 89.15 320.239 88.83C325.389 88.37 327.739 92.64 328.009 99.96C328.239 106.49 332.209 107.03 332.209 107.03C332.209 107.03 334.329 92.57 330.209 87.87C326.089 83.17 316.689 81.24 310.509 85.87C308.219 87.62 307.479 92.68 307.479 92.68Z" fill="#263238"/>
<path d="M328.86 104.52C328.86 104.52 331.75 98.9098 334.25 99.8698C336.75 100.83 335.06 108.63 332.46 110.02C332.139 110.22 331.781 110.353 331.408 110.411C331.034 110.469 330.653 110.45 330.286 110.357C329.92 110.263 329.577 110.097 329.276 109.867C328.976 109.637 328.726 109.349 328.54 109.02L328.86 104.52Z" fill="#AD6359"/>
<path d="M333.71 102.1C333.71 102.1 333.77 102.15 333.71 102.17C331.9 103.17 331.13 105.11 330.71 107.05C330.794 106.842 330.922 106.655 331.087 106.502C331.251 106.349 331.446 106.234 331.66 106.164C331.873 106.094 332.099 106.072 332.322 106.099C332.545 106.126 332.759 106.202 332.95 106.32C333 106.32 332.95 106.43 332.95 106.43C332.598 106.368 332.237 106.416 331.914 106.568C331.592 106.721 331.324 106.969 331.15 107.28C330.857 107.8 330.622 108.35 330.45 108.92C330.39 109.11 330.06 109.06 330.1 108.85C329.68 106.37 331.12 102.7 333.71 102.1Z" fill="#263238"/>
<path d="M317.469 127.16L321.239 136.42L332.679 124.72L335.939 128.46C335.939 128.46 324.759 147 324.689 146.19L320.869 138.25L315.399 143.79L315.809 129.9L317.469 127.16Z" fill="#EBEBEB"/>
<path d="M315.21 136.92C315.36 134.63 315.44 132.31 315.69 130.03C315.69 129.95 315.83 129.92 315.85 130.03C316.31 132.24 315.71 141.03 315.72 143.1C315.95 142.86 320.79 138.23 320.84 138.3C321.67 139.56 324.47 145.3 324.66 145.87C326.43 142.92 333.2 132.2 335.3 129.41C335.312 129.399 335.329 129.392 335.345 129.391C335.362 129.39 335.379 129.394 335.394 129.402C335.408 129.411 335.42 129.425 335.426 129.441C335.433 129.456 335.434 129.474 335.43 129.49C333.9 132.55 324.94 147 324.8 147C323.325 144.27 321.99 141.466 320.8 138.6C319.98 139.6 315.09 144.85 315.07 144.51C314.984 141.979 315.031 139.446 315.21 136.92V136.92Z" fill="#263238"/>
<path d="M188.299 136.7C200.879 161.53 213.659 221.26 214.849 229.25C215.659 234.68 187.109 239.59 187.109 235.83C187.109 231.01 181.349 174.63 181.899 152.35C182.199 140.06 185.699 131.57 188.299 136.7Z" fill="#EB9481"/>
<path d="M187 233.45C186.54 236.72 187.63 248.05 189.77 256.45C190.77 260.55 195.05 272 198.26 271.45C201.47 270.9 200.52 267.45 200.52 267.45C200.52 267.45 203.04 272.01 206.21 271.16C209.38 270.31 207.75 264.97 207.75 264.97C207.75 264.97 210.67 269.48 213.75 268.4C216.83 267.32 214.3 262.23 214.3 262.23C214.3 262.23 216.79 266.48 218.97 264.51C221.6 262.14 216.14 254.84 215.22 250.25C215.01 249.25 212.46 228.83 212.46 228.83L187 233.45Z" fill="#EB9481"/>
<path d="M214.34 262.16C210.34 256.78 209.52 253.73 209.02 247.16C209.013 247.138 208.999 247.118 208.98 247.104C208.961 247.09 208.938 247.083 208.915 247.083C208.892 247.083 208.869 247.09 208.85 247.104C208.831 247.118 208.817 247.138 208.81 247.16C208.72 253.65 209.2 257.62 214.09 262.39C214.33 262.6 214.53 262.41 214.34 262.16Z" fill="#263238"/>
<path d="M207.83 265.26C204.16 259.31 203.24 256.01 202.2 249.16C202.2 249.06 202.02 249.07 202.03 249.16C202.48 255.97 203.03 259.92 207.5 265.39C207.7 265.65 208 265.53 207.83 265.26Z" fill="#263238"/>
<path d="M200.23 267C197.1 261 195.94 257.41 195.79 250.63C195.782 250.603 195.765 250.579 195.743 250.562C195.72 250.545 195.693 250.536 195.665 250.536C195.636 250.536 195.609 250.545 195.586 250.562C195.564 250.579 195.547 250.603 195.54 250.63C195.02 257.56 196.44 262.03 200.04 267.09C200.29 267.38 200.43 267.34 200.23 267Z" fill="#263238"/>
<path d="M214.669 227.83C214.669 227.83 219.269 234.83 220.609 238.4C221.949 241.97 222.099 256.94 218.859 257.16C214.679 257.44 212.859 248.79 212.559 244.44C212.559 244.44 202.879 245.09 200.259 239.16C197.639 233.23 214.669 227.83 214.669 227.83Z" fill="#EB9481"/>
<path d="M217.69 256.85C213.69 254.36 213.63 248.62 213 244.42C212.994 244.357 212.972 244.297 212.938 244.245C212.903 244.193 212.856 244.149 212.801 244.119C212.746 244.088 212.685 244.072 212.622 244.07C212.559 244.069 212.497 244.082 212.44 244.11C208.37 244.11 202.62 242.93 200.16 239.41C200.155 239.396 200.147 239.384 200.137 239.374C200.126 239.364 200.114 239.356 200.1 239.351C200.086 239.347 200.072 239.345 200.057 239.346C200.043 239.348 200.029 239.352 200.016 239.36C200.004 239.367 199.993 239.377 199.985 239.389C199.976 239.401 199.971 239.414 199.968 239.429C199.966 239.443 199.966 239.458 199.97 239.472C199.974 239.486 199.981 239.499 199.99 239.51C202.11 243.65 207.67 245.27 212.13 244.98C212.71 249.29 213.02 255.05 217.66 256.89C217.69 256.9 217.71 256.87 217.69 256.85Z" fill="#263238"/>
<path d="M217.59 226.15L185.16 231.15C185.16 231.15 179.99 170.94 179.8 150.73C179.61 130.52 186.87 125.57 194.66 146.24C202.45 166.91 217.59 226.15 217.59 226.15Z" fill="#0B7D77"/>
<path d="M185 226.08C198.27 223.08 212.66 221.97 215.16 221.6C215.28 221.6 215.29 221.77 215.16 221.78C212.7 222.02 196.38 225.09 185 226.28C184.91 226.29 184.9 226.1 185 226.08Z" fill="#263238"/>
<path d="M256.88 446.62C254.63 447.35 188.68 446.36 186.26 444.77C185.97 444.59 185.93 438.63 186.01 430.46L182.8 381.93L224.53 382.05L227.83 424.05C227.83 424.05 237.19 428.37 244.91 432.15C248.288 433.685 251.57 435.422 254.74 437.35C257.23 439.43 259.13 445.9 256.88 446.62Z" fill="#EB9481"/>
<path d="M256.88 446.62C254.63 447.35 188.68 446.36 186.26 444.77C185.97 444.59 185.93 438.63 186.01 430.46C202.3 434.09 245.74 439.97 247.01 436.56C247.52 435.19 246.48 433.64 244.93 432.21C248.308 433.745 251.59 435.481 254.76 437.41C257.23 439.43 259.13 445.9 256.88 446.62Z" fill="#263238"/>
<path d="M165.18 205.3C165.18 205.3 177 330.72 177.26 332.24C177.26 332.44 177.39 334.76 177.5 338.53C178.16 359.22 179.78 423.74 179.78 423.74H229.36C229.36 423.74 226.13 347.32 224.27 329.5C221.9 306.75 207.33 205.3 207.33 205.3H165.18Z" fill="#37474F"/>
<path d="M183.169 336.48C181.643 310.44 179.346 284.44 176.279 258.48C174.539 243.88 172.439 229.33 170.359 214.77C170.359 214.64 170.139 214.65 170.159 214.77C173.999 240.68 176.709 266.77 179.049 292.88C181.389 318.99 183.049 345.04 184.049 371.18C184.659 385.98 185.119 400.8 185.589 415.61C185.602 415.674 185.636 415.732 185.686 415.773C185.736 415.815 185.799 415.837 185.864 415.837C185.93 415.837 185.993 415.815 186.043 415.773C186.093 415.732 186.127 415.674 186.139 415.61C185.479 389.25 184.719 362.85 183.169 336.48Z" fill="#263238"/>
<path d="M226.23 415.75C224.93 415.58 223.52 415.63 222.23 415.59C220.75 415.59 219.23 415.52 217.77 415.47C214.9 415.36 212.02 415.28 209.15 415.24C203.36 415.14 197.56 415.18 191.78 415.36L187 415.53C185.3 415.59 183.6 415.75 181.9 415.74C181.78 415.74 181.78 415.89 181.9 415.89C184.81 415.89 187.76 416.14 190.68 416.25C193.6 416.36 196.42 416.4 199.29 416.44C205.08 416.52 210.89 416.44 216.67 416.26C218.26 416.2 219.85 416.18 221.44 416.13L224 416C224.76 416 225.51 416 226.27 415.93C226.37 415.93 226.36 415.77 226.23 415.75Z" fill="#263238"/>
<path d="M201 205.3L178.35 368.66C178.03 356.48 177.71 345.22 177.5 338.53C177.39 334.76 177.3 332.44 177.26 332.24C176.98 330.72 165.18 205.3 165.18 205.3H201Z" fill="#263238"/>
<path d="M173.82 455.32C171.46 455.13 110.96 428.85 109.34 426.45C109.14 426.18 111.34 420.66 114.61 413.15L127.95 366.15L166.55 381.64L155.66 423.37C155.66 423.37 162.66 430.96 168.32 437.37C170.848 440.091 173.212 442.959 175.4 445.96C176.91 448.81 176.17 455.52 173.82 455.32Z" fill="#EB9481"/>
<path d="M173.82 455.32C171.46 455.13 110.96 428.85 109.34 426.45C109.14 426.18 111.34 420.66 114.61 413.15C128.26 422.77 166.09 444.89 168.61 442.23C169.61 441.17 169.24 439.33 168.36 437.41C170.888 440.131 173.252 442.999 175.44 446C176.91 448.81 176.17 455.52 173.82 455.32Z" fill="#263238"/>
<path d="M110.27 408.31L158.64 423.31C158.64 423.31 182.26 340.46 184.07 321C185.86 301.71 187.59 262.3 188.36 233.71C188.36 233.71 196.44 228.93 198.49 226.32C200.54 223.71 202.38 214.32 206.42 205.32H147.24C133.1 232.79 143.74 245.01 143.74 251C143.74 279.92 139.37 318.31 137.98 324C135.08 335.86 110.27 408.31 110.27 408.31Z" fill="#37474F"/>
<path d="M158.53 412.73C157.32 412.23 155.95 411.92 154.69 411.53C153.26 411.1 151.82 410.7 150.4 410.26C147.66 409.41 144.9 408.6 142.14 407.82C136.573 406.233 130.966 404.773 125.32 403.44L120.66 402.37C119.01 401.99 117.32 401.7 115.66 401.26C115.53 401.26 115.5 401.37 115.66 401.41C118.48 402.15 121.26 403.16 124.05 404.02C126.84 404.88 129.56 405.65 132.32 406.44C137.89 408.01 143.51 409.44 149.15 410.75C150.71 411.1 152.25 411.49 153.8 411.86L156.29 412.41C157.03 412.58 157.75 412.82 158.5 412.93C158.526 412.934 158.553 412.927 158.575 412.911C158.596 412.895 158.611 412.871 158.615 412.845C158.619 412.818 158.612 412.791 158.596 412.77C158.58 412.748 158.556 412.734 158.53 412.73V412.73Z" fill="#263238"/>
<path d="M199.87 225.67C197.046 226.968 194.365 228.556 191.87 230.41C189.22 232.23 186.78 234.32 184.23 236.27C184.13 236.35 184.23 236.51 184.33 236.44C187.02 234.72 189.84 233.21 192.5 231.44C195.171 229.819 197.688 227.958 200.02 225.88C200.09 225.8 200 225.62 199.87 225.67Z" fill="#263238"/>
<path d="M200.239 209C199.899 210.84 199.449 212.67 199.049 214.5C198.649 216.33 198.399 217.97 197.949 219.67C197.577 221.314 196.741 222.817 195.539 224C194.869 224.63 194.119 225.18 193.399 225.76C193.019 226.07 192.599 226.36 192.199 226.68C192.249 226.43 192.289 226.19 192.329 225.93C192.459 225.24 192.579 224.54 192.689 223.84C192.949 222.29 193.199 220.73 193.439 219.18C193.909 216.12 194.339 213.03 194.979 210C194.986 209.973 194.982 209.945 194.968 209.922C194.954 209.898 194.931 209.882 194.904 209.875C194.878 209.868 194.85 209.872 194.826 209.887C194.803 209.901 194.786 209.923 194.779 209.95C194.019 212.95 193.179 215.95 192.519 218.95C192.189 220.43 191.029 227.75 190.979 228.27C190.929 228.79 190.879 229.34 190.859 229.88C190.794 230.428 190.794 230.982 190.859 231.53C190.859 231.66 191.059 231.64 191.109 231.53C191.333 231.022 191.491 230.488 191.579 229.94C191.709 229.42 191.829 228.89 191.919 228.36C191.919 228.17 191.979 227.97 192.009 227.77C192.729 227.33 193.399 226.77 194.079 226.27C194.759 225.77 195.539 225.27 196.229 224.65C197.501 223.577 198.418 222.144 198.859 220.54C199.304 218.812 199.595 217.049 199.729 215.27C199.959 213.19 200.129 211.1 200.419 209.03C200.449 209 200.259 208.9 200.239 209Z" fill="#263238"/>
<path d="M199 129.26C198.05 141.01 196.87 153.09 194.13 164.57C191.99 173.51 187.13 180.46 177.43 181.39C168.43 182.25 155.98 180.39 149.38 173.58C146.3 170.41 145.63 166.43 146.44 162.19C147.57 156.3 156.74 124.42 159.53 114.46C161.23 108.4 162.91 102.25 165.67 96.55C171.45 84.55 177.67 85.55 178.53 85.4C179.34 85.02 184.38 83.56 190.86 86.64C192.565 87.4359 194.082 88.5832 195.313 90.0067C196.543 91.4302 197.459 93.0978 198 94.9C201.44 105.62 199.92 118.26 199 129.26Z" fill="#263238"/>
<path d="M176.39 86.87C168.46 89.33 165.56 97.23 162.76 104.27C158.86 114.08 155.12 123.96 151.86 134.01C150.3 138.84 148.86 143.71 147.53 148.61C146.28 153.31 144.65 158.28 144.31 163.15C143.75 171.15 150.55 175.83 157.47 177.94C157.539 177.963 157.614 177.957 157.678 177.924C157.743 177.891 157.792 177.834 157.815 177.765C157.837 177.696 157.831 177.621 157.799 177.556C157.766 177.492 157.709 177.442 157.64 177.42C153.72 176.07 149.77 174.42 147.18 170.99C143.85 166.63 144.99 161.69 146.12 156.77C148.06 148.39 150.47 140.14 153.12 131.98C155.77 123.82 158.83 115.74 161.95 107.73C164.95 100.1 167.72 89.9 176.37 87C176.5 87 176.47 86.84 176.39 86.87Z" fill="#263238"/>
<path d="M200.21 103.89C199.63 97.5998 197.27 91.2198 191.1 88.5698C199.04 92.3498 199.82 101.7 199.88 109.42C199.947 117.56 199.717 125.686 199.19 133.8C198.69 141.61 198.01 149.46 196.8 157.19C195.49 165.53 192.9 173.19 187.02 179.38C187.007 179.392 186.996 179.406 186.989 179.422C186.981 179.438 186.977 179.455 186.976 179.473C186.975 179.49 186.977 179.508 186.983 179.525C186.989 179.541 186.998 179.557 187.01 179.57C187.022 179.583 187.036 179.594 187.052 179.601C187.068 179.609 187.085 179.613 187.103 179.614C187.121 179.615 187.138 179.613 187.155 179.607C187.172 179.601 187.187 179.592 187.2 179.58C192.83 174.67 195.5 167.21 196.87 160.07C198.523 150.591 199.549 141.014 199.94 131.4C200.46 122.35 201.05 113 200.21 103.89Z" fill="#263238"/>
<path d="M175.919 130.86C176.299 131.86 182.129 137.96 186.849 137.13C188.379 136.85 187.249 128.4 187.249 128.4L187.309 127.76L188.129 118.76L176.999 113.5L175.409 112.82C175.409 112.82 175.339 115.3 175.299 118.38C175.299 118.53 175.299 118.67 175.299 118.82C175.29 118.99 175.29 119.16 175.299 119.33C175.299 119.79 175.299 120.26 175.299 120.73C175.299 121.2 175.299 121.43 175.299 121.8C175.299 122.17 175.299 122.55 175.299 122.92C175.326 125.577 175.533 128.23 175.919 130.86V130.86Z" fill="#EB9481"/>
<path d="M175.3 118.38C176.5 120.72 178.195 122.771 180.267 124.391C182.339 126.011 184.739 127.16 187.3 127.76L188.12 118.76L177 113.5L175.41 112.82C175.41 112.82 175.34 115.3 175.3 118.38Z" fill="#263238"/>
<path d="M199.57 105.51C200.83 121.31 191.51 123.85 188.1 124.12C185 124.36 174.43 124.8 171.55 109.2C168.67 93.5998 175.62 87.9998 182.67 87.0998C189.72 86.1998 198.32 89.6998 199.57 105.51Z" fill="#EB9481"/>
<path d="M196.909 102.15C196.549 102.097 196.192 102.023 195.839 101.93C195.448 101.906 195.076 101.755 194.779 101.5C194.704 101.401 194.663 101.279 194.663 101.155C194.663 101.03 194.704 100.909 194.779 100.81C194.958 100.638 195.178 100.516 195.419 100.456C195.659 100.396 195.911 100.401 196.149 100.47C196.659 100.534 197.125 100.792 197.449 101.19C197.52 101.283 197.562 101.395 197.57 101.512C197.578 101.629 197.552 101.745 197.495 101.847C197.437 101.949 197.351 102.032 197.247 102.086C197.143 102.14 197.026 102.162 196.909 102.15V102.15Z" fill="#263238"/>
<path d="M186.39 102.37C186.76 102.32 187.09 102.22 187.46 102.14C187.832 102.098 188.182 101.941 188.46 101.69C188.537 101.591 188.579 101.47 188.579 101.345C188.579 101.22 188.537 101.098 188.46 101C188.279 100.829 188.056 100.709 187.813 100.652C187.571 100.596 187.318 100.606 187.08 100.68C186.577 100.761 186.121 101.024 185.8 101.42C185.727 101.516 185.686 101.633 185.68 101.754C185.675 101.874 185.706 101.994 185.77 102.097C185.834 102.199 185.927 102.28 186.038 102.329C186.148 102.378 186.271 102.392 186.39 102.37V102.37Z" fill="#263238"/>
<path d="M188.859 106.36C188.859 106.36 188.779 106.36 188.779 106.45C188.849 107.53 188.779 108.78 187.779 109.17C187.779 109.17 187.779 109.24 187.779 109.23C188.999 109 189.099 107.37 188.859 106.36Z" fill="#263238"/>
<path d="M187.859 105.26C186.119 105.19 186.099 108.67 187.709 108.74C189.319 108.81 189.319 105.32 187.859 105.26Z" fill="#263238"/>
<path d="M187.18 105.44C186.87 105.64 186.57 105.98 186.18 106.02C185.79 106.06 185.44 105.69 185.18 105.34H185.12C185.12 106 185.35 106.69 186.12 106.79C186.89 106.89 187.25 106.3 187.42 105.63C187.41 105.55 187.3 105.36 187.18 105.44Z" fill="#263238"/>
<path d="M194.859 106.12C194.859 106.12 194.939 106.12 194.939 106.21C194.889 107.29 195.009 108.54 195.989 108.91C195.989 108.91 195.989 108.98 195.989 108.97C194.789 108.79 194.639 107.13 194.859 106.12Z" fill="#263238"/>
<path d="M195.839 105C197.569 104.9 197.659 108.38 196.049 108.48C194.439 108.58 194.379 105.09 195.839 105Z" fill="#263238"/>
<path d="M196.569 105.22C196.849 105.39 197.129 105.72 197.459 105.74C197.789 105.76 198.109 105.37 198.349 105H198.399C198.399 105.66 198.229 106.36 197.599 106.5C196.969 106.64 196.599 106.07 196.399 105.42C196.369 105.33 196.459 105.14 196.569 105.22Z" fill="#263238"/>
<path d="M193.28 111C193.28 111 193.51 112.61 193.51 113.37C193.51 113.45 193.33 113.48 193.07 113.5C192.417 113.623 191.744 113.564 191.123 113.33C190.502 113.095 189.957 112.694 189.55 112.17C189.535 112.154 189.527 112.133 189.528 112.111C189.529 112.09 189.539 112.069 189.555 112.055C189.571 112.04 189.592 112.033 189.613 112.033C189.635 112.034 189.655 112.044 189.67 112.06C190.639 112.72 191.798 113.046 192.97 112.99C193.02 112.78 192.48 110.24 192.6 110.23C193.191 110.277 193.773 110.405 194.33 110.61C193.95 107.24 193.03 103.96 192.69 100.61C192.69 100.583 192.7 100.558 192.719 100.539C192.738 100.52 192.763 100.51 192.79 100.51C192.816 100.51 192.842 100.52 192.86 100.539C192.879 100.558 192.89 100.583 192.89 100.61C193.986 104.097 194.733 107.685 195.12 111.32C195.15 111.66 193.58 111.1 193.28 111Z" fill="#263238"/>
<path d="M194.5 107.17C194.26 104.59 195.45 102.37 197.15 102.17C198.85 101.97 200.44 103.97 200.68 106.55C200.92 109.13 199.68 111.35 198.03 111.55C196.38 111.75 194.74 109.75 194.5 107.17ZM195.13 107.11C195.34 109.34 196.61 111.05 197.97 110.93C199.33 110.81 200.27 108.88 200.06 106.65C199.85 104.42 198.57 102.71 197.21 102.83C195.85 102.95 194.92 104.88 195.13 107.11Z" fill="#263238"/>
<path d="M182.749 108.28C182.728 107.425 182.957 106.583 183.407 105.856C183.858 105.13 184.511 104.551 185.286 104.19C186.061 103.829 186.925 103.703 187.771 103.826C188.617 103.949 189.409 104.317 190.049 104.884C190.689 105.451 191.149 106.192 191.374 107.017C191.598 107.842 191.577 108.715 191.313 109.528C191.049 110.341 190.553 111.059 189.886 111.594C189.219 112.129 188.41 112.458 187.559 112.54C186.358 112.608 185.178 112.199 184.277 111.401C183.376 110.603 182.827 109.481 182.749 108.28ZM183.379 108.22C183.507 108.939 183.841 109.605 184.34 110.138C184.84 110.67 185.484 111.046 186.194 111.218C186.903 111.39 187.648 111.353 188.336 111.109C189.024 110.865 189.627 110.427 190.07 109.846C190.513 109.266 190.778 108.569 190.832 107.841C190.885 107.113 190.726 106.385 190.373 105.746C190.019 105.106 189.488 104.584 188.843 104.242C188.197 103.9 187.467 103.754 186.739 103.82C185.711 103.959 184.78 104.501 184.15 105.325C183.52 106.15 183.243 107.191 183.379 108.22Z" fill="#263238"/>
<path d="M191.23 107.05C193.49 106.05 194.62 106.68 194.63 106.69L194.97 106.16C194.92 106.16 193.58 105.28 190.97 106.48L191.23 107.05Z" fill="#263238"/>
<path d="M183 107.84L183.06 107.21C182.64 107.21 172.94 106.31 171.9 106.35C170.86 106.39 168.39 108.06 168.12 108.25L168.48 108.77C169.507 107.993 170.656 107.392 171.88 106.99H172C172.76 107 179.55 107.53 183 107.84Z" fill="#263238"/>
<path d="M171.999 108.07C173.709 107.97 178.169 103.24 178.309 94.96C178.309 94.96 177.669 102.39 177.119 103.48C176.569 104.57 179.609 100.82 179.809 94.15C181.916 95.6528 184.226 96.8481 186.669 97.7C189.819 98.58 191.749 98.55 191.979 98.32C192.209 98.09 187.559 96.63 186.299 95.19C186.299 95.19 194.699 99.08 198.559 99.38C199.009 99.38 199.559 90.21 193.559 86.31C187.559 82.41 178.109 86.63 175.559 89.09C175.559 89.09 172.559 89.51 169.329 93.94C166.099 98.37 170.159 108.18 171.999 108.07Z" fill="#263238"/>
<path d="M174.16 110.22C174.16 110.22 170.73 105.22 168.48 106.46C166.23 107.7 168.77 114.87 171.4 115.87C171.728 116.021 172.084 116.105 172.446 116.116C172.807 116.127 173.168 116.064 173.505 115.933C173.842 115.801 174.149 115.603 174.407 115.35C174.666 115.097 174.871 114.794 175.01 114.46L174.16 110.22Z" fill="#EB9481"/>
<path d="M169.26 108.5V108.57C171.1 109.34 172.06 111.06 172.73 112.84C172.625 112.653 172.48 112.491 172.306 112.366C172.132 112.241 171.933 112.156 171.723 112.116C171.512 112.076 171.295 112.082 171.087 112.135C170.88 112.187 170.686 112.285 170.52 112.42C170.52 112.42 170.52 112.53 170.57 112.52C170.895 112.418 171.245 112.42 171.569 112.525C171.894 112.631 172.177 112.836 172.38 113.11C172.718 113.568 173.006 114.061 173.24 114.58C173.32 114.75 173.62 114.66 173.56 114.47C173.6 112.07 171.79 108.76 169.26 108.5Z" fill="#263238"/>
<path d="M173.61 115.51C173.612 115.74 173.546 115.965 173.419 116.157C173.293 116.349 173.113 116.499 172.901 116.589C172.689 116.678 172.456 116.702 172.23 116.659C172.004 116.615 171.797 116.505 171.633 116.344C171.47 116.182 171.359 115.975 171.313 115.75C171.267 115.525 171.29 115.291 171.377 115.078C171.465 114.866 171.614 114.684 171.804 114.556C171.995 114.428 172.22 114.36 172.45 114.36C172.756 114.36 173.049 114.481 173.267 114.696C173.484 114.911 173.607 115.204 173.61 115.51Z" fill="white"/>
<path d="M209 210.65C209 210.65 155.74 211.44 142.52 210.51C142.52 210.51 153.3 149.41 167.52 133.97C168.049 133.39 168.61 132.839 169.2 132.32C170.07 131.59 169.95 125.76 170.36 125.32C170.77 124.88 188.05 127.15 188.27 127.57C188.49 127.99 189.38 133.49 189.38 133.49C193.3 138.49 205.91 155.77 207.38 162.9C208.85 170.03 204.22 177.9 204.22 177.9L209 210.65Z" fill="#0B7D77"/>
<path d="M163.45 144.87C160.3 160.05 162.17 192.87 169.45 198.87C181.45 208.69 210.29 211.56 218.34 212.51C221.81 212.92 228.72 190.21 226.34 187.28C223.96 184.35 188.51 179.79 186.82 178.28C185.65 177.2 180.14 157.37 175.39 146.19C169 131.06 164.6 139.27 163.45 144.87Z" fill="#EB9481"/>
<path d="M220.34 185.45C220.34 185.45 230.98 185.34 237.94 185.6C241.83 185.74 248.46 186.6 251.27 188C255.46 190.11 271.66 201.61 268.95 205.6C266.5 209.21 261.68 204.46 261.68 204.46C261.68 204.46 267.44 209.15 263.91 211.99C260.38 214.83 254.67 208.05 254.67 208.05C254.67 208.05 261.13 212.61 257.07 215.27C253.55 217.59 246.16 210.47 246.16 210.47C246.16 210.47 253.47 214.47 250.09 217.24C246.36 220.24 233.94 210.96 233.94 210.96C225.04 212.96 219.43 212.96 212.89 211.89C211.69 211.69 220.34 185.45 220.34 185.45Z" fill="#EB9481"/>
<path d="M256.449 209.63L254.999 208.1C254.102 207.086 253.147 206.125 252.139 205.22C251.139 204.36 250.139 203.54 249.039 202.76C247.939 201.98 246.699 201.2 245.599 200.35C245.509 200.28 245.409 200.41 245.509 200.47C246.602 201.312 247.65 202.21 248.649 203.16C249.649 204.06 250.649 204.98 251.649 205.89C252.649 206.8 253.649 207.61 254.649 208.48C255.139 208.91 255.649 209.36 256.099 209.81C256.526 210.272 256.991 210.697 257.489 211.08C257.539 211.08 257.599 211.08 257.569 211C257.246 210.505 256.871 210.046 256.449 209.63Z" fill="#263238"/>
<path d="M262.86 205.46C261.255 203.521 259.518 201.697 257.66 200C255.778 198.314 253.731 196.823 251.55 195.55C251.47 195.55 251.39 195.61 251.45 195.67C253.33 197.36 255.24 199.02 257.15 200.67C258.08 201.48 262.2 205.3 262.68 205.67C262.79 205.73 262.93 205.57 262.86 205.46Z" fill="#263238"/>
<path d="M250.52 213.71C248.964 211.921 247.293 210.234 245.52 208.66C243.568 207.222 241.513 205.932 239.37 204.8C239.29 204.8 239.21 204.88 239.28 204.93C241.22 206.37 243.18 207.76 245.05 209.29C245.97 210.04 249.43 213.22 250.37 213.85C250.47 213.91 250.58 213.79 250.52 213.71Z" fill="#263238"/>
<path d="M210.359 213.45L223.049 183.86C223.049 183.86 188.289 178.11 187.219 177.41C186.149 176.71 179.809 153.63 175.739 144.57C171.669 135.51 164.679 130.19 161.979 149.64C159.279 169.09 163.189 192.84 167.099 197.78C171.839 203.76 190.609 211.33 210.359 213.45Z" fill="#0B7D77"/>
<path d="M192.5 209.71C187.3 208.3 182.23 205.84 177.26 203.71C172.99 201.92 168.63 199.71 166.26 195.52C165.155 193.387 164.382 191.097 163.97 188.73C163.42 186.09 162.97 183.42 162.59 180.73C162.13 177.663 161.716 174.59 161.35 171.51C161.17 169.93 160.99 168.35 160.83 166.77C160.67 165.19 160.38 163.61 160.32 162.02C160.32 161.999 160.311 161.978 160.296 161.963C160.281 161.948 160.261 161.94 160.24 161.94C160.218 161.94 160.198 161.948 160.183 161.963C160.168 161.978 160.16 161.999 160.16 162.02C160.27 163.48 160.16 164.95 160.28 166.42C160.28 167.42 160.4 168.34 160.47 169.3L160.19 168.69C159.882 167.989 159.647 167.259 159.49 166.51C159.49 166.42 159.32 166.46 159.34 166.51C159.52 167.26 159.7 168.02 159.91 168.76C160.01 169.12 160.13 169.48 160.27 169.84C160.353 170.082 160.45 170.319 160.56 170.55C160.8 173.423 161.11 176.283 161.49 179.13C161.86 181.89 162.29 184.63 162.78 187.37C163.142 189.793 163.787 192.166 164.7 194.44C165.608 196.584 166.997 198.489 168.76 200.01C170.586 201.51 172.604 202.761 174.76 203.73C179.634 205.982 184.671 207.86 189.83 209.35C196 211.29 197.88 211.16 192.5 209.71Z" fill="#263238"/>
<path d="M205.55 180.78C204.27 180.61 189.14 177.43 188.55 177.26C188.255 177.17 187.988 177.005 187.776 176.78C187.563 176.556 187.413 176.28 187.34 175.98C186.87 174.76 186.46 173.51 186.02 172.28C185.26 170.16 184.487 168.05 183.7 165.95C183.7 165.48 183.61 164.95 183.56 164.54C183.51 164.13 183.41 163.42 183.32 162.86C183.12 161.65 182.76 160.46 182.61 159.25C182.61 159.13 182.42 159.17 182.45 159.25C182.755 160.442 182.936 161.662 182.99 162.89C183.04 163.37 183.07 163.89 183.1 164.34C182.64 163.11 182.17 161.88 181.68 160.66C181.11 159.24 180.46 157.81 180 156.35C180 156.25 179.82 156.3 179.85 156.35C180.37 157.66 180.74 159.05 181.15 160.35C181.56 161.65 182 163.05 182.44 164.4C183.3 167.05 184.21 169.68 185.13 172.32C185.57 173.59 186 174.88 186.47 176.14C186.599 176.612 186.853 177.04 187.205 177.38C187.557 177.72 187.994 177.958 188.47 178.07C191.1 178.78 203.96 180.91 205.52 180.97C205.68 181.07 205.72 180.8 205.55 180.78Z" fill="#263238"/>
<path d="M216.62 184.32C214.62 188.57 212.62 192.79 210.81 197.13C208.979 201.399 207.373 205.762 206 210.2C205.992 210.22 205.992 210.242 206.001 210.262C206.009 210.281 206.025 210.297 206.045 210.305C206.065 210.313 206.087 210.313 206.107 210.304C206.126 210.296 206.142 210.28 206.15 210.26C208.15 206.09 209.9 201.76 211.67 197.47C213.44 193.18 215.05 188.77 216.84 184.47C216.93 184.29 216.7 184.15 216.62 184.32Z" fill="#263238"/>
<path d="M254 180.94C252.47 181.8 243.71 179.38 240.16 182.04C237.81 183.8 235.51 188.04 235.01 193.57C234.5 199.28 239.01 198.99 240.68 196.57C242.715 193.384 244.49 190.04 245.99 186.57C247.596 186.89 249.179 187.314 250.73 187.84L254 180.94Z" fill="#AD6359"/>
<path d="M243.259 200.87C240.549 198.03 227.009 208.44 231.259 213.17C235.509 217.9 246.319 204.09 243.259 200.87Z" fill="#AD6359"/>
<path d="M247.78 204.94C245.07 202.1 231.53 212.51 235.78 217.24C240.03 221.97 250.84 208.16 247.78 204.94Z" fill="#AD6359"/>
<path d="M251.34 206.38C248.49 204.17 237.63 215.52 242.18 219.22C246.73 222.92 254.57 208.88 251.34 206.38Z" fill="#AD6359"/>
<path d="M255.209 207C251.939 205.75 245.049 219.35 250.319 221.5C255.589 223.65 258.919 208.37 255.209 207Z" fill="#AD6359"/>
<path d="M242.86 205.55C242.108 206.054 241.399 206.619 240.74 207.24C240.01 207.88 239.29 208.53 238.63 209.24C237.987 209.911 237.382 210.619 236.82 211.36C236.23 212.16 235.74 213.03 235.14 213.81C235.129 213.817 235.12 213.826 235.114 213.838C235.108 213.849 235.104 213.861 235.104 213.874C235.103 213.887 235.106 213.9 235.111 213.912C235.117 213.923 235.125 213.933 235.136 213.941C235.146 213.949 235.158 213.954 235.171 213.956C235.183 213.958 235.196 213.957 235.209 213.953C235.221 213.949 235.232 213.942 235.241 213.933C235.25 213.923 235.257 213.912 235.26 213.9C235.853 213.146 236.498 212.434 237.19 211.77C237.84 211.09 238.45 210.38 239.1 209.69C239.75 209 240.33 208.33 240.97 207.69C241.61 207.05 242.33 206.39 242.97 205.69C243 205.6 242.93 205.51 242.86 205.55Z" fill="#263238"/>
<path d="M248.24 206.82C247.66 207.71 245.63 211.16 245.01 212.03C244.39 212.9 243.74 213.77 243.08 214.62C242.42 215.47 241.78 216.4 241.03 217.2C240.97 217.27 241.08 217.38 241.15 217.31C241.9 216.51 242.72 215.78 243.43 214.94C244.14 214.1 244.79 213.25 245.43 212.36C246.541 210.596 247.543 208.766 248.43 206.88C248.43 206.79 248.29 206.74 248.24 206.82Z" fill="#263238"/>
<path d="M252 208.76C251.4 210.08 250.88 211.45 250.27 212.76C249.97 213.41 249.66 214.06 249.36 214.76L248.94 215.71C248.808 216.088 248.641 216.453 248.44 216.8C248.38 216.88 248.54 216.97 248.58 216.86C248.781 216.464 249.015 216.086 249.28 215.73C249.45 215.43 249.63 215.13 249.79 214.83C250.13 214.163 250.44 213.513 250.72 212.88C251.304 211.584 251.792 210.247 252.18 208.88C252.196 208.856 252.202 208.827 252.196 208.799C252.19 208.771 252.174 208.746 252.15 208.73C252.126 208.714 252.097 208.708 252.069 208.714C252.041 208.72 252.016 208.736 252 208.76V208.76Z" fill="#263238"/>
<path d="M260.83 95.1C260.352 99.668 258.614 104.013 255.81 107.651C253.006 111.289 249.247 114.077 244.951 115.703C240.656 117.329 235.993 117.73 231.483 116.86C226.973 115.991 222.793 113.886 219.41 110.78L207 112.6L213.21 101.88C211.596 97.9143 211.037 93.5982 211.587 89.3523C212.137 85.1063 213.777 81.0751 216.348 77.6514C218.919 74.2277 222.333 71.5282 226.257 69.8158C230.181 68.1033 234.482 67.4364 238.74 67.88C245.278 68.5633 251.277 71.8141 255.419 76.9181C259.561 82.0221 261.507 88.5617 260.83 95.1V95.1Z" fill="white"/>
<path d="M260.83 95.0999C260.348 99.6663 258.618 104.012 255.83 107.66C255.14 108.571 254.392 109.436 253.59 110.25C252.763 111.04 251.888 111.778 250.97 112.46C249.14 113.852 247.119 114.973 244.97 115.79C242.833 116.632 240.587 117.168 238.3 117.38C237.156 117.488 236.007 117.511 234.86 117.45C233.709 117.421 232.562 117.3 231.43 117.09C226.862 116.268 222.613 114.19 219.16 111.09L219.46 111.18L207.08 113L206.18 113.14L206.63 112.35L212.8 101.61V102.03C211.353 98.4867 210.736 94.6594 210.996 90.841C211.256 87.0226 212.386 83.3143 214.3 79.9999C216.229 76.693 218.882 73.8657 222.06 71.7299C226.009 69.0859 230.63 67.6223 235.381 67.5108C240.133 67.3993 244.817 68.6444 248.886 71.1003C252.955 73.5561 256.24 77.1209 258.355 81.3769C260.471 85.6328 261.329 90.4036 260.83 95.1299V95.0999ZM260.83 95.0999C261.225 91.3669 260.758 87.593 259.465 84.0687C258.173 80.5445 256.088 77.364 253.373 74.7721C250.657 72.1803 247.383 70.2462 243.802 69.1189C240.222 67.9916 236.43 67.7012 232.72 68.2699C229.047 68.8093 225.545 70.1772 222.48 72.2699C219.452 74.3968 216.923 77.1574 215.07 80.3599C213.238 83.5725 212.161 87.1596 211.92 90.8499C211.692 94.5311 212.287 98.2168 213.66 101.64L213.75 101.86L213.63 102.07L207.39 112.77L206.95 112.11L219.36 110.37H219.53L219.66 110.48C222.97 113.579 227.076 115.698 231.52 116.6C232.631 116.821 233.758 116.958 234.89 117.01C236.018 117.09 237.151 117.09 238.28 117.01C240.544 116.835 242.772 116.343 244.9 115.55C247.049 114.782 249.071 113.696 250.9 112.33C252.76 111.013 254.403 109.414 255.77 107.59C258.568 103.968 260.318 99.6479 260.83 95.0999Z" fill="#263238"/>
<path d="M233.269 106.66L222.689 95.94L226.239 92.43L232.429 98.69L245.279 78.54L249.489 81.23L233.269 106.66Z" fill="#0B7D77"/>
</svg>
