<svg width="500" height="500" viewBox="0 0 500 500" fill="none" xmlns="http://www.w3.org/2000/svg">
<path d="M90.6 344.51C90.6 342.59 90.49 340.69 90.47 338.81L90.75 339.09C86.21 339.14 81.66 339.25 77.12 339.26L63.49 339.32L64 338.81V350.33L63.54 349.87C65.78 349.87 68.02 349.87 70.28 349.93L77 350L90.75 350.29L90.6 344.51ZM77.24 350.61L70.38 350.73C68.09 350.73 65.79 350.73 63.49 350.79H63V350.33V338.81V338.29H63.52L77.15 338.36C81.69 338.36 86.24 338.47 90.78 338.53H91V338.81C91 340.76 90.91 342.71 90.87 344.63L90.72 350.33L77.24 350.61Z" fill="#EBEBEB"/>
<path d="M75.4 359C75.35 357.08 75.28 355.19 75.26 353.3L75.54 353.58C71 353.64 66.46 353.75 61.91 353.75L48.28 353.82L48.8 353.3L48.74 364.82L48.28 364.36C50.53 364.36 52.77 364.36 55.02 364.42L61.79 364.54L75.54 364.82L75.4 359ZM62 365.14L55.14 365.25C52.85 365.3 50.55 365.25 48.25 365.31H47.79V364.84V353.32V352.81H48.31L61.94 352.87C66.49 352.87 71.03 352.99 75.57 353.04H75.86V353.31C75.86 355.31 75.77 357.21 75.73 359.13L75.58 364.83L62 365.14Z" fill="#EBEBEB"/>
<path d="M105.81 359C105.81 357.08 105.69 355.19 105.67 353.3L105.96 353.58C101.41 353.64 96.8697 353.75 92.3297 353.75L78.6997 353.82L79.2097 353.3L79.1497 364.82L78.6997 364.36C80.9397 364.36 83.1797 364.36 85.4297 364.42L92.2097 364.54L105.96 364.82L105.81 359ZM92.4397 365.11L85.5897 365.22C83.2997 365.27 80.9897 365.22 78.6997 365.28H78.2397V364.81L78.1797 353.29V352.78H78.6997L92.3297 352.84C96.8697 352.84 101.41 352.96 105.96 353.01H106.24V353.28C106.24 355.28 106.15 357.18 106.1 359.1L105.96 364.8L92.4397 365.11Z" fill="#EBEBEB"/>
<path d="M436.6 359C436.55 357.08 436.48 355.19 436.46 353.3L436.74 353.58C432.2 353.64 427.66 353.75 423.11 353.75L409.48 353.82L410 353.3L409.94 364.82L409.48 364.36C411.73 364.36 413.97 364.36 416.22 364.42L423 364.54L436.74 364.82L436.6 359ZM423.23 365.11L416.38 365.22C414.08 365.27 411.78 365.22 409.48 365.28H409V364.81V353.33V352.82H409.51L423.14 352.88C427.69 352.88 432.23 353 436.77 353.05H437V353.32C437 355.32 436.91 357.22 436.86 359.14L436.71 364.84L423.23 365.11Z" fill="#EBEBEB"/>
<path d="M436.6 54.9998C436.55 53.0798 436.48 51.1898 436.46 49.2998L436.74 49.5798C432.2 49.6298 427.66 49.7398 423.11 49.7498L409.48 49.8098L410 49.2998L409.94 60.8198L409.48 60.3598C411.73 60.3598 413.97 60.3598 416.22 60.4198L423 60.5298L436.74 60.8198L436.6 54.9998ZM423.23 61.1098L416.38 61.2198C414.08 61.2698 411.78 61.2198 409.48 61.2798H409V60.8198V49.3398V48.8198H409.51L423.14 48.8798C427.69 48.8798 432.23 48.9998 436.77 49.0498H437V49.3298C437 51.2798 436.91 53.2298 436.86 55.1498L436.71 60.8498L423.23 61.1098Z" fill="#EBEBEB"/>
<path d="M451.81 69.56C451.76 67.65 451.69 65.75 451.67 63.87L451.95 64.15C447.41 64.15 442.86 64.31 438.32 64.31L424.69 64.38L425.2 63.87L425.15 75.38L424.69 74.93C426.94 74.93 429.18 74.93 431.43 74.93L438.2 75.05L451.95 75.33L451.81 69.56ZM438.44 75.67L431.58 75.79C429.29 75.79 426.99 75.79 424.69 75.79H424.23V75.32L424.18 63.81V63.29H424.7L438.33 63.36C442.87 63.36 447.42 63.47 451.96 63.52H452.25V63.8C452.25 65.75 452.16 67.69 452.12 69.62L452 75.38L438.44 75.67Z" fill="#EBEBEB"/>
<path d="M75.4 55.0498C75.35 53.1298 75.28 51.2398 75.26 49.3498L75.54 49.6298C71 49.6898 66.46 49.7998 61.91 49.7998L48.28 49.8698L48.8 49.3498L48.74 60.8698L48.28 60.4098C50.53 60.4098 52.77 60.4098 55.02 60.4698L61.79 60.5798L75.54 60.8698L75.4 55.0498ZM62 61.1598L55.14 61.2698C52.85 61.2698 50.55 61.2698 48.25 61.3298H47.79V60.8698V49.3498V48.8398H48.31L61.94 48.8998C66.49 48.8998 71.03 49.0198 75.57 49.0698H75.86V49.3498C75.86 51.3498 75.77 53.2498 75.73 55.1698L75.58 60.8698L62 61.1598Z" fill="#EBEBEB"/>
<path d="M277.64 327.23C277.69 329.15 277.76 331.05 277.77 332.93L277.49 332.65C282.04 332.65 286.58 332.49 291.12 332.48L304.75 332.42L304.24 332.93L304.3 321.41L304.75 321.87C302.51 321.87 300.27 321.87 298.02 321.82L291.24 321.7L277.49 321.41L277.64 327.23ZM291.01 321.13L297.86 321.01C300.15 320.96 302.46 321.01 304.75 320.96H305.21V321.42L305.27 332.94V333.46H304.75L291.12 333.39C286.58 333.39 282.04 333.28 277.49 333.22H277.21V332.94C277.21 330.99 277.3 329.05 277.35 327.12L277.49 321.42L291.01 321.13Z" fill="#EBEBEB"/>
<path d="M292.85 312.71C292.85 314.63 292.96 316.52 292.98 318.41L292.7 318.13C297.24 318.07 301.79 317.96 306.33 317.96L319.96 317.89L319.45 318.41L319.5 306.89L319.96 307.35C317.72 307.35 315.48 307.35 313.22 307.29L306.45 307.18L292.7 306.89L292.85 312.71ZM306.21 306.6L313.07 306.49C315.36 306.44 317.66 306.49 319.96 306.43H320.42V306.89L320.48 318.41V318.92H320L306.37 318.86C301.83 318.86 297.28 318.74 292.74 318.69H292.46V318.41C292.46 316.41 292.55 314.51 292.59 312.59L292.74 306.89L306.21 306.6Z" fill="#EBEBEB"/>
<path d="M93.0003 183.46C93.0003 185.38 93.1203 187.27 93.1403 189.16L92.8503 188.88C97.4003 188.88 101.94 188.71 106.48 188.71L120.11 188.64L119.6 189.16L119.66 177.64L120.11 178.1C117.87 178.1 115.63 178.1 113.38 178.04L106.6 177.93L92.8503 177.64L93.0003 183.46ZM106.37 177.35L113.22 177.24C115.51 177.19 117.82 177.24 120.11 177.18H120.57V177.64L120.63 189.16V189.68H120.11L106.48 189.62C101.94 189.62 97.4003 189.5 92.8503 189.45H92.5703V189.17C92.5703 187.17 92.6603 185.27 92.7103 183.35L92.8503 177.65L106.37 177.35Z" fill="#EBEBEB"/>
<path d="M333.32 264.69V416.13H424.86V264.69H333.32ZM416.55 360.24H341.63V320.82H416.55V360.24ZM416.55 311.43H341.63V272H416.55V311.43Z" fill="#EBEBEB"/>
<path d="M461.47 264.69H424.86V416.12H461.47V264.69Z" fill="#DBDBDB"/>
<path d="M359.43 272.01H341.63V311.43H359.43V272.01Z" fill="#DBDBDB"/>
<path d="M416.92 407H341.72V368.66H416.92V407ZM342.47 406.25H416.17V369.41H342.47V406.25Z" fill="#DBDBDB"/>
<path d="M383.6 379.61H368.81V387.09H383.6V379.61Z" fill="#DBDBDB"/>
<path d="M388.34 386.9H372.8V379.8H388.34V386.9ZM373.55 386.15H387.55V380.55H373.55V386.15Z" fill="#DBDBDB"/>
<path d="M359.43 320.82H341.63V360.24H359.43V320.82Z" fill="#DBDBDB"/>
<path d="M177.521 105.85H52.5205V113.27H177.521V105.85Z" fill="#EBEBEB"/>
<path d="M69.43 113.27H62V137.82H69.43V113.27Z" fill="#EBEBEB"/>
<path d="M69.43 113.27H62V120.86H69.43V113.27Z" fill="#DBDBDB"/>
<path d="M168.03 113.27H160.6V137.82H168.03V113.27Z" fill="#EBEBEB"/>
<path d="M168.03 113.27H160.6V120.86H168.03V113.27Z" fill="#DBDBDB"/>
<path d="M96.0205 105.84V58.54H84.1105V105.84H96.0205Z" fill="#C7C7C7"/>
<path d="M96.0205 61.22V56.02H84.1105V61.22H96.0205Z" fill="#DBDBDB"/>
<path d="M96.0205 69.8099V67.8799H84.1105V69.8099H96.0205Z" fill="#DBDBDB"/>
<path d="M97.5 99.6497V94.4497H84.1V99.6497H97.5Z" fill="#DBDBDB"/>
<path d="M104.34 105.85V50.6699H96.0098V105.85H104.34Z" fill="#DBDBDB"/>
<path d="M102.65 77.0799V55.8599H97.6504V77.0799H102.65Z" fill="#EBEBEB"/>
<path d="M163.569 99.9476L124.327 61.1548L118.471 67.0788L157.713 105.872L163.569 99.9476Z" fill="#C7C7C7"/>
<path d="M153.202 92.0011L138.111 77.083L134.596 80.6388L149.687 95.557L153.202 92.0011Z" fill="#DBDBDB"/>
<path d="M118.48 105.85V63.9399H104.34V105.85H118.48Z" fill="#A6A6A6"/>
<path d="M118.48 101.42V97.5098H104.34V101.42H118.48Z" fill="#C7C7C7"/>
<path d="M118.48 94.9397V93.4297H104.34V94.9397H118.48Z" fill="#C7C7C7"/>
<path d="M84.1104 105.86V66.4697H74.3403V105.86H84.1104Z" fill="#A6A6A6"/>
<path d="M84.1104 101.68V98.0098H74.3403V101.68H84.1104Z" fill="#C7C7C7"/>
<path d="M84.1104 78.2598V74.5898H74.3404V78.2598H84.1104Z" fill="#C7C7C7"/>
<path d="M84.1104 82.19V80.77H74.3403V82.19H84.1104Z" fill="#C7C7C7"/>
<path d="M112.651 325.16C100.211 342.01 87.2406 361.56 84.0806 382.69C84.0661 382.763 84.081 382.839 84.1223 382.901C84.1636 382.963 84.2277 383.006 84.3006 383.02C84.3736 383.035 84.4493 383.02 84.5112 382.979C84.5731 382.937 84.6161 382.873 84.6306 382.8C86.0588 377.036 87.8968 371.382 90.1306 365.88C98.3106 363.63 106.341 361.78 110.631 353.66C115.011 345.32 114.461 334.44 113.631 325.35C113.561 324.86 112.901 324.84 112.651 325.16Z" fill="#0B7D77"/>
<path d="M90.2502 365.72C95.8402 353.18 103.02 340.59 112.14 330.28C112.2 330.21 112.29 330.28 112.24 330.38C106.24 337.72 101.73 345.72 97.3002 353.86C101.42 349.68 105.93 345.93 109.83 341.5C109.91 341.41 110.03 341.5 109.96 341.62C106.08 346.27 101.85 351.32 96.8102 354.76C95.4502 357.26 94.0902 359.76 92.7002 362.27C93.0402 362.08 93.3902 361.91 93.7002 361.74C93.7602 361.74 93.8102 361.8 93.7502 361.83C93.3702 362.03 92.9902 362.23 92.5902 362.4C91.9302 363.59 91.2902 364.77 90.5902 365.95C90.5002 366.22 90.1402 366 90.2502 365.72Z" fill="#263238"/>
<path d="M94.4108 361.35C97.7662 359.484 100.972 357.361 104.001 355C104.081 354.94 104.201 355 104.121 355.12C101.202 357.64 98.0045 359.817 94.5908 361.61C94.3908 361.66 94.2608 361.43 94.4108 361.35Z" fill="#263238"/>
<path d="M82.6399 379.55C82.6399 379.81 83.0999 379.8 83.0999 379.55C83.1599 372.55 83.0999 365.6 83.2099 358.61C84.9899 355.01 88.8199 353.02 91.4799 350.14C93.4017 348.033 95.079 345.715 96.4799 343.23C99.674 337.276 101.62 330.732 102.2 324C102.93 316.55 100.11 292 96.9699 292.85C95.3399 293.29 90.0799 305.45 88.6799 309.48C86.3965 316.107 84.7228 322.929 83.6799 329.86C81.1799 346.26 81.3999 363.07 82.6399 379.55Z" fill="#0B7D77"/>
<path d="M82.5899 349.53C82.9699 340.72 84.9599 331.83 86.8099 323.29C88.8099 314.09 91.1499 305.43 95.8899 297.23C95.9699 297.08 96.1999 297.23 96.1199 297.37C92.964 303.75 90.5193 310.457 88.8299 317.37C89.1499 316.88 89.5399 316.37 89.8299 315.94C89.9599 315.75 90.2599 315.94 90.1299 316.12C89.708 316.865 89.2122 317.565 88.6499 318.21H88.5899C86.9599 324.79 85.7899 331.51 84.7899 338.21C84.8686 338.128 84.942 338.041 85.0099 337.95C85.0099 337.95 85.1499 337.95 85.1199 338.03L84.7199 338.7C84.2099 342.1 83.7199 345.5 83.2699 348.87C89.3399 343.69 94.5199 337.58 97.4399 330.05C97.4399 330.05 97.5099 330.05 97.4399 330.05C94.5799 337.86 90.0699 344.8 83.1299 349.53C82.9999 350.44 82.8699 351.35 82.7499 352.25C82.7499 352.44 82.4199 352.39 82.4199 352.25C82.4199 351.44 82.4199 350.64 82.4899 349.84C82.4709 349.815 82.4583 349.785 82.4531 349.754C82.4479 349.722 82.4503 349.69 82.4601 349.66C82.4698 349.629 82.4867 349.602 82.5093 349.579C82.5319 349.557 82.5595 349.54 82.5899 349.53Z" fill="#263238"/>
<path d="M85.4502 336.78C90.0802 329.86 94.4502 323.15 97.8002 315.5C97.8002 315.42 97.9802 315.5 97.9502 315.57C95.0902 323.16 91.0902 330.86 85.6802 336.96C85.5702 337.08 85.3502 336.92 85.4502 336.78Z" fill="#263238"/>
<path d="M91.6003 313.8C93.5203 310.4 95.6003 307.09 97.3503 303.63C97.4103 303.53 97.5403 303.63 97.5003 303.72C96.0163 307.342 94.1383 310.789 91.9003 314C91.7703 314.14 91.4903 314 91.6003 313.8Z" fill="#263238"/>
<path d="M77.9307 359.43C77.8379 364.042 77.2953 368.634 76.3107 373.14C76.3774 373.634 76.4474 374.134 76.5207 374.64C77.9519 369.664 78.7844 364.534 79.0007 359.36C79.0428 359.287 79.065 359.205 79.065 359.12C79.065 359.036 79.0428 358.953 79.0007 358.88V358.88C79.2062 351.946 78.6934 345.009 77.4707 338.18C75.3107 325.39 70.6107 313.12 61.6907 303.53C61.6161 303.465 61.5273 303.418 61.4315 303.393C61.3357 303.368 61.2353 303.366 61.1384 303.386C61.0415 303.407 60.9506 303.449 60.8729 303.511C60.7952 303.572 60.7328 303.651 60.6907 303.74C57.0907 312.89 58.3507 323.8 61.4207 332.93C63.0818 337.876 65.4642 342.55 68.4907 346.8C71.5507 351.09 75.4507 354.73 77.9307 359.43Z" fill="#0B7D77"/>
<path d="M62.7307 307.8C71.1807 321.52 77.0707 337.8 77.7807 353.99C77.7807 354.27 77.3107 354.35 77.2707 354.06C77.0707 352.6 76.8507 351.16 76.6207 349.72C73.1307 346.37 69.5407 342.83 67.0307 338.65C67.0307 338.58 67.1007 338.49 67.1507 338.56C70.0569 342.116 73.1689 345.498 76.4707 348.69C75.8607 345.11 75.1507 341.59 74.3007 338.11L73.6307 337.33C73.4807 337.15 73.7307 336.9 73.8807 337.08L74.0807 337.3C72.8926 332.548 71.4166 327.873 69.6607 323.3C67.5107 320.73 65.1107 318.52 63.5407 315.42C63.5328 315.405 63.5309 315.388 63.5356 315.372C63.5403 315.356 63.5511 315.343 63.5657 315.335C63.5803 315.327 63.5975 315.325 63.6134 315.33C63.6293 315.335 63.6428 315.345 63.6507 315.36C64.9107 317.13 66.1307 318.91 67.5607 320.55C68.1307 321.2 68.7607 321.81 69.3507 322.45C67.3942 317.47 65.0746 312.64 62.4107 308C62.3909 307.958 62.3872 307.91 62.4003 307.865C62.4134 307.821 62.4424 307.783 62.4819 307.758C62.5213 307.733 62.5684 307.724 62.6143 307.732C62.6602 307.739 62.7016 307.764 62.7307 307.8Z" fill="#263238"/>
<path d="M64.4403 324.73C67.1703 328.4 70.2903 331.91 72.8303 335.73C72.9003 335.84 72.7403 335.95 72.6503 335.87C69.3903 332.8 66.6503 328.62 64.2603 324.87C64.1803 324.71 64.3603 324.62 64.4403 324.73Z" fill="#263238"/>
<path d="M73.2107 336.56L73.3207 336.68C73.4107 336.76 73.3207 336.88 73.2007 336.8L73.0807 336.69C73.0007 336.61 73.1307 336.48 73.2107 336.56Z" fill="#263238"/>
<path d="M49.4903 334.17C50.4859 341.833 53.572 349.075 58.4103 355.1C60.4044 357.46 62.8662 359.38 65.6403 360.74C68.7703 362.29 72.0503 364.08 75.2903 365.35C76.8344 369.272 77.9802 373.339 78.7103 377.49C78.8203 377.13 78.9203 376.77 79.0203 376.41C76.9403 358.55 65.3803 343.27 50.5903 333.47C50.4748 333.397 50.3408 333.358 50.204 333.358C50.0672 333.358 49.9332 333.397 49.8178 333.47C49.7024 333.544 49.6103 333.649 49.5523 333.773C49.4943 333.897 49.4728 334.034 49.4903 334.17V334.17Z" fill="#0B7D77"/>
<path d="M54.5998 339.45C54.4998 339.36 54.5998 339.17 54.7498 339.26C62.8771 345.301 69.3584 353.285 73.5998 362.48C73.6998 362.73 73.3698 362.94 73.2298 362.7C72.5398 361.49 71.8398 360.32 71.1298 359.17C67.7498 358.54 64.5498 356.17 62.0498 353.9C61.9798 353.84 62.0498 353.74 62.1498 353.8C63.439 354.978 64.874 355.987 66.4198 356.8C67.7998 357.5 69.2798 357.94 70.7098 358.5C69.4632 356.5 68.1565 354.59 66.7898 352.77C63.145 351.381 59.7275 349.456 56.6498 347.06C56.5498 346.99 56.6498 346.84 56.7398 346.9C59.7947 348.728 62.9423 350.397 66.1698 351.9C64.1129 349.18 61.8922 346.589 59.5198 344.14C58.3698 343.53 57.2098 342.92 56.0898 342.28C56.0703 342.267 56.0561 342.247 56.0495 342.225C56.043 342.202 56.0447 342.178 56.0543 342.156C56.0638 342.135 56.0806 342.117 56.1018 342.107C56.1229 342.097 56.147 342.094 56.1698 342.1C57.0898 342.428 57.9689 342.861 58.7898 343.39C57.4498 342.08 56.0698 340.75 54.5998 339.45Z" fill="#263238"/>
<path d="M54.9207 345.62C55.1177 345.742 55.305 345.879 55.4807 346.03C55.5407 346.08 55.4807 346.15 55.4107 346.12C55.2045 346.024 55.0071 345.911 54.8207 345.78C54.7995 345.767 54.7844 345.746 54.7788 345.722C54.7732 345.697 54.7774 345.672 54.7907 345.65C54.804 345.629 54.8251 345.614 54.8495 345.608C54.8739 345.603 54.8995 345.607 54.9207 345.62V345.62Z" fill="#263238"/>
<path d="M102.11 416.18H61.5801L64.8501 379.28L65.5701 371.14H98.1101L98.8301 379.28L102.11 416.18Z" fill="#455A64"/>
<path d="M98.8306 379.28H64.8506L65.5706 371.14H98.1106L98.8306 379.28Z" fill="#263238"/>
<path d="M100.05 365.45H63.6299V373.5H100.05V365.45Z" fill="#455A64"/>
<path d="M38.3701 416.18L91.2801 415.94L144.18 415.85L250 415.68L355.82 415.85L408.73 415.94L461.63 416.18L408.73 416.43L355.82 416.51L250 416.68L144.18 416.51L91.2801 416.42L38.3701 416.18Z" fill="#263238"/>
<path d="M250 467.81C318.853 467.81 374.67 463.082 374.67 457.25C374.67 451.418 318.853 446.69 250 446.69C181.147 446.69 125.33 451.418 125.33 457.25C125.33 463.082 181.147 467.81 250 467.81Z" fill="#EBEBEB"/>
<path d="M446.7 54.5298H140.37V299.43H446.7V54.5298Z" fill="white"/>
<path d="M447.2 299.92H139.87V54H447.2V299.92ZM140.87 298.92H446.2V55H140.87V298.92Z" fill="#EBEBEB"/>
<path d="M446.7 54.5298H140.37V66.1398H446.7V54.5298Z" fill="#455A64"/>
<path d="M150.08 60.33C150.082 60.8506 149.93 61.36 149.642 61.7938C149.354 62.2277 148.944 62.5663 148.464 62.7669C147.983 62.9675 147.454 63.021 146.943 62.9207C146.433 62.8203 145.963 62.5706 145.594 62.2032C145.225 61.8358 144.974 61.3672 144.872 60.8568C144.769 60.3463 144.821 59.817 145.02 59.3358C145.218 58.8547 145.555 58.4434 145.988 58.1539C146.421 57.8645 146.93 57.71 147.45 57.71C147.795 57.7087 148.137 57.7755 148.456 57.9065C148.775 58.0376 149.065 58.2304 149.309 58.4738C149.554 58.7172 149.748 59.0065 149.88 59.325C150.012 59.6436 150.08 59.9851 150.08 60.33V60.33Z" fill="#0B7D77"/>
<path d="M160.78 60.33C160.78 60.8482 160.626 61.3547 160.338 61.7856C160.051 62.2164 159.641 62.5522 159.163 62.7505C158.684 62.9488 158.157 63.0007 157.649 62.8996C157.141 62.7985 156.674 62.549 156.307 62.1826C155.941 61.8162 155.691 61.3493 155.59 60.8411C155.489 60.3329 155.541 59.8061 155.739 59.3273C155.938 58.8486 156.274 58.4394 156.704 58.1515C157.135 57.8636 157.642 57.71 158.16 57.71C158.855 57.71 159.521 57.986 160.013 58.4773C160.504 58.9687 160.78 59.6351 160.78 60.33V60.33Z" fill="#EBEBEB"/>
<path d="M171.48 60.33C171.48 60.8482 171.327 61.3547 171.039 61.7856C170.751 62.2164 170.342 62.5522 169.863 62.7505C169.384 62.9488 168.857 63.0007 168.349 62.8996C167.841 62.7985 167.374 62.549 167.008 62.1826C166.641 61.8162 166.392 61.3493 166.291 60.8411C166.189 60.3329 166.241 59.8061 166.44 59.3273C166.638 58.8486 166.974 58.4394 167.405 58.1515C167.835 57.8636 168.342 57.71 168.86 57.71C169.555 57.71 170.222 57.986 170.713 58.4773C171.204 58.9687 171.48 59.6351 171.48 60.33V60.33Z" fill="white"/>
<path d="M398.32 218.34H325.46V269.23H398.32V218.34Z" fill="#DBDBDB"/>
<path d="M375.36 213.07H398.32V218.34H374.04L375.36 213.07Z" fill="#DBDBDB"/>
<path d="M325.63 269.24H398.49L403.5 222.57H330.64L325.63 269.24Z" fill="#EBEBEB"/>
<path d="M381.06 217.73H404.02L403.5 222.57H379.22L381.06 217.73Z" fill="#EBEBEB"/>
<path d="M281.85 275.25L223.47 275.22L223.51 200.28L266.86 200.3L281.88 214.59L281.85 275.25Z" fill="#0B7D77"/>
<path opacity="0.6" d="M281.85 275.25L223.47 275.22L223.51 200.28L266.86 200.3L281.88 214.59L281.85 275.25Z" fill="white"/>
<path d="M266.86 200.3L281.88 214.59L266.85 214.58L266.86 200.3Z" fill="#0B7D77"/>
<path opacity="0.4" d="M266.86 200.3L281.88 214.59L266.85 214.58L266.86 200.3Z" fill="white"/>
<path d="M229.191 214.773L261.651 214.79L261.652 212.87L229.192 212.853L229.191 214.773Z" fill="#0B7D77"/>
<path d="M229.204 219.643L261.664 219.66L261.665 217.74L229.205 217.723L229.204 219.643Z" fill="#0B7D77"/>
<path d="M229.196 224.493L261.656 224.51L261.657 222.59L229.197 222.573L229.196 224.493Z" fill="#0B7D77"/>
<path d="M229.189 229.355L276.749 229.38L276.75 227.46L229.19 227.435L229.189 229.355Z" fill="#0B7D77"/>
<path d="M229.181 234.205L276.741 234.23L276.742 232.31L229.182 232.285L229.181 234.205Z" fill="#0B7D77"/>
<path d="M229.184 239.065L276.744 239.09L276.745 237.17L229.185 237.145L229.184 239.065Z" fill="#0B7D77"/>
<path d="M229.186 243.925L276.746 243.95L276.747 242.03L229.187 242.005L229.186 243.925Z" fill="#0B7D77"/>
<path d="M229.179 248.775L276.739 248.8L276.74 246.88L229.18 246.855L229.179 248.775Z" fill="#0B7D77"/>
<path d="M229.171 253.635L276.731 253.66L276.732 251.74L229.172 251.715L229.171 253.635Z" fill="#0B7D77"/>
<path d="M229.184 258.485L276.744 258.51L276.745 256.59L229.185 256.565L229.184 258.485Z" fill="#0B7D77"/>
<path d="M229.176 263.355L276.736 263.38L276.737 261.46L229.177 261.435L229.176 263.355Z" fill="#0B7D77"/>
<path d="M229.169 268.205L276.729 268.23L276.73 266.31L229.17 266.285L229.169 268.205Z" fill="#0B7D77"/>
<path d="M363.63 171.33L305.25 171.3L305.29 96.3599L348.63 96.3799L363.66 110.67L363.63 171.33Z" fill="#0B7D77"/>
<path opacity="0.6" d="M363.63 171.33L305.25 171.3L305.29 96.3599L348.63 96.3799L363.66 110.67L363.63 171.33Z" fill="white"/>
<path d="M348.63 96.3799L363.66 110.67L348.62 110.66L348.63 96.3799Z" fill="#0B7D77"/>
<path opacity="0.4" d="M348.63 96.3799L363.66 110.67L348.62 110.66L348.63 96.3799Z" fill="white"/>
<path d="M310.977 110.86L343.437 110.877L343.438 108.957L310.978 108.94L310.977 110.86Z" fill="#0B7D77"/>
<path d="M310.97 115.72L343.43 115.737L343.431 113.817L310.971 113.8L310.97 115.72Z" fill="#0B7D77"/>
<path d="M310.962 120.57L343.422 120.587L343.423 118.667L310.963 118.65L310.962 120.57Z" fill="#0B7D77"/>
<path d="M310.964 125.432L358.524 125.457L358.525 123.537L310.965 123.512L310.964 125.432Z" fill="#0B7D77"/>
<path d="M310.967 130.282L358.527 130.307L358.528 128.387L310.968 128.362L310.967 130.282Z" fill="#0B7D77"/>
<path d="M310.96 135.143L358.52 135.167L358.521 133.247L310.961 133.223L310.96 135.143Z" fill="#0B7D77"/>
<path d="M310.952 140.002L358.512 140.027L358.513 138.107L310.953 138.082L310.952 140.002Z" fill="#0B7D77"/>
<path d="M310.955 144.862L358.515 144.887L358.516 142.967L310.956 142.942L310.955 144.862Z" fill="#0B7D77"/>
<path d="M310.958 149.712L358.518 149.737L358.519 147.817L310.959 147.792L310.958 149.712Z" fill="#0B7D77"/>
<path d="M310.95 154.572L358.51 154.597L358.511 152.677L310.951 152.652L310.95 154.572Z" fill="#0B7D77"/>
<path d="M310.942 159.432L358.502 159.457L358.503 157.537L310.943 157.512L310.942 159.432Z" fill="#0B7D77"/>
<path d="M310.945 164.292L358.505 164.317L358.506 162.397L310.946 162.372L310.945 164.292Z" fill="#0B7D77"/>
<path d="M301.45 177.6H298.95V175.1H299.95V176.6H301.45V177.6Z" fill="#A6A6A6"/>
<path d="M300 171.17H299V167.24H300V171.17ZM300 163.31H299V159.38H300V163.31ZM300 155.45H299V151.52H300V155.45ZM300 147.59H299V143.66H300V147.59ZM300 139.73H299V135.8H300V139.73ZM300 131.87H299V127.94H300V131.87ZM300 124.01H299V120.08H300V124.01ZM300 116.15H299V112.22H300V116.15ZM300 108.29H299V104.36H300V108.29ZM300 100.43H299V96.4902H300V100.43Z" fill="#A6A6A6"/>
<path d="M299.979 92.5601H298.979L298.989 90.0601H301.489V91.0601H299.989L299.979 92.5601Z" fill="#A6A6A6"/>
<path d="M364.88 104.52L362.1 101.87L362.79 101.15L365.57 103.8L364.88 104.52ZM359.31 99.2301L356.53 96.5801L357.22 95.8501L360 98.5001L359.31 99.2301ZM353.74 93.9301L351 91.2801L351.69 90.5601L354.47 93.2101L353.74 93.9301ZM347.59 91.0801H343.75V90.0801H347.59V91.0801ZM339.91 91.0801H336.07V90.0801H339.91V91.0801ZM332.22 91.0801H328.38V90.0801H332.22V91.0801ZM324.54 91.0801H320.7V90.0801H324.54V91.0801ZM316.85 91.0801H313V90.0801H316.84L316.85 91.0801ZM309.17 91.0801H305.33V90.0801H309.17V91.0801Z" fill="#A6A6A6"/>
<path d="M369.96 110.19H368.96V108.4L367.67 107.17L368.35 106.44L369.96 107.97V110.19Z" fill="#A6A6A6"/>
<path d="M369.92 171.32H368.92V167.5H369.92V171.32ZM369.92 163.68H368.92V159.86H369.92V163.68ZM369.92 156.03H368.92V152.21H369.92V156.03ZM369.92 148.39H368.92V144.57H369.92V148.39ZM369.92 140.75H368.92V136.93H369.92V140.75ZM369.92 133.11H368.92V129.29H369.92V133.11ZM369.92 125.47H368.92V121.65H369.92V125.47ZM369.92 117.83H368.92V114H369.92V117.83Z" fill="#A6A6A6"/>
<path d="M369.92 177.64H367.42V176.64H368.92V175.14H369.92V177.64Z" fill="#A6A6A6"/>
<path d="M363.54 177.63H359.66V176.63H363.54V177.63ZM355.78 177.63H351.9V176.63H355.78V177.63ZM348.02 177.63H344.14V176.63H348L348.02 177.63ZM340.25 177.63H336.37V176.63H340.25V177.63ZM332.49 177.63H328.61V176.63H332.49V177.63ZM324.73 177.63H320.85V176.63H324.73V177.63ZM316.97 177.63H313.09V176.63H317L316.97 177.63ZM309.21 177.63H305.33V176.63H309.21V177.63Z" fill="#A6A6A6"/>
<path d="M267.149 200.71L266.569 199.9L269.819 197.58L270.399 198.39L267.149 200.71ZM273.659 196.07L273.079 195.26L276.339 192.94L276.919 193.75L273.659 196.07ZM280.179 191.43L279.599 190.62L282.859 188.3L283.439 189.11L280.179 191.43ZM286.699 186.79L286.119 185.98L289.379 183.66L289.959 184.47L286.699 186.79ZM293.209 182.15L292.629 181.34L295.889 179.02L296.469 179.83L293.209 182.15ZM299.729 177.51L299.159 176.69L299.729 177.51Z" fill="#A6A6A6"/>
<path d="M373.923 113.082C375.256 107.404 371.735 101.72 366.057 100.386C360.38 99.0527 354.696 102.574 353.362 108.252C352.028 113.929 355.55 119.613 361.227 120.947C366.905 122.28 372.589 118.759 373.923 113.082Z" fill="#0B7D77"/>
<path d="M364.739 104.15H362.569V117.19H364.739V104.15Z" fill="white"/>
<path d="M370.18 111.75V109.58H357.14V111.75H370.18Z" fill="white"/>
<path d="M374.949 187.19L379.379 197.89L374.949 199.72L370.499 188.95L363.189 194.63V164.49L384.279 185.8L374.949 187.19Z" fill="#263238"/>
<path d="M363.189 161.2C363.003 160.719 362.911 160.206 362.919 159.69C362.912 159.171 363.003 158.655 363.189 158.17C363.376 158.655 363.467 159.171 363.459 159.69C363.468 160.206 363.376 160.719 363.189 161.2Z" fill="#263238"/>
<path d="M360.579 162.28C359.636 161.842 358.877 161.084 358.439 160.14C359.383 160.578 360.142 161.336 360.579 162.28V162.28Z" fill="#263238"/>
<path d="M359.5 164.89C359.016 165.081 358.499 165.173 357.98 165.16C357.463 165.173 356.95 165.081 356.47 164.89C356.95 164.702 357.464 164.614 357.98 164.63C358.498 164.619 359.014 164.707 359.5 164.89Z" fill="#263238"/>
<path d="M360.579 167.5C360.369 167.975 360.07 168.406 359.699 168.77C359.337 169.138 358.91 169.437 358.439 169.65C358.644 169.175 358.944 168.746 359.319 168.39C359.678 168.014 360.106 167.712 360.579 167.5V167.5Z" fill="#263238"/>
<path d="M366.88 164.89C367.362 164.707 367.875 164.618 368.39 164.63C368.909 164.614 369.426 164.702 369.91 164.89C369.426 165.081 368.91 165.173 368.39 165.16C367.874 165.173 367.36 165.081 366.88 164.89V164.89Z" fill="#263238"/>
<path d="M365.8 162.28C366.013 161.81 366.311 161.382 366.68 161.02C367.039 160.648 367.467 160.349 367.94 160.14C367.731 160.613 367.432 161.041 367.06 161.4C366.702 161.774 366.274 162.073 365.8 162.28Z" fill="#263238"/>
<path d="M141.07 96.7798H93.7598V144.09H141.07V96.7798Z" fill="#0B7D77"/>
<path d="M150.58 153.59H102.26V105.28H150.58V153.59ZM103.26 152.59H149.58V106.28H103.26V152.59Z" fill="#0B7D77"/>
<path d="M119.82 105.97H115.01V134.9H119.82V105.97Z" fill="white"/>
<path d="M131.89 122.84V118.03H102.96V122.84H131.89Z" fill="white"/>
<path d="M158.469 380.86C158.469 380.86 157.239 429.1 157.239 429.13C157.239 438.05 157.459 445.87 157.929 449.9C157.924 449.923 157.924 449.947 157.929 449.97C157.935 450.925 158.161 451.866 158.589 452.72L158.649 452.78C161.309 454.57 232.579 456.42 235.079 455.64C237.579 454.86 235.589 447.64 232.879 445.39C230.169 443.14 203.189 430.19 203.189 430.19L203.999 382L158.469 380.86Z" fill="#AD6359"/>
<path d="M157.159 419.56C157.159 419.56 157.239 429.1 157.239 429.13C157.239 438.05 157.459 445.87 157.929 449.9C157.924 449.923 157.924 449.947 157.929 449.97C158.042 450.909 158.264 451.832 158.589 452.72L158.649 452.78C161.309 454.57 232.579 456.42 235.079 455.64C237.579 454.86 235.589 447.64 232.879 445.39C230.169 443.14 203.189 430.19 203.189 430.19L203.239 420.48L157.159 419.56Z" fill="white"/>
<path d="M207.569 430.22C202.819 429.44 197.049 430.29 193.509 433.73C193.369 433.87 193.569 434.06 193.719 434.01C198.205 432.454 202.845 431.384 207.559 430.82C207.639 430.821 207.716 430.791 207.773 430.736C207.83 430.68 207.863 430.605 207.864 430.525C207.866 430.446 207.835 430.369 207.78 430.312C207.725 430.254 207.649 430.221 207.569 430.22V430.22Z" fill="#263238"/>
<path d="M210.999 432.2C206.259 431.42 200.489 432.27 196.949 435.72C196.809 435.85 196.999 436.04 197.149 435.99C201.64 434.438 206.283 433.369 210.999 432.8C211.079 432.8 211.155 432.768 211.211 432.712C211.268 432.656 211.299 432.58 211.299 432.5C211.299 432.42 211.268 432.344 211.211 432.288C211.155 432.232 211.079 432.2 210.999 432.2Z" fill="#263238"/>
<path d="M214.479 434.19C209.729 433.41 203.969 434.26 200.419 437.7C200.289 437.83 200.479 438.03 200.629 437.98C205.115 436.423 209.755 435.354 214.469 434.79C214.549 434.791 214.626 434.761 214.683 434.706C214.74 434.65 214.773 434.574 214.774 434.495C214.776 434.415 214.745 434.338 214.69 434.281C214.635 434.224 214.559 434.191 214.479 434.19V434.19Z" fill="#263238"/>
<path d="M235.09 455.64C232.58 456.42 161.32 454.57 158.65 452.77C157.65 452.11 157.29 441.71 157.25 429.13V428.74L203.25 429.42V430.2C203.25 430.2 230.25 443.11 232.94 445.39C235.63 447.67 237.61 454.88 235.09 455.64Z" fill="#37474F"/>
<path d="M157.239 428.73V429.14C157.299 441.71 157.619 452.14 158.649 452.78C159.859 453.59 175.309 454.42 191.999 455.01C211.999 455.72 233.729 456.07 235.099 455.65C237.609 454.88 235.589 447.65 232.889 445.39C230.189 443.13 203.199 430.2 203.199 430.2V429.42L187.869 429.19L157.239 428.73Z" fill="#0B7D77"/>
<path d="M234.36 452.86C222.36 452.25 173.88 450.94 161.96 451.25C161.87 451.25 161.86 451.32 161.96 451.33C173.85 452.19 222.33 453.11 234.36 453.06C234.61 453.06 234.61 452.87 234.36 452.86Z" fill="#263238"/>
<path opacity="0.1" d="M187.909 429.19C188.999 436.9 190.739 448.25 191.999 455C211.999 455.71 233.729 456.06 235.099 455.64C237.609 454.87 235.589 447.64 232.889 445.38C230.189 443.12 203.199 430.2 203.199 430.2V429.42L187.909 429.19Z" fill="black"/>
<path d="M153.1 429.4L204.67 429.89C204.67 429.89 207.6 345.89 207.82 317.89C208.07 285.89 206.26 189.97 206.26 189.97H167.7C167.7 189.97 157.36 211.11 163.27 234.91L164.9 320.5L153.1 429.4Z" fill="#37474F"/>
<path d="M156.92 420.36C158.272 420.166 159.634 420.046 161 420C162.52 419.89 164 419.78 165.57 419.71C168.5 419.59 171.44 419.54 174.37 419.52C180.29 419.52 186.22 419.52 192.14 419.73C195.5 419.84 198.87 419.97 202.23 420.16C202.259 420.16 202.287 420.172 202.308 420.192C202.328 420.213 202.34 420.241 202.34 420.27C202.34 420.299 202.328 420.327 202.308 420.348C202.287 420.368 202.259 420.38 202.23 420.38C196.36 420.59 190.49 420.68 184.61 420.79C178.73 420.9 172.87 421.02 167.01 420.91C165.32 420.91 163.64 420.86 162.01 420.77C160.38 420.68 158.61 420.77 156.96 420.52C156.85 420.55 156.8 420.39 156.92 420.36Z" fill="#263238"/>
<path d="M201 374C201.6 360.11 202 346.22 202.42 332.33C203.18 304.537 203.38 276.743 203.02 248.95C202.83 233.35 202.41 217.76 201.95 202.18C201.95 202 202.21 202.01 202.22 202.18C203.7 230.09 204.22 258.05 204.29 285.99C204.36 313.93 203.74 341.59 202.37 369.35C201.6 384.94 200.65 400.53 199.18 416.06C199.173 416.083 199.159 416.102 199.14 416.116C199.121 416.13 199.098 416.137 199.075 416.137C199.051 416.137 199.028 416.13 199.01 416.116C198.991 416.102 198.977 416.083 198.97 416.06C199.56 402.05 200.35 388 201 374Z" fill="#263238"/>
<path d="M213.64 388.52C213.64 388.52 214.03 435.15 214.03 435.18C214.03 444.1 214.24 451.92 214.71 455.95C214.706 455.973 214.706 455.997 214.71 456.02C214.722 456.976 214.951 457.916 215.38 458.77L215.43 458.83C218.09 460.61 289.36 462.47 291.87 461.69C294.38 460.91 292.37 453.69 289.66 451.44C286.95 449.19 260 436.24 260 436.24L259.17 389.64L213.64 388.52Z" fill="#AD6359"/>
<path d="M214 425.61C214 425.61 214.08 435.15 214.08 435.18C214.08 444.1 214.29 451.92 214.76 455.95C214.756 455.973 214.756 455.997 214.76 456.02C214.876 456.959 215.101 457.882 215.43 458.77L215.48 458.83C218.14 460.61 289.41 462.47 291.92 461.69C294.43 460.91 292.42 453.69 289.71 451.44C287 449.19 260 436.24 260 436.24V426.53L214 425.61Z" fill="white"/>
<path d="M264.35 436.27C259.6 435.49 253.84 436.34 250.3 439.78C250.16 439.92 250.3 440.11 250.5 440.06C254.986 438.505 259.626 437.435 264.34 436.87C264.419 436.871 264.496 436.841 264.553 436.786C264.611 436.73 264.643 436.655 264.645 436.575C264.646 436.495 264.616 436.419 264.56 436.361C264.505 436.304 264.429 436.271 264.35 436.27V436.27Z" fill="#263238"/>
<path d="M267.81 438.25C263.06 437.47 257.29 438.32 253.75 441.77C253.61 441.9 253.81 442.09 253.96 442.04C258.447 440.488 263.086 439.419 267.8 438.85C267.879 438.851 267.956 438.821 268.013 438.765C268.07 438.71 268.103 438.634 268.105 438.555C268.106 438.475 268.076 438.398 268.02 438.341C267.965 438.284 267.889 438.251 267.81 438.25Z" fill="#263238"/>
<path d="M271.26 440.24C266.52 439.46 260.75 440.31 257.21 443.75C257.07 443.88 257.26 444.08 257.42 444.03C261.905 442.472 266.545 441.403 271.26 440.84C271.339 440.84 271.416 440.808 271.472 440.752C271.528 440.696 271.56 440.619 271.56 440.54C271.56 440.46 271.528 440.384 271.472 440.328C271.416 440.271 271.339 440.24 271.26 440.24V440.24Z" fill="#263238"/>
<path d="M291.879 461.69C289.369 462.47 218.099 460.62 215.439 458.82C214.439 458.16 214.079 447.76 214.029 435.18V434.79L260.029 435.47V436.25C260.029 436.25 287.029 449.16 289.709 451.44C292.389 453.72 294.389 460.93 291.879 461.69Z" fill="#0B7D77"/>
<path d="M291.14 458.91C279.14 458.3 230.66 456.99 218.75 457.3C218.65 457.3 218.65 457.37 218.75 457.38C230.63 458.24 279.12 459.16 291.14 459.11C291.39 459.11 291.4 458.92 291.14 458.91Z" fill="#263238"/>
<path d="M190.069 239.34C190.069 239.34 211.229 306.03 211.609 318.34C211.939 328.78 210.609 436 210.609 436L264.169 436.32C264.169 436.32 259.639 326.93 258.799 316C257.239 295.64 239.399 239.74 226.639 190H168.899C168.899 190 169.399 216.08 181.259 234.94C181.259 234.93 186.629 237.41 190.069 239.34Z" fill="#37474F"/>
<path d="M213.45 426.08C219.63 425.9 226.05 425.72 232.24 425.87C238.43 426.02 244.53 426.12 250.66 426.48C254.13 426.69 257.6 426.81 261.07 427.15C261.09 427.156 261.107 427.169 261.12 427.186C261.132 427.203 261.139 427.224 261.139 427.245C261.139 427.266 261.132 427.286 261.12 427.303C261.107 427.321 261.09 427.333 261.07 427.34C254.89 427.7 248.68 427.62 242.49 427.57C236.3 427.52 230.2 427.45 224.06 427.16C220.59 427 217.12 426.83 213.65 426.59C213.27 426.56 213.07 426.09 213.45 426.08Z" fill="#263238"/>
<path d="M225.159 221.4C227.069 227.78 228.679 234.24 230.389 240.67C232.099 247.1 233.829 253.67 235.529 260.12C238.829 272.66 242.099 285.23 244.529 297.96C247.058 310.744 248.49 323.722 248.809 336.75C249.099 350.03 248.809 363.32 248.729 376.6C248.649 389.88 248.529 403.3 248.299 416.6C248.299 418.26 248.229 419.92 248.169 421.6C248.169 421.76 247.929 421.75 247.919 421.6C247.569 408.32 247.759 395.02 247.799 381.74C247.839 368.46 248.019 355.17 247.909 341.89C247.855 328.705 246.715 315.547 244.499 302.55C242.259 289.77 239.109 277.17 235.849 264.62C233.989 257.46 232.123 250.3 230.249 243.14C228.379 235.94 226.379 228.74 224.729 221.48C224.719 221.423 224.731 221.364 224.764 221.316C224.797 221.268 224.847 221.235 224.904 221.225C224.961 221.214 225.02 221.227 225.068 221.26C225.116 221.292 225.149 221.343 225.159 221.4V221.4Z" fill="#263238"/>
<path d="M203.32 240.63C200.638 240.612 197.962 240.372 195.32 239.91C192.719 239.327 190.149 238.612 187.62 237.77C185.129 237.2 182.603 236.789 180.06 236.54C177.499 236.168 175.006 235.423 172.66 234.33C172.639 234.325 172.616 234.328 172.597 234.337C172.577 234.346 172.561 234.362 172.551 234.381C172.541 234.4 172.537 234.422 172.54 234.444C172.544 234.465 172.554 234.485 172.57 234.5C174.842 235.724 177.214 236.754 179.66 237.58C182.2 238.38 184.86 238.49 187.43 239.12C190.032 239.894 192.681 240.502 195.36 240.94C198.003 241.267 200.679 241.223 203.31 240.81C203.45 240.79 203.42 240.63 203.32 240.63Z" fill="#263238"/>
<path d="M206.7 293.68C206.19 291.68 205.7 289.68 205.18 287.75C204.09 283.75 202.99 279.75 201.79 275.84C199.4 268 197.14 260.11 194.61 252.31C193.18 247.88 191.89 243.4 190.21 239.07C190.2 239.051 190.184 239.036 190.165 239.028C190.146 239.019 190.124 239.018 190.104 239.024C190.083 239.03 190.066 239.043 190.054 239.06C190.042 239.078 190.037 239.099 190.04 239.12C190.88 243.12 192.04 247.12 193.15 251.12C194.26 255.12 195.37 259.07 196.52 263.03C198.81 270.91 201.04 278.8 203.52 286.62C204.22 288.81 204.93 290.99 205.69 293.17C206.45 295.35 207.07 297.68 208 299.84C208.009 299.863 208.027 299.882 208.05 299.892C208.072 299.903 208.098 299.904 208.122 299.897C208.146 299.889 208.166 299.873 208.179 299.852C208.191 299.83 208.195 299.804 208.19 299.78C207.85 297.71 207.22 295.7 206.7 293.68Z" fill="#263238"/>
<path d="M215.19 127.17C211.36 127.91 204.27 121.32 201.89 116.51C201.73 116.18 202.36 112.8 202.94 108.66C203.28 106.14 203.6 103.34 203.71 100.75L219.71 105.36C218.643 108.553 217.971 111.864 217.71 115.22C217.696 115.575 217.72 115.93 217.78 116.28C217.78 116.28 217.78 116.39 217.78 116.46C218.1 118.49 218.9 126.45 215.19 127.17Z" fill="#AD6359"/>
<path d="M217.84 116.28C217.84 116.28 217.84 116.4 217.84 116.46C217.284 116.506 216.726 116.506 216.17 116.46C206.65 115.68 204.6 104.9 204.17 100.87L219.75 105.35C218.682 108.539 218.01 111.847 217.75 115.2C217.747 115.562 217.777 115.924 217.84 116.28V116.28Z" fill="#263238"/>
<path d="M200.9 80.9297C198.83 86.5697 200.9 103.33 204.81 107.25C210.43 112.94 220.1 114 225.05 107.13C229.85 100.48 226.72 78.6997 222.34 75.1297C215.9 69.7597 204 72.5897 200.9 80.9297Z" fill="#AD6359"/>
<path d="M217.149 91.8799C217.149 91.8799 217.06 91.9399 217.07 91.9899C217.23 93.1099 217.219 94.4299 216.229 94.9199C216.229 94.9199 216.229 94.9899 216.229 94.9799C217.479 94.6699 217.479 92.9199 217.149 91.8799Z" fill="#263238"/>
<path d="M216 90.8101C214.17 90.8101 214.42 94.5301 216.11 94.4701C217.8 94.4101 217.55 90.7601 216 90.8101Z" fill="#263238"/>
<path d="M223.52 91.43C223.52 91.38 223.61 91.43 223.61 91.52C223.61 92.66 223.89 93.95 224.94 94.26V94.33C223.68 94.23 223.38 92.51 223.52 91.43Z" fill="#263238"/>
<path d="M224.45 90.17C226.27 89.91 226.66 93.56 224.98 93.81C223.3 94.06 222.93 90.39 224.45 90.17Z" fill="#263238"/>
<path d="M214.449 89.2298C214.923 89.0546 215.387 88.8543 215.839 88.6298C216.354 88.4904 216.807 88.1844 217.129 87.7598C217.204 87.6054 217.226 87.4307 217.192 87.2625C217.158 87.0944 217.069 86.9423 216.939 86.8298C216.65 86.6449 216.317 86.5409 215.974 86.5286C215.631 86.5163 215.291 86.5961 214.989 86.7598C214.329 86.9977 213.781 87.4714 213.449 88.0898C213.382 88.2355 213.359 88.3975 213.382 88.5563C213.405 88.7151 213.473 88.8638 213.579 88.9844C213.685 89.1051 213.823 89.1924 213.978 89.236C214.132 89.2795 214.296 89.2774 214.449 89.2298V89.2298Z" fill="#263238"/>
<path d="M225.739 88.2299C225.241 88.1665 224.747 88.073 224.259 87.9499C223.723 87.9278 223.209 87.7272 222.799 87.3799C222.696 87.2429 222.641 87.0762 222.641 86.9049C222.641 86.7335 222.696 86.5668 222.799 86.4299C223.043 86.1884 223.346 86.0158 223.678 85.9298C224.01 85.8437 224.359 85.8472 224.689 85.9399C225.393 86.0363 226.036 86.3931 226.489 86.9399C226.576 87.0691 226.625 87.22 226.63 87.3755C226.635 87.531 226.596 87.6848 226.518 87.8192C226.439 87.9537 226.325 88.0635 226.187 88.1361C226.05 88.2087 225.895 88.2412 225.739 88.2299V88.2299Z" fill="#263238"/>
<path d="M221.149 99.8998C220.713 100.558 220.114 101.093 219.409 101.45C219.022 101.629 218.589 101.685 218.169 101.61C217.249 101.43 217.169 100.61 217.279 99.8798C217.348 99.4944 217.463 99.1185 217.619 98.7598C218.644 99.5081 219.881 99.9078 221.149 99.8998V99.8998Z" fill="#263238"/>
<path d="M219.409 101.45C219.022 101.629 218.589 101.685 218.169 101.61C217.249 101.43 217.169 100.61 217.279 99.88C217.76 99.8614 218.232 100.007 218.619 100.292C219.006 100.577 219.285 100.986 219.409 101.45V101.45Z" fill="#FF97B8"/>
<path opacity="0.2" d="M204.47 75.8999C204.65 78.1399 205.04 85.0999 204.15 86.6499C203.26 88.1999 201.44 91.7599 200.35 92.4299C199.89 87.8099 200.02 83.3399 200.91 80.9299C201.631 78.968 202.859 77.2323 204.47 75.8999V75.8999Z" fill="#263238"/>
<path d="M218.71 80.5201C218.166 81.2946 217.433 81.917 216.58 82.3283C215.728 82.7396 214.785 82.9261 213.84 82.8701C212.871 82.8106 211.934 82.5035 211.118 81.9783C210.302 81.453 209.635 80.7271 209.18 79.8701C209.18 79.8701 209.07 79.8701 209.1 79.8701C209.503 80.8057 210.154 81.6137 210.982 82.2074C211.81 82.8012 212.784 83.1582 213.8 83.2401C214.798 83.2616 215.785 83.022 216.662 82.5449C217.539 82.0678 218.276 81.3698 218.8 80.5201C218.87 80.5201 218.76 80.4401 218.71 80.5201Z" fill="#263238"/>
<path d="M211.7 67.4099C210.242 67.5517 208.844 68.0573 207.633 68.8803C206.422 69.7033 205.438 70.8172 204.77 72.1199C204.233 73.4215 204.151 74.8664 204.54 76.2199C204.54 76.2799 204.67 76.2199 204.66 76.2199C204.478 75.0062 204.627 73.7661 205.089 72.6295C205.552 71.4929 206.312 70.5017 207.29 69.7599C208.357 68.9018 209.609 68.3034 210.947 68.0119C212.285 67.7203 213.672 67.7436 215 68.0799C216.285 68.3828 217.422 69.1301 218.21 70.1899C218.28 70.2999 218.51 70.1899 218.45 70.0899C217.36 68.1699 214.6 67.0699 211.7 67.4099Z" fill="#263238"/>
<path d="M230.999 72.6001C230.325 71.0697 229.131 69.8266 227.629 69.0901C225.549 68.0901 223.339 68.4401 221.159 68.8801C221.099 68.8801 221.159 68.9801 221.159 68.9701C222.987 68.4622 224.922 68.4969 226.729 69.0701C228.225 69.6609 229.471 70.7485 230.259 72.1501C231.023 73.5945 231.242 75.2655 230.874 76.8576C230.507 78.4497 229.579 79.8563 228.259 80.8201C227.484 81.3537 226.608 81.7231 225.684 81.9054C224.761 82.0877 223.81 82.0791 222.889 81.8801C222.819 81.8801 222.769 81.9701 222.889 81.9901C224.55 82.4029 226.304 82.1934 227.82 81.4012C229.336 80.6089 230.51 79.2888 231.119 77.6901C231.711 76.0371 231.668 74.2234 230.999 72.6001V72.6001Z" fill="#263238"/>
<path d="M200 84.2799C200 84.2799 196.44 78.8199 198.69 75.2799C199.96 73.2799 204.77 73.0799 204.77 73.0799C205.324 72.0768 206.072 71.1936 206.969 70.4813C207.867 69.7689 208.897 69.2416 210 68.9299C213.93 67.6599 218.9 69.5699 218.9 69.5699C218.9 69.5699 222.5 67.0599 226.25 68.7699C231.47 71.1699 231.52 78.7699 226.74 81.6699C223.38 83.6699 218.34 81.0099 218.34 81.0099C217.89 81.1099 213.45 84.3599 209.52 80.4899C209.52 80.4899 206.87 83.3099 204.12 81.7399C203.779 82.5365 203.2 83.2083 202.463 83.663C201.725 84.1177 200.865 84.3332 200 84.2799V84.2799Z" fill="#263238"/>
<path d="M215.4 98.0997C214.533 98.0095 213.709 97.6781 213.021 97.1431C212.333 96.6081 211.809 95.891 211.508 95.0731C211.207 94.2552 211.142 93.3693 211.319 92.5161C211.497 91.6629 211.91 90.8765 212.512 90.2463C213.113 89.6161 213.88 89.1672 214.724 88.9508C215.568 88.7343 216.456 88.7588 217.287 89.0216C218.118 89.2844 218.858 89.7749 219.424 90.4375C219.991 91.1 220.36 91.908 220.49 92.7697C220.58 93.3764 220.551 93.9951 220.402 94.5903C220.254 95.1856 219.99 95.7458 219.625 96.2389C219.26 96.732 218.801 97.1484 218.275 97.4643C217.749 97.7801 217.166 97.9892 216.56 98.0797C216.175 98.1313 215.786 98.138 215.4 98.0997V98.0997ZM216.28 89.4397C215.948 89.3958 215.611 89.3958 215.28 89.4397C214.27 89.5669 213.347 90.074 212.698 90.8578C212.049 91.6417 211.724 92.6433 211.787 93.6588C211.851 94.6743 212.299 95.6274 213.041 96.324C213.783 97.0205 214.762 97.4083 215.78 97.4083C216.797 97.4083 217.776 97.0205 218.518 96.324C219.26 95.6274 219.708 94.6743 219.772 93.6588C219.835 92.6433 219.51 91.6417 218.861 90.8578C218.212 90.074 217.289 89.5669 216.28 89.4397Z" fill="#0B7D77"/>
<path d="M226.11 97.8801C224.33 97.7001 222.9 95.7201 222.86 93.2801C222.825 92.1156 223.153 90.969 223.8 90.0001C224.065 89.5807 224.427 89.2311 224.855 88.9805C225.283 88.73 225.765 88.5858 226.26 88.5601C226.758 88.5668 227.247 88.6951 227.685 88.9338C228.122 89.1726 228.495 89.5146 228.77 89.9301C229.434 90.879 229.784 92.0121 229.77 93.1701C229.77 95.7401 228.28 97.8601 226.37 97.8901L226.11 97.8801ZM226.51 89.2001C226.43 89.1904 226.35 89.1904 226.27 89.2001C225.867 89.2175 225.474 89.3332 225.125 89.5371C224.776 89.741 224.483 90.027 224.27 90.3701C223.697 91.2297 223.41 92.248 223.45 93.2801C223.45 95.5101 224.78 97.2801 226.36 97.2801C227.94 97.2801 229.18 95.4201 229.15 93.1901C229.148 92.1581 228.827 91.1521 228.23 90.3101C228.036 90.0163 227.782 89.7659 227.486 89.5749C227.19 89.3838 226.858 89.2562 226.51 89.2001V89.2001Z" fill="#0B7D77"/>
<path d="M220.34 93.3199L219.93 92.8399C220.63 92.2399 222.25 91.4099 223.41 92.6099L222.96 93.0499C221.92 91.9999 220.4 93.2599 220.34 93.3199Z" fill="#0B7D77"/>
<path d="M199.57 94.8501L199.02 94.5701C199.15 94.3101 200.32 92.0201 201.71 91.7701C203.1 91.5201 211.38 92.1901 211.71 92.2201V92.8401C209.31 92.6501 202.84 92.2001 201.84 92.3801C200.84 92.5601 199.89 94.2201 199.57 94.8501Z" fill="#0B7D77"/>
<path d="M203.69 94.6399C203.69 94.6399 200.13 89.1399 197.69 90.3899C195.25 91.6399 197.75 99.5299 200.57 100.69C200.921 100.866 201.303 100.968 201.695 100.991C202.087 101.015 202.479 100.958 202.849 100.826C203.218 100.693 203.556 100.487 203.844 100.219C204.131 99.9517 204.361 99.6288 204.52 99.2699L203.69 94.6399Z" fill="#AD6359"/>
<path d="M198.429 92.6401C198.429 92.6401 198.379 92.6401 198.429 92.7101C200.429 93.5901 201.429 95.4901 202.069 97.4501C201.96 97.2447 201.808 97.0654 201.622 96.9246C201.437 96.7838 201.224 96.6848 200.997 96.6344C200.769 96.584 200.534 96.5835 200.307 96.6328C200.079 96.6821 199.865 96.7802 199.679 96.9201C199.679 96.9201 199.679 97.0401 199.729 97.0301C200.087 96.9302 200.467 96.9439 200.816 97.0693C201.165 97.1948 201.467 97.4257 201.679 97.7301C202.038 98.2339 202.336 98.7776 202.569 99.3501C202.659 99.5301 202.979 99.4501 202.919 99.2401C202.999 96.6401 201.169 93.0001 198.429 92.6401Z" fill="#263238"/>
<path d="M159.07 201.17C159.22 201.38 233.31 208.74 234.07 208.04C235.07 207.04 231.34 132.85 218.24 117.58C215.02 113.82 203.56 109.23 199.75 111.58C189.86 117.58 183.68 131.17 179.75 139.09C176.82 144.96 173.02 155.09 169.5 165.47C163.64 182.55 158.52 200.41 159.07 201.17Z" fill="#0B7D77"/>
<path opacity="0.1" d="M203.719 140.1C203.354 141.12 203.138 142.188 203.079 143.27C203.695 142.383 204.174 141.409 204.499 140.38C204.859 139.358 205.074 138.291 205.139 137.21C204.524 138.096 204.045 139.071 203.719 140.1V140.1ZM173.719 159.02C173.368 160.04 173.156 161.103 173.089 162.18C173.705 161.296 174.183 160.326 174.509 159.3C174.876 158.28 175.088 157.212 175.139 156.13C174.537 157.017 174.06 157.983 173.719 159V159.02ZM216.63 203.02C216.271 204.038 216.058 205.102 215.999 206.18C216.616 205.292 217.097 204.318 217.429 203.29C217.777 202.268 217.989 201.206 218.059 200.13C217.445 201.011 216.963 201.978 216.63 203V203.02ZM179.63 203.2V203.34L180.479 203.41C180.831 202.411 181.036 201.367 181.089 200.31C180.466 201.192 179.977 202.163 179.639 203.19L179.63 203.2ZM160.369 197C160.017 198.02 159.801 199.083 159.729 200.16C160.354 199.273 160.836 198.295 161.16 197.26C161.528 196.244 161.74 195.179 161.789 194.1C161.19 194.999 160.712 195.974 160.369 197ZM198.429 178.57C198.072 179.589 197.857 180.652 197.789 181.73C198.412 180.845 198.894 179.871 199.219 178.84C199.575 177.821 199.787 176.757 199.85 175.68C199.24 176.57 198.762 177.543 198.429 178.57V178.57ZM187.759 126.73C187.391 127.745 187.179 128.811 187.13 129.89C187.732 128.993 188.207 128.017 188.539 126.99C188.907 125.977 189.123 124.916 189.179 123.84C188.57 124.73 188.092 125.703 187.759 126.73V126.73ZM226.91 140.35C225.898 139.977 224.836 139.761 223.759 139.71C224.648 140.324 225.622 140.806 226.649 141.14C226.829 141.14 226.999 141.25 227.179 141.29C227.059 141 227 140.65 226.91 140.35V140.35ZM177.91 181.57C176.892 181.207 175.828 180.992 174.749 180.93C175.638 181.549 176.616 182.028 177.649 182.35C178.662 182.718 179.724 182.933 180.799 182.99C179.938 182.386 178.995 181.908 177.999 181.57H177.91ZM233.999 204.48C232.983 204.114 231.918 203.902 230.839 203.85C231.733 204.459 232.71 204.938 233.74 205.27L234.199 205.41C234.199 205.14 234.199 204.86 234.199 204.56L233.999 204.48ZM206.6 193.35C205.579 192.987 204.511 192.775 203.429 192.72C204.324 193.326 205.3 193.801 206.329 194.13C207.348 194.5 208.417 194.716 209.499 194.77C208.603 194.164 207.627 193.686 206.6 193.35ZM226.899 171.15C225.884 170.794 224.824 170.582 223.749 170.52C224.639 171.131 225.612 171.609 226.639 171.94C227.658 172.3 228.721 172.515 229.799 172.58C228.906 171.967 227.929 171.485 226.899 171.15V171.15ZM197.07 154.15C196.053 153.784 194.988 153.572 193.91 153.52C194.802 154.128 195.779 154.603 196.809 154.93C197.824 155.301 198.89 155.517 199.969 155.57C199.076 154.96 198.099 154.482 197.07 154.15ZM171.52 194.68C171.055 193.707 170.456 192.805 169.74 192C169.922 193.06 170.259 194.087 170.74 195.05C171.2 196.024 171.8 196.927 172.52 197.73C172.33 196.671 171.993 195.645 171.52 194.68V194.68ZM203.52 117.84C203.058 116.863 202.454 115.96 201.729 115.16C202.164 117.279 203.135 119.252 204.549 120.89C204.358 119.829 204.014 118.802 203.529 117.84H203.52ZM218.82 152.78C218.356 151.806 217.757 150.904 217.039 150.1C217.467 152.224 218.442 154.199 219.869 155.83C219.67 154.769 219.319 153.742 218.829 152.78H218.82ZM197.6 203.49C197.138 202.516 196.538 201.613 195.82 200.81C196.006 201.872 196.343 202.902 196.82 203.87C197.03 204.27 197.249 204.68 197.499 205.07L198.249 205.14C198.072 204.575 197.855 204.024 197.6 203.49V203.49ZM215.779 181.49C215.315 180.517 214.716 179.615 213.999 178.81C214.188 179.852 214.525 180.862 214.999 181.81C215.466 182.784 216.065 183.689 216.779 184.5C216.585 183.471 216.249 182.475 215.779 181.54V181.49ZM187.24 168C186.773 167.023 186.17 166.117 185.449 165.31C185.872 167.441 186.852 169.421 188.289 171.05C188.082 169.989 187.729 168.963 187.24 168V168ZM166.649 173.91C166.539 174.27 166.419 174.62 166.309 174.98L166.6 174.85C167.573 174.386 168.475 173.787 169.279 173.07C168.37 173.222 167.485 173.498 166.649 173.89V173.91ZM188.999 190.39C188.021 190.854 187.112 191.453 186.299 192.17C188.427 191.749 190.406 190.777 192.039 189.35C190.981 189.546 189.956 189.896 188.999 190.39V190.39ZM183.639 144.78C182.671 145.247 181.773 145.846 180.969 146.56C182.032 146.373 183.062 146.036 184.029 145.56C185.002 145.087 185.904 144.481 186.71 143.76C185.654 143.959 184.631 144.302 183.669 144.78H183.639ZM225.939 192.68C224.964 193.144 224.058 193.743 223.249 194.46C224.31 194.277 225.337 193.94 226.299 193.46C227.277 193.004 228.18 192.404 228.979 191.68C227.943 191.866 226.939 192.203 225.999 192.68H225.939ZM210.549 165.46C209.576 165.928 208.671 166.527 207.859 167.24C208.919 167.053 209.946 166.716 210.91 166.24C211.887 165.779 212.79 165.176 213.589 164.45C212.544 164.646 211.531 164.985 210.579 165.46H210.549ZM218.359 126C217.39 126.469 216.488 127.068 215.679 127.78C217.809 127.356 219.791 126.384 221.429 124.96C220.36 125.153 219.326 125.503 218.359 126V126Z" fill="black"/>
<path d="M212.8 132.16C223.64 148.41 245.34 177.77 259.2 178.74C273.9 179.74 293.25 163.74 301.57 158.74C305.09 156.64 285.21 134.21 281.01 135.49C276.81 136.77 264.2 147.54 260.94 147.9C257.68 148.26 237.2 130.19 223 120.67C206.35 109.47 204 119 212.8 132.16Z" fill="#AD6359"/>
<path d="M320.35 115.26C322.2 118.62 313.54 122.47 313.54 122.47C315.185 122.607 316.731 123.314 317.91 124.47C319.91 126.61 317.39 130.64 317.39 130.64C319.067 131.141 320.554 132.134 321.66 133.49C323.34 135.73 321.41 140.16 321.41 140.16C322.697 141.469 323.468 143.198 323.58 145.03C323.69 149.94 317.43 154.03 313.48 156.71C309.53 159.39 294.57 163 292 164L276 139C276 139 290.34 122 295.44 119.58C299.74 117.47 317.53 110.13 320.35 115.26Z" fill="#AD6359"/>
<path d="M313.42 122.41C308.33 123.52 303.51 125.85 298.89 128.15C298.871 128.162 298.858 128.18 298.852 128.202C298.846 128.223 298.848 128.246 298.858 128.265C298.868 128.285 298.885 128.301 298.905 128.309C298.926 128.317 298.949 128.317 298.97 128.31C303.54 125.97 308.85 124.8 313.5 122.64C313.63 122.59 313.56 122.38 313.42 122.41Z" fill="#263238"/>
<path d="M317.089 130.38C315.955 130.737 314.874 131.248 313.879 131.9C312.779 132.51 311.689 133.15 310.609 133.8C308.459 135.1 306.329 136.46 304.239 137.87C304.149 137.94 304.239 138.09 304.329 138.03C306.479 136.74 308.649 135.47 310.849 134.27C311.949 133.66 313.059 133.07 314.179 132.48C315.264 131.998 316.291 131.394 317.239 130.68C317.272 130.656 317.295 130.622 317.305 130.583C317.314 130.544 317.31 130.503 317.292 130.467C317.274 130.431 317.243 130.402 317.206 130.386C317.169 130.37 317.128 130.368 317.089 130.38Z" fill="#263238"/>
<path d="M321.32 140.22C320.301 140.564 319.347 141.078 318.5 141.74C317.5 142.36 316.56 142.97 315.58 143.57C313.63 144.78 311.67 145.99 309.68 147.13C309.661 147.142 309.648 147.16 309.642 147.182C309.636 147.203 309.638 147.226 309.648 147.246C309.658 147.265 309.675 147.281 309.695 147.289C309.716 147.297 309.739 147.298 309.76 147.29C311.76 146.14 313.84 145.02 315.86 143.85C316.86 143.28 317.86 142.71 318.86 142.12C319.811 141.678 320.675 141.068 321.41 140.32C321.423 140.308 321.431 140.291 321.432 140.273C321.433 140.256 321.427 140.238 321.415 140.225C321.403 140.212 321.386 140.204 321.368 140.203C321.35 140.202 321.333 140.208 321.32 140.22V140.22Z" fill="#263238"/>
<path d="M274.719 138.18L294.659 168C294.659 168 268.659 184.4 254.419 179.29C240.179 174.18 217.829 143.79 210.419 129.9C203.009 116.01 209.209 110.57 222.419 119.62C235.629 128.67 259.109 146.25 260.029 146.62C260.949 146.99 274.719 138.18 274.719 138.18Z" fill="#0B7D77"/>
<path opacity="0.1" d="M218.36 126C217.39 126.469 216.488 127.068 215.68 127.78C217.809 127.357 219.791 126.385 221.43 124.96C220.361 125.153 219.326 125.504 218.36 126V126ZM261.86 167C260.882 167.461 259.976 168.06 259.17 168.78C261.298 168.356 263.277 167.38 264.91 165.95C263.847 166.147 262.819 166.501 261.86 167V167ZM276.7 141.12C276.287 141.274 275.883 141.451 275.49 141.65C274.509 142.11 273.599 142.71 272.79 143.43C273.856 143.245 274.889 142.908 275.86 142.43C276.28 142.21 276.69 141.98 277.09 141.72L276.7 141.12ZM244.49 145.65C244.027 144.674 243.427 143.768 242.71 142.96C243.136 145.085 244.108 147.064 245.53 148.7C245.333 147.648 244.983 146.63 244.49 145.68V145.65ZM253.04 177.65C252.57 176.68 251.972 175.779 251.26 174.97C251.447 176.029 251.783 177.056 252.26 178.02L252.49 178.45C252.85 178.62 253.21 178.78 253.55 178.92C253.42 178.51 253.23 178.1 253 177.68L253.04 177.65ZM274.1 156.65C273.632 155.677 273.029 154.775 272.31 153.97C272.497 155.029 272.833 156.056 273.31 157.02C273.778 157.99 274.377 158.892 275.09 159.7C274.908 158.641 274.574 157.614 274.1 156.65V156.65ZM245.31 163.08C244.292 162.721 243.228 162.509 242.15 162.45C243.046 163.056 244.022 163.534 245.05 163.87C246.072 164.227 247.139 164.442 248.22 164.51C247.323 163.897 246.343 163.416 245.31 163.08V163.08ZM291.88 163.82C291.42 163.6 290.94 163.42 290.46 163.24C289.442 162.879 288.378 162.67 287.3 162.62C288.199 163.218 289.174 163.693 290.2 164.03C290.913 164.275 291.645 164.459 292.39 164.58L291.88 163.82ZM226.88 140.33C225.868 139.957 224.806 139.741 223.73 139.69C224.618 140.305 225.592 140.786 226.62 141.12C227.639 141.474 228.703 141.682 229.78 141.74C228.881 141.128 227.897 140.653 226.86 140.33H226.88ZM232.88 156.98C232.525 157.999 232.316 159.063 232.26 160.14C233.433 158.346 234.121 156.279 234.26 154.14C233.673 155.025 233.211 155.988 232.89 157L232.88 156.98ZM260.31 152.98C259.944 154 259.728 155.068 259.67 156.15C260.284 155.261 260.766 154.288 261.1 153.26C261.458 152.238 261.67 151.171 261.73 150.09C261.116 150.984 260.641 151.965 260.32 153L260.31 152.98ZM273.88 172.92C273.531 173.941 273.316 175.003 273.24 176.08C273.864 175.197 274.346 174.222 274.67 173.19C275.038 172.175 275.251 171.109 275.3 170.03C274.706 170.932 274.233 171.906 273.89 172.93L273.88 172.92Z" fill="black"/>
<path d="M277.919 156.18C276.569 154.02 275.159 151.89 273.759 149.76C273.079 148.76 272.419 147.76 271.709 146.76C270.999 145.76 270.259 144.52 269.419 143.5C269.409 143.484 269.392 143.473 269.373 143.469C269.355 143.465 269.335 143.469 269.319 143.48C269.303 143.49 269.292 143.507 269.289 143.526C269.285 143.545 269.289 143.564 269.299 143.58C269.859 144.77 270.609 145.9 271.249 147.05C271.889 148.2 272.479 149.16 273.109 150.21C274.429 152.4 275.739 154.58 277.109 156.73C279.839 161.05 282.689 165.27 285.589 169.47C285.596 169.48 285.604 169.49 285.614 169.497C285.625 169.504 285.636 169.509 285.648 169.512C285.66 169.515 285.673 169.515 285.685 169.513C285.697 169.511 285.709 169.506 285.719 169.5C285.73 169.493 285.739 169.485 285.746 169.475C285.753 169.465 285.758 169.453 285.761 169.441C285.764 169.429 285.764 169.417 285.762 169.404C285.76 169.392 285.756 169.38 285.749 169.37C283.209 164.89 280.629 160.5 277.919 156.18Z" fill="#263238"/>
<path d="M230.139 158.17C228.279 155.71 221.259 145.77 219.989 143.91C217.429 140.17 214.909 136.39 212.349 132.64C212.349 132.64 212.259 132.64 212.279 132.64C213.519 135.07 214.869 137.44 216.279 139.76L215.899 139.33C215.119 138.47 214.299 137.64 213.479 136.81C213.429 136.81 213.349 136.81 213.389 136.89C214.139 137.81 214.879 138.75 215.669 139.64C216.169 140.21 216.669 140.74 217.219 141.29C217.849 142.29 218.509 143.29 219.169 144.29C220.459 146.19 227.419 156.15 229.969 158.29C230.079 158.36 230.209 158.26 230.139 158.17Z" fill="#263238"/>
<path d="M214 114.43C208.48 110.38 192.28 106.64 185 110.13C175.86 114.54 163.55 145.88 166.68 148.29C172.27 152.58 195.98 136.73 201.68 129.64C207.38 122.55 214 114.43 214 114.43Z" fill="#0B7D77"/>
<path opacity="0.1" d="M190 108.87C189.538 109.165 189.103 109.5 188.7 109.87C189.743 109.683 190.753 109.346 191.7 108.87C191.745 108.854 191.788 108.834 191.83 108.81C191.23 108.76 190.59 108.81 190 108.87ZM179.33 117.33C179.14 116.98 178.96 116.63 178.75 116.33C178.59 116.55 178.44 116.79 178.26 117.03C178.36 117.26 178.47 117.5 178.58 117.73C179.047 118.701 179.646 119.603 180.36 120.41C180.165 119.338 179.814 118.301 179.32 117.33H179.33ZM203.54 117.84C203.078 116.864 202.475 115.961 201.75 115.16C202.185 117.28 203.155 119.252 204.57 120.89C204.372 119.829 204.022 118.801 203.53 117.84H203.54ZM173.1 134.62C172.077 134.265 171.01 134.057 169.93 134C170.822 134.606 171.795 135.084 172.82 135.42C173.841 135.781 174.908 135.993 175.99 136.05C175.096 135.443 174.124 134.962 173.1 134.62V134.62ZM187.76 126.73C187.391 127.745 187.179 128.811 187.13 129.89C187.732 128.994 188.207 128.018 188.54 126.99C188.908 125.977 189.123 124.916 189.18 123.84C188.57 124.73 188.092 125.704 187.76 126.73V126.73Z" fill="black"/>
<path d="M208.33 123.53C207.1 124.53 205.83 125.44 204.61 126.44C206.34 124.44 208.09 122.36 209.76 120.26C209.82 120.19 209.76 120.09 209.64 120.15C207.452 122.217 205.369 124.393 203.4 126.67C201.32 128.93 199.23 131.18 197.03 133.33C194.868 135.498 192.548 137.504 190.09 139.33C187.455 141.195 184.687 142.866 181.81 144.33C180.19 145.17 178.553 145.973 176.9 146.74C175.128 147.546 173.295 148.215 171.42 148.74C171.07 148.83 171.28 148.96 171.42 148.94C173.011 148.593 174.567 148.104 176.07 147.48C177.63 146.85 179.2 146.23 180.75 145.58C183.746 144.381 186.636 142.932 189.39 141.25C194.74 137.87 198.95 133.25 202.95 128.41L203.18 128.13C203.91 127.53 204.63 126.92 205.33 126.28C206.33 125.36 207.38 124.49 208.47 123.66C208.54 123.6 208.42 123.45 208.33 123.53Z" fill="#263238"/>
</svg>
