<svg width="480" height="320" viewBox="0 0 480 320" fill="none" xmlns="http://www.w3.org/2000/svg">
<path d="M426.848 96.1724L420.724 125.836L416.781 121.99L410.074 126.777L404.948 120.409L393.453 128.768L383.629 112.339L372.672 118.758L368.327 112.768L354.413 120.608L350.228 111.641L359.981 64.4028L412.269 75.1996L426.848 96.1724Z" fill="#EBEBEB"/>
<path d="M412.269 75.1997L426.849 96.1725L408.711 92.4285L412.269 75.1997Z" fill="#DBDBDB"/>
<path d="M419.418 131.763L410.439 175.283L340.007 160.742L348.922 117.574L353.108 126.534L367.028 118.694L371.367 124.685L382.33 118.272L392.148 134.701L403.648 126.342L408.768 132.704L415.482 127.923L419.418 131.763Z" fill="#EBEBEB"/>
<path d="M318.611 126.662L246.835 131.104L241.133 38.9694L294.432 35.667L313.997 52.083L318.611 126.662Z" fill="#EBEBEB"/>
<path d="M294.433 35.667L313.997 52.083L295.514 53.2286L294.433 35.667Z" fill="#DBDBDB"/>
<path d="M274.56 97.6637L274.279 95.5837C273.555 91.2765 274.733 86.4573 278.477 81.4205C281.856 76.9405 283.687 73.7405 283.482 70.1053C283.251 66.0093 280.531 63.4237 275.469 63.6285C272.576 63.7787 269.797 64.8055 267.501 66.5725L265.293 61.6253C267.853 59.5453 272.333 58.0093 276.589 57.7853C285.824 57.2733 290.317 62.7389 290.669 68.8381C290.976 74.2973 288.147 78.3997 284.551 83.1933C281.248 87.5645 280.167 91.1677 280.634 95.2445L280.832 97.3309L274.56 97.6637ZM273.421 108.998C273.255 106.028 275.143 103.827 277.952 103.673C280.762 103.52 282.81 105.491 282.976 108.467C283.13 111.276 281.408 113.542 278.439 113.708C275.603 113.868 273.555 111.808 273.395 108.998H273.421Z" fill="#DBDBDB"/>
<path d="M95.0275 81.9901L87.8083 78.7197L86.8036 80.9277C86.6552 81.2433 86.4237 81.5125 86.1339 81.7064C85.8441 81.9003 85.507 82.0117 85.1587 82.0285C84.762 82.0415 84.3665 82.08 83.9748 82.1437C83.6308 82.1948 83.2795 82.1515 82.9583 82.0185C82.637 81.8855 82.3579 81.6678 82.1508 81.3885L80.7364 79.4109L74.2916 84.0317L75.706 86.0093C75.9027 86.2948 76.0185 86.6281 76.041 86.9741C76.0635 87.32 75.992 87.6656 75.834 87.9741C75.6515 88.3261 75.487 88.6871 75.3412 89.0557C75.2144 89.3808 75.0014 89.6652 74.7251 89.8783C74.4489 90.0914 74.1198 90.2252 73.7731 90.2653L71.3604 90.5021L72.1348 98.3933L74.5604 98.1501C74.9082 98.1223 75.2571 98.1899 75.5694 98.3455C75.8818 98.5011 76.1458 98.7389 76.3331 99.0333C76.4355 99.1997 76.5444 99.3597 76.6596 99.5197C76.7748 99.6797 76.89 99.8333 77.0116 99.9869C77.2324 100.256 77.3744 100.58 77.4219 100.925C77.4693 101.27 77.4204 101.621 77.2804 101.939L76.2692 104.166L83.4948 107.443L84.4996 105.222C84.6493 104.907 84.8822 104.638 85.1731 104.446C85.464 104.253 85.802 104.143 86.1508 104.128C86.543 104.112 86.9341 104.073 87.322 104.013C87.6659 103.961 88.0172 104.005 88.3384 104.138C88.6597 104.271 88.9388 104.488 89.1459 104.768L90.5604 106.745L97.0116 102.125L95.5971 100.147C95.3944 99.8641 95.2749 99.5301 95.2523 99.1828C95.2297 98.8355 95.3048 98.4889 95.4691 98.1821C95.6474 97.8322 95.8076 97.4733 95.9491 97.1069C96.0722 96.7795 96.2842 96.4928 96.5611 96.2792C96.8381 96.0655 97.1692 95.9333 97.5171 95.8973L99.9428 95.6541L99.162 87.7629L96.7363 87.9997C96.3907 88.0301 96.0433 87.9643 95.7327 87.8095C95.4221 87.6548 95.1603 87.4172 94.9763 87.1229C94.8675 86.9565 94.7588 86.7965 94.6436 86.6365C94.5284 86.4765 94.4132 86.3165 94.2916 86.1693C94.0722 85.8973 93.9312 85.5706 93.8838 85.2243C93.8365 84.8781 93.8845 84.5255 94.0228 84.2045L95.0275 81.9901ZM90.9316 89.2925C91.68 90.3369 92.1019 91.5798 92.1438 92.864C92.1858 94.1482 91.8461 95.416 91.1675 96.5071C90.4889 97.5981 89.502 98.4634 88.3316 98.9936C87.1612 99.5237 85.8599 99.6949 84.5922 99.4854C83.3245 99.2759 82.1474 98.6952 81.2098 97.8167C80.2722 96.9382 79.6162 95.8014 79.3247 94.55C79.0332 93.2986 79.1194 91.9889 79.5723 90.7865C80.0252 89.5841 80.8245 88.543 81.8692 87.7949C83.2696 86.792 85.011 86.3864 86.7104 86.6673C88.4099 86.9481 89.9282 87.8924 90.9316 89.2925V89.2925Z" fill="#EBEBEB"/>
<path d="M421.363 186.694L416.55 189.472L417.402 190.944C417.529 191.155 417.592 191.399 417.584 191.645C417.576 191.891 417.497 192.13 417.357 192.333C417.21 192.563 417.069 192.8 416.941 193.05C416.836 193.27 416.67 193.456 416.462 193.586C416.254 193.715 416.014 193.782 415.77 193.779H414.08V199.341H415.782C416.027 199.338 416.267 199.405 416.475 199.534C416.682 199.664 416.849 199.85 416.954 200.07C417.082 200.32 417.222 200.557 417.37 200.787C417.51 200.99 417.589 201.229 417.597 201.475C417.605 201.721 417.542 201.965 417.414 202.176L416.563 203.648L421.376 206.426L422.234 204.947C422.358 204.737 422.538 204.567 422.754 204.453C422.97 204.34 423.213 204.29 423.456 204.307H424.275C424.518 204.291 424.761 204.341 424.977 204.454C425.193 204.567 425.373 204.738 425.498 204.947L426.355 206.432L431.162 203.654L430.31 202.176C430.189 201.964 430.13 201.722 430.139 201.477C430.148 201.233 430.225 200.996 430.362 200.794C430.509 200.563 430.65 200.32 430.778 200.077C430.883 199.856 431.049 199.67 431.257 199.541C431.464 199.411 431.704 199.344 431.949 199.347H433.651V193.786H431.936C431.692 193.789 431.451 193.721 431.244 193.592C431.036 193.463 430.87 193.277 430.765 193.056C430.637 192.813 430.496 192.57 430.349 192.339C430.212 192.136 430.135 191.899 430.126 191.655C430.117 191.411 430.177 191.169 430.298 190.957L431.149 189.478L426.342 186.701L425.485 188.16C425.361 188.37 425.181 188.541 424.965 188.654C424.749 188.767 424.506 188.817 424.262 188.8H423.853H423.443C423.199 188.816 422.956 188.765 422.739 188.652C422.522 188.54 422.341 188.369 422.214 188.16L421.363 186.694ZM423.853 192.006C424.755 192.005 425.637 192.271 426.387 192.772C427.137 193.272 427.722 193.983 428.068 194.816C428.414 195.649 428.504 196.566 428.329 197.451C428.153 198.335 427.719 199.148 427.081 199.785C426.444 200.423 425.631 200.857 424.747 201.033C423.862 201.208 422.945 201.118 422.112 200.772C421.28 200.426 420.568 199.841 420.068 199.091C419.568 198.34 419.301 197.459 419.302 196.557C419.302 195.959 419.419 195.366 419.647 194.813C419.875 194.261 420.21 193.758 420.633 193.335C421.056 192.912 421.558 192.576 422.11 192.347C422.663 192.118 423.255 192 423.853 192V192.006Z" fill="#EBEBEB"/>
<path d="M109.632 58.3424L105.222 61.7216L106.24 63.072C106.392 63.2644 106.485 63.4963 106.509 63.7403C106.533 63.9842 106.486 64.2298 106.374 64.448C106.252 64.6971 106.145 64.9536 106.054 65.216C105.975 65.4471 105.834 65.6517 105.645 65.8066C105.456 65.9615 105.228 66.0606 104.985 66.0928L103.296 66.3104L104.013 71.8208L105.702 71.6032C105.948 71.5689 106.199 71.6048 106.425 71.7067C106.652 71.8086 106.845 71.9724 106.982 72.1792C107.136 72.4018 107.303 72.6155 107.482 72.8192C107.646 73.0005 107.756 73.2253 107.797 73.467C107.837 73.7086 107.808 73.9569 107.712 74.1824L107.072 75.7568L112.192 77.888L112.832 76.3136C112.927 76.0877 113.084 75.8931 113.284 75.7517C113.484 75.6103 113.72 75.5278 113.965 75.5136L114.374 75.4688L114.777 75.4048C115.014 75.3601 115.259 75.3813 115.485 75.4659C115.71 75.5505 115.908 75.6954 116.057 75.8848L117.101 77.248L121.51 73.8688L120.48 72.5184C120.331 72.3233 120.24 72.0905 120.216 71.8463C120.192 71.6021 120.237 71.3561 120.345 71.136C120.467 70.8885 120.574 70.6342 120.665 70.3744C120.744 70.1432 120.886 69.9387 121.075 69.7838C121.264 69.6289 121.492 69.5298 121.734 69.4976L123.424 69.28L122.707 63.7696L121.017 63.9872C120.772 64.0221 120.522 63.9872 120.296 63.8865C120.069 63.7857 119.876 63.6232 119.737 63.4176C119.577 63.1872 119.411 62.9696 119.232 62.7776C119.083 62.5924 118.986 62.3704 118.953 62.1351C118.919 61.8997 118.949 61.6596 119.04 61.44L119.68 59.8656L114.56 57.7344L113.92 59.3088C113.823 59.5338 113.667 59.7276 113.467 59.8688C113.267 60.0101 113.031 60.0931 112.787 60.1088L112.377 60.1472L112 60.16C111.763 60.2046 111.519 60.1835 111.293 60.0988C111.067 60.0142 110.869 59.8693 110.72 59.68L109.632 58.3424ZM112.787 63.2896C113.679 63.175 114.584 63.327 115.389 63.7264C116.195 64.1258 116.863 64.7547 117.312 65.5339C117.76 66.313 117.967 67.2074 117.908 68.1043C117.848 69.0012 117.524 69.8603 116.977 70.5733C116.43 71.2864 115.684 71.8214 114.833 72.1108C113.982 72.4003 113.064 72.4312 112.196 72.1998C111.327 71.9683 110.546 71.4848 109.952 70.8103C109.358 70.1358 108.977 69.3004 108.857 68.4096C108.778 67.8151 108.816 67.2107 108.97 66.6311C109.125 66.0515 109.392 65.5082 109.757 65.0323C110.123 64.5565 110.578 64.1576 111.098 63.8585C111.618 63.5594 112.192 63.3661 112.787 63.2896Z" fill="#EBEBEB"/>
<path d="M76.6849 202.739C76.9253 196.552 76.8399 190.357 76.4289 184.179C75.5132 171.422 73.5677 158.76 70.6113 146.316C68.9857 139.315 66.9889 132.428 64.9025 125.548C64.8385 125.337 64.5057 125.395 64.5633 125.613C71.0081 149.869 76.2945 174.893 75.9297 200.109C75.8273 207.149 75.0081 214.093 74.3425 221.107C74.3425 221.293 74.6305 221.369 74.6753 221.177C76.0001 215.155 76.4353 208.87 76.6849 202.739Z" fill="#EBEBEB"/>
<path d="M64.5634 125.593C64.5634 125.593 54.8098 150.361 56.9922 156.16C59.1746 161.958 63.6802 163.2 63.6802 163.2C63.6802 163.2 57.709 171.724 61.8818 179.718C66.0546 187.712 75.3218 187.334 75.9618 196.396C75.9426 196.441 76.4546 158.547 64.5634 125.593Z" fill="#EBEBEB"/>
<path d="M74.8802 180.793C74.896 180.752 74.896 180.707 74.8802 180.666C73.6001 163.756 70.4272 147.044 65.421 130.841C65.421 130.797 65.325 130.809 65.3378 130.841C67.2706 138.095 68.9773 145.378 70.4578 152.691C69.1466 151.449 67.5446 150.555 65.7986 150.093C65.7986 150.093 65.7474 150.131 65.7986 150.144C67.6328 150.816 69.282 151.913 70.6115 153.344C70.8931 154.784 71.1747 156.217 71.4371 157.657C69.2547 155.219 66.2339 154.009 63.2067 152.857C63.1998 152.86 63.194 152.865 63.1899 152.872C63.1858 152.878 63.1836 152.885 63.1836 152.893C63.1836 152.9 63.1858 152.907 63.1899 152.914C63.194 152.92 63.1998 152.925 63.2067 152.928C66.3619 154.208 69.4978 155.859 71.6354 158.579C72.3778 162.688 73.0306 166.812 73.5938 170.95C72.0181 169.299 69.9972 168.141 67.7762 167.616C67.7058 167.616 67.6674 167.699 67.7378 167.718C70.0193 168.39 72.0561 169.711 73.6002 171.52H73.6386C73.8306 172.971 74.0141 174.428 74.189 175.891C72.97 174.86 71.5937 174.03 70.1123 173.433C70.0739 173.433 70.0483 173.478 70.1123 173.491C71.624 174.146 73.0084 175.062 74.2019 176.198C74.2019 176.198 74.2338 176.198 74.253 176.198C74.413 177.587 74.573 178.976 74.7138 180.365C72.5162 177.708 69.664 175.67 66.4386 174.451C66.4251 174.451 66.412 174.456 66.4024 174.466C66.3928 174.476 66.3875 174.489 66.3875 174.502C66.3875 174.516 66.3928 174.529 66.4024 174.539C66.412 174.548 66.4251 174.553 66.4386 174.553C69.6235 175.957 72.4211 178.111 74.5923 180.832C74.6161 180.862 74.6484 180.884 74.6849 180.895C74.7214 180.907 74.7604 180.907 74.7971 180.896C75.0083 183.027 75.2002 185.158 75.3538 187.296C75.3538 187.328 75.405 187.328 75.405 187.296C75.2386 185.15 75.0637 182.982 74.8802 180.793Z" fill="white"/>
<path d="M67.0404 147.654C65.274 146.555 63.2562 145.925 61.178 145.824C61.1679 145.824 61.1581 145.828 61.1509 145.835C61.1437 145.842 61.1396 145.852 61.1396 145.862C61.1396 145.872 61.1437 145.882 61.1509 145.889C61.1581 145.896 61.1679 145.901 61.178 145.901C63.1872 146.282 65.137 146.927 66.9765 147.821C67.0533 147.84 67.1108 147.705 67.0404 147.654Z" fill="white"/>
<path d="M68.2243 173.875C66.8667 173.096 65.3717 172.585 63.8211 172.371C63.7699 172.371 63.7635 172.441 63.8211 172.454C65.3353 172.758 66.8 173.271 68.1731 173.977C68.2307 174.009 68.2819 173.907 68.2243 173.875Z" fill="white"/>
<path d="M102.336 156.588C98.2099 159.441 94.4204 162.751 91.0401 166.457C87.554 170.381 84.865 174.946 83.1233 179.897C79.4163 190.213 77.423 201.066 77.2225 212.025C77.0981 218.095 77.6802 224.158 78.9569 230.092C78.9672 230.136 78.9938 230.173 79.031 230.197C79.0683 230.221 79.1133 230.23 79.1569 230.222C79.2005 230.214 79.2393 230.189 79.2652 230.153C79.2911 230.117 79.3022 230.072 79.2961 230.028C77.7074 219.556 77.7679 208.899 79.4753 198.444C81.1521 188.204 83.7825 177.056 90.2977 168.729C93.8433 164.192 98.2657 160.627 102.637 156.94C102.867 156.736 102.573 156.422 102.336 156.588Z" fill="#EBEBEB"/>
<path d="M78.6562 204.64C81.0049 200.841 83.7651 197.313 86.8866 194.118C91.7698 189.235 95.8786 185.766 96.5186 182.541C97.1586 179.315 91.629 176.934 91.629 176.934C91.629 176.934 98.381 178.15 100.231 175.315C102.08 172.48 102.97 156.058 102.97 156.058C102.97 156.058 90.6819 164.832 84.9539 177.133C79.2259 189.434 78.6562 204.64 78.6562 204.64Z" fill="#EBEBEB"/>
<path d="M98.5603 171.462C97.7512 171.342 96.931 171.314 96.1155 171.379C96.0195 171.379 96.0259 171.545 96.1155 171.552C96.9219 171.552 97.7347 171.513 98.5411 171.552C98.5503 171.549 98.5587 171.544 98.5653 171.538C98.5719 171.531 98.5764 171.522 98.5784 171.513C98.5804 171.504 98.5798 171.494 98.5766 171.485C98.5734 171.476 98.5678 171.468 98.5603 171.462V171.462Z" fill="white"/>
<path d="M89.7351 187.392C88.4375 187.418 87.1548 187.674 85.9463 188.147C85.9463 188.147 85.9463 188.211 85.9463 188.204C87.2263 187.904 88.4615 187.782 89.7287 187.564C89.7452 187.557 89.7594 187.545 89.7696 187.53C89.7797 187.516 89.7855 187.498 89.7861 187.48C89.7868 187.462 89.7824 187.444 89.7733 187.428C89.7643 187.413 89.7511 187.4 89.7351 187.392V187.392Z" fill="white"/>
<path d="M87.0851 181.888C86.5464 181.884 86.0085 181.931 85.4787 182.029C85.4689 182.032 85.4604 182.039 85.4545 182.048C85.4485 182.056 85.4453 182.066 85.4453 182.077C85.4453 182.087 85.4485 182.097 85.4545 182.106C85.4604 182.115 85.4689 182.121 85.4787 182.125C86.0152 182.156 86.5534 182.132 87.0851 182.054C87.1072 182.054 87.1283 182.046 87.1439 182.03C87.1595 182.014 87.1683 181.993 87.1683 181.971C87.1683 181.949 87.1595 181.928 87.1439 181.912C87.1283 181.897 87.1072 181.888 87.0851 181.888V181.888Z" fill="white"/>
<path d="M42.6306 174.009C46.6301 175.365 50.4626 177.171 54.0546 179.392C57.7816 181.76 61.0136 184.829 63.5714 188.428C68.9531 195.92 73.0737 204.241 75.7698 213.062C77.2735 217.946 78.2014 222.99 78.5346 228.089C78.5276 228.122 78.5095 228.152 78.4833 228.173C78.4571 228.194 78.4243 228.206 78.3906 228.206C78.3569 228.206 78.3242 228.194 78.2979 228.173C78.2717 228.152 78.2536 228.122 78.2466 228.089C77.1169 219.247 74.6075 210.637 70.8098 202.572C67.0786 194.668 62.3746 186.259 55.181 181.024C51.2642 178.176 46.861 176.307 42.4706 174.336C42.2402 174.259 42.4002 173.932 42.6306 174.009Z" fill="#EBEBEB"/>
<path d="M72.9027 207.424C70.1222 204.894 67.0725 202.677 63.8083 200.813C58.7267 197.99 54.5987 196.134 53.3379 193.67C52.0771 191.206 56.0003 188.006 56.0003 188.006C56.0003 188.006 50.8163 190.566 48.6659 188.678C46.5155 186.79 41.9971 173.734 41.9971 173.734C41.9971 173.734 53.9715 177.99 61.4403 186.624C68.9091 195.258 72.9027 207.424 72.9027 207.424Z" fill="#EBEBEB"/>
<path d="M62.963 195.405C61.7857 195.322 60.6036 195.468 59.4814 195.833C59.4814 195.833 59.4814 195.891 59.4814 195.885C60.6263 195.688 61.783 195.569 62.9438 195.526C63.027 195.526 63.0462 195.411 62.963 195.405Z" fill="white"/>
<path d="M52.5187 181.708C51.9817 181.665 51.4412 181.695 50.9123 181.798C50.8547 181.798 50.8739 181.9 50.9123 181.894C51.4435 181.836 51.9619 181.856 52.4867 181.843C52.503 181.844 52.5191 181.838 52.5321 181.829C52.5451 181.819 52.5542 181.805 52.558 181.789C52.5618 181.773 52.5599 181.756 52.5528 181.742C52.5456 181.727 52.5336 181.715 52.5187 181.708V181.708Z" fill="white"/>
<path d="M88.3456 244.595H61.3184L65.1712 216.364L66.1568 209.126H83.5072L84.4928 216.364L88.3456 244.595Z" fill="#DBDBDB"/>
<path d="M84.4935 216.364H65.1719L66.1575 209.126H83.5079L84.4935 216.364Z" fill="#C7C7C7"/>
<path d="M85.9842 206.617H63.6738V212.748H85.9842V206.617Z" fill="#DBDBDB"/>
<path d="M44.1348 244.595L92.7812 244.442L141.428 244.384L238.72 244.275L336.013 244.384L384.66 244.442L433.306 244.595L384.66 244.755L336.013 244.807L238.72 244.915L141.428 244.807L92.7812 244.749L44.1348 244.595Z" fill="#263238"/>
<path d="M240 292.294C341.352 292.294 423.514 283.291 423.514 272.185C423.514 261.08 341.352 252.077 240 252.077C138.648 252.077 56.4863 261.08 56.4863 272.185C56.4863 283.291 138.648 292.294 240 292.294Z" fill="#EBEBEB"/>
<path d="M197.28 268.858C195.788 269.363 153.03 269.498 151.392 268.486C150.752 268.102 150.387 261.875 150.112 254.336C150.054 252.71 150.009 251.027 149.971 249.325L146.56 226.515L175.148 226.33L177.843 249.146L177.734 254.163C177.734 254.163 194.131 261.427 195.808 262.746C197.484 264.064 198.771 268.352 197.28 268.858Z" fill="#EB9481"/>
<path d="M197.28 268.857C195.789 269.363 153.031 269.498 151.392 268.486C150.637 268.013 150.227 258.918 149.997 249.325L177.811 249.146L177.703 254.163C177.703 254.163 194.099 261.427 195.776 262.746C197.453 264.064 198.771 268.352 197.28 268.857Z" fill="white"/>
<path d="M197.28 268.857C195.789 269.363 153.031 269.497 151.392 268.486C150.752 268.102 150.388 261.875 150.112 254.336L177.677 254.163C177.677 254.163 194.074 261.427 195.751 262.745C197.427 264.064 198.772 268.352 197.28 268.857Z" fill="#A6A6A6"/>
<path d="M196.66 267.149C189.492 266.995 160.564 267.065 153.466 267.462C153.408 267.462 153.408 267.501 153.466 267.507C160.57 267.808 189.498 267.507 196.66 267.264C196.813 267.257 196.813 267.149 196.66 267.149Z" fill="#263238"/>
<path d="M193.017 261.216C192.22 261.198 191.428 261.346 190.691 261.65C189.954 261.954 189.288 262.408 188.736 262.982C187.729 264.008 187.16 265.385 187.148 266.822C187.148 266.867 187.225 266.867 187.232 266.822C187.47 265.406 188.159 264.105 189.197 263.113C190.235 262.121 191.566 261.492 192.992 261.318C193.005 261.322 193.02 261.319 193.032 261.312C193.044 261.305 193.052 261.293 193.056 261.28C193.059 261.266 193.057 261.252 193.05 261.24C193.042 261.228 193.031 261.219 193.017 261.216V261.216Z" fill="#263238"/>
<path d="M180.48 254.867C177.613 254.835 174.292 255.859 172.512 258.214C172.448 258.304 172.576 258.4 172.66 258.355C175.165 257.033 177.804 255.981 180.532 255.219C180.574 255.207 180.61 255.181 180.634 255.144C180.658 255.108 180.668 255.064 180.662 255.02C180.655 254.977 180.633 254.938 180.6 254.909C180.567 254.881 180.524 254.866 180.48 254.867V254.867Z" fill="#263238"/>
<path d="M182.707 255.718C179.833 255.718 176.512 256.717 174.739 259.065C174.669 259.161 174.797 259.257 174.886 259.213C177.388 257.886 180.025 256.832 182.752 256.07C182.793 256.059 182.83 256.033 182.854 255.997C182.878 255.961 182.888 255.918 182.882 255.875C182.877 255.832 182.856 255.793 182.824 255.764C182.792 255.735 182.75 255.719 182.707 255.718V255.718Z" fill="#263238"/>
<path d="M184.922 256.576C182.055 256.576 178.733 257.568 176.954 259.923C176.89 260.013 177.018 260.109 177.101 260.064C179.606 258.741 182.245 257.69 184.973 256.928C185.015 256.916 185.052 256.89 185.076 256.853C185.1 256.816 185.109 256.772 185.103 256.729C185.097 256.686 185.075 256.646 185.041 256.618C185.008 256.59 184.966 256.575 184.922 256.576Z" fill="#263238"/>
<path d="M187.142 257.433C184.268 257.401 180.947 258.425 179.174 260.781C179.104 260.87 179.238 260.966 179.321 260.921C181.826 259.598 184.465 258.547 187.193 257.785C187.235 257.774 187.272 257.747 187.296 257.711C187.32 257.674 187.33 257.63 187.323 257.587C187.317 257.543 187.295 257.504 187.262 257.476C187.228 257.447 187.186 257.432 187.142 257.433V257.433Z" fill="#263238"/>
<path d="M155.27 260.647C152.07 260.647 152.07 265.671 155.27 265.651C158.47 265.632 158.496 260.627 155.27 260.647Z" fill="#263238"/>
<path d="M183.558 247.2C182.105 245.997 180.275 247.2 179.385 248.435C177.904 250.618 177.022 253.151 176.825 255.782C176.825 255.84 176.87 255.865 176.915 255.865C176.926 255.919 176.95 255.97 176.985 256.013C177.02 256.056 177.065 256.09 177.116 256.112C177.167 256.134 177.222 256.143 177.277 256.139C177.332 256.135 177.386 256.118 177.433 256.089C179.468 254.675 181.824 253.408 183.366 251.405C184.243 250.24 184.96 248.32 183.558 247.2ZM180.064 253.305C179.078 254.029 178.06 254.701 177.1 255.462C177.612 254.029 178.054 252.582 178.707 251.2C179.008 250.537 179.355 249.895 179.744 249.28C180.384 248.326 183.174 245.92 183.468 249.037C183.635 250.745 181.235 252.448 180.064 253.305Z" fill="#263238"/>
<path d="M169.683 256.87C172.179 257.241 174.758 256.525 177.209 256.134C177.263 256.12 177.312 256.094 177.353 256.058C177.394 256.022 177.427 255.976 177.447 255.925C177.468 255.874 177.476 255.819 177.471 255.764C177.467 255.709 177.449 255.656 177.421 255.609C177.43 255.602 177.437 255.593 177.443 255.583C177.448 255.572 177.45 255.56 177.45 255.549C177.45 255.537 177.448 255.525 177.443 255.515C177.437 255.504 177.43 255.495 177.421 255.488C175.451 253.731 173.054 252.524 170.47 251.987C168.96 251.699 166.822 252.115 166.63 253.99C166.4 255.757 168.224 256.64 169.683 256.87ZM167.942 255.245C166.022 252.787 169.689 252.576 170.79 252.832C171.504 253.011 172.206 253.237 172.889 253.51C174.289 254.091 175.658 254.742 176.992 255.462C175.776 255.584 174.579 255.801 173.369 255.968C171.923 256.16 169.017 256.595 167.942 255.245V255.245Z" fill="#263238"/>
<path d="M104.524 121.088C104.524 121.088 137.721 177.562 138.611 181.53C139.974 187.622 147.2 247.789 147.2 247.789L181.76 247.149C181.76 247.149 175.808 194.099 170.169 176.621C166.112 164.032 136.812 122.278 136.812 122.278L104.524 121.088Z" fill="#37474F"/>
<path d="M178.617 241.875C173.657 241.837 156.076 241.638 149.472 242.253C149.42 242.253 149.427 242.342 149.472 242.349C151.744 242.675 173.651 242.169 178.611 242.009C178.621 242.013 178.632 242.014 178.643 242.013C178.654 242.012 178.665 242.008 178.674 242.002C178.683 241.996 178.691 241.987 178.696 241.978C178.701 241.968 178.704 241.958 178.705 241.946C178.706 241.935 178.703 241.925 178.699 241.914C178.694 241.904 178.688 241.896 178.679 241.889C178.671 241.882 178.661 241.877 178.65 241.874C178.639 241.872 178.628 241.872 178.617 241.875V241.875Z" fill="#263238"/>
<path d="M110.188 126.272C112.364 129.683 114.668 133.024 116.883 136.41C119.097 139.795 121.324 143.181 123.52 146.56C127.897 153.387 132.164 160.258 136.32 167.175C138.348 170.38 140.083 173.763 141.504 177.28C142.8 180.798 143.775 184.427 144.416 188.122C145.094 191.827 145.542 195.571 145.958 199.315C146.385 203.296 146.83 207.279 147.296 211.264C148.204 219.418 149.115 227.571 150.028 235.725C150.137 236.723 150.246 237.722 150.348 238.727C150.348 238.874 150.099 238.899 150.08 238.727C149.062 230.631 148.217 222.503 147.296 214.407C146.835 210.366 146.376 206.328 145.92 202.291C145.491 198.535 145.081 194.771 144.499 191.04C143.964 187.357 143.151 183.72 142.067 180.16C140.872 176.474 139.27 172.932 137.292 169.6C133.292 162.695 129.056 155.911 124.819 149.12C120.582 142.33 116.23 135.482 111.763 128.775C111.212 127.949 110.656 127.123 110.08 126.311C110.035 126.266 110.15 126.208 110.188 126.272Z" fill="#263238"/>
<path d="M115.405 272.186C113.83 272.09 73.1648 255.616 72.0384 254.054C71.9882 253.963 71.966 253.858 71.9744 253.754C71.9744 252.352 74.7968 247.462 77.152 241.037C77.2992 240.627 78.3488 238.72 79.8016 236.154C83.84 229.12 90.88 217.005 90.88 217.005L117.459 227.565L104.736 246.605L102.758 251.213C102.758 251.213 115.232 264.109 116.282 265.933C117.331 267.757 116.973 272.275 115.405 272.186Z" fill="#EB9481"/>
<path d="M115.405 272.185C113.83 272.089 73.1648 255.616 72.0384 254.054C71.9882 253.962 71.966 253.858 71.9744 253.753C71.9744 252.352 74.7968 247.462 77.152 241.037C77.2992 240.627 78.3488 238.72 79.8016 236.153L104.762 246.605L102.784 251.213C102.784 251.213 115.258 264.109 116.307 265.933C117.357 267.757 116.973 272.275 115.405 272.185Z" fill="white"/>
<path d="M115.404 272.185C113.83 272.089 73.1644 255.616 72.038 254.054C71.6028 253.459 73.4204 247.91 77.158 241.037L102.758 251.219C102.758 251.219 115.232 264.102 116.288 265.939C117.344 267.776 116.972 272.275 115.404 272.185Z" fill="#A6A6A6"/>
<path d="M115.468 270.368C108.883 267.539 82.0411 256.749 75.3147 254.458C75.2571 254.458 75.2443 254.458 75.3147 254.496C81.7851 257.44 108.71 268.013 115.443 270.496C115.571 270.528 115.609 270.426 115.468 270.368Z" fill="#263238"/>
<path d="M114.317 263.501C113.586 263.18 112.797 263.014 112 263.014C111.202 263.014 110.413 263.18 109.683 263.501C108.37 264.076 107.329 265.135 106.777 266.457C106.777 266.496 106.835 266.528 106.854 266.489C107.609 265.262 108.741 264.313 110.08 263.783C111.42 263.254 112.895 263.172 114.285 263.552C114.295 263.549 114.305 263.542 114.31 263.532C114.316 263.523 114.319 263.512 114.317 263.501V263.501Z" fill="#263238"/>
<path d="M105.081 252.915C102.438 251.808 98.9695 251.514 96.4415 253.031C96.3455 253.088 96.4415 253.223 96.5247 253.216C99.3428 252.93 102.183 252.945 104.998 253.261C105.042 253.266 105.085 253.254 105.121 253.229C105.156 253.204 105.182 253.167 105.192 253.125C105.202 253.082 105.196 253.038 105.176 252.999C105.156 252.961 105.122 252.931 105.081 252.915Z" fill="#263238"/>
<path d="M106.816 254.541C104.173 253.434 100.704 253.139 98.1758 254.656C98.0798 254.714 98.1758 254.848 98.259 254.842C101.077 254.553 103.918 254.568 106.733 254.886C106.776 254.891 106.819 254.88 106.855 254.855C106.891 254.83 106.916 254.793 106.926 254.75C106.936 254.708 106.931 254.663 106.911 254.625C106.89 254.586 106.857 254.556 106.816 254.541Z" fill="#263238"/>
<path d="M108.557 256.166C105.908 255.059 102.439 254.765 99.9171 256.282C99.8147 256.339 99.9171 256.474 99.9939 256.467C102.812 256.178 105.653 256.193 108.468 256.512C108.512 256.519 108.557 256.51 108.595 256.486C108.632 256.461 108.659 256.424 108.671 256.38C108.682 256.337 108.676 256.291 108.655 256.251C108.634 256.212 108.599 256.181 108.557 256.166V256.166Z" fill="#263238"/>
<path d="M110.291 257.792C107.642 256.685 104.179 256.39 101.651 257.901C101.549 257.965 101.651 258.099 101.728 258.093C104.546 257.803 107.387 257.818 110.202 258.137C110.246 258.145 110.291 258.135 110.329 258.111C110.367 258.087 110.394 258.049 110.405 258.006C110.416 257.962 110.411 257.916 110.39 257.877C110.369 257.837 110.334 257.807 110.291 257.792V257.792Z" fill="#263238"/>
<path d="M79.5391 248.813C76.5503 247.622 74.6943 252.275 77.6959 253.466C80.6975 254.656 82.5599 250.003 79.5391 248.813Z" fill="#263238"/>
<path d="M110.809 246.963C109.907 245.306 107.776 245.715 106.477 246.541C104.288 248.007 102.523 250.022 101.357 252.384C101.351 252.394 101.349 252.406 101.349 252.417C101.349 252.429 101.351 252.44 101.356 252.451C101.361 252.461 101.368 252.47 101.377 252.478C101.386 252.485 101.397 252.49 101.408 252.493C101.408 252.704 101.549 252.954 101.798 252.902C104.224 252.346 106.88 252.058 109.056 250.778C110.304 250.035 111.661 248.531 110.809 246.963ZM105.273 251.309C104.089 251.61 102.899 251.853 101.728 252.198C102.697 251.031 103.724 249.914 104.806 248.851C105.339 248.344 105.906 247.874 106.502 247.443C107.43 246.803 110.937 245.619 110.041 248.621C109.549 250.278 106.688 250.95 105.273 251.309V251.309Z" fill="#263238"/>
<path d="M94.3171 250.72C96.4931 252 99.1491 252.301 101.568 252.864C101.818 252.921 101.984 252.672 101.965 252.454C101.977 252.453 101.989 252.449 101.998 252.442C102.008 252.435 102.016 252.425 102.021 252.414C102.026 252.403 102.029 252.391 102.028 252.379C102.027 252.367 102.023 252.355 102.016 252.345C100.852 249.979 99.0865 247.959 96.8963 246.489C95.6163 245.657 93.4723 245.241 92.5635 246.893C91.6547 248.544 93.0435 249.971 94.3171 250.72ZM93.3187 248.557C92.4291 245.555 95.9299 246.745 96.8579 247.392C97.4538 247.823 98.0184 248.295 98.5475 248.806C99.6276 249.871 100.653 250.991 101.619 252.16C100.448 251.814 99.2579 251.565 98.0739 251.264C96.6403 250.88 93.8051 250.24 93.3187 248.557Z" fill="#263238"/>
<path d="M106.803 245.542L77.0498 233.53C77.0498 233.53 113.939 179.29 114.208 175.251C114.451 171.68 98.2466 140.563 97.613 131.494C96.9218 121.702 101.632 114.131 106.816 109.427L137.504 122.477C137.504 122.477 134.266 127.654 129.184 130.541C129.184 130.541 144.922 166.509 144.026 177.568C143.13 188.627 106.803 245.542 106.803 245.542Z" fill="#37474F"/>
<path d="M108.122 239.885C103.821 238.035 105.082 238.502 100.756 236.685C98.6436 235.802 84.7556 230.022 82.618 229.542C82.5732 229.542 82.5412 229.606 82.586 229.632C84.4356 230.765 98.4388 236.301 100.57 237.146C104.928 238.861 103.693 238.323 108.071 239.987C108.077 239.996 108.086 240.003 108.096 240.007C108.106 240.012 108.117 240.014 108.128 240.013C108.139 240.012 108.149 240.008 108.158 240.002C108.167 239.996 108.174 239.987 108.179 239.977C108.184 239.968 108.186 239.957 108.186 239.946C108.185 239.935 108.182 239.925 108.176 239.915C108.171 239.906 108.163 239.898 108.153 239.893C108.144 239.888 108.133 239.885 108.122 239.885V239.885Z" fill="#263238"/>
<path d="M134.215 129.881C131.02 130.626 127.894 131.641 124.871 132.915C124.859 132.919 124.847 132.926 124.838 132.934C124.828 132.943 124.82 132.953 124.815 132.965C124.809 132.976 124.806 132.989 124.805 133.002C124.804 133.015 124.806 133.028 124.81 133.04C124.814 133.052 124.821 133.063 124.829 133.073C124.838 133.082 124.848 133.09 124.86 133.096C124.871 133.102 124.884 133.105 124.897 133.106C124.91 133.106 124.923 133.105 124.935 133.101C128.071 132.185 131.258 131.328 134.343 130.246C134.58 130.163 134.458 129.83 134.215 129.881Z" fill="#263238"/>
<path d="M130.56 128.64C130.261 129.17 129.998 129.72 129.772 130.285C129.551 130.713 129.415 131.18 129.369 131.661C129.369 131.757 129.497 131.776 129.555 131.718C129.876 131.334 130.135 130.902 130.323 130.438C130.585 129.933 130.854 129.433 131.104 128.915C131.276 128.537 130.758 128.294 130.56 128.64Z" fill="#263238"/>
<path d="M130.944 125.735C131.136 125.261 131.322 124.794 131.52 124.32C131.719 123.847 131.968 123.36 132.16 122.861C132.16 122.784 132.314 122.861 132.282 122.919C132.09 123.392 131.968 123.891 131.821 124.378C131.674 124.864 131.507 125.351 131.347 125.837C131.047 126.739 130.707 127.635 130.291 128.512C130.795 128.537 131.298 128.45 131.763 128.256C132.239 127.952 132.604 127.503 132.807 126.976C133.075 126.451 133.325 125.914 133.6 125.389C133.939 124.822 134.224 124.224 134.451 123.603C134.451 123.527 134.605 123.603 134.573 123.661C134.156 124.973 133.609 126.24 132.941 127.443C132.653 127.911 132.429 128.403 131.904 128.583C131.336 128.741 130.742 128.783 130.157 128.704C130.08 128.704 129.991 128.704 130.016 128.589C130.278 127.623 130.588 126.67 130.944 125.735V125.735Z" fill="#263238"/>
<path d="M129.638 131.712C130.732 134.022 131.692 136.326 132.71 138.63C133.728 140.934 134.63 143.161 135.545 145.453C137.376 150.073 139.014 154.784 140.454 159.533C141.164 161.888 141.824 164.262 142.412 166.656C143.061 169.042 143.536 171.472 143.833 173.926C144.09 176.377 143.873 178.854 143.193 181.222C142.487 183.563 141.582 185.84 140.486 188.026C139.814 189.408 139.59 189.222 139.91 188.525C140.825 186.541 143.225 180.531 143.052 175.481C142.912 173.064 142.54 170.666 141.939 168.32C141.38 165.901 140.751 163.501 140.051 161.12C138.688 156.422 137.068 151.821 135.404 147.225C134.47 144.665 133.484 142.105 132.524 139.545C131.564 136.985 130.604 134.63 129.529 131.801C129.497 131.686 129.606 131.641 129.638 131.712Z" fill="#263238"/>
<path d="M107.053 124.077C107.584 123.878 108.333 124.205 108.871 124.294C109.567 124.413 110.27 124.483 110.976 124.506C111.675 124.53 112.374 124.507 113.069 124.435C113.769 124.417 114.455 124.235 115.072 123.904C116.085 123.167 116.952 122.249 117.632 121.197C118.442 120.122 119.111 118.947 119.623 117.702C119.623 117.626 119.757 117.702 119.731 117.754C119.507 118.464 119.341 119.181 119.091 119.878C118.816 120.534 118.486 121.165 118.106 121.766C117.49 122.976 116.578 124.011 115.456 124.774C114.221 125.478 112.634 125.414 111.258 125.357C110.46 125.31 109.666 125.205 108.883 125.043C108.32 124.922 107.373 124.832 107.015 124.339C106.998 124.32 106.985 124.298 106.978 124.274C106.971 124.25 106.969 124.224 106.973 124.199C106.976 124.174 106.985 124.15 106.999 124.129C107.013 124.108 107.032 124.09 107.053 124.077V124.077Z" fill="#263238"/>
<path d="M85.5421 227.84C90.4317 220.433 95.2317 212.966 99.9421 205.44C104.653 197.914 109.299 190.33 113.881 182.688C114.976 180.864 116.237 179.046 116.941 177.024C117.709 174.829 117.273 172.698 116.582 170.547C115.277 166.624 113.751 162.778 112.013 159.027C110.297 155.245 108.448 151.526 106.63 147.795C104.813 144.064 102.912 140.378 101.51 136.486C100.23 132.768 99.7117 128.915 100.71 125.062C101.709 121.21 103.859 117.805 106.105 114.598C106.694 113.754 107.302 112.915 107.897 112.038C107.942 111.974 108.038 112.038 107.993 112.115C105.517 115.456 103.104 118.995 101.651 122.918C100.908 124.852 100.493 126.896 100.422 128.966C100.41 131.068 100.736 133.158 101.389 135.155C102.592 139.046 104.493 142.726 106.265 146.387C108.038 150.048 109.933 153.837 111.68 157.606C113.482 161.4 115.084 165.286 116.48 169.248C117.075 171.008 117.76 172.851 117.709 174.739C117.664 176.806 116.678 178.669 115.654 180.41C111.174 187.994 106.585 195.488 101.913 202.938C97.2413 210.387 92.4349 217.837 87.5709 225.21L85.7277 227.994C85.6317 228.109 85.4653 227.974 85.5421 227.84Z" fill="#263238"/>
<path d="M139.206 87.981C141.977 94.061 155.974 102.439 162.528 103.341C167.238 103.981 181.561 104.211 186.47 103.463C192.23 102.579 187.827 87.0594 184.428 87.4626C175.084 88.5506 167.148 89.7666 164.652 89.7666C161.606 89.7666 145.126 84.4802 143.142 83.7314C138.278 81.9202 137.638 84.5314 139.206 87.981Z" fill="#EB9481"/>
<path d="M139.296 89.6C142.803 94.7904 154.457 103.277 154.457 103.277L156.076 99.6928L161.433 87.84C161.433 87.84 150.726 84.48 143.68 82.944C142.85 82.7553 142.007 82.6354 141.158 82.5856C136.659 82.3424 136.268 85.12 139.296 89.6Z" fill="#0B7D77"/>
<path d="M139.296 89.5999C142.803 94.7903 154.457 103.277 154.457 103.277L156.076 99.6927C151.731 94.6431 145.017 86.9951 141.158 82.5983C136.659 82.3423 136.268 85.1199 139.296 89.5999Z" fill="#263238"/>
<path d="M152.358 100.87C153.248 98.6879 157.203 89.9007 158.189 88.0703C158.253 87.9423 158.355 87.9551 158.297 88.0703C156.582 92.4401 154.629 96.7131 152.448 100.87C152.422 100.947 152.32 100.921 152.358 100.87Z" fill="#263238"/>
<path d="M182.714 87.6225C188.397 86.8801 195.431 85.6065 201.389 88.1345C202.058 88.397 202.62 88.8772 202.983 89.4977C205.671 90.5857 205.965 92.1793 205.965 92.1793C208.16 93.9585 208.237 95.6353 208.237 95.6353C208.237 95.6353 211.386 96.9153 210.906 98.9761C210.381 101.254 206.067 98.9761 202.931 99.1617C195.731 99.6097 185.651 102.253 183.571 102.586L182.714 87.6225Z" fill="#EB9481"/>
<path d="M195.059 94.3296C197.164 94.1856 199.277 94.1856 201.382 94.3296C203.675 94.6172 205.943 95.0772 208.166 95.7056C208.181 95.7107 208.197 95.7098 208.211 95.7032C208.224 95.6966 208.235 95.6848 208.24 95.6704C208.245 95.656 208.244 95.6401 208.238 95.6263C208.231 95.6125 208.219 95.6019 208.205 95.5968C204.027 93.9579 199.48 93.4974 195.059 94.2656C194.957 94.2528 194.957 94.336 195.059 94.3296Z" fill="#263238"/>
<path d="M193.722 87.68C197.236 87.8592 199.431 88.4224 202.964 89.4848V89.4464C199.072 87.8208 197.479 87.6672 193.703 87.5264C193.581 87.5776 193.588 87.68 193.722 87.68Z" fill="#263238"/>
<path d="M194.291 100.25C193.376 100.678 193.6 101.158 195.347 101.562C197.095 101.965 204.359 102.086 204.103 104.621C203.847 107.155 193.6 106.835 190.739 105.939C187.878 105.043 183.571 102.586 183.571 102.586C185.6 102.246 190.362 100.96 194.291 100.25Z" fill="#EB9481"/>
<path d="M146.816 97.6702C146.771 98.7646 146.669 99.8782 146.515 100.985C146.515 100.941 146.515 100.902 146.56 100.864C146.771 100.288 146.983 99.699 147.239 99.1422C147.239 99.1422 147.303 99.1422 147.296 99.1422C147.173 99.7523 146.989 100.348 146.746 100.921C146.631 101.197 146.522 101.465 146.4 101.734C146.323 102.227 146.234 102.713 146.138 103.2C145.946 104.115 145.082 108.006 144.858 108.665C144.819 108.8 144.653 108.768 144.666 108.614C144.711 107.897 145.434 103.846 145.581 102.925C145.867 101.145 146.249 99.3825 146.727 97.6446C146.759 97.6126 146.823 97.6382 146.816 97.6702Z" fill="#263238"/>
<path d="M140.16 126.771C138.451 127.648 136.25 129.011 126.33 127.059C125.69 126.931 125.088 126.778 124.461 126.592C115.162 123.802 103.981 112.864 103.373 112.09C103.373 112.09 118.151 88.1346 137.05 80.6018C139.386 79.6738 143.251 81.4658 145.37 83.6994C146.131 84.4994 147.789 90.381 147.155 95.1426C146.522 99.9042 141.863 125.895 140.16 126.771Z" fill="#0B7D77"/>
<path d="M138.829 94.9248C138.9 95.9371 138.758 96.9531 138.413 97.9072C138.332 96.8946 138.474 95.8765 138.829 94.9248V94.9248Z" fill="white"/>
<path d="M132.384 111.238C132.425 111.742 132.408 112.249 132.333 112.749C132.271 113.252 132.149 113.747 131.968 114.221C131.924 113.715 131.941 113.206 132.019 112.704C132.085 112.203 132.207 111.711 132.384 111.238V111.238Z" fill="white"/>
<path d="M121.434 98.9058C121.506 99.9202 121.364 100.938 121.018 101.895C120.938 100.88 121.08 99.8599 121.434 98.9058V98.9058Z" fill="white"/>
<path d="M143.046 110.406C143.087 110.912 143.07 111.421 142.995 111.923C142.933 112.427 142.811 112.921 142.63 113.395C142.586 112.889 142.603 112.38 142.681 111.878C142.746 111.375 142.869 110.881 143.046 110.406V110.406Z" fill="white"/>
<path d="M128.985 96.7933C129.489 96.7505 129.996 96.7655 130.496 96.8381C131 96.902 131.494 97.0266 131.968 97.2093C130.955 97.282 129.939 97.1403 128.985 96.7933V96.7933Z" fill="white"/>
<path d="M116.557 108.576C117.569 108.505 118.585 108.646 119.539 108.992C118.526 109.073 117.508 108.931 116.557 108.576V108.576Z" fill="white"/>
<path d="M131.2 121.331C132.213 121.258 133.229 121.4 134.183 121.747C133.17 121.827 132.152 121.685 131.2 121.331V121.331Z" fill="white"/>
<path d="M112.724 116.698C113.736 116.626 114.752 116.768 115.706 117.114C114.693 117.194 113.676 117.052 112.724 116.698V116.698Z" fill="white"/>
<path d="M138.732 83.456C139.745 83.3846 140.761 83.5263 141.715 83.872C140.703 83.9433 139.687 83.8016 138.732 83.456V83.456Z" fill="white"/>
<path d="M135.117 87.5391C134.794 87.928 134.424 88.2762 134.016 88.5759C133.62 88.8825 133.19 89.1444 132.736 89.3567C133.058 88.9702 133.423 88.6223 133.824 88.3199C134.225 88.012 134.658 87.7501 135.117 87.5391V87.5391Z" fill="white"/>
<path d="M115.412 99.1426C115.084 99.5281 114.712 99.874 114.304 100.173C113.912 100.485 113.482 100.748 113.024 100.954C113.354 100.57 113.725 100.224 114.132 99.9234C114.525 99.6123 114.955 99.3501 115.412 99.1426V99.1426Z" fill="white"/>
<path d="M140.019 104.377C139.692 104.765 139.32 105.113 138.912 105.414C138.518 105.725 138.089 105.988 137.632 106.195C137.959 105.807 138.331 105.46 138.739 105.158C139.135 104.85 139.564 104.588 140.019 104.377Z" fill="white"/>
<path d="M124.083 114.413C123.756 114.8 123.385 115.148 122.976 115.449C122.582 115.76 122.152 116.022 121.696 116.23C122.024 115.843 122.395 115.495 122.803 115.193C123.199 114.885 123.629 114.623 124.083 114.413Z" fill="white"/>
<path d="M146.125 90.6689C145.797 91.0565 145.426 91.4045 145.017 91.7057C144.621 92.0124 144.191 92.2743 143.737 92.4865C144.065 92.099 144.436 91.751 144.845 91.4497C145.239 91.1395 145.668 90.8774 146.125 90.6689V90.6689Z" fill="white"/>
<path d="M145.792 102.297C145.405 101.97 145.057 101.598 144.755 101.19C144.444 100.797 144.182 100.367 143.975 99.9102C144.364 100.234 144.712 100.603 145.011 101.011C145.317 101.41 145.579 101.842 145.792 102.297V102.297Z" fill="white"/>
<path d="M110.272 110.311C109.884 109.983 109.536 109.612 109.235 109.203C108.927 108.808 108.665 108.378 108.454 107.923C108.842 108.251 109.19 108.622 109.491 109.031C109.801 109.425 110.063 109.854 110.272 110.311V110.311Z" fill="white"/>
<path d="M141.472 119.84C141.083 119.516 140.735 119.147 140.435 118.739C140.128 118.342 139.867 117.913 139.654 117.459C140.042 117.786 140.39 118.158 140.691 118.566C141 118.959 141.262 119.386 141.472 119.84Z" fill="white"/>
<path d="M125.837 92.6718C125.45 92.3467 125.102 91.9772 124.8 91.571C124.495 91.1736 124.233 90.7444 124.02 90.291C124.408 90.6146 124.757 90.9842 125.056 91.3918C125.362 91.7893 125.623 92.2184 125.837 92.6718V92.6718Z" fill="white"/>
<path d="M126.112 125.267C125.724 124.94 125.376 124.568 125.075 124.16C124.768 123.764 124.506 123.334 124.294 122.88C124.683 123.203 125.031 123.573 125.331 123.981C125.639 124.379 125.901 124.81 126.112 125.267V125.267Z" fill="white"/>
<path d="M128.768 106.041C128.384 105.712 128.039 105.341 127.738 104.934C127.425 104.542 127.163 104.112 126.957 103.654C127.343 103.982 127.688 104.353 127.987 104.761C128.299 105.155 128.561 105.585 128.768 106.041V106.041Z" fill="white"/>
<path d="M141.907 90.0801C139.494 89.6321 137.228 84.6465 136.94 81.2929C136.94 81.0625 138.067 79.2385 139.353 76.9537C140.134 75.5649 140.96 73.9969 141.619 72.5121C141.753 72.2113 142.54 73.2289 142.54 73.2289L144.256 74.5089L149.92 78.8545C148.571 80.473 147.425 82.2505 146.508 84.1473C146.418 84.3529 146.349 84.5674 146.304 84.7873C146.301 84.8236 146.301 84.8599 146.304 84.8961C145.952 86.1633 144.23 90.5089 141.907 90.0801Z" fill="#EB9481"/>
<path d="M146.304 84.819C146.301 84.8552 146.301 84.8916 146.304 84.9278C145.967 84.8292 145.64 84.7029 145.324 84.5502C139.123 81.6446 141.856 73.3374 141.856 73.3374L144.288 74.5406L149.952 78.8862C148.603 80.5047 147.457 82.2822 146.54 84.179C146.439 84.3833 146.359 84.5978 146.304 84.819V84.819Z" fill="#263238"/>
<path d="M156.429 61.1709C156.429 61.1709 159.264 62.9693 159.277 66.1693C159.29 69.3693 157.997 72.4989 157.728 72.6141C157.459 72.7293 156.429 61.1709 156.429 61.1709Z" fill="#263238"/>
<path d="M142.362 62.835C140.66 66.195 140.749 76.787 142.874 79.5134C145.959 83.4686 151.898 84.8318 155.488 80.9214C158.964 77.1326 158.605 63.3342 156.128 60.7614C152.525 56.9598 144.884 57.8622 142.362 62.835Z" fill="#EB9481"/>
<path d="M151.398 71.3149C151.398 71.3149 151.341 71.3533 151.347 71.3789C151.385 72.1021 151.309 72.9341 150.662 73.1901C150.662 73.1901 150.662 73.2349 150.662 73.2285C151.462 73.1005 151.552 71.9933 151.398 71.3149Z" fill="#263238"/>
<path d="M150.739 70.5789C149.574 70.5149 149.536 72.8445 150.618 72.9021C151.699 72.9597 151.712 70.6301 150.739 70.5789Z" fill="#263238"/>
<path d="M155.348 71.2896C155.348 71.2896 155.405 71.2895 155.405 71.3535C155.367 72.0767 155.45 72.9087 156.103 73.1583C156.103 73.1583 156.103 73.2032 156.103 73.1968C155.296 73.0752 155.2 71.968 155.348 71.2896Z" fill="#263238"/>
<path d="M156.007 70.547C157.165 70.4766 157.223 72.8062 156.147 72.8702C155.072 72.9342 155.034 70.6046 156.007 70.547Z" fill="#263238"/>
<path d="M150.009 68.8065C150.315 68.7195 150.616 68.617 150.912 68.4993C151.248 68.4385 151.554 68.2673 151.782 68.0129C151.837 67.9198 151.86 67.811 151.848 67.7034C151.835 67.5958 151.787 67.4954 151.712 67.4177C151.538 67.2861 151.333 67.203 151.117 67.1771C150.901 67.1513 150.682 67.1835 150.483 67.2705C150.051 67.3862 149.677 67.6574 149.433 68.0321C149.384 68.1213 149.362 68.2225 149.369 68.3238C149.377 68.4252 149.413 68.5223 149.473 68.6038C149.534 68.6853 149.616 68.7478 149.711 68.7837C149.806 68.8196 149.91 68.8275 150.009 68.8065V68.8065Z" fill="#263238"/>
<path d="M156.8 69.8369C156.489 69.7673 156.181 69.6819 155.878 69.5809C155.541 69.5363 155.228 69.381 154.989 69.1393C154.927 69.0503 154.897 68.9431 154.904 68.835C154.911 68.727 154.955 68.6244 155.027 68.5441C155.192 68.403 155.392 68.3089 155.606 68.2717C155.82 68.2346 156.04 68.2557 156.243 68.3329C156.681 68.4236 157.069 68.6747 157.331 69.0369C157.386 69.1226 157.415 69.2224 157.414 69.3242C157.413 69.426 157.383 69.5253 157.326 69.61C157.27 69.6948 157.19 69.7614 157.097 69.8017C157.003 69.8419 156.9 69.8542 156.8 69.8369V69.8369Z" fill="#263238"/>
<path d="M149.76 78.1566C149.933 78.3294 150.099 78.5598 150.362 78.5854C150.631 78.5852 150.897 78.5285 151.143 78.419C151.143 78.419 151.187 78.419 151.143 78.4574C151.038 78.598 150.897 78.7075 150.734 78.774C150.572 78.8406 150.394 78.8616 150.221 78.835C150.075 78.7951 149.943 78.7132 149.843 78.5995C149.743 78.4857 149.679 78.3451 149.658 78.195C149.653 78.1814 149.653 78.1664 149.659 78.1531C149.665 78.1399 149.676 78.1297 149.69 78.1246C149.703 78.1195 149.718 78.12 149.732 78.126C149.745 78.132 149.755 78.143 149.76 78.1566Z" fill="#263238"/>
<path d="M153.946 75.0722C153.946 75.0722 153.978 76.1473 153.946 76.6529C152.962 76.5486 151.969 76.5831 150.995 76.7553C150.765 76.8065 150.79 76.6209 151.053 76.4993C151.837 76.1408 152.711 76.0249 153.562 76.1665C153.613 76.0321 153.478 74.5025 153.562 74.5089C153.949 74.585 154.323 74.7142 154.675 74.8929C154.675 72.6401 154.317 70.4129 154.349 68.1601C154.349 68.0833 154.47 68.0705 154.483 68.1601C154.938 70.5433 155.152 72.9661 155.123 75.3922C155.13 75.6674 154.138 75.1746 153.946 75.0722Z" fill="#263238"/>
<path d="M152.506 76.2687C152.251 76.9398 151.777 77.5056 151.162 77.8751C150.195 78.2655 149.882 77.3887 150.855 76.5951C151.365 76.3372 151.936 76.2243 152.506 76.2687Z" fill="#263238"/>
<path d="M151.501 77.6766C151.398 77.7598 151.284 77.8267 151.161 77.875C150.272 78.2334 149.92 77.523 150.637 76.8062C151.123 76.8446 151.68 77.0238 151.501 77.6766Z" fill="#FF99BA"/>
<path d="M141.875 71.8911C143.047 72.2495 144.391 68.7295 144.775 67.4111C145.107 66.2207 145.491 62.4383 145.549 62.1759C145.607 61.9135 150.669 65.5231 153.6 64.6655C156.531 63.8079 158.522 61.1519 158.567 59.9167C158.611 58.6815 154.944 55.5455 151.776 55.3855C148.608 55.2255 144.314 59.2255 144.314 59.2255C144.832 58.6369 145.303 58.0077 145.722 57.3439C145.671 57.2031 143.623 58.0223 143.245 59.4815C143.245 59.4815 143.655 57.6447 143.501 57.6127C143.347 57.5807 141.754 59.1487 142.112 60.3391C142.112 60.3391 140.269 61.9327 140.103 63.6799C139.936 65.4271 140.499 71.4687 141.875 71.8911Z" fill="#263238"/>
<path d="M155.699 63.9999C154.828 64.4725 153.889 64.8092 152.915 64.9983C151.823 65.0957 150.723 64.9198 149.715 64.4863C148.7 64.0941 147.757 63.5361 146.925 62.8351C146.189 62.2335 145.53 61.4975 144.742 60.9599C144.544 60.8191 144.32 61.1071 144.442 61.2863C145.755 63.1414 147.631 64.5238 149.792 65.2287C150.796 65.5559 151.867 65.6171 152.901 65.4062C153.936 65.1953 154.898 64.7195 155.693 64.0255C155.693 64.0255 155.712 63.9999 155.699 63.9999Z" fill="#263238"/>
<path d="M143.098 71.5776C143.098 71.5776 141.28 67.8912 139.642 68.4864C138.004 69.0816 139.002 74.1824 140.685 75.1168C140.891 75.2502 141.122 75.3406 141.364 75.3826C141.606 75.4245 141.854 75.4172 142.093 75.361C142.332 75.3048 142.558 75.201 142.756 75.0556C142.953 74.9103 143.12 74.7265 143.245 74.5152L143.098 71.5776Z" fill="#EB9481"/>
<path d="M139.968 69.939C139.968 69.939 139.93 69.939 139.968 69.9902C141.133 70.6814 141.607 71.9102 141.888 73.1902C141.835 73.0547 141.753 72.9323 141.648 72.8315C141.543 72.7307 141.418 72.654 141.28 72.6065C141.143 72.559 140.997 72.542 140.852 72.5566C140.707 72.5712 140.567 72.617 140.442 72.691C140.403 72.691 140.442 72.7614 140.442 72.7614C140.671 72.7258 140.905 72.762 141.113 72.8652C141.32 72.9684 141.49 73.1333 141.6 73.3374C141.783 73.6791 141.929 74.0396 142.035 74.4126C142.074 74.5342 142.285 74.5022 142.266 74.3678C142.541 72.7742 141.645 70.3614 139.968 69.939Z" fill="#263238"/>
<path d="M131.098 88.0381C129.818 95.2893 137.677 119.718 142.714 124.281C150.208 131.065 164.064 135.526 169.088 136.979C171.277 137.619 177.331 122.214 175.117 121.197C170.375 119.04 155.642 114.432 154.24 113.28C152.839 112.128 144.391 99.9229 140.627 92.8957C135.591 83.4365 131.731 84.3709 131.098 88.0381Z" fill="#EB9481"/>
<path d="M171.386 119.84C171.386 119.84 177.927 121.51 182.144 122.797C184.499 123.52 188.429 125.113 189.92 126.432C192.147 128.409 200.199 138.086 197.895 140.089C195.808 141.907 189.946 132.71 189.946 132.71C189.946 132.71 196.679 141.465 193.786 143.187C190.893 144.909 185.6 133.638 185.6 133.638C185.6 133.638 192.314 142.79 189.031 144.089C186.547 145.069 181.223 135.129 181.223 135.129C181.223 135.129 186.944 143.033 184.423 144.153C181.645 145.395 176.16 136.525 176.16 136.525C169.299 138.297 165.28 136.333 162.637 134.605C162.016 134.182 171.386 119.84 171.386 119.84Z" fill="#EB9481"/>
<path d="M187.808 129.53C188.64 130.528 189.485 131.539 190.221 132.608C190.957 133.677 191.655 134.778 192.288 135.91C193.147 137.376 193.834 138.935 194.336 140.557C193.235 137.741 190.656 133.869 189.92 132.8C189.184 131.731 188.499 130.624 187.77 129.555C187.751 129.53 187.789 129.504 187.808 129.53Z" fill="#263238"/>
<path d="M183.897 132.122C185.318 133.248 188.294 137.434 189.44 140.243C189.491 140.359 189.44 140.352 189.356 140.243C188.46 138.855 184.825 133.479 183.865 132.141C183.846 132.122 183.878 132.103 183.897 132.122Z" fill="#263238"/>
<path d="M180.141 133.76C181.907 135.611 183.301 137.784 184.25 140.16C184.295 140.275 184.205 140.256 184.135 140.16C182.81 138.003 181.786 136.32 180.071 133.817C180.045 133.76 180.103 133.702 180.141 133.76Z" fill="#263238"/>
<path d="M138.24 88.5697C132.397 80.3073 128.903 83.3665 130.074 92.3393C131.175 100.73 134.112 110.727 134.112 110.727L148.832 103.584C148.832 103.584 141.959 93.8625 138.24 88.5697Z" fill="#0B7D77"/>
<path d="M141.792 91.8208C141.986 92.2875 142.126 92.775 142.208 93.2736C142.298 93.7739 142.33 94.2828 142.304 94.7904C142.112 94.3213 141.975 93.8317 141.895 93.3312C141.799 92.8337 141.765 92.3266 141.792 91.8208V91.8208Z" fill="white"/>
<path d="M133.068 96.8445C134.008 96.4625 135.018 96.2878 136.032 96.3325C135.565 96.5245 135.077 96.6619 134.579 96.7421C134.081 96.8371 133.574 96.8715 133.068 96.8445V96.8445Z" fill="white"/>
<path d="M133.446 83.9937C133.05 84.929 132.459 85.769 131.712 86.4576C132.108 85.5223 132.7 84.6823 133.446 83.9937V83.9937Z" fill="white"/>
<path d="M145.92 100.704C145.726 101.172 145.479 101.617 145.184 102.029C144.897 102.446 144.562 102.829 144.186 103.168C144.582 102.233 145.173 101.393 145.92 100.704V100.704Z" fill="white"/>
<path d="M135.68 105.715C135.211 105.523 134.766 105.276 134.355 104.979C133.937 104.693 133.555 104.357 133.216 103.981C134.151 104.377 134.991 104.969 135.68 105.715V105.715Z" fill="white"/>
<path d="M140.16 91.0591C140.947 92.1407 141.76 93.1967 142.566 94.2591C142.362 93.7215 142.182 93.1775 142.029 92.6271H142.067C142.227 93.0495 142.413 93.4655 142.566 93.9071L142.797 94.5471C142.817 94.5908 142.834 94.6357 142.848 94.6815C143.488 95.5071 144.128 96.3327 144.717 97.1775C145.44 98.1887 146.138 99.2127 146.842 100.237C147.546 101.261 148.256 102.534 149.018 103.565C149.088 103.654 147.738 104.205 147.59 104.275C147.443 104.345 147.366 104.224 147.507 104.179C147.648 104.134 148.723 103.475 148.736 103.462C148.032 102.425 147.219 101.472 146.483 100.467C145.747 99.4623 145.018 98.4575 144.307 97.4399C142.867 95.3663 141.549 93.2159 140.115 91.1359L140.16 91.0591Z" fill="#263238"/>
<path d="M130.419 98.2783C130.643 98.7135 130.887 99.1423 131.059 99.5903L131.303 100.147C130.963 98.5535 130.663 96.9471 130.311 95.3535C130.989 97.9135 131.674 100.531 132.301 103.13C132.896 105.613 133.619 108.122 133.965 110.656C134.411 110.46 134.874 110.304 135.347 110.189C134.872 110.496 134.36 110.744 133.824 110.925C133.053 108.348 132.412 105.733 131.904 103.091C131.744 102.374 131.597 101.658 131.443 100.941C131.277 100.506 131.079 100.09 130.88 99.6607C130.682 99.2319 130.503 98.7519 130.323 98.2975C130.362 98.2719 130.407 98.2463 130.419 98.2783Z" fill="#263238"/>
<path d="M134.329 108.256C136.377 107.104 144.934 102.675 146.848 101.856C146.982 101.799 147.052 101.856 146.918 101.946C142.856 104.306 138.669 106.442 134.374 108.346C134.323 108.359 134.272 108.288 134.329 108.256Z" fill="#263238"/>
<path d="M368.845 276.512H173.85L202.042 116.608H397.037L368.845 276.512Z" fill="#0B7D77"/>
<path d="M268.781 100.045H204.967L202.042 116.608H270.336L268.781 100.045Z" fill="#0B7D77"/>
<g opacity="0.1">
<path d="M368.845 276.512H173.85L202.042 116.608H397.037L368.845 276.512Z" fill="black"/>
<path d="M268.781 100.045H204.967L202.042 116.608H270.336L268.781 100.045Z" fill="black"/>
</g>
<path d="M198.081 106.803C197.654 104.972 197.654 103.067 198.081 101.235C198.508 103.067 198.508 104.972 198.081 106.803V106.803Z" fill="#263238"/>
<path d="M192.41 108.442C191.758 107.766 191.196 107.009 190.739 106.189C190.259 105.386 189.883 104.526 189.619 103.629C190.273 104.301 190.834 105.056 191.29 105.875C191.768 106.681 192.144 107.543 192.41 108.442V108.442Z" fill="#263238"/>
<path d="M188.314 112.698C186.516 112.151 184.867 111.198 183.495 109.914C184.392 110.174 185.253 110.549 186.055 111.027C186.875 111.487 187.634 112.049 188.314 112.698V112.698Z" fill="#263238"/>
<path d="M186.881 118.432C185.049 118.859 183.144 118.859 181.312 118.432C183.144 118.006 185.049 118.006 186.881 118.432V118.432Z" fill="#263238"/>
<path d="M188.544 124.103C187.866 124.751 187.109 125.312 186.291 125.773C185.489 126.252 184.629 126.626 183.731 126.887C184.407 126.235 185.164 125.673 185.984 125.216C186.786 124.735 187.646 124.361 188.544 124.103V124.103Z" fill="#263238"/>
<path d="M192.794 128.192C192.249 129.993 191.296 131.644 190.01 133.017C190.27 132.119 190.647 131.259 191.13 130.457C191.586 129.635 192.145 128.873 192.794 128.192V128.192Z" fill="#263238"/>
<path d="M198.529 129.606C198.752 130.517 198.859 131.453 198.849 132.39C198.863 133.328 198.755 134.264 198.529 135.174C198.299 134.265 198.192 133.329 198.209 132.39C198.198 131.453 198.306 130.517 198.529 129.606V129.606Z" fill="#263238"/>
<path d="M204.198 128C204.85 128.676 205.411 129.433 205.869 130.253C206.35 131.054 206.724 131.915 206.982 132.813C205.696 131.44 204.743 129.788 204.198 127.987V128Z" fill="#263238"/>
<path d="M208.288 123.712C209.186 123.97 210.047 124.345 210.848 124.826C211.668 125.283 212.425 125.844 213.101 126.496C212.203 126.238 211.342 125.863 210.541 125.382C209.721 124.925 208.964 124.364 208.288 123.712V123.712Z" fill="#263238"/>
<path d="M209.703 117.978C211.537 117.551 213.444 117.551 215.278 117.978C213.444 118.404 211.537 118.404 209.703 117.978V117.978Z" fill="#263238"/>
<path d="M208.065 112.307C208.742 111.66 209.499 111.101 210.317 110.643C211.117 110.158 211.978 109.781 212.877 109.523C211.504 110.81 209.853 111.763 208.052 112.307H208.065Z" fill="#263238"/>
<path d="M203.809 108.218C204.072 107.321 204.446 106.461 204.922 105.658C205.379 104.838 205.941 104.081 206.593 103.405C206.334 104.303 205.96 105.163 205.479 105.965C205.022 106.785 204.46 107.542 203.809 108.218V108.218Z" fill="#263238"/>
<path d="M368.557 276.512H173.146L145.396 122.413H340.813L368.557 276.512Z" fill="#0B7D77"/>
<path d="M213.114 216.614C217.599 216.614 221.235 212.978 221.235 208.493C221.235 204.007 217.599 200.371 213.114 200.371C208.628 200.371 204.992 204.007 204.992 208.493C204.992 212.978 208.628 216.614 213.114 216.614Z" fill="#263238"/>
<path d="M277.319 216.614C281.804 216.614 285.44 212.978 285.44 208.493C285.44 204.007 281.804 200.371 277.319 200.371C272.833 200.371 269.197 204.007 269.197 208.493C269.197 212.978 272.833 216.614 277.319 216.614Z" fill="#263238"/>
<path d="M256.883 217.914L256.435 217.063C256.397 216.986 252.198 209.229 243.757 209.229C236.077 209.229 234.157 216.531 234.106 216.845L233.875 217.773L232.013 217.325L232.237 216.391C232.237 216.301 234.528 207.309 243.757 207.309C253.357 207.309 257.945 215.808 258.137 216.173L258.586 217.018L256.883 217.914Z" fill="#263238"/>
<path d="M355.654 207.872L355.52 207.232C355.936 207.142 356.345 207.046 356.755 206.938L356.915 207.577C356.48 207.686 356.076 207.782 355.654 207.872Z" fill="#263238"/>
<path d="M359.391 206.841L359.186 206.24C359.986 205.965 360.786 205.664 361.561 205.337L361.811 205.926C361.023 206.259 360.21 206.566 359.391 206.841ZM364.159 204.8L363.871 204.237C364.62 203.846 365.369 203.424 366.079 202.957L366.412 203.501C365.683 204.006 364.921 204.435 364.159 204.8ZM368.563 202.093L368.185 201.574C368.876 201.069 369.542 200.537 370.169 199.993L370.591 200.473C369.919 201.056 369.279 201.6 368.556 202.118L368.563 202.093ZM372.466 198.688L371.999 198.246C372.588 197.606 373.145 196.966 373.657 196.326L374.163 196.717C373.631 197.421 373.062 198.08 372.479 198.713L372.466 198.688ZM375.634 194.592L375.091 194.253C375.533 193.538 375.926 192.793 376.268 192.025L376.857 192.288C376.495 193.089 376.085 193.867 375.628 194.617L375.634 194.592ZM377.753 189.843L377.113 189.664C377.347 188.861 377.52 188.041 377.631 187.213L378.271 187.296C378.165 188.166 377.99 189.026 377.746 189.869L377.753 189.843ZM378.463 184.723H377.823V184.537C377.823 183.763 377.778 182.976 377.702 182.201L378.342 182.137C378.426 182.935 378.469 183.736 378.47 184.537L378.463 184.723ZM377.311 179.712C377.139 178.887 376.925 178.071 376.671 177.267L377.311 177.075C377.574 177.907 377.798 178.752 377.951 179.577L377.311 179.712ZM375.794 174.893C375.487 174.137 375.154 173.363 374.745 172.582L375.321 172.294C375.711 173.088 376.07 173.881 376.383 174.649L375.794 174.893ZM373.554 170.329C373.158 169.632 372.722 168.896 372.274 168.141L372.819 167.801C373.286 168.563 373.727 169.305 374.099 170.016L373.554 170.329ZM370.879 165.984C370.412 165.28 369.939 164.569 369.452 163.859L369.983 163.501C370.47 164.211 370.943 164.921 371.411 165.638L370.879 165.984ZM367.999 161.747C367.519 161.043 367.033 160.333 366.559 159.629L367.091 159.27C367.564 159.974 368.044 160.685 368.524 161.382L367.999 161.747ZM365.139 157.485C364.671 156.768 364.217 156.038 363.769 155.309L364.313 154.976C364.761 155.705 365.215 156.422 365.676 157.139L365.139 157.485ZM362.47 153.088C362.034 152.313 361.631 151.545 361.266 150.809L361.843 150.521C362.201 151.251 362.604 152.006 363.026 152.774L362.47 153.088ZM360.198 148.48C359.858 147.68 359.558 146.867 359.276 146.073L359.916 145.869C360.185 146.643 360.486 147.443 360.819 148.23L360.198 148.48ZM358.534 143.597C358.323 142.765 358.137 141.913 357.996 141.037L358.636 140.934C358.777 141.753 358.95 142.585 359.161 143.405L358.534 143.597ZM357.676 138.477C357.612 137.689 357.58 136.896 357.58 136.102V135.891H358.22V136.096C358.22 136.87 358.22 137.651 358.316 138.419L357.676 138.477ZM358.316 133.357L357.676 133.293C357.676 133.12 357.708 132.941 357.727 132.755C357.804 132.07 357.9 131.385 358.015 130.733L358.655 130.841C358.547 131.481 358.451 132.153 358.374 132.825C358.399 133.024 358.399 133.197 358.348 133.376L358.316 133.357ZM359.206 128.377L358.566 128.205C358.803 127.36 359.078 126.534 359.385 125.747L359.98 125.977C359.689 126.77 359.441 127.577 359.238 128.397L359.206 128.377ZM391.097 124.646C390.739 124.646 390.367 124.595 390.003 124.544C389.503 124.473 389.004 124.39 388.511 124.294L388.639 123.654C389.113 123.744 389.606 123.827 390.092 123.897C390.438 123.942 390.79 123.974 391.129 123.993L391.097 124.646ZM393.727 124.448L393.593 123.808C394.396 123.642 395.166 123.343 395.871 122.925L396.204 123.469C395.45 123.935 394.624 124.272 393.759 124.467L393.727 124.448ZM361.049 123.686L360.479 123.385C360.887 122.622 361.338 121.883 361.83 121.171L362.354 121.536C361.887 122.233 361.461 122.957 361.081 123.705L361.049 123.686ZM386.009 123.648C385.183 123.386 384.371 123.08 383.577 122.733L383.839 122.144C384.609 122.486 385.397 122.783 386.201 123.033L386.009 123.648ZM398.169 121.651L397.638 121.293C398.093 120.631 398.363 119.86 398.419 119.059L399.059 119.104C399.004 120.022 398.703 120.908 398.188 121.67L398.169 121.651ZM381.273 121.555C380.524 121.12 379.8 120.643 379.103 120.128L379.481 119.616C380.159 120.116 380.864 120.577 381.593 120.998L381.273 121.555ZM363.929 119.558L363.455 119.129C364.035 118.485 364.652 117.876 365.305 117.305L365.727 117.785C365.099 118.347 364.505 118.945 363.948 119.577L363.929 119.558ZM377.106 118.477C376.469 117.889 375.865 117.268 375.295 116.614L375.775 116.192C376.329 116.826 376.917 117.431 377.535 118.003L377.106 118.477ZM397.939 116.742C397.572 116.011 397.065 115.358 396.447 114.822L396.87 114.342C397.55 114.93 398.108 115.646 398.514 116.448L397.939 116.742ZM367.718 116.237L367.353 115.712C368.069 115.223 368.81 114.772 369.574 114.361L369.874 114.925C369.139 115.331 368.426 115.775 367.737 116.256L367.718 116.237ZM373.695 114.573C373.452 114.227 373.215 113.875 372.991 113.51L372.159 113.837L371.916 113.248L372.652 112.953C372.537 112.761 372.422 112.569 372.313 112.377L372.87 112.064C372.998 112.288 373.126 112.512 373.26 112.704C373.618 112.576 373.983 112.454 374.354 112.339L374.54 112.979C374.226 113.075 373.9 113.177 373.606 113.286C373.804 113.6 374.009 113.926 374.246 114.201L373.695 114.573ZM394.386 113.472C393.767 113.163 393.125 112.902 392.466 112.691L392.044 112.557L392.23 111.917L392.665 112.057C393.351 112.276 394.018 112.548 394.662 112.87L394.386 113.472ZM376.991 112.326L376.857 111.686C377.683 111.501 378.54 111.347 379.417 111.225L379.513 111.865C378.668 112 377.83 112.16 377.011 112.345L376.991 112.326ZM389.599 111.981C388.799 111.84 387.955 111.731 387.091 111.654L387.142 111.014C388.031 111.091 388.895 111.2 389.702 111.347L389.599 111.981ZM382.015 111.609L381.971 110.969C382.732 110.925 383.494 110.899 384.249 110.899H384.563V111.539H384.255C383.532 111.558 382.777 111.577 382.034 111.629L382.015 111.609ZM371.199 110.08C370.854 109.299 370.559 108.486 370.271 107.661L370.911 107.462C371.18 108.269 371.481 109.062 371.814 109.824L371.199 110.08ZM369.58 105.165C369.388 104.339 369.228 103.481 369.106 102.605L369.746 102.515C369.868 103.36 370.022 104.198 370.207 105.011L369.58 105.165ZM368.863 100.045C368.831 99.4685 368.812 98.8797 368.812 98.2909C368.812 98.0157 368.812 97.7341 368.812 97.4589H369.452C369.452 97.7341 369.452 98.0029 369.452 98.2781C369.452 98.8541 369.452 99.4365 369.497 99.9933L368.863 100.045ZM369.625 94.9245L368.985 94.8605C369.074 94.0157 369.196 93.1517 369.343 92.3005L369.983 92.4093C369.81 93.2605 369.689 94.0797 369.606 94.9373L369.625 94.9245ZM370.502 89.9261L369.862 89.7725C370.066 88.9469 370.303 88.1149 370.566 87.2829L371.206 87.4813C370.918 88.3197 370.681 89.1325 370.483 89.9389L370.502 89.9261ZM372.038 85.0813L371.443 84.8509C371.756 84.0509 372.082 83.2509 372.473 82.4765L373.049 82.7581C372.665 83.5261 372.326 84.3069 372.019 85.1197L372.038 85.0813ZM374.239 80.5181L373.683 80.1917C374.118 79.4557 374.585 78.7197 375.071 78.0157L375.596 78.3805C375.097 79.0845 374.642 79.8013 374.22 80.5309L374.239 80.5181ZM377.126 76.3517L376.626 75.9485C377.164 75.3085 377.74 74.6301 378.335 74.0285L378.796 74.4701C378.194 75.0717 377.631 75.7117 377.106 76.3645L377.126 76.3517ZM380.607 72.6653L380.179 72.1917C380.819 71.6221 381.458 71.0589 382.143 70.5149L382.54 71.0205C381.855 71.5645 381.202 72.1213 380.588 72.6781L380.607 72.6653ZM384.582 69.5037L384.217 68.9725C384.915 68.4925 385.644 68.0189 386.386 67.5709L386.713 68.1149C385.97 68.5693 385.279 69.0365 384.563 69.5165L384.582 69.5037ZM388.927 66.8605L388.626 66.2973C389.382 65.8941 390.162 65.5101 390.943 65.1517L391.212 65.7341C390.399 66.0989 389.65 66.4829 388.908 66.8733L388.927 66.8605ZM393.554 64.7357L393.318 64.1341C394.124 63.8205 394.937 63.4941 395.743 63.2573L395.948 63.8973C395.135 64.1405 394.329 64.4349 393.535 64.7485L393.554 64.7357Z" fill="#263238"/>
<path d="M398.489 63.1165L398.329 62.4765C399.123 62.2717 399.609 62.1821 399.609 62.1821L399.724 62.8221C399.724 62.8221 399.264 62.9181 398.489 63.1165Z" fill="#263238"/>
<path d="M409.804 58.9821C408.172 53.9261 397.241 55.7437 399.372 62.3549C401.503 68.9661 411.436 64.0445 409.804 58.9821Z" fill="#263238"/>
<path d="M393.427 56.9598C393.51 54.739 396.595 53.0302 400.959 53.8174C405.324 54.6046 409.427 57.5486 409.427 57.5486C409.427 57.5486 405.119 60.1598 400.71 60.6398C396.3 61.1198 393.343 59.1742 393.427 56.9598Z" fill="#EBEBEB"/>
<path d="M409.426 57.5358C407.161 57.5358 404.902 57.4718 402.642 57.4014C400.383 57.331 398.118 57.2158 395.858 57.0366C398.124 57.0366 400.39 57.0942 402.649 57.1646C404.908 57.235 407.174 57.3502 409.426 57.5358Z" fill="#263238"/>
<path d="M397.811 54.9824C399.097 55.5977 400.31 56.3555 401.427 57.2416C400.783 56.9396 400.159 56.5976 399.558 56.2176C398.952 55.8403 398.368 55.4278 397.811 54.9824V54.9824Z" fill="#263238"/>
<path d="M403.744 57.3247C402.586 58.263 401.331 59.0741 400 59.7439C401.164 58.8044 402.425 57.9933 403.763 57.3247H403.744Z" fill="#263238"/>
<path d="M404.402 56.0767C405.048 56.3868 405.613 56.8424 406.054 57.4079C405.731 57.2554 405.428 57.0642 405.151 56.8383C404.873 56.6138 404.622 56.3582 404.402 56.0767V56.0767Z" fill="#263238"/>
<path d="M397.587 70.1117C398.95 71.8653 402.451 71.4429 405.529 68.2557C408.608 65.0685 410.24 60.2749 410.24 60.2749C410.24 60.2749 405.197 60.6589 401.35 62.8349C397.504 65.0109 396.217 68.3517 397.587 70.1117Z" fill="#EBEBEB"/>
<path d="M410.24 60.2749C408.397 61.5549 406.605 62.9757 404.806 64.3517C403.008 65.7277 401.248 67.1485 399.526 68.6141C401.37 67.3341 403.162 65.9197 404.954 64.5437C406.746 63.1677 408.493 61.7469 410.24 60.2749Z" fill="#263238"/>
<path d="M402.291 69.1196C402.633 68.498 402.939 67.8569 403.206 67.1996C403.479 66.5406 403.709 65.8651 403.897 65.1772C403.554 65.7984 403.249 66.4395 402.982 67.0972C402.712 67.7573 402.482 68.4326 402.291 69.1196Z" fill="#263238"/>
<path d="M405.759 63.7694C404.262 63.6894 402.76 63.7688 401.279 64.0062C402.025 64.051 402.773 64.051 403.519 64.0062C404.27 63.9696 405.018 63.8906 405.759 63.7694V63.7694Z" fill="#263238"/>
<path d="M406.995 64.403C407.166 64.087 407.299 63.7519 407.392 63.4046C407.487 63.06 407.542 62.7057 407.558 62.3486C407.218 62.9822 407.026 63.6845 406.995 64.403V64.403Z" fill="#263238"/>
<path d="M409.804 58.982C409.443 59.0993 409.054 59.1068 408.689 59.0034C408.323 58.9001 407.996 58.6905 407.75 58.4012C407.503 58.112 407.348 57.7561 407.304 57.3787C407.26 57.0012 407.329 56.6192 407.502 56.2809C407.675 55.9426 407.945 55.6634 408.277 55.4785C408.609 55.2935 408.988 55.2113 409.367 55.2422C409.746 55.2731 410.107 55.4156 410.405 55.6519C410.702 55.8881 410.923 56.2073 411.039 56.5692C411.194 57.0529 411.152 57.5785 410.92 58.0308C410.689 58.483 410.287 58.8251 409.804 58.982Z" fill="#455A64"/>
<path d="M410.982 62.6364C410.621 62.7533 410.233 62.7604 409.868 62.657C409.502 62.5535 409.176 62.3441 408.929 62.0551C408.683 61.7661 408.528 61.4106 408.484 61.0335C408.44 60.6565 408.508 60.2747 408.681 59.9366C408.853 59.5984 409.122 59.319 409.454 59.1338C409.785 58.9485 410.164 58.8656 410.543 58.8957C410.921 58.9257 411.282 59.0673 411.58 59.3025C411.878 59.5377 412.1 59.856 412.217 60.2172C412.295 60.4571 412.325 60.7101 412.305 60.9615C412.285 61.213 412.215 61.4581 412.101 61.6827C411.986 61.9074 411.828 62.1073 411.636 62.2709C411.444 62.4345 411.222 62.5587 410.982 62.6364V62.6364Z" fill="#455A64"/>
<path d="M201.158 61.0047C200.851 63.9443 199.734 66.7409 197.93 69.0823C196.126 71.4238 193.708 73.218 190.944 74.2648C188.18 75.3116 185.179 75.5697 182.277 75.0105C179.375 74.4512 176.685 73.0964 174.508 71.0975L166.527 72.2687L170.521 65.3695C169.608 63.1246 169.218 60.7011 169.382 58.2831C169.545 55.8651 170.258 53.5161 171.465 51.4147C172.672 49.3133 174.342 47.5146 176.349 46.1553C178.355 44.796 180.645 43.9119 183.045 43.5701C185.444 43.2283 187.889 43.4377 190.196 44.1826C192.502 44.9274 194.608 46.1881 196.354 47.8687C198.1 49.5494 199.44 51.6059 200.273 53.882C201.105 56.1582 201.408 58.5941 201.158 61.0047V61.0047Z" fill="white"/>
<path d="M201.158 61.0046C200.858 63.9427 199.75 66.7404 197.958 69.0878C197.082 70.2751 196.026 71.3181 194.828 72.179C193.657 73.0723 192.364 73.7942 190.988 74.323C189.612 74.8649 188.167 75.2097 186.694 75.347C185.958 75.4131 185.218 75.4281 184.48 75.3918C183.739 75.3728 183 75.2957 182.272 75.1614C179.33 74.6202 176.598 73.2706 174.38 71.2638L174.566 71.3214L166.598 72.5438L166.016 72.6334L166.31 72.1214L170.278 65.2094V65.4846C169.342 63.1983 168.944 60.7273 169.115 58.2626C169.285 55.7979 170.021 53.4054 171.264 51.2702C172.505 49.1417 174.212 47.3214 176.256 45.9454C178.296 44.5877 180.618 43.7097 183.047 43.3772C185.475 43.0446 187.947 43.2663 190.278 44.0254C192.584 44.8099 194.685 46.1001 196.428 47.8014C198.168 49.4985 199.497 51.5695 200.317 53.8572C201.136 56.1449 201.424 58.5892 201.158 61.0046ZM201.158 61.0046C201.417 58.6011 201.119 56.1703 200.289 53.8998C199.459 51.6294 198.119 49.5801 196.371 47.9101C194.623 46.2402 192.515 44.9942 190.209 44.2685C187.903 43.5428 185.461 43.3567 183.072 43.7246C180.706 44.0747 178.453 44.9637 176.486 46.323C174.536 47.693 172.907 49.4706 171.712 51.5326C170.535 53.5992 169.841 55.9054 169.683 58.2782C169.527 60.6671 169.912 63.0604 170.809 65.2798L170.867 65.4206L170.79 65.555L166.771 72.4414L166.489 72.019L174.476 70.899H174.585L174.662 70.9694C176.797 72.9566 179.443 74.3106 182.304 74.8798C183.017 75.0251 183.74 75.1128 184.467 75.1422C185.193 75.1934 185.923 75.1934 186.649 75.1422C188.106 75.0248 189.54 74.7083 190.912 74.2014C192.286 73.7011 193.58 73.0025 194.752 72.1278C195.945 71.2738 197.002 70.2446 197.888 69.075C199.703 66.739 200.835 63.9454 201.158 61.0046Z" fill="#263238"/>
<path d="M177.498 66.7837C177.485 66.5718 177.517 66.3597 177.59 66.1604C177.663 65.9612 177.776 65.7791 177.923 65.6255C178.069 65.4718 178.246 65.3499 178.441 65.2673C178.637 65.1847 178.847 65.1432 179.059 65.1453C179.494 65.1453 179.911 65.3179 180.218 65.6252C180.525 65.9324 180.698 66.3492 180.698 66.7837C180.698 67.2182 180.525 67.635 180.218 67.9422C179.911 68.2495 179.494 68.4221 179.059 68.4221C178.847 68.4242 178.637 68.3827 178.441 68.3001C178.246 68.2175 178.069 68.0956 177.923 67.942C177.776 67.7883 177.663 67.6062 177.59 67.407C177.517 67.2077 177.485 66.9956 177.498 66.7837V66.7837ZM178.138 63.0013L177.767 50.3037H180.327L179.955 63.0013H178.138Z" fill="#0B7D77"/>
<path d="M183.584 66.7837C183.571 66.5724 183.603 66.3608 183.675 66.1619C183.748 65.9631 183.861 65.7814 184.007 65.6278C184.152 65.4743 184.328 65.3522 184.523 65.2693C184.717 65.1863 184.927 65.1441 185.139 65.1453C185.573 65.1453 185.99 65.3179 186.297 65.6252C186.605 65.9324 186.777 66.3492 186.777 66.7837C186.777 67.2182 186.605 67.635 186.297 67.9422C185.99 68.2495 185.573 68.4221 185.139 68.4221C184.927 68.4233 184.717 68.3812 184.523 68.2982C184.328 68.2152 184.152 68.0932 184.007 67.9396C183.861 67.7861 183.748 67.6043 183.675 67.4055C183.603 67.2067 183.571 66.9951 183.584 66.7837V66.7837ZM184.224 63.0013L183.872 50.3037H186.432L186.06 63.0013H184.224Z" fill="#0B7D77"/>
<path d="M189.664 66.7837C189.651 66.5718 189.683 66.3597 189.756 66.1604C189.829 65.9612 189.942 65.7791 190.089 65.6255C190.235 65.4718 190.412 65.3499 190.607 65.2673C190.803 65.1847 191.013 65.1432 191.225 65.1453C191.66 65.1453 192.077 65.3179 192.384 65.6252C192.691 65.9324 192.864 66.3492 192.864 66.7837C192.864 67.2182 192.691 67.635 192.384 67.9422C192.077 68.2495 191.66 68.4221 191.225 68.4221C191.013 68.4242 190.803 68.3827 190.607 68.3001C190.412 68.2175 190.235 68.0956 190.089 67.942C189.942 67.7883 189.829 67.6062 189.756 67.407C189.683 67.2077 189.651 66.9956 189.664 66.7837ZM190.304 63.0013L189.933 50.3037H192.493L192.128 63.0013H190.304Z" fill="#0B7D77"/>
</svg>
