<svg width="240" height="160" viewBox="0 0 240 160" fill="none" xmlns="http://www.w3.org/2000/svg">
<path d="M176.525 74.8482C174.846 75.8588 172.89 76.3119 170.938 76.1424C168.985 75.973 167.136 75.1897 165.656 73.9048C164.176 72.6199 163.141 70.8995 162.699 68.9901C162.257 67.0807 162.431 65.0803 163.196 63.2758C163.961 61.4713 165.277 59.9553 166.957 58.945C168.636 57.9348 170.592 57.4822 172.545 57.6522C174.497 57.8221 176.346 58.6059 177.825 59.8911C179.305 61.1763 180.34 62.897 180.781 64.8066C181.226 66.7153 181.053 68.7159 180.288 70.5203C179.524 72.3248 178.206 73.8401 176.525 74.8482V74.8482Z" fill="#EBEBEB"/>
<path d="M174.576 65.8724C174.569 66.4305 174.397 66.9739 174.081 67.434C173.765 67.8942 173.32 68.2504 172.802 68.4576C172.284 68.6649 171.716 68.7138 171.17 68.5984C170.624 68.4829 170.125 68.2082 169.735 67.8089C169.345 67.4096 169.082 66.9037 168.98 66.3551C168.877 65.8066 168.94 65.2399 169.159 64.7268C169.379 64.2138 169.745 63.7773 170.213 63.4726C170.68 63.1678 171.228 63.0085 171.786 63.0148C172.157 63.019 172.523 63.0963 172.864 63.2422C173.205 63.3881 173.514 63.5998 173.773 63.8652C174.033 64.1306 174.237 64.4445 174.375 64.7889C174.512 65.1333 174.581 65.5015 174.576 65.8724V65.8724Z" fill="white"/>
<path d="M176.538 73.6834V74.8482C175.061 75.7359 173.366 76.1948 171.642 76.1733C169.919 76.1518 168.236 75.6509 166.781 74.7266L166.797 73.565C166.805 72.9246 166.939 72.292 167.191 71.7033C167.443 71.1146 167.809 70.5813 168.267 70.1339C168.726 69.6866 169.268 69.3339 169.862 69.096C170.457 68.8581 171.093 68.7397 171.733 68.7474C172.374 68.7552 173.006 68.889 173.595 69.1413C174.184 69.3936 174.717 69.7593 175.164 70.2177C175.612 70.676 175.964 71.218 176.202 71.8126C176.44 72.4073 176.559 73.043 176.551 73.6834H176.538Z" fill="white"/>
<path d="M72.189 47.2291C71.2203 47.8122 70.1082 48.1136 68.9776 48.0995C67.8471 48.0853 66.7429 47.7562 65.789 47.1491C64.6734 46.4391 63.8197 45.3846 63.3573 44.1456C62.895 42.9067 62.8492 41.5507 63.2269 40.2834C63.6046 39.016 64.3852 37.9064 65.4504 37.1227C66.5156 36.3389 67.8073 35.9239 69.1296 35.9404C70.452 35.9569 71.7328 36.4042 72.7781 37.2143C73.8234 38.0244 74.576 39.1532 74.9219 40.4296C75.2679 41.7059 75.1882 43.0603 74.695 44.2874C74.2018 45.5144 73.322 46.5472 72.189 47.2291V47.2291Z" fill="#EBEBEB"/>
<path d="M70.912 41.3475C70.9082 41.7134 70.7959 42.0699 70.5893 42.372C70.3828 42.6741 70.0913 42.9081 69.7517 43.0445C69.4121 43.1809 69.0397 43.2134 68.6816 43.1381C68.3235 43.0627 67.9958 42.8828 67.74 42.6212C67.4842 42.3595 67.3117 42.0279 67.2444 41.6681C67.1771 41.3084 67.2181 40.9369 67.3621 40.6004C67.506 40.264 67.7466 39.9778 68.0532 39.7782C68.3599 39.5785 68.7189 39.4742 69.0848 39.4787C69.3275 39.4812 69.5674 39.5315 69.7907 39.6268C70.0139 39.7221 70.2162 39.8605 70.3859 40.0341C70.5557 40.2077 70.6895 40.413 70.7797 40.6384C70.87 40.8638 70.9149 41.1047 70.912 41.3475V41.3475Z" fill="white"/>
<path d="M72.1988 46.4641V47.2289C71.2301 47.8119 70.118 48.1133 68.9874 48.0992C67.8569 48.0851 66.7527 47.756 65.7988 47.1489V46.3905C65.8086 45.5418 66.1551 44.7317 66.7621 44.1385C67.3691 43.5453 68.1869 43.2175 69.0356 43.2273C69.8843 43.237 70.6944 43.5835 71.2876 44.1905C71.8808 44.7976 72.2086 45.6154 72.1988 46.4641V46.4641Z" fill="white"/>
<path d="M99.3441 48.1027H58.8193V20.3779H99.3441V48.1027ZM59.1393 47.7827H99.0241V20.6979H59.1393V47.7827Z" fill="#EBEBEB"/>
<path d="M61.9878 22.1633C61.9878 22.3228 61.9405 22.4787 61.8519 22.6113C61.7633 22.744 61.6373 22.8473 61.49 22.9083C61.3426 22.9694 61.1805 22.9854 61.0241 22.9542C60.8677 22.9231 60.724 22.8463 60.6112 22.7335C60.4984 22.6208 60.4216 22.4771 60.3905 22.3207C60.3594 22.1642 60.3753 22.0021 60.4364 21.8547C60.4974 21.7074 60.6008 21.5814 60.7334 21.4928C60.866 21.4042 61.0219 21.3569 61.1814 21.3569C61.3953 21.3569 61.6004 21.4419 61.7516 21.5931C61.9028 21.7444 61.9878 21.9495 61.9878 22.1633Z" fill="#A6A6A6"/>
<path d="M65.2798 22.1633C65.2798 22.3228 65.2325 22.4787 65.1439 22.6113C65.0553 22.744 64.9293 22.8473 64.782 22.9083C64.6346 22.9694 64.4725 22.9854 64.3161 22.9542C64.1596 22.9231 64.016 22.8463 63.9032 22.7335C63.7904 22.6208 63.7136 22.4771 63.6825 22.3207C63.6514 22.1642 63.6673 22.0021 63.7284 21.8547C63.7894 21.7074 63.8928 21.5814 64.0254 21.4928C64.158 21.4042 64.3139 21.3569 64.4734 21.3569C64.6873 21.3569 64.8924 21.4419 65.0436 21.5931C65.1948 21.7444 65.2798 21.9495 65.2798 22.1633Z" fill="#EBEBEB"/>
<path d="M68.5728 22.1633C68.5728 22.3228 68.5255 22.4787 68.4369 22.6113C68.3482 22.744 68.2223 22.8473 68.075 22.9083C67.9276 22.9694 67.7655 22.9854 67.609 22.9542C67.4526 22.9231 67.3089 22.8463 67.1961 22.7335C67.0834 22.6208 67.0066 22.4771 66.9755 22.3207C66.9443 22.1642 66.9603 22.0021 67.0213 21.8547C67.0824 21.7074 67.1857 21.5814 67.3183 21.4928C67.451 21.4042 67.6069 21.3569 67.7664 21.3569C67.9802 21.3569 68.1853 21.4419 68.3366 21.5931C68.4878 21.7444 68.5728 21.9495 68.5728 22.1633V22.1633Z" fill="#0B7D77"/>
<path d="M99.1843 23.584H58.9795V23.904H99.1843V23.584Z" fill="#EBEBEB"/>
<path d="M83.7235 55.3774L62.6104 58.2583L64.4373 71.6478L85.5505 68.767L83.7235 55.3774Z" fill="#EBEBEB"/>
<path d="M83.7219 55.3828C82.9795 56.314 82.2179 57.2132 81.4819 58.1316C80.7459 59.05 79.9587 59.9396 79.1939 60.8356C78.4291 61.7316 77.5939 62.698 76.7875 63.6196L76.7139 63.7092C76.0035 64.522 75.2888 65.3359 74.5699 66.1508L74.4643 66.266L74.3331 66.1828C73.4243 65.5908 72.5219 64.9988 71.6163 64.4004L71.5203 64.3396C70.4963 63.6644 69.4723 62.986 68.4515 62.2948C67.4307 61.6036 66.4995 60.9764 65.5267 60.3076C64.5539 59.6388 63.5843 58.9604 62.6211 58.2596C63.6227 58.8356 64.6147 59.4468 65.6067 60.042C66.5987 60.6372 67.5939 61.258 68.5859 61.8788C69.6867 62.5636 70.7875 63.2601 71.8883 63.9684C72.7139 64.4932 73.5384 65.0265 74.3619 65.5684C75.0019 64.8356 75.6643 64.1028 76.3203 63.3796C77.1939 62.4196 78.0643 61.4404 78.9443 60.4804C79.7315 59.6271 80.523 58.7737 81.3187 57.9204C82.1187 57.0596 82.9091 56.2052 83.7219 55.3828Z" fill="white"/>
<path d="M71.9488 64.269L71.9264 64.2946C71.8304 64.4034 71.7312 64.5154 71.632 64.6146C71.1648 65.133 70.672 65.6354 70.1856 66.1282C69.584 66.733 68.9632 67.3186 68.336 67.901C67.7088 68.4834 67.0752 69.0434 66.416 69.597C65.7568 70.1506 65.104 70.6978 64.416 71.197C64.9792 70.557 65.5744 69.9362 66.176 69.3346C66.7776 68.733 67.4016 68.141 68.0256 67.5618C68.6496 66.9826 69.3056 66.413 69.9456 65.8594C70.464 65.4178 70.992 64.9794 71.5456 64.5634C71.6704 64.4642 71.7984 64.3714 71.9264 64.2754L71.9488 64.269Z" fill="white"/>
<path d="M85.4398 68.3488C84.6398 68.0288 83.8398 67.6928 83.0846 67.3344C82.3294 66.976 81.5454 66.592 80.7838 66.208C80.0222 65.824 79.2702 65.4176 78.5438 64.9952C77.939 64.656 77.3374 64.304 76.7518 63.9296L76.3742 63.6896L76.3486 63.6704H76.3806L76.8254 63.8464C77.4654 64.1024 78.083 64.384 78.7038 64.672C79.4814 65.0304 80.243 65.4112 81.0014 65.7984C81.7598 66.1856 82.515 66.5888 83.2574 67.0112C83.9998 67.4336 84.7198 67.8752 85.4398 68.3488Z" fill="white"/>
<path d="M176 19.917H149.869V36.4898H176V19.917Z" fill="#EBEBEB"/>
<path d="M176 19.917C174.944 20.925 173.869 21.8914 172.8 22.8866C171.732 23.8818 170.653 24.829 169.575 25.7922C168.496 26.7554 167.319 27.789 166.186 28.7746L166.087 28.8706C165.086 29.7431 164.083 30.6146 163.076 31.485L162.925 31.6066L162.781 31.485C161.776 30.6146 160.775 29.7421 159.776 28.8674L159.671 28.7746C158.534 27.789 157.403 26.7927 156.279 25.7858C155.204 24.8258 154.128 23.8658 153.056 22.8866C151.984 21.9074 150.919 20.925 149.856 19.917C150.98 20.781 152.096 21.6898 153.191 22.5762C154.285 23.4626 155.405 24.381 156.503 25.2994C157.73 26.3127 158.953 27.3421 160.173 28.3874C161.088 29.1618 162.004 29.9405 162.919 30.7234C163.828 29.9426 164.743 29.1586 165.658 28.3874C166.878 27.3506 168.102 26.3213 169.328 25.2994C170.425 24.3863 171.528 23.4807 172.637 22.5826C173.776 21.6898 174.877 20.781 176 19.917Z" fill="white"/>
<path d="M160.224 28.7651C160.214 28.7744 160.203 28.783 160.192 28.7907C160.054 28.9091 159.92 29.0275 159.782 29.1395C159.126 29.6931 158.454 30.2243 157.773 30.7395C156.941 31.3795 156.089 31.9843 155.232 32.5891C154.374 33.1939 153.51 33.7699 152.627 34.3363C151.744 34.9027 150.854 35.4531 149.933 35.9587C150.723 35.2643 151.533 34.6179 152.381 33.9875C153.229 33.3571 154.067 32.7427 154.918 32.1379C155.769 31.5331 156.646 30.9539 157.529 30.3875C158.23 29.9363 158.944 29.4915 159.677 29.0755C159.843 28.9795 160.013 28.8835 160.185 28.7907L160.224 28.7651Z" fill="white"/>
<path d="M175.939 35.9554C175.014 35.4498 174.121 34.8962 173.241 34.333C172.361 33.7698 171.494 33.1778 170.63 32.5858C169.766 31.9938 168.925 31.373 168.093 30.7362C167.414 30.2242 166.742 29.6962 166.093 29.1362C165.949 29.0178 165.814 28.8994 165.677 28.781C165.665 28.7732 165.655 28.7647 165.645 28.7554L165.683 28.7746L166.192 29.0626C166.925 29.4786 167.635 29.9234 168.339 30.3746C169.222 30.941 170.086 31.5298 170.947 32.125C171.808 32.7202 172.653 33.3378 173.485 33.9746C174.317 34.6114 175.145 35.261 175.939 35.9554Z" fill="white"/>
<path d="M115.548 145.242C140.854 145.242 161.369 143.653 161.369 141.693C161.369 139.733 140.854 138.144 115.548 138.144C90.2422 138.144 69.7275 139.733 69.7275 141.693C69.7275 143.653 90.2422 145.242 115.548 145.242Z" fill="#EBEBEB"/>
<path d="M131.059 0H130.739V44.0192H131.059V0Z" fill="#C7C7C7"/>
<path d="M117.837 56.6114L118.89 58.9218H142.915L143.962 56.6114L133.735 49.5298H128.067L117.837 56.6114Z" fill="#0B7D77"/>
<path d="M127.356 42.7104L128.067 49.5296H133.734L134.444 42.7104H127.356Z" fill="#0B7D77"/>
<path opacity="0.1" d="M117.84 56.6113L118.889 58.9217H142.918L143.965 56.6113H117.84Z" fill="black"/>
<path opacity="0.1" d="M128.067 49.5297L127.99 48.7969L133.853 48.3745L133.734 49.5297H128.067Z" fill="black"/>
<path d="M109.257 0H108.938V30.1664H109.257V0Z" fill="#C7C7C7"/>
<path d="M96.0352 42.7586L97.088 45.069H121.114L122.16 42.7586L111.933 35.6802H106.266L96.0352 42.7586Z" fill="#0B7D77"/>
<path d="M105.555 28.8574L106.265 35.6798H111.932L112.643 28.8574H105.555Z" fill="#0B7D77"/>
<path opacity="0.1" d="M96.0381 42.7617L97.0877 45.0689H121.113L122.163 42.7617H96.0381Z" fill="black"/>
<path opacity="0.1" d="M106.266 35.68L106.183 34.8896L112.055 34.5088L111.933 35.68H106.266Z" fill="black"/>
<path d="M163.936 100.384C164.032 98.7681 164.261 97.1627 164.621 95.5842C164.96 94.1602 165.44 92.7042 166.339 91.5234C166.734 90.9686 167.236 90.4974 167.814 90.1372C168.392 89.7769 169.036 89.5346 169.709 89.4242C171.03 89.2642 172.269 89.853 173.257 90.6818C174.48 91.7122 175.417 93.0786 176.297 94.4002C177.261 95.8795 178.137 97.4138 178.921 98.9954C178.95 99.0466 178.87 99.0914 178.845 99.0402C178.163 97.7009 177.378 96.417 176.496 95.2002C175.692 94.0323 174.787 92.9369 173.792 91.9266C172.886 91.0434 171.734 90.2146 170.419 90.173C169.104 90.1314 167.907 90.8642 167.123 91.8722C166.243 92.9986 165.795 94.4034 165.459 95.773C165.119 97.2743 164.899 98.8002 164.8 100.336C164.541 103.507 164.48 106.698 164.4 109.875C164.358 111.674 164.336 113.475 164.317 115.274L164.297 118.01C164.329 118.89 164.294 119.772 164.192 120.647C164.16 120.823 163.872 120.807 163.84 120.647C163.733 119.818 163.694 118.982 163.721 118.147C163.709 117.283 163.698 116.419 163.689 115.555C163.672 113.877 163.666 112.197 163.67 110.515C163.664 107.133 163.705 103.751 163.936 100.384Z" fill="#263238"/>
<path d="M168.467 97.9937C168.633 97.0977 168.937 95.9297 169.446 95.2353C170.364 93.9873 171.366 94.5281 170.441 95.9105C169.766 96.937 169.329 98.1014 169.161 99.3185C169.161 99.3185 170.704 101.523 172.566 102.608C172.486 101.76 172.246 100.458 172.412 99.2001C172.771 96.4769 174.419 96.6401 174.012 98.7937C173.692 100.528 173.552 102.371 173.641 103.168C174.263 103.572 174.932 103.899 175.632 104.144C175.523 103.824 175.411 103.45 175.286 102.989C174.624 100.547 176.246 99.7889 176.304 101.162C176.412 102.333 176.626 103.492 176.944 104.624C177.836 104.925 178.579 105.13 179.03 105.287C180.203 105.721 181.252 106.438 182.083 107.373C182.931 106.607 183.635 105.695 184.163 104.682C183.593 104.192 182.694 103.466 181.446 102.583C179.107 100.931 179.92 98.8449 181.766 100.141C183.104 101.079 184.14 102.813 184.614 103.703C185.245 102.151 185.603 100.502 185.673 98.8289C183.836 97.1041 179.289 94.6977 180.659 94.6977C181.894 94.6977 184.652 96.5057 185.664 97.2033C185.639 96.7293 185.588 96.2571 185.51 95.7889C183.779 94.6529 178.15 92.8897 179.049 92.3809C180.032 91.8241 183.958 93.6417 185.145 94.2145C184.922 93.4433 184.57 92.7152 184.105 92.0609C181.712 88.8609 177.385 87.7569 175.516 88.3649C174.185 88.7969 174.556 92.1761 174.288 92.0609C168.931 89.9201 166.499 91.4305 168.467 97.9937ZM181.587 97.6225C181.968 97.1649 183.721 98.5153 183.216 99.2513C182.71 99.9873 181.091 98.2113 181.58 97.6225H181.587ZM172.412 94.7425C172.873 95.0369 172.192 96.7425 171.478 96.2273C170.88 95.7857 171.942 94.4449 172.406 94.7425H172.412Z" fill="#0B7D77"/>
<path d="M173.12 95.2641C173.36 94.7873 173.613 94.3041 173.888 93.8529C174.141 93.3992 174.437 92.9706 174.771 92.5729C174.697 92.4801 174.624 92.3841 174.544 92.2913C174.512 92.2529 174.566 92.2017 174.598 92.2369C174.688 92.3393 174.774 92.4449 174.861 92.5569C174.87 92.5615 174.878 92.5678 174.884 92.5755C174.891 92.5831 174.896 92.5921 174.899 92.6017C175.23 92.9985 175.542 93.4049 175.837 93.8209C176.363 93.942 176.882 94.0927 177.392 94.2721C177.917 94.4481 178.438 94.6305 178.947 94.8449C179.001 94.8673 178.973 94.9569 178.921 94.9313C178.416 94.7105 177.904 94.4929 177.379 94.3169C176.854 94.1409 176.381 94.0193 175.878 93.8785C176.041 94.1089 176.198 94.3393 176.355 94.5761C177.3 94.8751 178.219 95.2496 179.104 95.6961C180.032 96.1377 180.925 96.6561 181.814 97.1649C181.865 97.1937 181.814 97.2737 181.766 97.2417C180.892 96.7305 179.991 96.2648 179.069 95.8465C178.208 95.4433 177.318 95.1137 176.451 94.7297C178.637 98.1377 179.945 102.074 181.699 105.715C181.725 105.77 181.641 105.811 181.619 105.76C181.085 104.48 180.467 103.238 179.885 101.981C179.363 100.851 178.851 99.7185 178.329 98.5889C178.176 98.2689 178.009 97.9297 177.856 97.6033C177.952 99.4241 177.913 101.277 178.214 103.075C178.214 103.081 178.213 103.087 178.211 103.092C178.208 103.098 178.205 103.103 178.201 103.107C178.197 103.111 178.192 103.114 178.187 103.117C178.181 103.119 178.175 103.12 178.169 103.12C178.163 103.12 178.158 103.119 178.152 103.117C178.147 103.114 178.142 103.111 178.138 103.107C178.134 103.103 178.13 103.098 178.128 103.092C178.126 103.087 178.125 103.081 178.125 103.075C177.997 101.13 177.654 99.2129 177.667 97.2577C177.667 97.2577 177.667 97.2417 177.667 97.2321C177.296 96.4865 176.899 95.7537 176.473 95.0401C175.75 96.7425 174.989 98.4737 174.653 100.304C174.653 100.358 174.55 100.336 174.563 100.278C175.056 98.4449 175.523 96.6081 176.397 94.9121C175.933 94.1398 175.419 93.399 174.857 92.6945C174.614 93.1457 174.304 93.5745 174.029 94.0065C173.753 94.4385 173.494 94.8545 173.245 95.2865C172.706 96.205 172.249 97.1686 171.878 98.1665C171.856 98.2209 171.769 98.1921 171.792 98.1409C172.208 97.1841 172.63 96.2081 173.12 95.2641Z" fill="#263238"/>
<path d="M155.885 99.4111C157.287 98.0031 158.915 96.1599 161.082 96.1631C163.175 96.1631 164.714 97.8495 165.597 99.5871C166.522 101.405 166.855 103.462 167.117 105.462C167.426 107.859 167.614 110.269 167.68 112.685C167.719 114.025 167.712 115.369 167.68 116.71C167.676 118.07 167.569 119.427 167.36 120.771C167.322 120.985 166.973 120.995 166.96 120.771C166.896 119.641 166.941 118.505 166.96 117.376C166.979 116.246 166.96 115.136 166.909 114.038C166.826 111.798 166.663 109.558 166.397 107.318C166.167 105.363 165.984 103.357 165.399 101.469C164.874 99.7663 163.885 97.8207 162.16 97.0719C159.805 96.0543 157.504 97.9167 155.965 99.4911C155.914 99.5199 155.84 99.4527 155.885 99.4111Z" fill="#263238"/>
<path d="M148.733 102.554C148.733 102.842 148.758 103.123 148.777 103.402C149.452 102.896 150.241 102.566 151.075 102.442C153.065 102.23 152.937 103.741 151.609 103.805C150.673 103.816 149.748 104.002 148.88 104.352C149.2 106.979 149.926 109.091 150.035 109.12C151.8 109.028 153.557 108.815 155.293 108.48C154.797 107.424 153.67 106.022 154.246 105.92C154.822 105.817 155.446 107.053 155.766 108.394C157.072 108.144 158.356 107.792 159.606 107.341C158.729 106.582 157.366 105.638 157.894 105.238C158.422 104.838 159.494 106.163 160.134 107.129C160.721 106.89 161.276 106.581 161.789 106.208C160.608 104.473 157.734 104.122 158.109 102.87C158.483 101.619 161.174 103.354 162.381 105.674C163.798 104.202 164.214 102.122 164.064 100.342C162.829 100.198 160.454 100.461 160.627 99.5743C160.8 98.6879 162.515 98.8543 163.92 99.3727C163.791 98.6684 163.509 98.001 163.094 97.4175C161.795 95.7471 157.821 97.8719 157.821 97.8719C157.821 97.8719 158.246 93.8783 156.733 93.1903C155.859 92.7935 154.317 92.7967 152.771 93.7055C153.638 93.7791 154.691 94.0543 155.107 94.6655C155.648 95.4303 154.787 95.8495 154.256 95.4943C153.875 95.2447 153.165 94.4543 151.881 94.3487C151.333 94.8148 150.851 95.353 150.448 95.9487C150.301 96.1567 150.166 96.3743 150.029 96.6111C150.762 96.28 151.56 96.1157 152.364 96.1301C153.169 96.1445 153.96 96.3372 154.681 96.6943C156.403 97.5487 155.44 99.3375 153.958 98.6431C152.477 97.9487 151.078 97.2639 149.494 97.6575C148.938 99.0636 148.673 100.568 148.717 102.08C149.488 101.518 150.355 101.103 151.277 100.854C152.989 100.406 153.517 101.427 151.625 101.619C150.607 101.729 149.623 102.047 148.733 102.554ZM150.816 99.8047C150.697 99.2479 151.91 99.0911 152.112 99.5391C152.281 99.9231 150.931 100.358 150.816 99.8047V99.8047ZM161.203 102.877C161.318 102.573 162.131 102.918 162.057 103.296C161.955 103.798 161.091 103.177 161.203 102.877V102.877ZM155.469 104.822C156.061 104.586 156.985 106.058 156.339 106.394C155.693 106.73 154.982 105.018 155.469 104.822V104.822Z" fill="#0B7D77"/>
<path d="M150.266 108.829C151.159 107.338 152.042 105.84 152.979 104.375C153.415 103.693 153.872 103.024 154.346 102.368L154.135 102.317L153.779 102.25C153.504 102.202 153.229 102.163 152.951 102.135C152.672 102.106 152.429 102.093 152.167 102.09C151.887 102.074 151.607 102.089 151.331 102.135C151.325 102.135 151.32 102.132 151.316 102.128C151.311 102.124 151.309 102.118 151.309 102.112C151.309 102.106 151.311 102.101 151.316 102.096C151.32 102.092 151.325 102.09 151.331 102.09C151.61 102.09 151.895 102.064 152.173 102.061C152.451 102.058 152.717 102.061 152.986 102.08C153.24 102.094 153.493 102.121 153.744 102.16C153.885 102.179 154.023 102.205 154.16 102.231C154.245 102.244 154.33 102.262 154.413 102.285C154.896 101.619 155.399 100.97 155.917 100.33C154.374 99.5806 152.732 99.0558 151.04 98.7714C151.011 98.7714 151.024 98.7234 151.04 98.7266C152.76 98.9653 154.432 99.4729 155.994 100.231L156.855 99.1842C157.175 98.797 157.523 98.4162 157.815 98.0066C157.834 97.9778 157.872 98.0066 157.853 98.0322C157.45 98.473 157.072 98.9356 156.72 99.4178V99.4178C157.359 99.8609 157.966 100.347 158.538 100.874C159.131 101.401 159.709 101.945 160.272 102.506C160.295 102.525 160.272 102.557 160.24 102.538C159.683 101.984 159.107 101.456 158.506 100.954C157.904 100.451 157.267 99.9938 156.663 99.4978C156.525 99.6834 156.387 99.8658 156.247 100.045C156.176 100.135 156.109 100.227 156.039 100.32L156.023 100.339C155.789 100.64 155.559 100.944 155.328 101.248C155.599 101.64 155.83 102.056 156.019 102.493C156.218 102.912 156.394 103.347 156.554 103.773C156.873 104.685 157.122 105.62 157.296 106.57C157.296 106.595 157.261 106.608 157.255 106.57C157.064 105.634 156.792 104.716 156.442 103.827C156.269 103.373 156.071 102.928 155.869 102.483C155.667 102.039 155.456 101.693 155.283 101.283C155.085 101.549 154.883 101.818 154.688 102.087C154.631 102.163 154.576 102.243 154.522 102.323C154.522 102.339 154.522 102.362 154.503 102.365C153.888 103.219 153.306 104.096 152.739 104.983C152.773 105.043 152.799 105.108 152.816 105.175C152.851 105.283 152.887 105.392 152.919 105.495C152.982 105.714 153.034 105.936 153.075 106.16C153.111 106.368 153.143 106.583 153.162 106.8C153.167 107.042 153.185 107.284 153.216 107.523C153.216 107.559 153.165 107.562 153.171 107.523C153.187 107.298 153.171 107.072 153.123 106.851C153.091 106.621 153.047 106.391 152.995 106.163C152.944 105.936 152.89 105.754 152.829 105.552C152.8 105.453 152.768 105.351 152.733 105.251C152.698 105.152 152.688 105.143 152.669 105.088C152.403 105.504 152.141 105.92 151.882 106.343C151.37 107.178 150.861 108.013 150.346 108.848C150.343 108.859 150.337 108.868 150.327 108.874C150.318 108.879 150.307 108.881 150.296 108.879C150.286 108.876 150.276 108.869 150.271 108.86C150.265 108.851 150.263 108.84 150.266 108.829V108.829Z" fill="#263238"/>
<path d="M164.028 120.288C164.051 119.443 164.185 118.589 164.278 117.751C164.371 116.912 164.464 116.061 164.553 115.216C164.729 113.587 164.825 111.923 165.193 110.327C165.476 108.938 166.168 107.665 167.18 106.672C167.705 106.148 168.394 105.819 169.132 105.741C169.874 105.721 170.602 105.946 171.203 106.381C171.886 106.887 172.475 107.508 172.944 108.218C173.45 108.919 173.904 109.656 174.304 110.423C174.304 110.451 174.272 110.471 174.256 110.442C173.502 109.162 172.504 108.043 171.318 107.149C170.79 106.715 170.145 106.447 169.465 106.378C169.133 106.372 168.804 106.432 168.495 106.555C168.187 106.678 167.906 106.862 167.67 107.095C166.684 107.952 166.112 109.213 165.772 110.451C165.369 111.917 165.241 113.463 165.04 114.967C164.918 115.859 164.806 116.755 164.688 117.651C164.569 118.547 164.496 119.453 164.307 120.33C164.293 120.358 164.271 120.382 164.243 120.396C164.215 120.411 164.183 120.417 164.152 120.412C164.121 120.407 164.092 120.393 164.07 120.371C164.048 120.348 164.033 120.319 164.028 120.288Z" fill="#263238"/>
<path d="M168.188 113.722C168.449 114.076 168.758 114.391 169.107 114.659C168.969 113.837 168.787 112.368 169.216 111.59C169.856 110.378 170.63 110.982 170.243 112.035C169.857 112.986 169.647 113.998 169.622 115.024C170.502 115.575 171.444 116.019 172.428 116.349C172.324 115.874 172.293 115.387 172.336 114.902C172.467 113.606 173.459 113.622 173.2 114.979C173.103 115.501 173.058 116.03 173.065 116.56C174.497 117.002 175.96 117.332 177.443 117.549C178.199 116.567 178.809 115.48 179.254 114.323C178.198 114.061 176.054 114.003 176.108 113.245C176.169 112.23 178.236 113.011 179.449 113.747C179.725 112.865 179.849 111.942 179.814 111.018C178.864 110.754 177.889 110.593 176.905 110.538C174.732 110.349 174.838 109.117 176.412 109.146C177.574 109.168 179.043 109.878 179.74 110.25C179.286 107.293 177.033 105.402 175.225 105.328C172.188 105.206 173.283 108.986 173.283 108.986C173.283 108.986 171.222 107.539 169.28 107.578C167.337 107.616 166.112 110.832 168.188 113.722ZM176.3 108.256C176.233 107.83 177.58 107.728 177.66 108.275C177.74 108.886 176.368 108.688 176.3 108.256ZM178.483 112.691C178.454 112.413 179.04 112.371 179.171 112.714C179.26 112.96 178.505 112.96 178.483 112.691ZM171.2 112.96C171.657 113.024 171.92 114.662 171.129 114.63C170.518 114.595 170.8 112.896 171.2 112.96Z" fill="#0B7D77"/>
<path d="M171.82 114.768C171.897 114.563 171.964 114.358 172.028 114.15C171.971 114.358 171.916 114.57 171.878 114.79C171.877 114.794 171.874 114.798 171.872 114.801C171.869 114.803 171.865 114.806 171.862 114.807C171.858 114.809 171.854 114.81 171.85 114.81C171.846 114.81 171.842 114.809 171.838 114.808C171.834 114.807 171.831 114.804 171.828 114.802C171.825 114.799 171.823 114.795 171.821 114.792C171.819 114.788 171.818 114.784 171.818 114.78C171.818 114.776 171.819 114.772 171.82 114.768V114.768Z" fill="#263238"/>
<path d="M172.624 112.138C172.764 111.719 172.924 111.303 173.088 110.89C173.174 110.672 173.267 110.452 173.363 110.25C173.43 110.058 173.521 109.874 173.632 109.703C173.538 109.531 173.456 109.354 173.385 109.172C173.385 109.156 173.401 109.14 173.414 109.156C173.639 109.443 173.837 109.75 174.006 110.074C174.092 110.215 174.172 110.362 174.252 110.506C174.425 110.521 174.596 110.548 174.764 110.586C174.947 110.618 175.129 110.656 175.308 110.698C175.488 110.74 175.67 110.778 175.849 110.823C176.028 110.868 176.208 110.925 176.39 110.951C176.432 110.951 176.412 111.024 176.374 111.008C176.189 110.943 175.998 110.894 175.804 110.861C175.632 110.823 175.456 110.791 175.28 110.768C175.104 110.746 174.928 110.72 174.748 110.701L174.348 110.669C174.419 110.797 174.496 110.922 174.566 111.05C174.575 111.072 174.586 111.093 174.598 111.114C174.745 111.112 174.891 111.129 175.033 111.165C175.19 111.194 175.353 111.223 175.504 111.258C175.824 111.328 176.144 111.402 176.448 111.488C177.107 111.674 177.753 111.882 178.403 112.093C178.438 112.093 178.403 112.16 178.38 112.148C177.735 111.932 177.08 111.751 176.416 111.604C176.096 111.533 175.795 111.463 175.484 111.399L175.014 111.3C174.892 111.28 174.771 111.252 174.652 111.216C174.972 111.834 175.292 112.464 175.59 113.104C176.23 114.496 176.752 115.933 177.292 117.364C177.292 117.399 177.251 117.421 177.238 117.386C176.716 115.965 176.111 114.576 175.427 113.226C175.305 112.98 175.18 112.736 175.059 112.487C175.059 112.538 175.036 112.589 175.027 112.64C174.995 112.807 174.966 112.976 174.937 113.146C174.88 113.485 174.822 113.824 174.771 114.164C174.626 114.859 174.545 115.566 174.528 116.276C174.528 116.32 174.46 116.317 174.467 116.276C174.521 115.94 174.521 115.588 174.544 115.248C174.566 114.909 174.592 114.535 174.633 114.183C174.675 113.831 174.716 113.501 174.774 113.162C174.803 112.992 174.832 112.823 174.864 112.653C174.871 112.526 174.903 112.401 174.956 112.285C174.78 111.93 174.604 111.572 174.422 111.216C174.24 110.861 174.083 110.548 173.91 110.218C173.836 110.077 173.756 109.936 173.68 109.792C173.624 109.967 173.556 110.138 173.478 110.304L173.244 110.88C173.068 111.303 172.908 111.732 172.745 112.16C172.515 112.768 172.262 113.389 172.073 114.023C172.259 113.383 172.416 112.749 172.624 112.138Z" fill="#263238"/>
<path d="M172.028 114.151C172.028 114.099 172.057 114.051 172.073 114.003C172.057 114.051 172.044 114.099 172.028 114.151Z" fill="#263238"/>
<path d="M158.95 118.644L159.165 123.165L159.712 134.82H171.737L172.288 123.165L172.499 118.644H158.95Z" fill="#37474F"/>
<path d="M158.95 118.644L159.165 123.165H172.288L172.499 118.644H158.95Z" fill="#263238"/>
<path d="M158.093 120.471H173.354V116.813H158.093V120.471Z" fill="#37474F"/>
<path d="M170.764 134.819H168.652V136.733H170.764V134.819Z" fill="#37474F"/>
<path d="M170.764 134.819H168.652V135.776H170.764V134.819Z" fill="#263238"/>
<path d="M162.796 134.819H160.688V136.733H162.796V134.819Z" fill="#37474F"/>
<path d="M162.796 134.819H160.688V135.776H162.796V134.819Z" fill="#263238"/>
<path d="M53.002 136.781L69.7508 136.704L86.4996 136.675L120 136.621L153.501 136.675L170.25 136.704L186.999 136.781L170.25 136.861L153.501 136.886L120 136.941L86.4996 136.886L69.7508 136.861L53.002 136.781Z" fill="#263238"/>
<path d="M120.074 95.069C119.722 95.069 119.354 95.069 118.986 95.0466V94.8066C119.357 94.8226 119.731 94.829 120.087 94.829H120.259V95.069H120.064H120.074ZM121.875 95.0114L121.859 94.7714C122.285 94.7426 122.711 94.7042 123.139 94.653L123.168 94.893C122.736 94.941 122.304 94.9826 121.875 95.0114V95.0114ZM117.395 94.9442C116.979 94.9058 116.547 94.861 116.115 94.8066L116.144 94.5666C116.573 94.621 116.999 94.669 117.424 94.7042L117.395 94.9442ZM124.755 94.6434L124.707 94.4098C125.127 94.3266 125.543 94.2338 125.949 94.1282L126.01 94.3618C125.591 94.4674 125.168 94.5634 124.746 94.6434H124.755ZM114.515 94.5666C114.096 94.493 113.671 94.413 113.255 94.3266L113.303 94.093C113.719 94.1794 114.141 94.2594 114.557 94.3298L114.515 94.5666ZM111.68 93.9682C111.261 93.8658 110.845 93.7538 110.439 93.6482L110.503 93.4178C110.906 93.533 111.322 93.645 111.738 93.7378L111.68 93.9682ZM127.53 93.8914L127.45 93.6642C127.853 93.5234 128.25 93.3666 128.634 93.2002L128.73 93.4178C128.352 93.5874 127.949 93.7602 127.539 93.8914H127.53ZM108.903 93.1618C108.138 92.909 107.693 92.7266 107.687 92.7266L107.779 92.5026C107.779 92.5026 108.221 92.6818 108.979 92.9346L108.903 93.1618ZM130.173 92.7042L130.055 92.493C130.423 92.2882 130.787 92.0642 131.139 91.8306L131.271 92.0322C130.925 92.269 130.56 92.4802 130.183 92.7042H130.173ZM132.573 91.0882L132.426 90.8994C132.765 90.637 133.098 90.3682 133.415 90.0962L133.571 90.2786C133.261 90.5602 132.925 90.8258 132.583 91.0882H132.573ZM134.755 89.1938L134.589 89.021C134.89 88.7234 135.187 88.4162 135.472 88.1058L135.648 88.269C135.36 88.5826 135.072 88.893 134.765 89.1938H134.755ZM136.691 87.0434L136.503 86.8962C136.768 86.5762 137.024 86.2178 137.264 85.8754L137.463 86.013C137.226 86.3618 136.96 86.7202 136.701 87.0402L136.691 87.0434ZM138.336 84.6658L138.131 84.541C138.352 84.1762 138.56 83.8018 138.755 83.4306L138.967 83.5426C138.781 83.917 138.56 84.2946 138.346 84.6658H138.336ZM139.658 82.0898L139.44 81.9938C139.603 81.613 139.76 81.213 139.911 80.813L140.138 80.8962C139.997 81.3026 139.84 81.7026 139.667 82.0898H139.658ZM140.634 79.3666L140.403 79.2994C140.522 78.8962 140.627 78.4802 140.723 78.0674L140.957 78.1218C140.871 78.5378 140.762 78.957 140.643 79.3602L140.634 79.3666ZM141.255 76.541L141.018 76.5026C141.082 76.0866 141.133 75.661 141.175 75.2418L141.411 75.2642C141.383 75.6898 141.328 76.1186 141.264 76.541H141.255ZM141.511 73.661H141.271C141.271 73.4754 141.271 73.2898 141.271 73.1042C141.271 72.8642 141.271 72.6242 141.271 72.3874H141.511C141.511 72.6274 141.511 72.8674 141.511 73.1106C141.527 73.2802 141.523 73.469 141.52 73.6578L141.511 73.661ZM142.717 73.3826C142.544 73.3826 142.375 73.3826 142.202 73.3826V73.1426C142.623 73.1666 143.045 73.1666 143.466 73.1426L143.482 73.3826C143.248 73.3698 142.986 73.3794 142.72 73.3794L142.717 73.3826ZM140.599 73.1906C140.174 73.1138 139.755 73.0145 139.341 72.893L139.408 72.6626C139.813 72.7816 140.225 72.8788 140.64 72.9538L140.599 73.1906ZM145.095 73.1362L145.047 72.9026C145.46 72.82 145.868 72.7131 146.269 72.5826L146.343 72.8098C145.936 72.9414 145.523 73.0493 145.104 73.133L145.095 73.1362ZM137.837 72.3202C137.444 72.1425 137.062 71.9427 136.691 71.7218L136.813 71.517C137.176 71.732 137.551 71.9264 137.936 72.0994L137.837 72.3202ZM147.843 72.1698L147.738 71.9554C148.114 71.7628 148.48 71.5491 148.832 71.3154L148.963 71.5138C148.602 71.7558 148.227 71.9769 147.84 72.1762L147.843 72.1698ZM135.363 70.8034C135.152 70.6338 134.941 70.4514 134.739 70.2626C134.624 70.1538 134.512 70.045 134.419 69.9426L134.589 69.773C134.695 69.8818 134.803 69.9874 134.909 70.093C135.107 70.2786 135.312 70.4546 135.52 70.6242L135.363 70.8034ZM141.168 70.7842C141.12 70.3586 141.059 69.9362 140.989 69.5266L141.226 69.485C141.299 69.901 141.36 70.3298 141.405 70.765L141.168 70.7842ZM150.25 70.5378L150.09 70.3586C150.407 70.0793 150.708 69.7823 150.992 69.469L151.168 69.6322C150.878 69.9531 150.57 70.2576 150.247 70.5442L150.25 70.5378ZM133.389 68.6722C133.149 68.312 132.952 67.9255 132.8 67.5202L133.024 67.4402C133.168 67.8318 133.355 68.2064 133.581 68.557L133.389 68.6722ZM152.176 68.3522L151.978 68.2146C152.16 67.9586 152.333 67.6866 152.496 67.4146C152.551 67.325 152.605 67.2354 152.656 67.1426L152.864 67.261C152.81 67.3538 152.759 67.4466 152.704 67.5362C152.535 67.8402 152.355 68.1122 152.173 68.3746L152.176 68.3522ZM140.656 67.9586C140.541 67.5362 140.413 67.1298 140.272 66.749L140.499 66.6658C140.64 67.053 140.771 67.4658 140.887 67.8946L140.656 67.9586ZM132.778 65.9202H132.538C132.553 65.48 132.648 65.0461 132.819 64.6402L133.04 64.733C132.883 65.11 132.794 65.512 132.778 65.9202ZM153.578 65.8562L153.36 65.7634C153.52 65.3858 153.68 64.9858 153.818 64.5794L154.045 64.6562C153.898 65.0562 153.741 65.4594 153.575 65.8402L153.578 65.8562ZM139.616 65.3442C139.418 64.9749 139.187 64.6247 138.925 64.2978L139.111 64.1442C139.382 64.4831 139.622 64.8462 139.827 65.229L139.616 65.3442ZM133.962 63.5042L133.815 63.3186C134.16 63.0398 134.559 62.8331 134.986 62.7106L135.05 62.941C134.654 63.0499 134.283 63.2358 133.959 63.4882L133.962 63.5042ZM137.738 63.3058C137.377 63.1024 136.986 62.9587 136.579 62.8802L136.624 62.6434C137.056 62.7287 137.472 62.8821 137.856 63.0978L137.738 63.3058ZM154.512 63.117L154.279 63.0562C154.381 62.6754 154.48 62.269 154.583 61.8178L154.816 61.869C154.711 62.3106 154.611 62.7202 154.509 63.101L154.512 63.117ZM155.152 60.301L154.915 60.253L155.162 58.9986L155.395 59.0434L155.152 60.301ZM155.722 57.4818L155.488 57.4274C155.591 56.9666 155.693 56.557 155.808 56.1794L156.039 56.2434C155.914 56.6018 155.811 57.0082 155.709 57.4658L155.722 57.4818ZM156.522 54.733L156.298 54.6498C156.441 54.2369 156.608 53.8329 156.8 53.4402L157.015 53.549C156.825 53.9299 156.656 54.3209 156.509 54.7202L156.522 54.733ZM157.856 52.2338L157.661 52.0898C157.916 51.7426 158.196 51.4133 158.496 51.1042L158.666 51.2706C158.371 51.5676 158.096 51.884 157.843 52.2178L157.856 52.2338ZM159.856 50.2402L159.712 50.045C160.061 49.792 160.423 49.558 160.797 49.3442L160.915 49.5554C160.544 49.7615 160.186 49.9902 159.843 50.2402H159.856ZM162.336 48.861L162.24 48.6402C162.576 48.4994 162.931 48.365 163.299 48.2402L163.376 48.4674C163.002 48.573 162.653 48.7042 162.323 48.845L162.336 48.861Z" fill="#263238"/>
<path d="M162.628 43.3408L160.18 50.0672L165.322 46.0512L184.976 38.9248L162.628 43.3408Z" fill="#0B7D77"/>
<path opacity="0.1" d="M162.628 43.3408L160.18 50.0672L165.322 46.0512L184.976 38.9248L162.628 43.3408Z" fill="black"/>
<path d="M165.981 47.6193L160.18 50.0673L165.322 46.0513L165.981 47.6193Z" fill="#263238"/>
<path d="M165.321 46.0512L184.976 38.9248L168.854 54.656L165.321 46.0512Z" fill="#0B7D77"/>
<path d="M162.627 43.341L154.461 38.0674L184.976 38.925L162.627 43.341Z" fill="#0B7D77"/>
<path d="M66.6949 136.729L120 136.96C132.957 126.787 134.295 111.712 125.05 102.576C119.46 97.0462 112.356 98.1598 105.6 97.2798H105.581C103.226 96.9598 100.916 96.4254 98.7205 95.267C91.7541 91.5934 87.8405 82.9246 81.9685 75.6318C81.2389 74.7198 80.4741 73.8302 79.6741 72.9726C74.8549 67.827 65.2741 67.6606 60.2469 74.8926C47.4917 93.2702 53.3285 120.64 66.6949 136.729Z" fill="#0B7D77"/>
<path opacity="0.1" d="M65.5107 94.6717C66.9059 116.544 92.1667 124.707 107.94 118.156C121.658 112.457 117.168 99.4557 105.6 97.2797H105.581C103.226 96.9597 100.915 96.4253 98.7203 95.2669C91.7539 91.5933 87.8403 82.9245 81.9683 75.6317C73.2291 71.0941 64.4867 78.6589 65.5107 94.6717Z" fill="black"/>
<path d="M115.696 140.16C114.874 139.859 96.2946 125.011 95.9458 123.996C95.8114 123.612 97.8146 120.796 100.333 117.427C100.877 116.704 101.443 115.958 102.023 115.206C105.776 110.313 109.875 105.212 109.875 105.212L122.333 115.107L114.138 124.832L112.339 126.966C112.339 126.966 116.909 135.833 117.175 136.985C117.44 138.137 116.519 140.48 115.696 140.16Z" fill="#D3766A"/>
<path d="M115.697 140.16C114.874 139.84 96.2981 125.011 95.9461 123.997C95.8341 123.677 97.1397 121.757 98.9893 119.238C101.69 122.467 111.108 132.08 113.681 133.366C115.313 134.182 114.989 132.579 114.378 130.985C115.633 133.491 117.031 136.361 117.175 136.982C117.441 138.15 116.519 140.48 115.697 140.16Z" fill="#263238"/>
<path d="M134.912 96.0926C134.061 102.563 118.112 121.245 116.269 123.389L115.84 123.875L102.656 113.737L102.806 113.542L114.426 98.3294C114.426 98.3294 95.2257 109.529 85.6033 104.451C81.2801 102.166 78.0801 98.1054 78.0801 98.1054L90.6241 91.4174C90.6241 91.4174 94.0961 92.5406 96.3137 92.2174C103.962 91.0974 121.098 84.5918 125.165 84.755C130.416 84.9694 135.696 90.1534 134.912 96.0926Z" fill="#37474F"/>
<path d="M118.599 92.675C118.167 93.1612 117.766 93.6743 117.399 94.211C116.989 94.7518 116.57 95.283 116.16 95.811V95.827C116.234 95.667 116.304 95.507 116.381 95.3534C116.64 94.8158 116.848 94.2622 117.152 93.7534C117.154 93.7472 117.154 93.7406 117.152 93.7346C117.15 93.7285 117.145 93.7234 117.14 93.7201C117.134 93.7168 117.128 93.7154 117.121 93.7162C117.115 93.717 117.109 93.72 117.104 93.7246C116.784 94.2334 116.426 94.7166 116.144 95.251C116.016 95.5038 115.898 95.7598 115.786 96.019C115.725 96.1598 115.661 96.3038 115.607 96.4478C115.577 96.5154 115.551 96.5849 115.53 96.6558C115.348 96.9054 115.165 97.155 114.989 97.411C114.599 97.9774 114.253 98.5758 113.856 99.139C113.834 99.1678 113.882 99.1966 113.904 99.1678C114.304 98.6398 114.756 98.147 115.162 97.6222C115.568 97.0974 115.972 96.5406 116.359 95.987C116.746 95.4334 117.108 94.9022 117.488 94.3614C117.902 93.8292 118.284 93.2725 118.631 92.6942C118.64 92.6814 118.615 92.659 118.599 92.675Z" fill="#263238"/>
<path d="M75.9969 74.0125C75.8209 77.8717 74.9633 82.4765 76.5985 86.1309C77.8785 88.9917 80.5825 90.9309 83.3729 92.1597C89.5169 94.8765 98.1153 95.2317 102.419 89.1325C104.138 86.6973 104.432 81.6221 101.581 79.7661C100.118 78.8061 98.3809 78.5949 96.7233 78.1469C95.6913 77.9067 94.7268 77.4366 93.9018 76.7717C93.0768 76.1068 92.4125 75.2643 91.9585 74.3069C89.9841 70.3485 90.3777 67.4525 90.0033 63.1709C89.9949 62.7455 89.8978 62.3265 89.7182 61.9408C89.5386 61.555 89.2803 61.2111 88.9601 60.9309C88.2568 60.2388 87.3785 59.751 86.4193 59.5197C85.6011 59.163 84.707 59.0157 83.8177 59.0909C81.9233 59.2893 80.1025 61.0365 78.6337 62.1245C77.1649 63.2125 76.4673 64.3645 76.3521 66.2429C76.1953 68.8253 76.1153 71.4205 75.9969 74.0125Z" fill="#263238"/>
<path d="M75.5201 75.84C75.9105 72.32 76.3649 68.8 76.8001 65.28C76.8001 65.2608 76.8353 65.2608 76.8321 65.28C76.5601 68.1856 76.3265 71.0944 76.0161 73.9968C75.6961 76.8448 75.2033 79.7568 75.1489 82.6144C75.0273 89.0432 81.6385 91.6576 87.1041 91.344C87.3537 91.344 87.3473 91.728 87.1041 91.7344C82.3041 91.8592 76.5601 90.2176 75.1073 84.992C74.3009 82.1248 75.2001 78.72 75.5201 75.84Z" fill="#263238"/>
<path d="M89.6936 62.8319C89.6936 62.7647 89.796 62.7679 89.7992 62.8319C89.9592 66.3519 89.7992 70.5119 91.828 73.5807C92.8196 75.0975 94.2477 76.278 95.924 76.9663C97.252 77.5071 98.66 77.5551 100.046 77.8271C105.486 78.8927 105.527 86.2207 101.582 89.0783C101.498 89.1391 101.393 88.9983 101.473 88.9343C104.25 86.7231 105.166 82.7007 102.903 79.7503C101.086 77.3823 97.5976 78.1503 95.1208 76.8703C89.988 74.2079 89.6008 67.9647 89.6936 62.8319Z" fill="#263238"/>
<path d="M84.1382 78.1856C86.487 81.5584 94.5094 90.8256 100.077 92.0928C103.146 92.7936 117.969 94.8672 120.001 93.0176C122.381 90.8512 121.281 82.6912 119.386 82.6176C113.61 82.3904 102.925 83.52 100.257 82.9376C99.0502 82.6688 92.6502 78.5408 85.815 75.2384C83.2294 73.984 82.6214 76.0096 84.1382 78.1856Z" fill="#D3766A"/>
<path d="M89.872 86.2687L92.112 78.0159C92.112 78.0159 88.352 75.9295 86.1088 75.0687C83.1392 73.9295 82.0192 74.7487 83.84 78.2111C85.0624 80.5183 89.872 86.2687 89.872 86.2687Z" fill="#EBEBEB"/>
<path d="M89.3189 85.2189C89.5621 83.9965 89.8213 82.7773 90.1349 81.5709C90.2917 80.9693 90.4549 80.3677 90.6341 79.7725C90.8133 79.1773 91.0469 78.5949 91.2101 77.9965C91.2101 77.9645 91.2741 77.9805 91.2613 77.9965C91.0661 78.5853 90.9413 79.2061 90.7813 79.8045C90.6213 80.4029 90.4613 81.0045 90.2949 81.6061C89.9749 82.8093 89.6549 84.0125 89.3669 85.2189C89.3605 85.2701 89.3125 85.2541 89.3189 85.2189Z" fill="#263238"/>
<path d="M91.7636 79.3151L89.8724 86.2719C89.8724 86.2719 85.0724 80.5119 83.8436 78.2111C83.2836 77.1455 82.9988 76.3295 82.9668 75.7471L91.7636 79.3151Z" fill="#263238"/>
<path d="M72.0645 101.027C72.8037 101.267 93.7733 95.1964 93.7733 95.1964L91.2965 87.9164C91.2965 87.9164 92.5221 85.574 91.9365 83.3212C91.1781 80.3132 85.6069 75.366 85.1717 75.0748C83.4309 73.9196 81.7829 73.9196 80.3205 74.7036C74.2629 77.926 72.0645 101.027 72.0645 101.027Z" fill="#EBEBEB"/>
<path d="M88.0645 77.6959C88.6053 78.3359 89.1845 78.9247 89.7413 79.5391C89.4821 79.0815 89.2229 78.6207 88.9477 78.1695C88.9477 78.1695 88.9477 78.1503 88.9477 78.1695C89.3556 78.6982 89.7114 79.2651 90.0101 79.8623C90.4288 80.3279 90.8147 80.8218 91.1653 81.3407C91.5997 81.9566 91.9245 82.643 92.1253 83.3695C92.2991 84.104 92.3209 84.8662 92.1893 85.6095C92.0291 86.4652 91.7924 87.3049 91.4821 88.1183C91.4437 88.2271 91.2901 88.1567 91.3189 88.0511C91.7125 86.6303 92.1605 85.1295 91.8437 83.6447C91.5269 82.1599 90.6117 80.9375 89.7189 79.7695C89.1936 79.056 88.6239 78.3762 88.0133 77.7343C88.0005 77.7055 88.0389 77.6703 88.0645 77.6959Z" fill="#263238"/>
<path d="M84.5698 87.3919C85.4716 87.2181 86.385 87.1111 87.3026 87.0719C87.757 87.0719 88.2114 87.0719 88.6658 87.0943C88.893 87.0943 89.1202 87.0943 89.3474 87.0943C89.5848 87.1017 89.8223 87.0802 90.0546 87.0303C90.0738 87.0303 90.0834 87.0559 90.0546 87.0623C89.8451 87.1325 89.6313 87.1891 89.4146 87.2319C89.2027 87.2651 88.9889 87.2843 88.7746 87.2895C88.3106 87.2895 87.8498 87.2895 87.3858 87.3087C86.4546 87.3279 85.5202 87.3471 84.5922 87.4367C84.5346 87.4719 84.5282 87.3983 84.5698 87.3919Z" fill="#263238"/>
<path d="M82.6151 88.7805C83.3181 88.5019 84.036 88.2626 84.7655 88.0637C85.1335 87.9645 85.5015 87.8909 85.8727 87.8237L86.4103 87.7373C86.6055 87.7085 86.8071 87.7053 87.0023 87.6733C87.0247 87.6733 87.0343 87.7021 87.0023 87.7053C86.8167 87.7405 86.6375 87.8077 86.4583 87.8525L85.9079 87.9901C85.5431 88.0829 85.1783 88.1821 84.8103 88.2717C84.0775 88.4509 83.3479 88.6365 82.6215 88.8413C82.6148 88.84 82.6087 88.8366 82.6041 88.8315C82.5995 88.8265 82.5966 88.8201 82.5959 88.8133C82.5952 88.8065 82.5966 88.7997 82.6001 88.7938C82.6036 88.7879 82.6088 88.7832 82.6151 88.7805V88.7805Z" fill="#263238"/>
<path d="M81.6359 75.1134C81.7191 75.4942 83.4951 77.9934 85.2295 77.923C85.7927 77.9038 85.8247 74.819 85.8247 74.819L85.8791 74.5918L86.6407 71.4078L82.3847 68.6206C82.3847 68.6206 81.6007 74.9502 81.6359 75.1134Z" fill="#D3766A"/>
<path d="M86.6405 71.4047L85.8789 74.6047C85.0214 74.2685 84.2441 73.7561 83.5969 73.1007C82.9498 72.4454 82.4474 71.6616 82.1221 70.7999C82.2533 69.7023 82.3653 68.7903 82.3813 68.6559C82.382 68.6495 82.382 68.6431 82.3813 68.6367L82.9221 68.9567L86.6405 71.4047Z" fill="#263238"/>
<path d="M90.7652 65.5423C92.1828 71.1103 89.0084 72.5823 87.8084 72.9023C86.7172 73.1775 82.9732 73.9807 80.9892 68.5919C79.0052 63.2031 81.146 60.7839 83.6036 60.0191C86.0612 59.2543 89.3508 59.9775 90.7652 65.5423Z" fill="#D3766A"/>
<path d="M89.6966 64.8512C89.5622 64.8512 89.4342 64.8512 89.2998 64.8512C89.1592 64.8667 89.0175 64.8352 88.8966 64.7616C88.8635 64.7309 88.8414 64.6901 88.8339 64.6455C88.8264 64.6009 88.8338 64.5551 88.855 64.5152C88.9073 64.4422 88.9783 64.3847 89.0605 64.3486C89.1427 64.3126 89.2332 64.2994 89.3222 64.3104C89.5078 64.304 89.6891 64.3667 89.831 64.4864C89.8586 64.5159 89.8774 64.5524 89.8854 64.5919C89.8934 64.6314 89.8902 64.6724 89.8763 64.7102C89.8623 64.7481 89.8381 64.7813 89.8064 64.8062C89.7747 64.8311 89.7367 64.8467 89.6966 64.8512V64.8512Z" fill="#263238"/>
<path d="M85.9525 66.0221C86.0837 65.9805 86.1957 65.9229 86.3205 65.8717C86.4565 65.8355 86.5775 65.7571 86.6661 65.6477C86.6864 65.6074 86.693 65.5615 86.6849 65.517C86.6768 65.4726 86.6545 65.432 86.6213 65.4013C86.5463 65.3513 86.4592 65.3223 86.3692 65.3172C86.2792 65.3121 86.1894 65.3312 86.1093 65.3725C85.9338 65.4312 85.7866 65.5533 85.6965 65.7149C85.6772 65.7529 85.6695 65.7956 85.6742 65.8379C85.679 65.8802 85.696 65.9202 85.7233 65.9529C85.7505 65.9856 85.7868 66.0096 85.8275 66.0219C85.8682 66.0342 85.9117 66.0343 85.9525 66.0221V66.0221Z" fill="#263238"/>
<path d="M86.9065 66.7231C86.9065 66.7231 86.8809 66.7455 86.8841 66.7615C86.9769 67.1423 87.0153 67.5935 86.6953 67.7919C86.6953 67.7919 86.6953 67.8175 86.6953 67.8111C87.1145 67.6671 87.0409 67.0687 86.9065 66.7231Z" fill="#263238"/>
<path d="M86.4838 66.3932C85.8438 66.4732 86.0614 67.7181 86.6438 67.6445C87.2262 67.5709 87.0086 66.326 86.4838 66.3932Z" fill="#263238"/>
<path d="M86.2505 66.4991C86.1513 66.5855 86.0649 66.7295 85.9305 66.7647C85.7961 66.7999 85.6457 66.6911 85.5241 66.5823C85.5241 66.5823 85.5049 66.5823 85.5049 66.6015C85.5433 66.8415 85.6745 67.0687 85.9369 67.0623C86.1993 67.0559 86.3081 66.8191 86.3273 66.5695C86.3369 66.5215 86.2889 66.4639 86.2505 66.4991Z" fill="#263238"/>
<path d="M89.1203 66.2397C89.1203 66.2397 89.1523 66.2557 89.1555 66.2717C89.2035 66.6589 89.3251 67.0941 89.6931 67.1677V67.1901C89.2579 67.1805 89.1043 66.6013 89.1203 66.2397Z" fill="#263238"/>
<path d="M89.4019 65.766C90.0163 65.622 90.2595 66.8604 89.6899 66.9948C89.1203 67.1292 88.8867 65.8876 89.4019 65.766Z" fill="#263238"/>
<path d="M89.6771 65.7982C89.7859 65.843 89.9075 65.9454 90.0259 65.9294C90.1443 65.9134 90.2371 65.7566 90.2979 65.6094C90.2979 65.6094 90.3171 65.6094 90.3203 65.6094C90.3715 65.843 90.3427 66.1054 90.1251 66.195C89.9075 66.2846 89.7315 66.1054 89.6291 65.875C89.6003 65.8526 89.6323 65.779 89.6771 65.7982Z" fill="#263238"/>
<path d="M87.421 70.1469C87.5234 70.2301 87.6258 70.3453 87.7698 70.3453C87.9146 70.3292 88.0542 70.2823 88.1794 70.2077C88.1794 70.2077 88.205 70.2077 88.1986 70.2269C88.1496 70.3087 88.0794 70.3756 87.9955 70.4207C87.9115 70.4657 87.817 70.4873 87.7218 70.4829C87.6431 70.4666 87.5709 70.4275 87.514 70.3707C87.4572 70.3139 87.4182 70.2416 87.4018 70.1629C87.3762 70.1437 87.405 70.1341 87.421 70.1469Z" fill="#263238"/>
<path d="M88.842 68.3806C88.9243 68.6565 88.9926 68.9363 89.0468 69.219C89.0468 69.2446 88.986 69.267 88.8964 69.2862C88.6691 69.3635 88.4249 69.3766 88.1906 69.3241C87.9563 69.2716 87.741 69.1555 87.5684 68.9886C87.5637 68.9836 87.5609 68.9771 87.5606 68.9702C87.5603 68.9633 87.5624 68.9565 87.5667 68.951C87.571 68.9456 87.577 68.9419 87.5838 68.9406C87.5906 68.9393 87.5976 68.9404 87.6036 68.9438C87.9855 69.131 88.4181 69.1883 88.8356 69.107C88.8356 69.0302 88.5156 68.147 88.5636 68.147C88.7783 68.1369 88.9933 68.1541 89.2036 68.1982C88.8836 67.0078 88.394 65.8782 88.1028 64.6782C88.1021 64.6701 88.1039 64.662 88.108 64.655C88.1122 64.648 88.1185 64.6425 88.1259 64.6393C88.1334 64.6361 88.1417 64.6354 88.1496 64.6372C88.1575 64.639 88.1647 64.6433 88.17 64.6494C88.7429 65.8427 89.1943 67.0906 89.5172 68.3742C89.5492 68.5342 88.9604 68.4126 88.842 68.3806Z" fill="#263238"/>
<path d="M88.8673 69.1808C88.7571 69.4334 88.5841 69.6537 88.3649 69.8208C88.2432 69.9093 88.0962 69.9564 87.9457 69.9552C87.6257 69.9552 87.5393 69.6704 87.5361 69.4144C87.5358 69.2788 87.5508 69.1435 87.5809 69.0112C87.9808 69.2031 88.4314 69.2625 88.8673 69.1808V69.1808Z" fill="#263238"/>
<path d="M88.3649 69.8176C88.2432 69.9061 88.0962 69.9532 87.9457 69.952C87.6257 69.952 87.5393 69.6672 87.5361 69.4112C87.6998 69.3766 87.8704 69.3978 88.0206 69.4715C88.1708 69.5452 88.292 69.667 88.3649 69.8176Z" fill="#FF9CBD"/>
<path d="M81.3857 68.995C81.9873 68.7966 83.1233 66.6974 82.3841 63.7438C82.3841 63.7438 82.8641 66.4414 82.7681 66.8798C82.6721 67.3182 83.4081 65.7022 82.8417 63.3118C83.7306 63.6463 84.6627 63.8521 85.6097 63.923C86.8129 63.923 87.4977 63.7438 87.5553 63.6414C87.6129 63.539 85.8273 63.459 85.2449 63.0654C85.2449 63.0654 88.5921 63.651 89.9937 63.3854C90.1569 63.3566 89.4721 60.0414 86.9793 59.2254C84.4865 58.4094 81.5233 60.803 80.8545 61.9198C80.8545 61.9198 79.8305 62.355 79.0977 64.2334C78.3649 66.1118 80.7425 69.2094 81.3857 68.995Z" fill="#263238"/>
<path d="M81.9816 68.7807C81.9816 68.7807 80.4552 67.2159 79.7416 67.7887C79.028 68.3615 80.3624 70.7711 81.3608 70.9663C81.4871 71.002 81.6195 71.0114 81.7497 70.994C81.8798 70.9765 82.005 70.9325 82.1175 70.8647C82.23 70.7969 82.3273 70.7068 82.4036 70.5999C82.4798 70.4929 82.5333 70.3715 82.5608 70.2431L81.9816 68.7807Z" fill="#D3766A"/>
<path d="M80.1282 68.4797C80.1122 68.4797 80.1122 68.5021 80.1282 68.5053C80.8322 68.6621 81.2802 69.2189 81.629 69.8141C81.5785 69.7552 81.516 69.708 81.4455 69.6757C81.3751 69.6433 81.2985 69.6265 81.221 69.6265C81.1435 69.6265 81.0669 69.6433 80.9965 69.6757C80.9261 69.708 80.8635 69.7552 80.813 69.8141C80.797 69.8141 80.813 69.8525 80.8386 69.8461C80.9484 69.7894 81.0731 69.7685 81.1953 69.7863C81.3175 69.8041 81.4311 69.8597 81.5202 69.9453C81.6694 70.082 81.8035 70.2343 81.9202 70.3997C81.9618 70.4541 82.061 70.3997 82.029 70.3389C81.8946 69.4781 81.0466 68.4061 80.1282 68.4797Z" fill="#263238"/>
<path d="M77.3249 79.8333C75.6385 89.3981 77.2705 96.5629 78.8929 97.4525C83.2673 99.8397 93.7729 94.9949 96.7361 94.0317C97.9201 93.6445 92.4801 84.4797 91.2513 85.0493C88.3713 86.3805 84.3361 88.6397 84.1729 88.6205C83.8529 88.5885 83.4689 86.1469 81.7985 79.0205C80.4449 73.2797 78.0161 75.9229 77.3249 79.8333Z" fill="#D3766A"/>
<path d="M106.285 80.5148C106.586 81.718 103.559 82.2044 103.559 82.2044C104.062 82.3853 104.486 82.7361 104.759 83.1964C105.2 84.0284 104.087 85.0812 104.087 85.0812C104.569 85.3765 104.952 85.8102 105.184 86.326C105.527 87.1644 104.544 88.39 104.544 88.39C104.838 88.9059 104.935 89.5103 104.819 90.0924C104.448 91.6348 102.083 92.2428 100.695 92.9084C99.2066 93.622 96.7426 93.8844 95.6258 94.3868L90.7842 85.5164C90.7842 85.5164 95.4626 80.5628 98.1442 79.7948C99.6258 79.3596 105.827 78.678 106.285 80.5148Z" fill="#D3766A"/>
<path d="M103.527 82.1789C101.844 82.1053 100.145 82.4349 98.5096 82.7709C98.5039 82.7728 98.499 82.7765 98.4956 82.7814C98.4921 82.7863 98.4902 82.7921 98.4902 82.7981C98.4902 82.804 98.4921 82.8099 98.4956 82.8147C98.499 82.8196 98.5039 82.8233 98.5096 82.8253C100.132 82.4733 101.889 82.5469 103.521 82.2589C103.53 82.2572 103.538 82.2526 103.544 82.2458C103.55 82.239 103.554 82.2304 103.555 82.2213C103.555 82.2122 103.553 82.2031 103.548 82.1955C103.543 82.1878 103.536 82.182 103.527 82.1789V82.1789Z" fill="#263238"/>
<path d="M104 84.9727C103.616 84.9926 103.237 85.0625 102.871 85.1807C102.477 85.2831 102.087 85.3919 101.693 85.5007C100.912 85.7311 100.135 85.9774 99.3667 86.2462C99.3315 86.2462 99.3411 86.3135 99.3667 86.3039C100.144 86.0767 100.928 85.8623 101.719 85.6639C102.112 85.5647 102.509 85.4719 102.903 85.3791C103.283 85.3133 103.656 85.206 104.013 85.0591C104.019 85.0528 104.023 85.0454 104.025 85.0375C104.027 85.0295 104.028 85.0211 104.027 85.0129C104.025 85.0047 104.022 84.9969 104.018 84.9899C104.013 84.983 104.007 84.9771 104 84.9727V84.9727Z" fill="#263238"/>
<path d="M104.525 88.3999C104.178 88.4219 103.837 88.5042 103.517 88.6431L102.452 88.9631C101.741 89.1807 101.031 89.3951 100.314 89.5871C100.279 89.5871 100.288 89.6543 100.314 89.6447C101.044 89.4527 101.776 89.2735 102.506 89.0751C102.861 88.9791 103.22 88.8799 103.575 88.7775C103.914 88.7202 104.239 88.6009 104.535 88.4255C104.536 88.4232 104.536 88.4207 104.537 88.4182C104.537 88.4156 104.536 88.4131 104.535 88.4107C104.534 88.4083 104.533 88.4061 104.531 88.4043C104.53 88.4024 104.527 88.4009 104.525 88.3999V88.3999Z" fill="#263238"/>
<path d="M84.1602 88.6204C85.3058 87.9612 86.4674 87.3404 87.6322 86.7004L89.3954 85.7852L90.2818 85.3404C90.5832 85.1833 90.8942 85.0454 91.213 84.9276L91.1554 84.9596C91.9362 84.2012 92.7202 83.4492 93.549 82.742C93.9586 82.3868 94.3746 82.0348 94.8066 81.7052C95.2323 81.3645 95.6862 81.0604 96.1634 80.7964C95.7137 81.0963 95.286 81.4278 94.8834 81.7884C94.4738 82.1404 94.0674 82.4988 93.6706 82.87C92.8834 83.6124 92.093 84.3548 91.3314 85.11L91.3122 85.126L91.2738 85.142C91.0018 85.2412 90.6882 85.4044 90.397 85.5388L89.5042 85.974L87.7346 86.8604C86.5506 87.4652 85.3698 88.0572 84.1602 88.6204Z" fill="#263238"/>
<path d="M75.6992 88.1536L83.344 84.3136C83.344 84.3136 82.384 80.1216 81.5296 77.8752C80.3968 74.9056 79.0304 74.6304 77.6896 78.2848C76.7744 80.7328 75.6992 88.1536 75.6992 88.1536Z" fill="#EBEBEB"/>
<path d="M76.1129 87.0398C77.1849 86.3998 78.2665 85.7854 79.3737 85.2158C79.9273 84.931 80.4873 84.6526 81.0473 84.3838C81.6073 84.115 82.1993 83.907 82.7561 83.6318C82.7849 83.6318 82.8073 83.667 82.7753 83.6798C82.2089 83.923 81.6649 84.2494 81.1113 84.5278C80.5577 84.8062 79.9977 85.0846 79.4441 85.3694C78.3369 85.9358 77.2265 86.499 76.1321 87.091C76.1033 87.1038 76.0841 87.0558 76.1129 87.0398Z" fill="#263238"/>
<path d="M76.615 87.6799C76.3206 87.8591 76.023 88.0255 75.7286 88.1951L75.623 88.2559L75.639 88.1311C75.7542 87.0719 75.9046 86.0223 76.0902 84.9759C76.2758 83.9295 76.4902 82.8863 76.775 81.8623C76.711 82.3903 76.6406 82.9151 76.5606 83.4399C76.4806 83.9647 76.407 84.4895 76.3206 85.0143C76.1542 86.0607 75.9654 87.1071 75.7606 88.1503L75.671 88.0831C75.9846 87.9615 76.295 87.8207 76.615 87.6799Z" fill="#263238"/>
<path d="M76.3555 82.9277C76.3698 83.1729 76.3698 83.4186 76.3555 83.6637C76.3481 83.9089 76.3278 84.1535 76.2947 84.3965C76.2541 83.9068 76.2691 83.4141 76.3395 82.9277H76.3555Z" fill="#263238"/>
<path d="M82.4133 84.7996C82.7078 84.6211 83.0111 84.4577 83.3221 84.31C83.1973 83.8172 83.0661 83.3308 82.9477 82.838C82.8869 82.5916 82.8325 82.3452 82.7813 82.0988C82.7301 81.8524 82.6437 81.5164 82.5925 81.2764C82.5925 81.238 82.6341 81.2252 82.6437 81.2604C82.7429 81.5804 82.8037 81.8012 82.8869 82.0668C82.9701 82.3324 83.0277 82.5468 83.0917 82.7868C83.2229 83.2956 83.3861 83.8332 83.4949 84.3484C83.1502 84.5328 82.793 84.6932 82.4261 84.8284C82.4225 84.8293 82.4186 84.8289 82.4152 84.8272C82.4118 84.8256 82.4092 84.8228 82.4076 84.8194C82.4061 84.8159 82.4058 84.812 82.4069 84.8084C82.4079 84.8048 82.4102 84.8017 82.4133 84.7996Z" fill="#263238"/>
<path d="M83.024 81.5996C83.0752 81.9015 83.0752 82.2098 83.024 82.5116C82.9686 82.2101 82.9686 81.9011 83.024 81.5996Z" fill="#263238"/>
<path d="M113.085 93.5645H90.832V94.5629H113.085V93.5645Z" fill="#C7C7C7"/>
<path d="M95.5936 93.5645L94.832 94.5629H113.085V93.5645H95.5936Z" fill="#A6A6A6"/>
<path d="M96.5479 94.5599H118.234L120.039 79.8335H98.3527L96.5479 94.5599Z" fill="#C7C7C7"/>
<path d="M106.973 87.1964C106.968 87.3693 106.997 87.5416 107.06 87.7028C107.123 87.864 107.218 88.0108 107.339 88.1343C107.46 88.2578 107.605 88.3555 107.765 88.4215C107.925 88.4874 108.096 88.5202 108.269 88.518C108.621 88.5164 108.959 88.3774 109.21 88.1305C109.461 87.8836 109.606 87.5484 109.613 87.1964C109.618 87.0251 109.589 86.8545 109.527 86.6948C109.465 86.535 109.372 86.3893 109.252 86.2664C109.133 86.1434 108.99 86.0457 108.832 85.979C108.674 85.9123 108.505 85.8779 108.333 85.878C107.979 85.8745 107.637 86.011 107.383 86.2578C107.128 86.5046 106.981 86.8419 106.973 87.1964V87.1964Z" fill="white"/>
<path d="M119.863 81.2573C120.679 82.5181 122.698 83.9933 122.977 85.0749C123.055 85.3393 123.046 85.622 122.951 85.8809C122.856 86.1399 122.68 86.3611 122.449 86.5117C122.449 86.5117 123.617 86.9149 123.706 87.9389C123.754 88.4637 122.951 89.0013 122.951 89.0013C122.951 89.0013 123.876 89.3629 123.911 90.2813C123.93 91.0109 123.124 91.4397 123.124 91.4397C123.124 91.4397 123.847 92.2013 123.629 92.9501C123.185 94.4701 116.977 95.2893 115.716 93.1293C115.127 92.1245 116.657 92.0061 116.657 92.0061C116.657 92.0061 114.417 91.6445 114.215 90.3677C114.013 89.0909 116.007 89.0589 116.007 89.0589C116.007 89.0589 113.844 88.6909 113.767 87.3469C113.687 85.9485 115.687 86.2589 115.687 86.2589C115.687 86.2589 114.183 85.5037 114.362 84.4605C114.653 82.7421 118.202 84.5693 119.517 84.0669L119.863 81.2573Z" fill="#D3766A"/>
<path d="M122.995 91.52C123 91.52 123.004 91.5217 123.007 91.5247C123.01 91.5277 123.011 91.5318 123.011 91.536C123.011 91.5403 123.01 91.5443 123.007 91.5473C123.004 91.5503 123 91.552 122.995 91.552C120.944 92.3571 118.696 92.519 116.551 92.016C116.483 91.9968 116.48 91.8816 116.551 91.8848C118.705 92.0778 120.876 91.9549 122.995 91.52V91.52Z" fill="#263238"/>
<path d="M122.983 89.011C123.009 89.011 123.015 89.043 122.983 89.0526C120.941 89.8334 118.225 90.0126 115.921 89.123C115.841 89.091 115.802 88.9854 115.895 89.0142C117.482 89.4974 121.005 89.4462 122.983 89.011Z" fill="#263238"/>
<path d="M115.521 86.1341C117.761 86.9149 120.033 86.8989 122.359 86.5469C122.388 86.5469 122.391 86.5853 122.359 86.5981C121.268 87.0781 119.761 87.1485 118.583 87.1037C117.491 87.0837 116.422 86.7769 115.486 86.2141C115.463 86.1917 115.479 86.1181 115.521 86.1341Z" fill="#263238"/>
<path d="M163.857 123.344C163.553 124.166 148.647 142.698 147.633 143.043C147.249 143.178 144.433 141.165 141.076 138.634C140.356 138.086 139.614 137.52 138.862 136.938C133.982 133.168 128.894 129.053 128.894 129.053L138.814 116.63L148.51 124.854L150.638 126.659C150.638 126.659 159.518 122.118 160.673 121.859C161.828 121.6 164.161 122.525 163.857 123.344Z" fill="#D3766A"/>
<path d="M163.86 123.347C163.54 124.166 148.647 142.698 147.632 143.046C147.296 143.165 145.095 141.638 142.308 139.562C145.152 137.491 155.949 127.766 157.399 125.133C158.16 123.747 157.047 123.757 155.684 124.141C157.924 123.043 160.148 121.981 160.688 121.856C161.84 121.6 164.16 122.525 163.86 123.347Z" fill="#263238"/>
<path d="M148.003 122.979L137.664 136.931L102.784 112.72L99.4081 110.4C99.4081 110.4 98.4481 111.04 97.0209 111.833C95.0305 112.934 92.1121 114.329 89.5297 114.713C85.1969 115.353 77.9649 115.286 74.3137 110.403C71.2385 106.294 72.9089 100.931 72.9089 100.931L77.6641 98.8796C77.6641 98.8796 88.9185 89.5036 96.2241 89.222C99.3185 89.0972 103.827 91.462 108.003 93.8972C112.179 96.3324 148.003 122.979 148.003 122.979Z" fill="#37474F"/>
<path d="M99.4082 110.4C99.4082 110.4 98.4482 111.04 97.021 111.833C94.4866 108.8 89.1202 103.286 88.957 103.091L99.4082 110.4Z" fill="#263238"/>
<path d="M81.7889 95.728C81.1169 96.1952 80.4641 96.688 79.8017 97.1712C79.1393 97.6544 78.4737 98.0864 77.8529 98.6016C77.2321 99.1168 76.6241 99.6864 76.0289 100.25C75.7441 100.522 75.4593 100.797 75.1809 101.078C74.8881 101.35 74.6174 101.644 74.3713 101.958C74.3489 101.987 74.3937 102.022 74.4193 102.006C74.7356 101.781 75.037 101.535 75.3217 101.27C75.6417 101.005 75.9617 100.736 76.2625 100.47C76.8673 99.9552 77.4849 99.456 78.0865 98.9408C78.6881 98.4256 79.2417 97.8688 79.8369 97.3408C80.4321 96.8128 81.1425 96.2656 81.8017 95.7408C81.8145 95.7408 81.8017 95.7184 81.7889 95.728Z" fill="#263238"/>
<path d="M145.578 122.48C144.906 123.203 144.298 123.984 143.658 124.749C143.018 125.513 142.407 126.288 141.786 127.059C140.548 128.611 139.297 130.15 138.077 131.718C137.409 132.579 136.746 133.446 136.125 134.339C136.097 134.381 136.161 134.425 136.193 134.39C137.527 132.921 138.753 131.357 139.985 129.811C141.217 128.265 142.458 126.72 143.681 125.136C144.346 124.278 145.034 123.424 145.645 122.525C145.661 122.489 145.601 122.448 145.578 122.48Z" fill="#263238"/>
<path d="M116.941 122.624C115.207 121.254 113.405 119.961 111.607 118.678C109.809 117.395 108.026 116.118 106.209 114.883C105.687 114.528 105.159 114.179 104.634 113.83C104.109 113.481 103.562 113.158 103.05 112.796C103.018 112.777 102.993 112.825 103.021 112.848C103.495 113.187 103.94 113.564 104.404 113.916C104.868 114.268 105.287 114.592 105.732 114.921C106.605 115.561 107.485 116.201 108.365 116.841C110.149 118.121 111.946 119.391 113.757 120.649C114.788 121.353 115.812 122.064 116.865 122.736C116.929 122.768 117.002 122.668 116.941 122.624Z" fill="#263238"/>
<path d="M128.099 108.227C126.499 106.899 124.778 105.702 123.095 104.473C121.411 103.244 119.703 101.974 117.994 100.742C116.285 99.5101 114.608 98.2909 112.912 97.0685C111.271 95.8813 109.635 94.6749 107.901 93.6221C106.941 93.0493 105.981 92.5149 104.979 92.0221C104.009 91.5254 102.999 91.1121 101.959 90.7869C101.951 90.7839 101.943 90.7839 101.936 90.7869C101.929 90.7899 101.923 90.7957 101.92 90.8029C101.917 90.8101 101.917 90.8182 101.92 90.8254C101.923 90.8326 101.929 90.8383 101.936 90.8413C102.794 91.3181 103.69 91.7181 104.557 92.1789C105.424 92.6397 106.253 93.1133 107.082 93.6157C108.803 94.6621 110.429 95.8557 112.061 97.0205C115.453 99.4589 118.839 101.91 122.256 104.316C124.176 105.66 126.039 107.081 128.016 108.32C128.087 108.371 128.157 108.275 128.099 108.227Z" fill="#263238"/>
<path d="M123.416 74.5527C124.308 69.1113 120.62 63.977 115.179 63.085C109.737 62.193 104.603 65.8809 103.711 71.3223C102.819 76.7637 106.507 81.8979 111.948 82.79C117.39 83.682 122.524 79.994 123.416 74.5527Z" fill="#0B7D77"/>
<path d="M119.376 79.3822H107.741V69.539L113.559 65.8462L119.376 69.539V79.3822Z" fill="#A6A6A6"/>
<path d="M118.72 79.2828H108.4V66.3516H116.064L118.72 68.8796V79.2828Z" fill="white"/>
<path d="M116.064 66.3516L118.72 68.8796H116.064V66.3516Z" fill="#EBEBEB"/>
<path d="M109.408 68.918H115.146V68.5788H109.408V68.918Z" fill="#DBDBDB"/>
<path d="M109.408 69.7759H115.146V69.4367H109.408V69.7759Z" fill="#DBDBDB"/>
<path d="M109.408 70.6333H115.146V70.2941H109.408V70.6333Z" fill="#DBDBDB"/>
<path d="M109.405 71.4941H117.814V71.1549H109.405V71.4941Z" fill="#DBDBDB"/>
<path d="M109.405 72.3516H117.814V72.0124H109.405V72.3516Z" fill="#DBDBDB"/>
<path d="M109.405 73.2124H117.814V72.8732H109.405V73.2124Z" fill="#DBDBDB"/>
<path d="M109.405 74.0703H117.814V73.7311H109.405V74.0703Z" fill="#DBDBDB"/>
<path d="M109.405 74.9277H117.814V74.5885H109.405V74.9277Z" fill="#DBDBDB"/>
<path d="M109.405 75.7886H117.814V75.4494H109.405V75.7886Z" fill="#DBDBDB"/>
<path d="M109.405 76.646H117.814V76.3068H109.405V76.646Z" fill="#DBDBDB"/>
<path d="M109.405 77.5068H117.814V77.1676H109.405V77.5068Z" fill="#DBDBDB"/>
<path d="M109.405 78.3647H117.814V78.0255H109.405V78.3647Z" fill="#DBDBDB"/>
<path d="M119.376 72V79.3792H107.744V72C108.243 72.2816 108.733 72.5792 109.229 72.8704C109.725 73.1616 110.215 73.4592 110.701 73.76C111.247 74.0928 111.792 74.4299 112.336 74.7712L113.559 75.536L114.778 74.7712H114.762H114.781L116.413 73.7632C116.903 73.4624 117.395 73.168 117.888 72.8736C118.381 72.5792 118.877 72.2848 119.376 72Z" fill="#EBEBEB"/>
<path d="M119.376 72C118.909 72.32 118.416 72.64 117.955 72.96C117.495 73.28 116.995 73.6 116.519 73.92C116.042 74.24 115.514 74.576 115.011 74.8992L114.967 74.9312L113.626 75.7856L113.559 75.824L113.495 75.7856L112.157 74.928L112.109 74.8992C111.603 74.5771 111.1 74.2507 110.599 73.92C110.122 73.6 109.639 73.28 109.165 72.96C108.691 72.64 108.205 72.32 107.744 72C108.243 72.2816 108.733 72.5792 109.229 72.8704C109.725 73.1616 110.215 73.4592 110.701 73.76C111.247 74.0928 111.792 74.4299 112.336 74.7712L113.559 75.536L114.778 74.7712L116.41 73.7632C116.899 73.4624 117.392 73.168 117.885 72.8736C118.378 72.5792 118.877 72.2848 119.376 72Z" fill="#DBDBDB"/>
<path d="M112.352 74.7646L112.169 74.9215C111.878 75.1679 111.577 75.4047 111.273 75.6319C110.902 75.9167 110.525 76.1854 110.144 76.4542C109.763 76.723 109.376 76.9823 108.982 77.2319C108.589 77.4815 108.195 77.731 107.782 77.955C108.137 77.635 108.502 77.3598 108.873 77.0782C109.245 76.7966 109.625 76.5246 110.003 76.2558C110.381 75.987 110.771 75.7278 111.165 75.475C111.485 75.2734 111.805 75.0782 112.125 74.8926C112.198 74.8478 112.275 74.8062 112.352 74.7646Z" fill="#DBDBDB"/>
<path d="M119.36 77.9648C118.947 77.7408 118.55 77.4944 118.16 77.2416C117.77 76.9888 117.382 76.7296 116.995 76.464C116.608 76.1984 116.237 75.9264 115.866 75.6416C115.565 75.4144 115.264 75.1808 114.976 74.9344L114.79 74.7744H114.774H114.794L115.021 74.9056C115.341 75.0912 115.661 75.2864 115.981 75.488C116.371 75.7408 116.758 76.0032 117.139 76.2688C117.52 76.5344 117.901 76.8064 118.269 77.0912C118.637 77.376 118.995 77.6576 119.36 77.9648Z" fill="#DBDBDB"/>
<path d="M115.944 71.3352C116.255 70.0196 115.442 68.7004 114.126 68.3887C112.811 68.077 111.491 68.8908 111.18 70.2063C110.868 71.5219 111.682 72.8411 112.997 73.1528C114.313 73.4645 115.632 72.6507 115.944 71.3352Z" fill="#0B7D77"/>
<path d="M112.32 70.9726C112.67 71.2644 113.001 71.5775 113.312 71.9102L113.088 71.9262C113.21 71.7118 113.341 71.5038 113.476 71.2862C113.61 71.0686 113.744 70.8734 113.888 70.675C114.17 70.2684 114.479 69.8814 114.813 69.5166C114.617 69.9716 114.39 70.4122 114.132 70.835C114.01 71.0462 113.872 71.2542 113.741 71.475C113.61 71.6958 113.469 71.8846 113.322 72.0862L113.21 72.243L113.098 72.1022C112.815 71.7428 112.555 71.3655 112.32 70.9726Z" fill="white"/>
</svg>
