<svg width="500" height="500" viewBox="0 0 500 500" fill="none" xmlns="http://www.w3.org/2000/svg">
<path d="M427.009 256.901C421.762 260.059 415.649 261.475 409.547 260.945C403.445 260.416 397.668 257.968 393.043 253.952C388.418 249.937 385.183 244.561 383.802 238.594C382.421 232.627 382.964 226.376 385.354 220.737C387.744 215.098 391.858 210.36 397.106 207.203C402.355 204.046 408.468 202.632 414.569 203.163C420.671 203.694 426.448 206.143 431.072 210.16C435.696 214.176 438.929 219.553 440.309 225.521C441.698 231.485 441.158 237.737 438.769 243.376C436.379 249.015 432.261 253.75 427.009 256.901V256.901Z" fill="#EBEBEB"/>
<path d="M420.92 228.85C420.898 230.594 420.359 232.292 419.373 233.73C418.386 235.168 416.995 236.282 415.376 236.929C413.757 237.577 411.982 237.73 410.275 237.369C408.569 237.008 407.008 236.15 405.79 234.902C404.571 233.654 403.75 232.073 403.43 230.359C403.11 228.645 403.305 226.874 403.991 225.271C404.677 223.667 405.823 222.303 407.284 221.351C408.745 220.399 410.456 219.901 412.2 219.92C413.359 219.934 414.504 220.175 415.57 220.631C416.635 221.087 417.601 221.748 418.411 222.578C419.221 223.407 419.859 224.388 420.289 225.464C420.72 226.541 420.934 227.691 420.92 228.85V228.85Z" fill="white"/>
<path d="M427.05 253.261V256.901C422.433 259.675 417.136 261.108 411.751 261.041C406.365 260.974 401.105 259.409 396.56 256.521L396.61 252.891C396.634 250.889 397.052 248.912 397.84 247.073C398.629 245.233 399.772 243.566 401.204 242.168C402.636 240.77 404.33 239.668 406.188 238.925C408.047 238.181 410.033 237.811 412.035 237.836C414.036 237.86 416.013 238.278 417.853 239.066C419.692 239.855 421.359 240.998 422.757 242.43C424.155 243.862 425.257 245.556 426 247.414C426.744 249.273 427.114 251.259 427.09 253.261H427.05Z" fill="white"/>
<path d="M100.959 170.591C97.932 172.413 94.4567 173.355 90.9237 173.311C87.3907 173.266 83.9399 172.238 80.9592 170.341C77.4729 168.122 74.805 164.827 73.3602 160.955C71.9154 157.083 71.7723 152.846 72.9526 148.885C74.133 144.925 76.5724 141.457 79.9011 139.008C83.2299 136.559 87.2663 135.262 91.3986 135.313C95.5309 135.365 99.5337 136.763 102.8 139.294C106.067 141.826 108.419 145.353 109.5 149.342C110.581 153.331 110.332 157.563 108.79 161.398C107.249 165.232 104.5 168.46 100.959 170.591V170.591Z" fill="#EBEBEB"/>
<path d="M96.9698 152.211C96.9579 153.354 96.607 154.468 95.9616 155.412C95.3161 156.356 94.4052 157.088 93.344 157.514C92.2828 157.94 91.119 158.042 89.9999 157.806C88.8809 157.571 87.8568 157.009 87.0573 156.191C86.2579 155.373 85.7189 154.337 85.5087 153.213C85.2984 152.089 85.4264 150.927 85.8763 149.876C86.3262 148.825 87.0779 147.931 88.0362 147.306C88.9945 146.682 90.1164 146.357 91.2598 146.371C92.0184 146.378 92.768 146.536 93.4657 146.834C94.1635 147.131 94.7956 147.564 95.3259 148.106C95.8563 148.649 96.2745 149.291 96.5566 149.995C96.8386 150.699 96.9791 151.452 96.9698 152.211V152.211Z" fill="white"/>
<path d="M100.989 168.201V170.591C97.962 172.413 94.4867 173.355 90.9537 173.31C87.4207 173.266 83.97 172.238 80.9893 170.341V167.971C81.0198 165.318 82.1026 162.787 83.9995 160.933C85.8964 159.079 88.4521 158.055 91.1043 158.086C93.7564 158.116 96.2878 159.199 98.1416 161.096C99.9954 162.993 101.02 165.548 100.989 168.201V168.201Z" fill="white"/>
<path d="M185.82 173.321H59.1797V86.6807H185.82V173.321ZM60.1797 172.321H184.82V87.6807H60.1797V172.321Z" fill="#EBEBEB"/>
<path d="M69.08 92.2607C69.08 92.7591 68.9322 93.2463 68.6553 93.6608C68.3784 94.0752 67.9849 94.3982 67.5244 94.5889C67.0639 94.7796 66.5572 94.8295 66.0684 94.7323C65.5796 94.6351 65.1306 94.3951 64.7781 94.0426C64.4257 93.6902 64.1857 93.2412 64.0885 92.7523C63.9912 92.2635 64.0411 91.7568 64.2319 91.2964C64.4226 90.8359 64.7456 90.4423 65.16 90.1654C65.5744 89.8885 66.0616 89.7407 66.56 89.7407C67.2284 89.7407 67.8694 90.0062 68.3419 90.4788C68.8145 90.9514 69.08 91.5924 69.08 92.2607Z" fill="#A6A6A6"/>
<path d="M79.3701 92.2607C79.3701 92.7591 79.2223 93.2463 78.9454 93.6608C78.6685 94.0752 78.2749 94.3982 77.8144 94.5889C77.354 94.7796 76.8473 94.8295 76.3585 94.7323C75.8696 94.6351 75.4206 94.3951 75.0682 94.0426C74.7157 93.6902 74.4757 93.2412 74.3785 92.7523C74.2813 92.2635 74.3312 91.7568 74.5219 91.2964C74.7126 90.8359 75.0356 90.4423 75.45 90.1654C75.8645 89.8885 76.3517 89.7407 76.8501 89.7407C77.5184 89.7407 78.1594 90.0062 78.632 90.4788C79.1046 90.9514 79.3701 91.5924 79.3701 92.2607Z" fill="#EBEBEB"/>
<path d="M89.6601 92.2607C89.6601 92.7591 89.5123 93.2463 89.2354 93.6608C88.9585 94.0752 88.5649 94.3982 88.1045 94.5889C87.644 94.7796 87.1373 94.8295 86.6485 94.7323C86.1597 94.6351 85.7106 94.3951 85.3582 94.0426C85.0058 93.6902 84.7658 93.2412 84.6685 92.7523C84.5713 92.2635 84.6212 91.7568 84.8119 91.2964C85.0027 90.8359 85.3257 90.4423 85.7401 90.1654C86.1545 89.8885 86.6417 89.7407 87.1401 89.7407C87.8085 89.7407 88.4494 90.0062 88.922 90.4788C89.3946 90.9514 89.6601 91.5924 89.6601 92.2607V92.2607Z" fill="#0B7D77"/>
<path d="M185.32 96.7007H59.6797V97.7007H185.32V96.7007Z" fill="#EBEBEB"/>
<path d="M137.006 196.054L71.0273 205.057L76.7367 246.899L142.715 237.897L137.006 196.054Z" fill="#EBEBEB"/>
<path d="M137 196.071C134.68 198.981 132.3 201.791 130 204.661C127.7 207.531 125.24 210.311 122.85 213.111C120.46 215.911 117.85 218.931 115.33 221.811L115.1 222.091C112.88 224.631 110.646 227.174 108.4 229.721L108.07 230.081L107.66 229.821C104.82 227.971 102 226.121 99.1696 224.251L98.8696 224.061C95.6696 221.951 92.4696 219.831 89.2796 217.671C86.0896 215.511 83.1796 213.551 80.1396 211.461C77.0996 209.371 74.0696 207.251 71.0596 205.061C74.1896 206.861 77.2896 208.771 80.3896 210.631C83.4896 212.491 86.5996 214.431 89.6996 216.371C93.1396 218.511 96.5796 220.687 100.02 222.901C102.6 224.541 105.176 226.207 107.75 227.901C109.75 225.611 111.82 223.321 113.87 221.061C116.6 218.061 119.32 215.001 122.07 212.001C124.53 209.334 127.003 206.667 129.49 204.001C131.99 201.311 134.46 198.641 137 196.071Z" fill="white"/>
<path d="M100.21 223.841L100.14 223.921C99.8399 224.261 99.5299 224.611 99.2199 224.921C97.7599 226.541 96.2199 228.111 94.6999 229.651C92.8199 231.541 90.8799 233.371 88.9199 235.191C86.9599 237.011 84.9799 238.761 82.9199 240.491C80.8599 242.221 78.8199 243.931 76.6699 245.491C78.4299 243.491 80.2899 241.551 82.1699 239.671C84.0499 237.791 85.9999 235.941 87.9499 234.131C89.8999 232.321 91.9499 230.541 93.9499 228.811C95.5699 227.431 97.2199 226.061 98.9499 224.761C99.3399 224.451 99.7399 224.161 100.14 223.861L100.21 223.841Z" fill="white"/>
<path d="M142.37 236.591C139.87 235.591 137.37 234.541 135.01 233.421C132.65 232.301 130.2 231.101 127.82 229.901C125.44 228.701 123.09 227.431 120.82 226.111C118.93 225.051 117.05 223.951 115.22 222.781L114.04 222.031L113.96 221.971H114.06L115.45 222.521C117.45 223.321 119.38 224.201 121.32 225.101C123.75 226.221 126.13 227.411 128.5 228.621C130.87 229.831 133.23 231.091 135.55 232.411C137.87 233.731 140.12 235.111 142.37 236.591Z" fill="white"/>
<path d="M425.37 85.2407H343.71V137.031H425.37V85.2407Z" fill="#EBEBEB"/>
<path d="M425.37 85.2407C422.07 88.3907 418.71 91.4107 415.37 94.5207C412.03 97.6307 408.66 100.591 405.29 103.601C401.92 106.611 398.24 109.841 394.7 112.921L394.39 113.221C391.263 115.947 388.127 118.671 384.98 121.391L384.51 121.771L384.06 121.391C380.92 118.671 377.79 115.944 374.67 113.211L374.34 112.921C370.787 109.841 367.253 106.727 363.74 103.581C360.38 100.581 357.02 97.5807 353.67 94.5207C350.32 91.4607 346.99 88.3907 343.67 85.2407C347.18 87.9407 350.67 90.7807 354.09 93.5507C357.51 96.3207 361.01 99.1907 364.44 102.061C368.273 105.227 372.097 108.444 375.91 111.711C378.77 114.131 381.63 116.564 384.49 119.011C387.33 116.571 390.19 114.121 393.05 111.711C396.863 108.471 400.687 105.254 404.52 102.061C407.947 99.2074 411.393 96.3774 414.86 93.5707C418.42 90.7807 421.86 87.9407 425.37 85.2407Z" fill="white"/>
<path d="M376.07 112.891C376.039 112.92 376.005 112.946 375.97 112.971C375.54 113.341 375.12 113.711 374.69 114.061C372.64 115.791 370.54 117.451 368.41 119.061C365.81 121.061 363.15 122.951 360.47 124.841C357.79 126.731 355.09 128.531 352.33 130.301C349.57 132.071 346.79 133.791 343.91 135.371C346.38 133.201 348.91 131.181 351.56 129.211C354.21 127.241 356.83 125.321 359.49 123.431C362.15 121.541 364.89 119.731 367.65 117.961C369.84 116.551 372.07 115.161 374.36 113.861C374.88 113.561 375.41 113.261 375.95 112.971L376.07 112.891Z" fill="white"/>
<path d="M425.18 135.361C422.29 133.781 419.5 132.051 416.75 130.291C414 128.531 411.29 126.681 408.59 124.831C405.89 122.981 403.26 121.041 400.66 119.051C398.54 117.451 396.44 115.801 394.41 114.051C393.96 113.681 393.54 113.311 393.11 112.941C393.074 112.917 393.041 112.89 393.01 112.861L393.13 112.921L394.72 113.821C397.01 115.121 399.23 116.511 401.43 117.921C404.19 119.691 406.89 121.531 409.58 123.391C412.27 125.251 414.91 127.181 417.51 129.171C420.11 131.161 422.7 133.191 425.18 135.361Z" fill="white"/>
<path d="M236.46 476.878C315.541 476.878 379.65 471.913 379.65 465.788C379.65 459.663 315.541 454.698 236.46 454.698C157.378 454.698 93.2695 459.663 93.2695 465.788C93.2695 471.913 157.378 476.878 236.46 476.878Z" fill="#EBEBEB"/>
<path d="M284.931 23H283.931V160.56H284.931V23Z" fill="#C7C7C7"/>
<path d="M243.61 199.91L246.9 207.13H321.98L325.25 199.91L293.29 177.78H275.58L243.61 199.91Z" fill="#0B7D77"/>
<path d="M273.36 156.47L275.58 177.78H293.29L295.51 156.47H273.36Z" fill="#0B7D77"/>
<path opacity="0.1" d="M243.62 199.91L246.9 207.13H321.99L325.26 199.91H243.62Z" fill="black"/>
<path opacity="0.1" d="M275.581 177.78L275.341 175.49L293.661 174.17L293.291 177.78H275.581Z" fill="black"/>
<path d="M216.801 23H215.801V117.27H216.801V23Z" fill="#C7C7C7"/>
<path d="M175.48 156.62L178.77 163.84H253.85L257.12 156.62L225.16 134.5H207.45L175.48 156.62Z" fill="#0B7D77"/>
<path d="M205.23 113.18L207.45 134.5H225.16L227.38 113.18H205.23Z" fill="#0B7D77"/>
<path opacity="0.1" d="M175.49 156.63L178.77 163.84H253.85L257.13 156.63H175.49Z" fill="black"/>
<path opacity="0.1" d="M207.45 134.5L207.19 132.03L225.54 130.84L225.16 134.5H207.45Z" fill="black"/>
<path d="M387.67 336.7C387.969 331.65 388.685 326.633 389.81 321.7C390.87 317.25 392.37 312.7 395.18 309.01C396.416 307.276 397.982 305.804 399.789 304.678C401.597 303.552 403.609 302.795 405.71 302.45C409.84 301.95 413.71 303.79 416.8 306.38C420.62 309.6 423.55 313.87 426.3 318C429.311 322.623 432.049 327.418 434.5 332.36C434.59 332.52 434.34 332.66 434.26 332.5C432.13 328.315 429.676 324.303 426.92 320.5C424.407 316.851 421.579 313.427 418.47 310.27C415.64 307.51 412.04 304.92 407.93 304.79C403.82 304.66 400.08 306.95 397.63 310.1C394.88 313.62 393.48 318.01 392.43 322.29C391.368 326.982 390.679 331.75 390.37 336.55C389.56 346.46 389.37 356.43 389.12 366.36C388.99 371.98 388.92 377.61 388.86 383.23L388.8 391.78C388.9 394.531 388.79 397.286 388.47 400.02C388.37 400.57 387.47 400.52 387.37 400.02C387.037 397.431 386.913 394.819 387 392.21C386.96 389.51 386.927 386.81 386.9 384.11C386.847 378.864 386.827 373.614 386.84 368.36C386.82 357.79 386.95 347.22 387.67 336.7Z" fill="#263238"/>
<path d="M401.831 329.23C402.351 326.43 403.301 322.78 404.891 320.61C407.761 316.71 410.891 318.4 408.001 322.72C405.891 325.928 404.524 329.567 404.001 333.37C404.001 333.37 408.821 340.26 414.641 343.65C414.391 341 413.641 336.93 414.161 333C415.281 324.49 420.431 325 419.161 331.73C418.161 337.15 417.721 342.91 418.001 345.4C419.945 346.661 422.033 347.685 424.221 348.45C423.881 347.45 423.531 346.28 423.141 344.84C421.071 337.21 426.141 334.84 426.321 339.13C426.658 342.79 427.328 346.412 428.321 349.95C431.111 350.89 433.431 351.53 434.841 352.02C438.507 353.379 441.783 355.618 444.381 358.54C447.031 356.146 449.232 353.298 450.881 350.13C449.101 348.6 446.291 346.33 442.391 343.57C435.081 338.41 437.621 331.89 443.391 335.94C447.571 338.87 450.811 344.29 452.291 347.07C454.263 342.222 455.383 337.07 455.601 331.84C449.861 326.45 435.651 318.93 439.931 318.93C443.791 318.93 452.411 324.58 455.571 326.76C455.495 325.279 455.335 323.803 455.091 322.34C449.681 318.79 432.091 313.28 434.901 311.69C437.971 309.95 450.241 315.63 453.951 317.42C453.253 315.01 452.155 312.735 450.701 310.69C443.221 300.69 429.701 297.24 423.861 299.14C419.701 300.49 420.861 311.05 420.021 310.69C403.281 304 395.681 308.72 401.831 329.23ZM442.831 328.07C444.021 326.64 449.501 330.86 447.921 333.16C446.341 335.46 441.281 329.91 442.811 328.07H442.831ZM414.161 319.07C415.601 319.99 413.471 325.32 411.241 323.71C409.371 322.33 412.691 318.14 414.141 319.07H414.161Z" fill="#0B7D77"/>
<path d="M416.37 320.7C417.12 319.21 417.91 317.7 418.77 316.29C419.562 314.872 420.486 313.533 421.53 312.29C421.3 312 421.07 311.7 420.82 311.41C420.72 311.29 420.89 311.13 420.99 311.24C421.27 311.56 421.54 311.89 421.81 312.24C421.839 312.254 421.864 312.274 421.884 312.298C421.905 312.322 421.921 312.35 421.93 312.38C422.964 313.62 423.94 314.89 424.86 316.19C426.506 316.569 428.128 317.039 429.72 317.6C431.36 318.15 432.99 318.72 434.58 319.39C434.75 319.46 434.66 319.74 434.5 319.66C432.92 318.97 431.32 318.29 429.68 317.74C428.04 317.19 426.56 316.81 424.99 316.37C425.5 317.09 425.99 317.81 426.48 318.55C429.433 319.484 432.306 320.655 435.07 322.05C437.97 323.43 440.76 325.05 443.54 326.64C443.7 326.73 443.54 326.98 443.39 326.88C440.657 325.283 437.844 323.827 434.96 322.52C432.27 321.26 429.49 320.23 426.78 319.03C433.61 329.68 437.7 341.98 443.18 353.36C443.26 353.53 443 353.66 442.93 353.5C441.26 349.5 439.33 345.62 437.51 341.69C435.88 338.16 434.28 334.62 432.65 331.09C432.17 330.09 431.65 329.03 431.17 328.01C431.47 333.7 431.35 339.49 432.29 345.11C432.29 345.128 432.287 345.147 432.28 345.164C432.273 345.181 432.262 345.196 432.249 345.209C432.236 345.222 432.221 345.232 432.204 345.239C432.187 345.246 432.169 345.25 432.15 345.25C432.132 345.25 432.114 345.246 432.097 345.239C432.08 345.232 432.064 345.222 432.051 345.209C432.038 345.196 432.028 345.181 432.021 345.164C432.014 345.147 432.01 345.128 432.01 345.11C431.61 339.03 430.54 333.04 430.58 326.93C430.58 326.93 430.58 326.88 430.58 326.85C429.42 324.52 428.18 322.23 426.85 320C424.59 325.32 422.21 330.73 421.16 336.45C421.16 336.62 420.84 336.55 420.88 336.37C422.42 330.64 423.88 324.9 426.61 319.6C425.162 317.186 423.555 314.871 421.8 312.67C421.04 314.08 420.07 315.42 419.21 316.77C418.35 318.12 417.54 319.42 416.76 320.77C415.078 323.64 413.65 326.652 412.49 329.77C412.42 329.94 412.15 329.85 412.22 329.69C413.52 326.7 414.84 323.65 416.37 320.7Z" fill="#263238"/>
<path d="M362.51 333.66C366.89 329.26 371.98 323.5 378.75 323.51C385.29 323.51 390.1 328.78 392.86 334.21C395.75 339.89 396.79 346.32 397.61 352.57C398.577 360.059 399.164 367.592 399.37 375.14C399.49 379.33 399.47 383.53 399.37 387.72C399.357 391.969 399.023 396.212 398.37 400.41C398.25 401.08 397.16 401.11 397.12 400.41C396.92 396.88 397.06 393.33 397.12 389.8C397.18 386.27 397.12 382.8 396.96 379.37C396.7 372.37 396.19 365.37 395.36 358.37C394.64 352.26 394.07 345.99 392.24 340.09C390.6 334.77 387.51 328.69 382.12 326.35C374.76 323.17 367.57 328.99 362.76 333.91C362.6 334 362.37 333.79 362.51 333.66Z" fill="#263238"/>
<path d="M340.16 343.48C340.16 344.38 340.24 345.26 340.3 346.13C342.407 344.55 344.875 343.519 347.48 343.13C353.7 342.47 353.3 347.19 349.15 347.39C346.225 347.427 343.333 348.006 340.62 349.1C341.62 357.31 343.89 363.91 344.23 364C349.746 363.714 355.236 363.046 360.66 362C359.11 358.7 355.59 354.32 357.39 354C359.19 353.68 361.14 357.54 362.14 361.73C366.221 360.951 370.233 359.851 374.14 358.44C371.4 356.07 367.14 353.12 368.79 351.87C370.44 350.62 373.79 354.76 375.79 357.78C377.623 357.032 379.359 356.065 380.96 354.9C377.27 349.48 368.29 348.38 369.46 344.47C370.63 340.56 379.04 345.98 382.81 353.23C387.24 348.63 388.54 342.13 388.07 336.57C384.21 336.12 376.79 336.94 377.33 334.17C377.87 331.4 383.23 331.92 387.62 333.54C387.218 331.339 386.337 329.253 385.04 327.43C380.98 322.21 368.56 328.85 368.56 328.85C368.56 328.85 369.89 316.37 365.16 314.22C362.43 312.98 357.61 312.99 352.78 315.83C355.49 316.06 358.78 316.92 360.08 318.83C361.77 321.22 359.08 322.53 357.42 321.42C356.23 320.64 354.01 318.17 350 317.84C348.288 319.297 346.781 320.979 345.52 322.84C345.06 323.49 344.64 324.17 344.21 324.91C346.502 323.875 348.995 323.362 351.509 323.407C354.024 323.452 356.497 324.054 358.75 325.17C364.13 327.84 361.12 333.43 356.49 331.26C351.86 329.09 347.49 326.95 342.54 328.18C340.801 332.574 339.974 337.276 340.11 342C342.52 340.244 345.232 338.946 348.11 338.17C353.46 336.77 355.11 339.96 349.2 340.56C346.019 340.904 342.942 341.898 340.16 343.48ZM346.67 334.89C346.3 333.15 350.09 332.66 350.72 334.06C351.25 335.26 347.03 336.62 346.67 334.89V334.89ZM379.13 344.49C379.49 343.54 382.03 344.62 381.8 345.8C381.48 347.37 378.78 345.43 379.13 344.49V344.49ZM361.21 350.57C363.06 349.83 365.95 354.43 363.93 355.48C361.91 356.53 359.69 351.18 361.21 350.57V350.57Z" fill="#0B7D77"/>
<path d="M344.95 363.09C347.74 358.43 350.5 353.75 353.43 349.17C354.79 347.04 356.22 344.95 357.7 342.9L357.04 342.74L355.93 342.53C355.07 342.38 354.21 342.26 353.34 342.17C352.47 342.08 351.71 342.04 350.89 342.03C350.017 341.981 349.142 342.028 348.28 342.17C348.261 342.17 348.243 342.163 348.23 342.149C348.217 342.136 348.21 342.119 348.21 342.1C348.21 342.081 348.217 342.064 348.23 342.05C348.243 342.037 348.261 342.03 348.28 342.03C349.15 342.03 350.04 341.95 350.91 341.94C351.78 341.93 352.61 341.94 353.45 342C354.244 342.043 355.035 342.126 355.82 342.25C356.26 342.31 356.69 342.39 357.12 342.47C357.386 342.512 357.65 342.569 357.91 342.64C359.42 340.56 360.99 338.53 362.61 336.53C357.788 334.189 352.656 332.549 347.37 331.66C347.28 331.66 347.32 331.51 347.37 331.52C352.744 332.266 357.968 333.852 362.85 336.22L365.54 332.95C366.54 331.74 367.63 330.55 368.54 329.27C368.6 329.18 368.72 329.27 368.66 329.35C367.402 330.727 366.22 332.173 365.12 333.68V333.68C367.115 335.064 369.013 336.585 370.8 338.23C372.653 339.877 374.46 341.577 376.22 343.33C376.29 343.39 376.22 343.49 376.12 343.43C374.38 341.7 372.58 340.05 370.7 338.48C368.82 336.91 366.83 335.48 364.94 333.93C364.51 334.51 364.08 335.08 363.64 335.64C363.42 335.92 363.21 336.21 362.99 336.5L362.94 336.56C362.21 337.5 361.49 338.45 360.77 339.4C361.615 340.623 362.339 341.926 362.93 343.29C363.55 344.6 364.1 345.96 364.6 347.29C365.598 350.139 366.374 353.061 366.92 356.03C366.92 356.11 366.81 356.15 366.79 356.03C366.195 353.105 365.345 350.237 364.25 347.46C363.71 346.04 363.09 344.65 362.46 343.26C361.83 341.87 361.17 340.79 360.63 339.51C360.01 340.34 359.38 341.18 358.77 342.02C358.59 342.26 358.42 342.51 358.25 342.76C358.25 342.81 358.25 342.88 358.19 342.89C356.27 345.56 354.45 348.3 352.68 351.07C352.785 351.259 352.865 351.461 352.92 351.67C353.03 352.01 353.14 352.35 353.24 352.67C353.438 353.355 353.602 354.049 353.73 354.75C353.84 355.4 353.94 356.07 354 356.75C354.016 357.506 354.073 358.26 354.17 359.01C354.17 359.12 354.01 359.13 354.03 359.01C354.08 358.306 354.029 357.599 353.88 356.91C353.78 356.19 353.64 355.47 353.48 354.76C353.32 354.05 353.15 353.48 352.96 352.85C352.87 352.54 352.77 352.22 352.66 351.91C352.55 351.6 352.52 351.57 352.46 351.4C351.63 352.7 350.81 354 350 355.32C348.4 357.93 346.81 360.54 345.2 363.15C345.192 363.183 345.171 363.212 345.142 363.23C345.113 363.247 345.078 363.253 345.045 363.245C345.012 363.237 344.983 363.216 344.965 363.187C344.947 363.158 344.942 363.123 344.95 363.09V363.09Z" fill="#263238"/>
<path d="M387.96 398.9C388.03 396.26 388.45 393.59 388.74 390.97C389.03 388.35 389.32 385.69 389.6 383.05C390.15 377.96 390.45 372.76 391.6 367.77C392.485 363.429 394.648 359.453 397.81 356.35C399.45 354.71 401.603 353.683 403.91 353.44C406.228 353.376 408.502 354.079 410.38 355.44C412.515 357.02 414.357 358.963 415.82 361.18C417.401 363.371 418.822 365.674 420.07 368.07C420.07 368.16 419.97 368.22 419.92 368.13C417.566 364.13 414.447 360.633 410.74 357.84C409.089 356.485 407.075 355.646 404.95 355.43C403.913 355.412 402.883 355.6 401.919 355.985C400.956 356.37 400.079 356.942 399.34 357.67C396.26 360.35 394.47 364.29 393.41 368.16C392.15 372.74 391.75 377.57 391.12 382.27C390.74 385.06 390.39 387.86 390.02 390.66C389.65 393.46 389.42 396.29 388.83 399.03C388.788 399.119 388.718 399.192 388.631 399.238C388.544 399.284 388.444 399.301 388.347 399.287C388.25 399.272 388.159 399.227 388.09 399.157C388.02 399.088 387.975 398.997 387.96 398.9Z" fill="#263238"/>
<path d="M400.96 378.38C401.775 379.486 402.741 380.473 403.83 381.31C403.4 378.74 402.83 374.15 404.17 371.72C406.17 367.93 408.59 369.82 407.38 373.11C406.174 376.081 405.517 379.245 405.44 382.45C408.19 384.171 411.134 385.56 414.21 386.59C413.885 385.107 413.787 383.583 413.92 382.07C414.33 378.02 417.43 378.07 416.62 382.31C416.32 383.939 416.179 385.594 416.2 387.25C420.674 388.63 425.247 389.663 429.88 390.34C432.244 387.271 434.15 383.876 435.54 380.26C432.24 379.44 425.54 379.26 425.71 376.89C425.9 373.72 432.36 376.16 436.15 378.46C437.013 375.702 437.398 372.818 437.29 369.93C434.323 369.105 431.275 368.602 428.2 368.43C421.41 367.84 421.74 363.99 426.66 364.08C430.29 364.15 434.88 366.37 437.06 367.53C435.64 358.29 428.6 352.38 422.95 352.15C413.46 351.77 416.88 363.58 416.88 363.58C416.88 363.58 410.44 359.06 404.37 359.18C398.3 359.3 394.47 369.35 400.96 378.38ZM426.31 361.3C426.1 359.97 430.31 359.65 430.56 361.36C430.81 363.27 426.52 362.65 426.31 361.3ZM433.13 375.16C433.04 374.29 434.87 374.16 435.28 375.23C435.56 376 433.2 376 433.13 375.16ZM410.37 376C411.8 376.2 412.62 381.32 410.15 381.22C408.24 381.11 409.12 375.8 410.37 376Z" fill="#0B7D77"/>
<path d="M412.31 381.65C412.55 381.01 412.76 380.37 412.96 379.72C412.78 380.37 412.61 381.03 412.49 381.72C412.486 381.732 412.479 381.743 412.47 381.752C412.461 381.761 412.451 381.768 412.439 381.774C412.428 381.779 412.415 381.781 412.402 381.782C412.39 381.782 412.377 381.78 412.365 381.775C412.353 381.771 412.343 381.764 412.333 381.755C412.324 381.746 412.317 381.736 412.312 381.724C412.307 381.712 412.304 381.7 412.304 381.687C412.303 381.675 412.306 381.662 412.31 381.65V381.65Z" fill="#263238"/>
<path d="M414.821 373.43C415.261 372.12 415.761 370.82 416.271 369.53C416.541 368.85 416.831 368.16 417.131 367.53C417.341 366.929 417.623 366.355 417.971 365.82C417.679 365.283 417.422 364.729 417.201 364.16C417.201 364.11 417.251 364.06 417.291 364.11C417.993 365.008 418.613 365.969 419.141 366.98C419.411 367.42 419.661 367.88 419.911 368.33C420.449 368.378 420.983 368.461 421.511 368.58C422.081 368.68 422.651 368.8 423.211 368.93C423.771 369.06 424.341 369.18 424.901 369.32C425.461 369.46 426.021 369.64 426.591 369.72C426.721 369.72 426.661 369.95 426.541 369.9C425.961 369.697 425.366 369.543 424.761 369.44C424.221 369.32 423.671 369.22 423.121 369.15C422.571 369.08 422.021 369 421.461 368.94L420.211 368.84C420.431 369.24 420.671 369.63 420.891 370.03C420.92 370.099 420.953 370.165 420.991 370.23C421.449 370.224 421.906 370.278 422.351 370.39C422.841 370.48 423.351 370.57 423.821 370.68C424.821 370.9 425.821 371.13 426.771 371.4C428.831 371.98 430.851 372.63 432.881 373.29C432.991 373.29 432.881 373.5 432.811 373.46C430.795 372.787 428.745 372.22 426.671 371.76C425.671 371.54 424.731 371.32 423.761 371.12L422.291 370.81C421.909 370.748 421.531 370.661 421.161 370.55C422.161 372.48 423.161 374.45 424.091 376.45C426.091 380.8 427.721 385.29 429.411 389.76C429.411 389.87 429.281 389.94 429.241 389.83C427.609 385.39 425.72 381.049 423.581 376.83C423.201 376.06 422.811 375.3 422.431 374.52C422.431 374.68 422.361 374.84 422.331 375C422.231 375.52 422.141 376.05 422.051 376.58C421.871 377.64 421.691 378.7 421.531 379.76C421.079 381.933 420.824 384.142 420.771 386.36C420.771 386.5 420.561 386.49 420.581 386.36C420.751 385.31 420.751 384.21 420.821 383.15C420.891 382.09 420.971 380.92 421.101 379.82C421.231 378.72 421.361 377.69 421.541 376.63C421.631 376.1 421.721 375.57 421.821 375.04C421.845 374.642 421.943 374.252 422.111 373.89C421.561 372.78 421.011 371.66 420.441 370.55C419.871 369.44 419.381 368.46 418.841 367.43C418.611 366.99 418.361 366.55 418.121 366.1C417.946 366.647 417.736 367.181 417.491 367.7L416.761 369.5C416.211 370.82 415.711 372.16 415.201 373.5C414.481 375.4 413.691 377.34 413.101 379.32C413.681 377.32 414.171 375.34 414.821 373.43Z" fill="#263238"/>
<path d="M412.96 379.72C412.96 379.56 413.05 379.41 413.1 379.26C413.05 379.41 413.01 379.56 412.96 379.72Z" fill="#263238"/>
<path d="M372.09 393.76L372.76 407.89L374.47 444.31H412.05L413.77 407.89L414.43 393.76H372.09Z" fill="#37474F"/>
<path d="M372.09 393.76L372.76 407.89H413.77L414.43 393.76H372.09Z" fill="#263238"/>
<path d="M369.411 399.47H417.101V388.04H369.411V399.47Z" fill="#37474F"/>
<path d="M409.01 444.311H402.41V450.291H409.01V444.311Z" fill="#37474F"/>
<path d="M409.01 444.311H402.41V447.301H409.01V444.311Z" fill="#263238"/>
<path d="M384.111 444.311H377.521V450.291H384.111V444.311Z" fill="#37474F"/>
<path d="M384.111 444.311H377.521V447.301H384.111V444.311Z" fill="#263238"/>
<path d="M41 450.441L93.34 450.201L145.68 450.111L250.37 449.941L355.06 450.111L407.4 450.201L459.74 450.441L407.4 450.691L355.06 450.771L250.37 450.941L145.68 450.771L93.34 450.691L41 450.441Z" fill="#263238"/>
<path d="M250.6 320.09C249.5 320.09 248.35 320.09 247.2 320.02V319.27C248.36 319.32 249.53 319.34 250.64 319.34H251.18V320.09H250.57H250.6ZM256.23 319.91L256.18 319.16C257.51 319.07 258.84 318.95 260.18 318.79L260.27 319.54C258.92 319.69 257.57 319.82 256.23 319.91V319.91ZM242.23 319.701C240.93 319.581 239.58 319.44 238.23 319.27L238.32 318.52C239.66 318.69 240.99 318.841 242.32 318.951L242.23 319.701ZM265.23 318.76L265.08 318.03C266.39 317.77 267.69 317.48 268.96 317.15L269.15 317.88C267.84 318.21 266.52 318.51 265.2 318.76H265.23ZM233.23 318.52C231.92 318.29 230.59 318.04 229.29 317.77L229.44 317.04C230.74 317.31 232.06 317.56 233.36 317.78L233.23 318.52ZM224.37 316.65C223.06 316.33 221.76 315.98 220.49 315.65L220.69 314.93C221.95 315.29 223.25 315.64 224.55 315.93L224.37 316.65ZM273.9 316.41L273.65 315.701C274.91 315.261 276.15 314.77 277.35 314.25L277.65 314.93C276.47 315.46 275.21 316 273.93 316.41H273.9ZM215.69 314.13C213.3 313.34 211.91 312.77 211.89 312.77L212.18 312.07C212.18 312.07 213.56 312.631 215.93 313.421L215.69 314.13ZM282.16 312.701L281.79 312.04C282.94 311.4 284.08 310.7 285.18 309.97L285.59 310.6C284.51 311.34 283.37 312.001 282.19 312.701H282.16ZM289.66 307.65L289.2 307.06C290.26 306.24 291.3 305.4 292.29 304.55L292.78 305.12C291.81 306 290.76 306.83 289.69 307.65H289.66ZM296.48 301.73L295.96 301.19C296.9 300.26 297.83 299.3 298.72 298.33L299.27 298.84C298.37 299.82 297.47 300.79 296.51 301.73H296.48ZM302.53 295.01L301.94 294.55C302.77 293.55 303.57 292.43 304.32 291.36L304.94 291.79C304.2 292.88 303.37 294 302.56 295L302.53 295.01ZM307.67 287.58L307.03 287.19C307.72 286.05 308.37 284.88 308.98 283.72L309.64 284.07C309.06 285.24 308.37 286.42 307.7 287.58H307.67ZM311.8 279.53L311.12 279.23C311.63 278.04 312.12 276.79 312.59 275.54L313.3 275.8C312.86 277.07 312.37 278.32 311.83 279.53H311.8ZM314.85 271.02L314.13 270.81C314.5 269.55 314.83 268.25 315.13 266.96L315.86 267.13C315.59 268.43 315.25 269.74 314.88 271L314.85 271.02ZM316.79 262.19L316.05 262.07C316.25 260.77 316.41 259.44 316.54 258.13L317.28 258.2C317.19 259.53 317.02 260.87 316.82 262.19H316.79ZM317.59 253.19H316.84C316.84 252.61 316.84 252.03 316.84 251.45C316.84 250.7 316.84 249.95 316.84 249.21H317.59C317.59 249.96 317.59 250.71 317.59 251.47C317.64 252 317.63 252.59 317.62 253.18L317.59 253.19ZM321.36 252.32C320.82 252.32 320.29 252.32 319.75 252.32V251.57C321.065 251.645 322.384 251.645 323.7 251.57L323.75 252.32C323.02 252.28 322.2 252.31 321.37 252.31L321.36 252.32ZM314.74 251.72C313.414 251.48 312.102 251.17 310.81 250.79L311.02 250.07C312.286 250.442 313.571 250.746 314.87 250.98L314.74 251.72ZM328.79 251.55L328.64 250.82C329.931 250.562 331.207 250.228 332.46 249.82L332.69 250.53C331.42 250.942 330.128 251.279 328.82 251.54L328.79 251.55ZM306.11 249C304.882 248.445 303.687 247.821 302.53 247.13L302.91 246.49C304.045 247.162 305.217 247.77 306.42 248.31L306.11 249ZM337.38 248.53L337.05 247.86C338.226 247.258 339.368 246.591 340.47 245.86L340.88 246.48C339.75 247.237 338.578 247.928 337.37 248.55L337.38 248.53ZM298.38 244.26C297.72 243.73 297.06 243.16 296.43 242.57C296.07 242.23 295.72 241.89 295.43 241.57L295.96 241.04C296.29 241.38 296.63 241.71 296.96 242.04C297.58 242.62 298.22 243.17 298.87 243.7L298.38 244.26ZM316.52 244.2C316.37 242.87 316.18 241.55 315.96 240.27L316.7 240.14C316.93 241.44 317.12 242.78 317.26 244.14L316.52 244.2ZM344.9 243.43L344.4 242.87C345.391 241.997 346.333 241.069 347.22 240.09L347.77 240.6C346.863 241.603 345.902 242.555 344.89 243.45L344.9 243.43ZM292.21 237.6C291.461 236.475 290.843 235.267 290.37 234L291.07 233.75C291.52 234.974 292.103 236.145 292.81 237.24L292.21 237.6ZM350.92 236.6L350.3 236.17C350.87 235.37 351.41 234.52 351.92 233.67C352.09 233.39 352.26 233.11 352.42 232.82L353.07 233.19C352.9 233.48 352.74 233.77 352.57 234.05C352.04 235 351.48 235.85 350.91 236.67L350.92 236.6ZM314.92 235.37C314.56 234.05 314.16 232.78 313.72 231.59L314.43 231.33C314.87 232.54 315.28 233.83 315.64 235.17L314.92 235.37ZM290.3 229H289.55C289.596 227.625 289.894 226.269 290.43 225L291.12 225.29C290.628 226.468 290.35 227.725 290.3 229ZM355.3 228.8L354.62 228.51C355.12 227.33 355.62 226.08 356.05 224.81L356.76 225.05C356.3 226.3 355.81 227.56 355.29 228.75L355.3 228.8ZM311.67 227.2C311.052 226.046 310.329 224.952 309.51 223.93L310.09 223.45C310.939 224.509 311.688 225.644 312.33 226.84L311.67 227.2ZM294 221.45L293.54 220.87C294.621 219.999 295.865 219.353 297.2 218.97L297.4 219.69C296.162 220.031 295.003 220.612 293.99 221.4L294 221.45ZM305.8 220.83C304.673 220.195 303.45 219.746 302.18 219.5L302.32 218.76C303.67 219.027 304.97 219.506 306.17 220.18L305.8 220.83ZM358.22 220.24L357.49 220.05C357.81 218.86 358.12 217.59 358.44 216.18L359.17 216.34C358.84 217.72 358.53 219 358.21 220.19L358.22 220.24ZM360.22 211.44L359.48 211.29L360.25 207.37L360.98 207.51L360.22 211.44ZM362 202.63L361.27 202.46C361.59 201.02 361.91 199.74 362.27 198.56L362.99 198.76C362.6 199.88 362.28 201.15 361.96 202.58L362 202.63ZM364.5 194.04L363.8 193.78C364.246 192.49 364.771 191.228 365.37 190L366.04 190.34C365.446 191.531 364.919 192.752 364.46 194L364.5 194.04ZM368.67 186.23L368.06 185.78C368.858 184.695 369.73 183.666 370.67 182.7L371.2 183.22C370.278 184.148 369.419 185.137 368.63 186.18L368.67 186.23ZM374.92 180L374.47 179.39C375.559 178.6 376.691 177.869 377.86 177.2L378.23 177.86C377.07 178.505 375.951 179.219 374.88 180H374.92ZM382.67 175.69L382.37 175C383.42 174.56 384.53 174.14 385.68 173.75L385.92 174.46C384.75 174.79 383.66 175.2 382.63 175.64L382.67 175.69Z" fill="#263238"/>
<path d="M383.58 158.441L375.93 179.461L392 166.911L453.42 144.641L383.58 158.441Z" fill="#0B7D77"/>
<path opacity="0.1" d="M383.58 158.441L375.93 179.461L392 166.911L453.42 144.641L383.58 158.441Z" fill="black"/>
<path d="M394.06 171.811L375.93 179.461L392 166.911L394.06 171.811Z" fill="#263238"/>
<path d="M392 166.911L453.42 144.641L403.04 193.801L392 166.911Z" fill="#0B7D77"/>
<path d="M383.58 158.44L358.06 141.96L453.42 144.64L383.58 158.44Z" fill="#0B7D77"/>
<path d="M83.7904 450.281L250.37 451.001C290.86 419.211 295.04 372.101 266.15 343.551C248.68 326.271 226.48 329.751 205.37 327.001H205.31C197.95 326.001 190.73 324.331 183.87 320.711C162.1 309.231 149.87 282.141 131.52 259.351C129.24 256.501 126.85 253.721 124.35 251.041C109.29 234.961 79.3504 234.441 63.6404 257.041C23.7804 314.471 42.0204 400.001 83.7904 450.281Z" fill="#0B7D77"/>
<path opacity="0.1" d="M80.0902 318.851C84.4502 387.201 163.39 412.711 212.68 392.241C255.55 374.431 241.52 333.801 205.37 327.001H205.31C197.95 326.001 190.73 324.331 183.87 320.711C162.1 309.231 149.87 282.141 131.52 259.351C104.21 245.171 76.8902 268.811 80.0902 318.851Z" fill="black"/>
<path d="M236.921 461.001C234.351 460.061 176.291 413.661 175.201 410.491C174.781 409.291 181.041 400.491 188.911 389.961C190.611 387.701 192.381 385.371 194.191 383.021C205.921 367.731 218.731 351.791 218.731 351.791L257.661 382.711L232.051 413.101L226.431 419.771C226.431 419.771 240.711 447.481 241.541 451.081C242.371 454.681 239.491 462.001 236.921 461.001Z" fill="#D3766A"/>
<path d="M236.921 461.001C234.351 460.001 176.301 413.661 175.201 410.491C174.851 409.491 178.931 403.491 184.711 395.621C193.151 405.711 222.581 435.751 230.621 439.771C235.721 442.321 234.711 437.311 232.801 432.331C236.721 440.161 241.091 449.131 241.541 451.071C242.371 454.721 239.491 462.001 236.921 461.001Z" fill="#263238"/>
<path d="M296.97 323.291C294.31 343.511 244.47 401.891 238.71 408.591L237.37 410.111L196.17 378.431L196.64 377.821L232.95 330.281C232.95 330.281 172.95 365.281 142.88 349.411C129.37 342.271 119.37 329.581 119.37 329.581L158.57 308.681C158.57 308.681 169.42 312.191 176.35 311.181C200.25 307.681 253.8 287.351 266.51 287.861C282.92 288.531 299.42 304.731 296.97 323.291Z" fill="#37474F"/>
<path d="M245.991 312.611C244.641 314.13 243.388 315.733 242.241 317.411C240.961 319.101 239.651 320.761 238.371 322.411V322.461C238.601 321.961 238.821 321.461 239.061 320.981C239.871 319.301 240.521 317.571 241.471 315.981C241.477 315.961 241.476 315.941 241.469 315.922C241.462 315.903 241.448 315.887 241.431 315.877C241.414 315.866 241.393 315.862 241.373 315.865C241.353 315.867 241.335 315.876 241.321 315.891C240.321 317.481 239.201 318.991 238.321 320.661C237.921 321.451 237.551 322.251 237.201 323.061C237.011 323.501 236.811 323.951 236.641 324.401C236.547 324.612 236.467 324.829 236.401 325.051C235.831 325.831 235.261 326.611 234.711 327.411C233.491 329.181 232.411 331.051 231.171 332.811C231.101 332.901 231.251 332.991 231.321 332.901C232.571 331.251 233.981 329.711 235.251 328.071C236.521 326.431 237.781 324.691 238.991 322.961C240.201 321.231 241.331 319.571 242.521 317.881C243.815 316.218 245.007 314.478 246.091 312.671C246.121 312.631 246.041 312.561 245.991 312.611Z" fill="#263238"/>
<path d="M112.861 254.291C112.311 266.351 109.631 280.741 114.741 292.161C118.741 301.101 127.191 307.161 135.911 311.001C155.111 319.491 181.981 320.601 195.431 301.541C200.801 293.931 201.721 278.071 192.811 272.271C188.241 269.271 182.811 268.611 177.631 267.211C174.406 266.46 171.392 264.991 168.814 262.913C166.235 260.836 164.16 258.203 162.741 255.211C156.571 242.841 157.801 233.791 156.631 220.411C156.605 219.081 156.301 217.772 155.74 216.567C155.178 215.361 154.371 214.286 153.371 213.411C151.173 211.248 148.428 209.724 145.431 209.001C142.874 207.886 140.08 207.426 137.301 207.661C131.381 208.281 125.691 213.741 121.101 217.141C116.511 220.541 114.331 224.141 113.971 230.011C113.481 238.081 113.231 246.191 112.861 254.291Z" fill="#263238"/>
<path d="M111.371 260.001C112.591 249.001 114.011 238.001 115.371 227.001C115.371 226.941 115.481 226.941 115.471 227.001C114.621 236.081 113.891 245.171 112.921 254.241C111.921 263.141 110.381 272.241 110.211 281.171C109.831 301.261 130.491 309.431 147.571 308.451C148.351 308.451 148.331 309.651 147.571 309.671C132.571 310.061 114.621 304.931 110.081 288.601C107.561 279.641 110.371 269.001 111.371 260.001Z" fill="#263238"/>
<path d="M155.66 219.351C155.66 219.141 155.98 219.151 155.99 219.351C156.49 230.351 155.99 243.351 162.33 252.941C165.429 257.68 169.892 261.369 175.13 263.521C179.28 265.211 183.68 265.361 188.01 266.211C205.01 269.541 205.14 292.441 192.81 301.371C192.55 301.561 192.22 301.121 192.47 300.921C201.15 294.011 204.01 281.441 196.94 272.221C191.26 264.821 180.36 267.221 172.62 263.221C156.58 254.901 155.37 235.391 155.66 219.351Z" fill="#263238"/>
<path d="M138.3 267.331C145.64 277.871 170.71 306.831 188.11 310.791C197.7 312.981 244.02 319.461 250.37 313.681C257.81 306.911 254.37 281.411 248.45 281.181C230.4 280.471 197.01 284.001 188.67 282.181C184.9 281.341 164.9 268.441 143.54 258.121C135.46 254.201 133.56 260.531 138.3 267.331Z" fill="#D3766A"/>
<path d="M156.22 292.591L163.22 266.801C163.22 266.801 151.47 260.281 144.46 257.591C135.18 254.031 131.68 256.591 137.37 267.411C141.19 274.621 156.22 292.591 156.22 292.591Z" fill="#EBEBEB"/>
<path d="M154.49 289.311C155.25 285.491 156.06 281.681 157.04 277.911C157.53 276.031 158.04 274.151 158.6 272.291C159.16 270.431 159.89 268.611 160.4 266.741C160.4 266.641 160.6 266.691 160.56 266.741C159.95 268.581 159.56 270.521 159.06 272.391C158.56 274.261 158.06 276.141 157.54 278.021C156.54 281.781 155.54 285.541 154.64 289.311C154.62 289.471 154.47 289.421 154.49 289.311Z" fill="#263238"/>
<path d="M162.131 270.861L156.221 292.601C156.221 292.601 141.221 274.601 137.381 267.411C135.631 264.081 134.741 261.531 134.641 259.711L162.131 270.861Z" fill="#263238"/>
<path d="M100.57 338.711C102.88 339.461 168.41 320.491 168.41 320.491L160.67 297.741C160.67 297.741 164.5 290.421 162.67 283.381C160.3 273.981 142.89 258.521 141.53 257.611C136.09 254.001 130.94 254.001 126.37 256.451C107.44 266.521 100.57 338.711 100.57 338.711Z" fill="#EBEBEB"/>
<path d="M150.57 265.801C152.26 267.801 154.07 269.641 155.81 271.561C155 270.131 154.19 268.691 153.33 267.281C153.33 267.281 153.33 267.221 153.33 267.281C154.605 268.933 155.717 270.704 156.65 272.571C157.959 274.026 159.165 275.569 160.26 277.191C161.618 279.116 162.633 281.26 163.26 283.531C163.803 285.826 163.872 288.208 163.46 290.531C162.96 293.205 162.22 295.829 161.25 298.371C161.13 298.711 160.65 298.491 160.74 298.161C161.97 293.721 163.37 289.031 162.38 284.391C161.39 279.751 158.53 275.931 155.74 272.281C154.099 270.051 152.319 267.927 150.41 265.921C150.37 265.831 150.49 265.721 150.57 265.801Z" fill="#263238"/>
<path d="M139.65 296.101C142.468 295.558 145.323 295.223 148.19 295.101C149.61 295.101 151.03 295.101 152.45 295.171C153.16 295.171 153.87 295.171 154.58 295.171C155.322 295.194 156.064 295.127 156.79 294.971C156.85 294.971 156.88 295.051 156.79 295.071C156.136 295.29 155.467 295.467 154.79 295.601C154.128 295.704 153.46 295.765 152.79 295.781C151.34 295.781 149.9 295.781 148.45 295.841C145.54 295.901 142.62 295.961 139.72 296.241C139.54 296.351 139.52 296.121 139.65 296.101Z" fill="#263238"/>
<path d="M133.54 300.441C135.737 299.57 137.98 298.823 140.26 298.201C141.41 297.891 142.56 297.661 143.72 297.451L145.4 297.181C146.01 297.091 146.64 297.081 147.25 296.981C147.32 296.981 147.35 297.071 147.25 297.081C146.67 297.191 146.11 297.401 145.55 297.541L143.83 297.971C142.69 298.261 141.55 298.571 140.4 298.851C138.11 299.411 135.83 299.991 133.56 300.631C133.539 300.627 133.52 300.616 133.506 300.6C133.491 300.585 133.482 300.565 133.48 300.543C133.478 300.522 133.482 300.501 133.493 300.482C133.504 300.464 133.52 300.449 133.54 300.441V300.441Z" fill="#263238"/>
<path d="M130.48 257.731C130.74 258.921 136.29 266.731 141.71 266.511C143.47 266.451 143.57 256.811 143.57 256.811L143.74 256.101L146.12 246.151L132.82 237.441C132.82 237.441 130.37 257.221 130.48 257.731Z" fill="#D3766A"/>
<path d="M146.12 246.141L143.74 256.141C141.06 255.09 138.631 253.489 136.609 251.441C134.587 249.393 133.017 246.943 132 244.251C132.41 240.821 132.76 237.971 132.81 237.551C132.812 237.531 132.812 237.511 132.81 237.491L134.5 238.491L146.12 246.141Z" fill="#263238"/>
<path d="M159.011 227.821C163.441 245.221 153.521 249.821 149.771 250.821C146.361 251.681 134.661 254.191 128.461 237.351C122.261 220.511 128.951 212.951 136.631 210.561C144.311 208.171 154.591 210.431 159.011 227.821Z" fill="#D3766A"/>
<path d="M155.671 225.661C155.251 225.661 154.851 225.661 154.431 225.661C153.991 225.709 153.548 225.611 153.171 225.381C153.067 225.285 152.998 225.157 152.975 225.018C152.951 224.879 152.974 224.735 153.041 224.611C153.204 224.383 153.426 224.203 153.683 224.09C153.94 223.978 154.222 223.936 154.501 223.971C155.081 223.951 155.647 224.147 156.091 224.521C156.177 224.613 156.236 224.727 156.261 224.85C156.286 224.974 156.276 225.102 156.232 225.22C156.189 225.338 156.113 225.442 156.014 225.52C155.915 225.598 155.796 225.647 155.671 225.661V225.661Z" fill="#263238"/>
<path d="M143.971 229.321C144.381 229.191 144.731 229.011 145.121 228.851C145.545 228.737 145.924 228.492 146.201 228.151C146.264 228.024 146.285 227.881 146.259 227.742C146.234 227.603 146.164 227.476 146.061 227.381C145.826 227.224 145.554 227.134 145.273 227.118C144.991 227.102 144.711 227.162 144.461 227.291C143.912 227.474 143.452 227.856 143.171 228.361C143.11 228.479 143.086 228.613 143.101 228.745C143.116 228.877 143.169 229.002 143.254 229.104C143.339 229.206 143.453 229.281 143.58 229.32C143.707 229.358 143.843 229.359 143.971 229.321V229.321Z" fill="#263238"/>
<path d="M146.95 231.511C146.95 231.511 146.87 231.581 146.88 231.631C147.17 232.821 147.29 234.231 146.29 234.851C146.29 234.851 146.29 234.931 146.29 234.911C147.6 234.461 147.37 232.591 146.95 231.511Z" fill="#263238"/>
<path d="M145.63 230.481C143.63 230.731 144.31 234.621 146.13 234.391C147.95 234.161 147.27 230.271 145.63 230.481Z" fill="#263238"/>
<path d="M144.9 230.811C144.59 231.081 144.32 231.531 143.9 231.641C143.48 231.751 143.01 231.411 142.63 231.071C142.63 231.071 142.57 231.071 142.57 231.131C142.69 231.881 143.1 232.591 143.92 232.571C144.74 232.551 145.08 231.811 145.14 231.031C145.17 230.881 145.02 230.701 144.9 230.811Z" fill="#263238"/>
<path d="M153.871 230.001C153.871 230.001 153.971 230.051 153.981 230.101C154.131 231.311 154.511 232.671 155.661 232.901V232.971C154.301 232.941 153.821 231.131 153.871 230.001Z" fill="#263238"/>
<path d="M154.75 228.521C156.67 228.071 157.43 231.941 155.65 232.361C153.87 232.781 153.14 228.901 154.75 228.521Z" fill="#263238"/>
<path d="M155.61 228.621C155.95 228.761 156.33 229.081 156.7 229.031C157.07 228.981 157.36 228.491 157.55 228.031C157.55 228.031 157.61 228.031 157.62 228.031C157.78 228.761 157.69 229.581 157.01 229.861C156.33 230.141 155.78 229.581 155.46 228.861C155.37 228.791 155.47 228.561 155.61 228.621Z" fill="#263238"/>
<path d="M148.561 242.211C148.881 242.471 149.201 242.831 149.651 242.831C150.103 242.78 150.539 242.634 150.931 242.401C150.931 242.401 151.011 242.401 150.991 242.461C150.838 242.716 150.618 242.925 150.356 243.066C150.094 243.207 149.798 243.274 149.501 243.261C149.255 243.209 149.029 243.087 148.851 242.91C148.674 242.732 148.552 242.507 148.501 242.261C148.421 242.201 148.511 242.171 148.561 242.211Z" fill="#263238"/>
<path d="M153.001 236.691C153.258 237.553 153.471 238.427 153.641 239.311C153.641 239.391 153.451 239.461 153.171 239.521C152.46 239.763 151.697 239.804 150.965 239.639C150.233 239.475 149.56 239.113 149.021 238.591C149.006 238.575 148.997 238.555 148.996 238.533C148.995 238.512 149.002 238.491 149.015 238.474C149.029 238.457 149.048 238.445 149.069 238.441C149.09 238.437 149.112 238.44 149.131 238.451C150.324 239.036 151.676 239.215 152.981 238.961C152.981 238.721 151.981 235.961 152.131 235.961C152.801 235.929 153.474 235.983 154.131 236.121C153.131 232.401 151.601 228.871 150.691 225.121C150.688 225.096 150.694 225.07 150.707 225.048C150.72 225.027 150.74 225.009 150.763 224.999C150.786 224.989 150.812 224.987 150.837 224.993C150.862 224.998 150.884 225.012 150.901 225.031C152.691 228.76 154.101 232.66 155.111 236.671C155.211 237.171 153.371 236.791 153.001 236.691Z" fill="#263238"/>
<path d="M153.08 239.191C152.735 239.98 152.195 240.668 151.51 241.191C151.129 241.467 150.67 241.614 150.2 241.611C149.2 241.611 148.93 240.721 148.92 239.921C148.919 239.497 148.966 239.074 149.06 238.661C150.31 239.26 151.718 239.446 153.08 239.191V239.191Z" fill="#263238"/>
<path d="M151.51 241.181C151.129 241.457 150.67 241.605 150.2 241.601C149.2 241.601 148.93 240.711 148.92 239.911C149.431 239.803 149.964 239.869 150.434 240.099C150.903 240.33 151.282 240.71 151.51 241.181Z" fill="#FF9CBD"/>
<path d="M129.701 238.611C131.581 237.991 135.131 231.431 132.821 222.201C132.821 222.201 134.321 230.631 134.021 232.001C133.721 233.371 136.021 228.321 134.251 220.851C137.028 221.896 139.941 222.539 142.901 222.761C146.661 222.761 148.801 222.201 148.981 221.881C149.161 221.561 143.581 221.311 141.761 220.081C141.761 220.081 152.221 221.911 156.601 221.081C157.111 220.991 154.971 210.631 147.181 208.081C139.391 205.531 130.131 213.011 128.041 216.501C128.041 216.501 124.841 217.861 122.551 223.731C120.261 229.601 127.691 239.281 129.701 238.611Z" fill="#263238"/>
<path d="M131.56 237.941C131.56 237.941 126.79 233.051 124.56 234.841C122.33 236.631 126.5 244.161 129.62 244.771C130.015 244.882 130.429 244.912 130.836 244.857C131.242 244.803 131.634 244.665 131.985 244.453C132.337 244.242 132.641 243.96 132.879 243.626C133.117 243.292 133.285 242.912 133.37 242.511L131.56 237.941Z" fill="#D3766A"/>
<path d="M125.77 237.001C125.72 237.001 125.72 237.071 125.77 237.081C127.97 237.571 129.37 239.311 130.46 241.171C130.302 240.987 130.107 240.84 129.887 240.738C129.666 240.637 129.427 240.585 129.185 240.585C128.943 240.585 128.703 240.637 128.483 240.738C128.263 240.84 128.068 240.987 127.91 241.171C127.86 241.171 127.91 241.291 127.99 241.271C128.333 241.094 128.723 241.029 129.105 241.084C129.487 241.14 129.842 241.314 130.12 241.581C130.586 242.008 131.005 242.484 131.37 243.001C131.5 243.171 131.81 243.001 131.71 242.811C131.29 240.121 128.64 236.771 125.77 237.001Z" fill="#263238"/>
<path d="M117.01 272.481C111.74 302.371 116.84 324.761 121.91 327.541C135.58 335.001 168.41 319.861 177.67 316.851C181.37 315.641 164.37 287.001 160.53 288.781C151.53 292.941 138.92 300.001 138.41 299.941C137.41 299.841 136.21 292.211 130.99 269.941C126.76 252.001 119.17 260.261 117.01 272.481Z" fill="#D3766A"/>
<path d="M207.51 274.611C208.45 278.371 198.99 279.891 198.99 279.891C200.563 280.456 201.889 281.553 202.74 282.991C204.12 285.591 200.64 288.881 200.64 288.881C202.148 289.804 203.344 291.159 204.07 292.771C205.14 295.391 202.07 299.221 202.07 299.221C202.988 300.833 203.293 302.722 202.93 304.541C201.77 309.361 194.38 311.261 190.04 313.341C185.39 315.571 177.69 316.391 174.2 317.961L159.07 290.241C159.07 290.241 173.69 274.761 182.07 272.361C186.7 271.001 206.08 268.871 207.51 274.611Z" fill="#D3766A"/>
<path d="M198.891 279.811C193.631 279.581 188.321 280.611 183.211 281.661C183.193 281.667 183.178 281.678 183.167 281.694C183.156 281.709 183.15 281.727 183.15 281.746C183.15 281.765 183.156 281.783 183.167 281.798C183.178 281.813 183.193 281.825 183.211 281.831C188.281 280.731 193.771 280.961 198.871 280.061C198.899 280.056 198.924 280.041 198.943 280.02C198.962 279.999 198.974 279.972 198.976 279.943C198.979 279.915 198.971 279.887 198.956 279.863C198.941 279.839 198.918 279.821 198.891 279.811V279.811Z" fill="#263238"/>
<path d="M200.37 288.541C199.17 288.603 197.983 288.822 196.84 289.191C195.61 289.511 194.39 289.851 193.16 290.191C190.72 290.911 188.29 291.681 185.89 292.521C185.78 292.521 185.81 292.731 185.89 292.701C188.32 291.991 190.77 291.321 193.24 290.701C194.47 290.391 195.71 290.101 196.94 289.811C198.13 289.605 199.293 289.27 200.41 288.811C200.427 288.791 200.44 288.768 200.447 288.743C200.454 288.719 200.456 288.692 200.452 288.667C200.448 288.641 200.439 288.617 200.425 288.595C200.411 288.573 200.392 288.555 200.37 288.541V288.541Z" fill="#263238"/>
<path d="M202.01 299.251C200.924 299.32 199.858 299.577 198.86 300.011L195.53 301.011C193.31 301.691 191.09 302.361 188.85 302.961C188.74 302.961 188.77 303.171 188.85 303.141C191.13 302.541 193.42 301.981 195.7 301.361C196.81 301.061 197.93 300.751 199.04 300.431C200.099 300.252 201.116 299.879 202.04 299.331C202.043 299.324 202.045 299.316 202.046 299.308C202.046 299.3 202.045 299.292 202.042 299.285C202.039 299.277 202.035 299.27 202.029 299.265C202.024 299.259 202.017 299.254 202.01 299.251V299.251Z" fill="#263238"/>
<path d="M138.37 299.941C141.95 297.881 145.58 295.941 149.22 293.941L154.73 291.081L157.5 289.691C158.442 289.2 159.414 288.769 160.41 288.401L160.23 288.501C162.67 286.131 165.12 283.781 167.71 281.571C168.99 280.461 170.29 279.361 171.64 278.331C172.971 277.266 174.389 276.316 175.88 275.491C174.475 276.428 173.138 277.464 171.88 278.591C170.6 279.691 169.33 280.811 168.09 281.971C165.63 284.291 163.16 286.611 160.78 288.971L160.72 289.021L160.6 289.071C159.75 289.381 158.77 289.891 157.86 290.311L155.07 291.671L149.54 294.441C145.84 296.331 142.15 298.181 138.37 299.941Z" fill="#263238"/>
<path d="M111.931 298.481L135.821 286.481C135.821 286.481 132.821 273.381 130.151 266.361C126.611 257.081 122.341 256.221 118.151 267.641C115.291 275.291 111.931 298.481 111.931 298.481Z" fill="#EBEBEB"/>
<path d="M113.22 295.001C116.57 293.001 119.95 291.081 123.41 289.301C125.14 288.411 126.89 287.541 128.64 286.701C130.39 285.861 132.24 285.211 133.98 284.351C134.07 284.351 134.14 284.461 134.04 284.501C132.27 285.261 130.57 286.281 128.84 287.151C127.11 288.021 125.36 288.891 123.63 289.781C120.17 291.551 116.7 293.311 113.28 295.161C113.19 295.201 113.13 295.051 113.22 295.001Z" fill="#263238"/>
<path d="M114.79 297.001C113.87 297.561 112.94 298.081 112.02 298.611L111.69 298.801L111.74 298.411C112.1 295.101 112.57 291.821 113.15 288.551C113.73 285.281 114.4 282.021 115.29 278.821C115.09 280.471 114.87 282.111 114.62 283.751C114.37 285.391 114.14 287.031 113.87 288.671C113.35 291.941 112.76 295.211 112.12 298.471L111.84 298.261C112.82 297.881 113.79 297.441 114.79 297.001Z" fill="#263238"/>
<path d="M113.98 282.151C114.025 282.917 114.025 283.685 113.98 284.451C113.957 285.217 113.894 285.981 113.79 286.741C113.663 285.21 113.71 283.671 113.93 282.151H113.98Z" fill="#263238"/>
<path d="M132.911 288.001C133.831 287.443 134.779 286.933 135.751 286.471C135.361 284.931 134.951 283.411 134.581 281.871C134.391 281.101 134.221 280.331 134.061 279.561C133.901 278.791 133.631 277.741 133.471 276.991C133.471 276.871 133.601 276.831 133.631 276.941C133.941 277.941 134.131 278.631 134.391 279.461C134.651 280.291 134.831 280.961 135.031 281.711C135.441 283.301 135.951 284.981 136.291 286.591C135.213 287.167 134.097 287.669 132.951 288.091C132.939 288.094 132.927 288.093 132.917 288.087C132.906 288.082 132.898 288.073 132.893 288.063C132.888 288.052 132.887 288.04 132.891 288.029C132.894 288.017 132.901 288.008 132.911 288.001Z" fill="#263238"/>
<path d="M134.82 278.001C134.98 278.944 134.98 279.908 134.82 280.851C134.647 279.909 134.647 278.943 134.82 278.001Z" fill="#263238"/>
<path d="M228.761 315.391H159.221V318.511H228.761V315.391Z" fill="#C7C7C7"/>
<path d="M174.101 315.391L171.721 318.511H228.761V315.391H174.101Z" fill="#A6A6A6"/>
<path d="M177.08 318.501H244.85L250.49 272.481H182.72L177.08 318.501Z" fill="#C7C7C7"/>
<path d="M209.66 295.491C209.643 296.031 209.735 296.569 209.931 297.073C210.127 297.577 210.424 298.036 210.802 298.422C211.181 298.808 211.634 299.113 212.133 299.319C212.633 299.525 213.17 299.628 213.71 299.621C214.811 299.616 215.866 299.181 216.65 298.41C217.435 297.638 217.887 296.591 217.91 295.491C217.926 294.956 217.835 294.422 217.641 293.923C217.447 293.424 217.155 292.969 216.782 292.584C216.409 292.2 215.963 291.895 215.469 291.686C214.976 291.478 214.446 291.371 213.91 291.371C212.802 291.36 211.735 291.787 210.939 292.558C210.143 293.329 209.684 294.383 209.66 295.491V295.491Z" fill="white"/>
<path d="M249.94 276.931C252.49 280.871 258.8 285.481 259.67 288.861C259.916 289.687 259.888 290.57 259.59 291.379C259.293 292.189 258.742 292.88 258.02 293.351C258.02 293.351 261.67 294.611 261.95 297.811C262.1 299.451 259.59 301.131 259.59 301.131C259.59 301.131 262.48 302.261 262.59 305.131C262.65 307.411 260.13 308.751 260.13 308.751C260.13 308.751 262.39 311.131 261.71 313.471C260.32 318.221 240.92 320.781 236.98 314.031C235.14 310.891 239.92 310.521 239.92 310.521C239.92 310.521 232.92 309.391 232.29 305.401C231.66 301.411 237.89 301.311 237.89 301.311C237.89 301.311 231.13 300.161 230.89 295.961C230.64 291.591 236.89 292.561 236.89 292.561C236.89 292.561 232.19 290.201 232.75 286.941C233.66 281.571 244.75 287.281 248.86 285.711L249.94 276.931Z" fill="#D3766A"/>
<path d="M259.73 309.001C259.743 309.001 259.756 309.006 259.765 309.016C259.775 309.025 259.78 309.038 259.78 309.051C259.78 309.064 259.775 309.077 259.765 309.086C259.756 309.096 259.743 309.101 259.73 309.101C253.319 311.617 246.295 312.123 239.59 310.551C239.38 310.491 239.37 310.131 239.59 310.141C246.323 310.744 253.108 310.36 259.73 309.001V309.001Z" fill="#263238"/>
<path d="M259.69 301.161C259.77 301.161 259.79 301.261 259.69 301.291C253.31 303.731 244.82 304.291 237.62 301.511C237.37 301.411 237.25 301.081 237.54 301.171C242.5 302.681 253.51 302.521 259.69 301.161Z" fill="#263238"/>
<path d="M236.37 292.171C243.37 294.611 250.47 294.561 257.74 293.461C257.83 293.461 257.84 293.581 257.74 293.621C254.33 295.121 249.62 295.341 245.94 295.201C242.526 295.138 239.188 294.179 236.26 292.421C236.19 292.351 236.24 292.121 236.37 292.171Z" fill="#263238"/>
<path d="M387.42 408.451C386.47 411.021 339.89 468.931 336.72 470.011C335.52 470.431 326.72 464.141 316.23 456.231C313.98 454.521 311.66 452.751 309.31 450.931C294.06 439.151 278.16 426.291 278.16 426.291L309.16 387.471L339.46 413.171L346.11 418.811C346.11 418.811 373.86 404.621 377.47 403.811C381.08 403.001 388.37 405.891 387.42 408.451Z" fill="#D3766A"/>
<path d="M387.43 408.461C386.43 411.021 339.89 468.931 336.72 470.021C335.67 470.391 328.79 465.621 320.08 459.131C328.97 452.661 362.71 422.271 367.24 414.041C369.62 409.711 366.14 409.741 361.88 410.941C368.88 407.511 375.83 404.191 377.52 403.801C381.12 403.001 388.37 405.891 387.43 408.461Z" fill="#263238"/>
<path d="M337.88 407.311L305.57 450.911L196.57 375.251L186.02 368.001C186.02 368.001 183.02 370.001 178.56 372.481C172.34 375.921 163.22 380.281 155.15 381.481C141.61 383.481 119.01 383.271 107.6 368.011C97.9902 355.171 103.21 338.411 103.21 338.411L118.07 332.001C118.07 332.001 153.24 302.701 176.07 301.821C185.74 301.431 199.83 308.821 212.88 316.431C225.93 324.041 337.88 407.311 337.88 407.311Z" fill="#37474F"/>
<path d="M186.02 368.001C186.02 368.001 183.02 370.001 178.56 372.481C170.64 363.001 153.87 345.771 153.36 345.161L186.02 368.001Z" fill="#263238"/>
<path d="M130.961 322.151C128.861 323.611 126.821 325.151 124.751 326.661C122.681 328.171 120.601 329.521 118.661 331.131C116.721 332.741 114.821 334.521 112.961 336.281C112.071 337.131 111.181 337.991 110.311 338.871C109.396 339.719 108.55 340.638 107.781 341.621C107.711 341.711 107.851 341.821 107.931 341.771C108.919 341.065 109.861 340.297 110.751 339.471C111.751 338.641 112.751 337.801 113.691 336.971C115.581 335.361 117.511 333.801 119.391 332.191C121.271 330.581 123.001 328.841 124.861 327.191C126.721 325.541 128.941 323.831 131.001 322.191C131.041 322.191 131.001 322.121 130.961 322.151Z" fill="#263238"/>
<path d="M330.3 405.751C328.2 408.011 326.3 410.451 324.3 412.841C322.3 415.231 320.39 417.651 318.45 420.061C314.58 424.911 310.67 429.721 306.86 434.621C304.77 437.311 302.7 440.021 300.76 442.811C300.67 442.941 300.87 443.081 300.97 442.971C305.14 438.381 308.97 433.491 312.82 428.661C316.67 423.831 320.55 419.001 324.37 414.051C326.45 411.371 328.6 408.701 330.51 405.891C330.56 405.781 330.37 405.651 330.3 405.751Z" fill="#263238"/>
<path d="M240.811 406.201C235.391 401.921 229.761 397.881 224.141 393.871C218.521 389.861 212.951 385.871 207.271 382.011C205.641 380.901 203.991 379.811 202.351 378.721C200.711 377.631 199.001 376.621 197.401 375.491C197.301 375.431 197.221 375.581 197.311 375.651C198.791 376.711 200.181 377.891 201.631 378.991C203.081 380.091 204.391 381.101 205.781 382.131C208.511 384.131 211.261 386.131 214.011 388.131C219.584 392.131 225.201 396.098 230.861 400.031C234.081 402.231 237.281 404.451 240.571 406.551C240.771 406.651 241.001 406.341 240.811 406.201Z" fill="#263238"/>
<path d="M275.68 361.211C270.68 357.061 265.3 353.321 260.04 349.481C254.78 345.641 249.44 341.671 244.1 337.821C238.76 333.971 233.52 330.161 228.22 326.341C223.09 322.631 217.98 318.861 212.56 315.571C209.56 313.781 206.56 312.111 203.43 310.571C200.399 309.018 197.241 307.727 193.99 306.711C193.968 306.701 193.942 306.701 193.92 306.711C193.897 306.72 193.879 306.738 193.87 306.761C193.861 306.783 193.861 306.808 193.87 306.831C193.88 306.853 193.898 306.871 193.92 306.881C196.6 308.371 199.4 309.621 202.11 311.061C204.82 312.501 207.41 313.981 210 315.551C215.38 318.821 220.46 322.551 225.56 326.191C236.16 333.811 246.74 341.471 257.42 348.991C263.42 353.191 269.24 357.631 275.42 361.501C275.64 361.661 275.86 361.361 275.68 361.211Z" fill="#263238"/>
<path d="M261.044 255.977C263.832 238.972 252.307 222.928 235.303 220.14C218.298 217.353 202.254 228.878 199.466 245.882C196.679 262.886 208.204 278.931 225.208 281.718C242.212 284.506 258.257 272.981 261.044 255.977Z" fill="#0B7D77"/>
<path d="M248.421 271.069H212.061V240.309L230.241 228.769L248.421 240.309V271.069Z" fill="#A6A6A6"/>
<path d="M246.37 270.759H214.12V230.349H238.07L246.37 238.249V270.759Z" fill="white"/>
<path d="M238.07 230.349L246.37 238.249H238.07V230.349Z" fill="#EBEBEB"/>
<path d="M217.27 238.369H235.2V237.309H217.27V238.369Z" fill="#DBDBDB"/>
<path d="M217.27 241.049H235.2V239.989H217.27V241.049Z" fill="#DBDBDB"/>
<path d="M217.27 243.729H235.2V242.669H217.27V243.729Z" fill="#DBDBDB"/>
<path d="M217.26 246.419H243.54V245.359H217.26V246.419Z" fill="#DBDBDB"/>
<path d="M217.26 249.099H243.54V248.039H217.26V249.099Z" fill="#DBDBDB"/>
<path d="M217.26 251.789H243.54V250.729H217.26V251.789Z" fill="#DBDBDB"/>
<path d="M217.26 254.469H243.54V253.409H217.26V254.469Z" fill="#DBDBDB"/>
<path d="M217.26 257.149H243.54V256.089H217.26V257.149Z" fill="#DBDBDB"/>
<path d="M217.26 259.839H243.54V258.779H217.26V259.839Z" fill="#DBDBDB"/>
<path d="M217.26 262.519H243.54V261.459H217.26V262.519Z" fill="#DBDBDB"/>
<path d="M217.26 265.209H243.54V264.149H217.26V265.209Z" fill="#DBDBDB"/>
<path d="M217.26 267.889H243.54V266.829H217.26V267.889Z" fill="#DBDBDB"/>
<path d="M248.42 247.999V271.059H212.07V247.999C213.63 248.879 215.16 249.809 216.71 250.719C218.26 251.629 219.79 252.559 221.31 253.499C223.017 254.539 224.72 255.592 226.42 256.659L230.24 259.049L234.05 256.659H234H234.06L239.16 253.509C240.69 252.569 242.23 251.649 243.77 250.729C245.31 249.809 246.86 248.889 248.42 247.999Z" fill="#EBEBEB"/>
<path d="M248.42 247.999C246.96 248.999 245.42 249.999 243.98 250.999C242.54 251.999 240.98 252.999 239.49 253.999C238 254.999 236.35 256.049 234.78 257.059L234.64 257.159L230.45 259.829L230.24 259.949L230.04 259.829L225.86 257.149L225.71 257.059C224.13 256.052 222.557 255.032 220.99 253.999C219.5 252.999 217.99 251.999 216.51 250.999C215.03 249.999 213.51 248.999 212.07 247.999C213.63 248.879 215.16 249.809 216.71 250.719C218.26 251.629 219.79 252.559 221.31 253.499C223.017 254.539 224.72 255.592 226.42 256.659L230.24 259.049L234.05 256.659L239.15 253.509C240.68 252.569 242.22 251.649 243.76 250.729C245.3 249.809 246.86 248.889 248.42 247.999Z" fill="#DBDBDB"/>
<path d="M226.47 256.639L225.9 257.129C224.99 257.899 224.05 258.639 223.1 259.349C221.94 260.239 220.76 261.079 219.57 261.919C218.38 262.759 217.17 263.569 215.94 264.349C214.71 265.129 213.48 265.909 212.19 266.609C213.3 265.609 214.44 264.749 215.6 263.869C216.76 262.989 217.95 262.139 219.13 261.299C220.31 260.459 221.53 259.649 222.76 258.859C223.76 258.229 224.76 257.619 225.76 257.039C225.99 256.899 226.23 256.769 226.47 256.639Z" fill="#DBDBDB"/>
<path d="M248.37 266.639C247.08 265.939 245.84 265.169 244.62 264.379C243.4 263.589 242.19 262.779 240.98 261.949C239.77 261.119 238.61 260.269 237.45 259.379C236.51 258.669 235.57 257.939 234.67 257.169L234.09 256.669H234.04H234.1L234.81 257.079C235.81 257.659 236.81 258.269 237.81 258.899C239.03 259.689 240.24 260.509 241.43 261.339C242.62 262.169 243.81 263.019 244.96 263.909C246.11 264.799 247.23 265.679 248.37 266.639Z" fill="#DBDBDB"/>
<path d="M237.695 245.922C238.669 241.811 236.126 237.688 232.014 236.714C227.903 235.74 223.781 238.283 222.807 242.394C221.833 246.506 224.376 250.628 228.487 251.602C232.598 252.576 236.72 250.033 237.695 245.922Z" fill="#0B7D77"/>
<path d="M226.37 244.789C227.463 245.701 228.498 246.68 229.47 247.719L228.77 247.769C229.15 247.099 229.56 246.449 229.98 245.769C230.4 245.089 230.82 244.479 231.27 243.859C232.151 242.589 233.116 241.379 234.16 240.239C233.548 241.661 232.837 243.038 232.03 244.359C231.65 245.019 231.22 245.669 230.81 246.359C230.4 247.049 229.96 247.639 229.5 248.269L229.15 248.759L228.8 248.319C227.915 247.196 227.103 246.017 226.37 244.789Z" fill="white"/>
</svg>
