<svg width="500" height="500" viewBox="0 0 500 500" fill="none" xmlns="http://www.w3.org/2000/svg">
<path d="M53.7202 292.81H80.2002V281.62H53.7202V292.81Z" fill="#EBEBEB"/>
<path d="M68.5002 267.51L81.6202 267.23L88.2802 267.12C90.5102 267.07 92.7502 267.12 94.9802 267.07H95.4202V267.52L95.4802 278.71V279.21H95.0002L81.7602 279.15C77.3502 279.15 72.9302 279.03 68.5202 278.98H68.2402V278.71C68.2402 276.81 68.3202 274.92 68.3702 273.06L68.5002 267.51ZM68.5002 267.51L68.6402 273.16C68.6402 275.03 68.7502 276.87 68.7702 278.7L68.5002 278.43C72.9102 278.38 77.3302 278.27 81.7402 278.26L95.0002 278.2L94.5002 278.7V267.51L95.0002 268C92.8202 268 90.6402 268 88.4502 267.94L81.8702 267.83L68.5002 267.51Z" fill="#EBEBEB"/>
<path d="M38.9997 267.51L52.1197 267.23L58.7797 267.12C61.0097 267.07 63.2397 267.12 65.4797 267.07H65.9197V267.52L65.9797 278.71V279.21H65.4797L52.2397 279.15C47.8197 279.15 43.4097 279.03 38.9997 278.98H38.7197V278.71C38.7197 276.81 38.8097 274.92 38.8497 273.06L38.9997 267.51ZM38.9997 267.51L39.1397 273.16C39.1397 275.03 39.2497 276.87 39.2697 278.7L38.9997 278.43C43.4097 278.38 47.8197 278.27 52.2397 278.26L65.4797 278.2L64.9797 278.7V267.51L65.4297 267.96C63.2397 267.96 61.0697 267.96 58.8797 267.9L52.2997 267.79L38.9997 267.51Z" fill="#EBEBEB"/>
<path d="M446.27 59.94L433.15 60.22L426.49 60.33C424.26 60.38 422.02 60.33 419.79 60.39H419.35V59.94L419.29 48.75V48.25H419.79L433.03 48.32C437.45 48.32 441.86 48.43 446.27 48.48H446.55V48.75C446.55 50.65 446.46 52.54 446.42 54.41L446.27 59.94ZM446.27 59.94L446.13 54.29C446.13 52.43 446.02 50.59 446 48.75L446.27 49.03C441.86 49.03 437.45 49.19 433.03 49.19L419.79 49.25L420.29 48.75L420.24 59.94L419.79 59.5C421.97 59.5 424.15 59.5 426.34 59.5L432.92 59.62L446.27 59.94Z" fill="#EBEBEB"/>
<path d="M461.04 62.8599H434.56V74.0499H461.04V62.8599Z" fill="#EBEBEB"/>
<path d="M65.4398 59.9998L52.3098 60.2698L45.6498 60.3898C43.4198 60.3898 41.1898 60.3898 38.9598 60.3898H38.5098V59.9998V48.8098V48.2998H38.9998L52.2398 48.3598C56.6498 48.3598 61.0598 48.4698 65.4798 48.5198H65.7498V48.7898C65.7498 50.6798 65.6598 52.5698 65.6198 54.4398L65.4398 59.9998ZM65.4398 59.9998L65.2898 54.3398C65.2898 52.4798 65.1798 50.6398 65.1598 48.8098L65.4398 49.0798C61.0198 49.1298 56.6098 49.2398 52.1998 49.2398L38.9998 49.2698L39.4898 48.7698L39.3998 59.9998L38.9998 59.5098C41.1798 59.5098 43.3498 59.5098 45.5398 59.5698L52.1198 59.6798L65.4398 59.9998Z" fill="#EBEBEB"/>
<path d="M225.07 130.55H251.55V119.36H225.07V130.55Z" fill="#EBEBEB"/>
<path d="M434.56 271.69L447.69 271.41L454.35 271.3C456.58 271.25 458.81 271.3 461.04 271.24H461.49V271.69L461.54 282.88V283.38H461L447.76 283.32C443.35 283.32 438.94 283.2 434.52 283.15H434.25V282.88C434.25 280.98 434.34 279.09 434.38 277.23L434.56 271.69ZM434.56 271.69L434.71 277.34C434.71 279.21 434.82 281.05 434.84 282.88L434.56 282.61C438.98 282.56 443.39 282.45 447.8 282.44L461.04 282.38L460.55 282.88L460.6 271.69L461.04 272.14C458.86 272.14 456.69 272.14 454.5 272.08L447.92 271.97L434.56 271.69Z" fill="#EBEBEB"/>
<path d="M261.419 375.85H287.899V364.66H261.419V375.85Z" fill="#EBEBEB"/>
<path d="M239.83 105.25L253 105L259.66 104.89C261.89 104.89 264.12 104.89 266.36 104.89H266.8V105.34L266.85 116.53V117.03H266.35L253.11 116.97C248.69 116.97 244.28 116.86 239.87 116.8H239.59V116.53C239.59 114.63 239.68 112.74 239.72 110.88L239.83 105.25ZM239.83 105.25L239.98 110.91C239.98 112.77 240.09 114.61 240.11 116.44L239.84 116.17C244.25 116.17 248.66 116.01 253.08 116.01L266.32 115.94L265.82 116.44L265.87 105.25L266.32 105.7C264.13 105.7 261.96 105.7 259.77 105.64L253.19 105.53L239.83 105.25Z" fill="#EBEBEB"/>
<path d="M107.52 365H73.9598L54.7598 269.25L85.4798 255.13L107.52 365Z" fill="#DBDBDB"/>
<path d="M203.579 365H107.519L85.4795 255.13H181.539L203.579 365Z" fill="#EBEBEB"/>
<path d="M90.2894 313.63H38.8594V419.16H90.2894V313.63Z" fill="#DBDBDB"/>
<path d="M228.26 419.16H214.21L193.27 313.63H228.26V419.16Z" fill="#DBDBDB"/>
<path d="M118.55 313.63H90.29V419.16H118.55V313.63Z" fill="#EBEBEB"/>
<path d="M256.52 313.63H228.26V419.16H256.52V313.63Z" fill="#EBEBEB"/>
<path d="M228.26 365H118.55V419.15H228.26V365Z" fill="#EBEBEB"/>
<path d="M228.26 341.59H118.55V365.22H228.26V341.59Z" fill="#EBEBEB"/>
<path d="M97.2197 313.63L107.89 313.44L118.55 313.3H118.87V313.63L119 326V338.35C119 346.58 119.06 354.81 119 363.05C118.94 371.29 119 379.51 118.86 387.75C118.72 395.99 118.68 404.21 118.5 412.45C118.326 404.21 118.21 395.976 118.15 387.75C118.04 379.51 118.03 371.28 118 363.05C117.97 354.82 118 346.58 118 338.35V326L118.12 313.65L118.44 313.97L107.78 313.84L97.2197 313.63Z" fill="#DBDBDB"/>
<path d="M228.259 313.63C228.479 321.89 228.579 330.15 228.669 338.42L228.789 363.21L228.669 388L228.52 400.4L228.259 412.79L227.999 400.4L227.85 388L227.729 363.21L227.85 338.42C227.94 330.15 227.999 321.89 228.259 313.63Z" fill="#DBDBDB"/>
<path d="M228.26 365C219.12 365.22 209.98 365.32 200.83 365.41L173.41 365.53L146 365.41L132.29 365.26L118.55 365L132.27 364.74L145.98 364.59L173.41 364.47L200.83 364.59C210 364.68 219.12 364.78 228.26 365Z" fill="#DBDBDB"/>
<path d="M228.259 341.59C219.119 341.81 209.979 341.91 200.829 342L173.409 342.12L145.999 342L132.289 341.85L118.569 341.59L132.289 341.33L145.999 341.18L173.429 341.06L200.849 341.18C209.999 341.27 219.119 341.37 228.259 341.59Z" fill="#DBDBDB"/>
<path d="M58.4093 419.15L57.7093 427.7L56.0893 447.46H48.6393L47.0193 427.7L46.3193 419.15H58.4093Z" fill="#C7C7C7"/>
<path d="M46.3193 419.15H58.4093L57.7093 427.7H47.0193L46.3193 419.15Z" fill="#A6A6A6"/>
<path d="M110.47 419.15L109.77 427.7L108.15 447.46H100.7L99.0799 427.7L98.3799 419.15H110.47Z" fill="#C7C7C7"/>
<path d="M98.3799 419.15H110.47L109.77 427.7H99.0799L98.3799 419.15Z" fill="#A6A6A6"/>
<path d="M196.809 419.15L196.119 427.7L194.499 447.46H187.049L185.429 427.7L184.729 419.15H196.809Z" fill="#C7C7C7"/>
<path d="M184.729 419.15H196.809L196.119 427.7H185.429L184.729 419.15Z" fill="#A6A6A6"/>
<path d="M248.89 419.15L248.19 427.7L246.57 447.46H239.12L237.5 427.7L236.8 419.15H248.89Z" fill="#C7C7C7"/>
<path d="M248.89 419.15L248.19 427.7H237.5L236.8 419.15H248.89Z" fill="#A6A6A6"/>
<path d="M230.92 110.96H59.2695V118.33H230.92V110.96Z" fill="#EBEBEB"/>
<path d="M84.2294 147.34H77.5394L74.8594 118.33H84.2294V147.34Z" fill="#EBEBEB"/>
<path d="M205.96 147.34H212.65L215.33 118.33H205.96V147.34Z" fill="#EBEBEB"/>
<path d="M74.8594 118.33H84.2194V128.32H75.7794L74.8594 118.33Z" fill="#DBDBDB"/>
<path d="M215.33 118.33L214.41 128.32H205.96V118.33H215.33Z" fill="#DBDBDB"/>
<path d="M121.429 66.75C113.809 77.06 105.869 89 103.939 102C103.939 102.04 103.953 102.079 103.978 102.11C104.004 102.142 104.039 102.163 104.079 102.17C104.119 102.177 104.16 102.17 104.194 102.15C104.229 102.13 104.256 102.098 104.269 102.06C105.148 98.535 106.274 95.0764 107.639 91.71C112.639 90.33 117.559 89.2 120.189 84.23C122.819 79.26 122.529 72.46 122.019 66.89C121.999 66.56 121.579 66.55 121.429 66.75Z" fill="#EBEBEB"/>
<path d="M107.72 91.5799C111.07 83.716 115.583 76.4008 121.11 69.8799L121.17 69.9399C117.674 74.4384 114.604 79.2525 112 84.3199C114.52 81.7599 117.28 79.4599 119.67 76.7499C119.67 76.7499 119.79 76.7499 119.75 76.8299C117.38 79.6699 114.75 82.7599 111.75 84.8299C110.923 86.3632 110.083 87.8966 109.23 89.4299C109.44 89.3099 109.66 89.2099 109.87 89.0999V89.1599L109.16 89.5099C108.76 90.2299 108.36 90.9599 107.95 91.6799C107.87 91.8799 107.64 91.7399 107.72 91.5799Z" fill="#A6A6A6"/>
<path d="M110.26 88.9C112.307 87.7519 114.263 86.4481 116.11 85C116.11 85 116.23 85 116.18 85.07C114.391 86.6195 112.431 87.9613 110.34 89.07C110.329 89.0753 110.317 89.0783 110.304 89.0788C110.292 89.0794 110.28 89.0776 110.268 89.0734C110.257 89.0692 110.246 89.0628 110.237 89.0545C110.228 89.0462 110.22 89.0362 110.215 89.025C110.21 89.0138 110.207 89.0017 110.206 88.9894C110.206 88.9771 110.207 88.9648 110.212 88.9532C110.216 88.9416 110.222 88.9309 110.231 88.9218C110.239 88.9127 110.249 88.9053 110.26 88.9V88.9Z" fill="#A6A6A6"/>
<path d="M103.1 101.85C103.1 102.01 103.38 102 103.38 101.85C103.38 97.59 103.38 93.31 103.45 89.03C104.54 86.83 106.88 85.61 108.51 83.84C109.67 82.5511 110.677 81.1316 111.51 79.61C113.469 75.9732 114.667 71.9752 115.03 67.86C115.48 63.3 113.75 48.27 111.83 48.79C110.83 49.06 107.61 56.51 106.76 58.97C105.382 63.0302 104.378 67.2075 103.76 71.45C102.21 81.47 102.34 91.76 103.1 101.85Z" fill="#EBEBEB"/>
<path d="M103.07 83.4701C103.475 78.0528 104.341 72.68 105.66 67.4101C106.88 61.7701 108.31 56.4701 111.21 51.4101C111.21 51.3101 111.4 51.4101 111.35 51.4901C109.418 55.3976 107.923 59.5056 106.89 63.7401C107.09 63.4401 107.32 63.1501 107.52 62.8601C107.6 62.7501 107.79 62.8601 107.71 62.9701C107.454 63.4261 107.152 63.8549 106.81 64.2501V64.2501C105.81 68.2501 105.09 72.3901 104.48 76.5001L104.62 76.3401C104.62 76.3401 104.7 76.3401 104.68 76.3401L104.44 76.7501C104.13 78.8301 103.84 80.9101 103.55 82.9701C107.359 79.9173 110.341 75.9559 112.22 71.4501C112.22 71.4501 112.22 71.4501 112.22 71.4501C110.634 76.2552 107.563 80.4326 103.45 83.3801C103.38 83.9401 103.3 84.4901 103.22 85.0501C103.22 85.1601 103.02 85.1301 103.02 85.0501C103.02 84.5601 103.02 84.0501 103.02 83.5701C103.018 83.5505 103.022 83.5309 103.031 83.5133C103.04 83.4957 103.053 83.4808 103.07 83.4701V83.4701Z" fill="#A6A6A6"/>
<path d="M104.82 75.6602C107.72 71.559 110.25 67.2086 112.38 62.6602C112.38 62.6602 112.5 62.6602 112.48 62.6602C110.797 67.4452 108.263 71.8866 105 75.7702C104.993 75.782 104.983 75.7923 104.972 75.8004C104.961 75.8086 104.948 75.8144 104.935 75.8177C104.921 75.8209 104.907 75.8215 104.894 75.8194C104.88 75.8172 104.867 75.8124 104.855 75.8052C104.843 75.7979 104.833 75.7885 104.825 75.7773C104.817 75.7661 104.811 75.7534 104.808 75.7399C104.804 75.7264 104.804 75.7125 104.806 75.6988C104.808 75.6851 104.813 75.672 104.82 75.6602V75.6602Z" fill="#A6A6A6"/>
<path d="M108.59 61.5898C109.77 59.5098 111 57.4898 112.11 55.3698C112.11 55.3098 112.22 55.3698 112.2 55.4198C111.292 57.6334 110.141 59.7396 108.77 61.6998C108.752 61.7157 108.73 61.7255 108.706 61.7277C108.683 61.7299 108.659 61.7244 108.639 61.7121C108.618 61.6997 108.603 61.6811 108.594 61.6591C108.585 61.637 108.584 61.6128 108.59 61.5898V61.5898Z" fill="#A6A6A6"/>
<path d="M100.999 90.9299C100.943 93.756 100.608 96.5696 99.9993 99.3299C99.9993 99.6299 100.089 99.9299 100.129 100.25C100.999 97.2003 101.506 94.0585 101.639 90.8899C101.661 90.8448 101.673 90.7952 101.673 90.7449C101.673 90.6947 101.661 90.6451 101.639 90.5999C101.761 86.3556 101.446 82.1099 100.699 77.9299C99.3793 70.0999 96.4993 62.5799 91.0393 56.7199C90.9936 56.6817 90.9399 56.6543 90.8821 56.6395C90.8244 56.6247 90.7641 56.623 90.7057 56.6345C90.6472 56.646 90.592 56.6704 90.5442 56.7059C90.4964 56.7415 90.4571 56.7873 90.4293 56.8399C88.2293 62.4399 88.9993 69.1299 90.8793 74.7199C91.8965 77.7478 93.3556 80.6087 95.2093 83.2099C97.1093 85.8299 99.4993 88.0599 100.999 90.9299Z" fill="#EBEBEB"/>
<path d="M91.7101 59.3302C96.8901 67.7302 100.49 77.6802 100.93 87.6002C100.93 87.7802 100.64 87.8302 100.61 87.6502C100.49 86.7602 100.36 85.8702 100.21 84.9902C97.9643 82.9977 95.9906 80.7181 94.3401 78.2102C94.3401 78.2102 94.3401 78.1102 94.4201 78.2102C96.1987 80.3853 98.1019 82.4554 100.12 84.4102C99.7468 82.2235 99.3035 80.0635 98.7901 77.9302C98.6501 77.7802 98.5201 77.6102 98.3801 77.4502C98.2401 77.2902 98.4401 77.1902 98.5301 77.3002L98.6601 77.4402C97.9326 74.5243 97.0276 71.6556 95.9501 68.8502C94.5124 67.3852 93.2506 65.7576 92.1901 64.0002C92.1901 64.0002 92.1901 63.9102 92.2601 64.0002C93.0054 65.0972 93.8065 66.1552 94.6601 67.1702C95.0001 67.5702 95.3901 67.9502 95.7501 68.3402C94.5552 65.2969 93.1381 62.3456 91.5101 59.5102C91.4863 59.4837 91.4739 59.4487 91.4758 59.4131C91.4776 59.3775 91.4936 59.3441 91.5201 59.3202C91.5466 59.2963 91.5816 59.284 91.6172 59.2858C91.6528 59.2877 91.6863 59.3037 91.7101 59.3302V59.3302Z" fill="#A6A6A6"/>
<path d="M92.7595 69.6899C94.4295 71.9399 96.3394 74.0899 97.8894 76.4099C97.8894 76.4799 97.8894 76.5499 97.7794 76.4999C95.8011 74.4671 94.0784 72.2003 92.6495 69.7499C92.5995 69.6799 92.7095 69.6199 92.7595 69.6899Z" fill="#A6A6A6"/>
<path d="M98.13 76.9301L98.2 77.0101C98.2 77.0101 98.2 77.1301 98.12 77.0801L98.05 77.0001C98 77.0001 98.08 76.8901 98.13 76.9301Z" fill="#A6A6A6"/>
<path d="M82.8094 73.3498C83.4133 78.0415 85.303 82.4749 88.2694 86.1598C89.4855 87.6085 90.991 88.7871 92.6894 89.6198C94.6094 90.5698 96.6194 91.6198 98.5994 92.4398C99.5428 94.8411 100.246 97.3299 100.699 99.8698C100.759 99.6498 100.819 99.4298 100.889 99.2098C99.6094 88.2698 92.5394 78.9198 83.4794 72.9198C83.4087 72.8754 83.3268 72.8521 83.2433 72.8525C83.1599 72.853 83.0783 72.8772 83.008 72.9222C82.9378 72.9673 82.8818 73.0315 82.8466 73.1072C82.8115 73.1829 82.7985 73.267 82.8094 73.3498Z" fill="#EBEBEB"/>
<path d="M86.13 80.3599C86.2513 80.4365 86.3682 80.52 86.48 80.6099C86.48 80.6099 86.48 80.6799 86.48 80.6699C86.3546 80.6096 86.2342 80.5394 86.12 80.4599C86.1123 80.4536 86.1062 80.4455 86.1023 80.4363C86.0985 80.4271 86.097 80.4171 86.098 80.4072C86.0989 80.3972 86.1024 80.3877 86.108 80.3794C86.1136 80.3712 86.1212 80.3645 86.13 80.3599V80.3599Z" fill="#A6A6A6"/>
<path d="M112.02 110.96H93.3701L94.2901 98.74L94.6401 94.75H110.58L110.94 98.74L112.02 110.96Z" fill="#DBDBDB"/>
<path d="M110.94 98.74H94.29L94.64 94.75H110.58L110.94 98.74Z" fill="#C7C7C7"/>
<path d="M111.85 91.48H93.3701V95.57H111.85V91.48Z" fill="#DBDBDB"/>
<path d="M157.319 110.94V66.5601H146.139V110.94H157.319Z" fill="#C7C7C7"/>
<path d="M157.33 69.0602V64.1802H146.15V69.0602H157.33Z" fill="#DBDBDB"/>
<path d="M157.319 77.1098V75.2998H146.139V77.1098H157.319Z" fill="#DBDBDB"/>
<path d="M157.319 105.11V100.23H146.139V105.11H157.319Z" fill="#DBDBDB"/>
<path d="M165.13 110.94V59.1699H157.32V110.94H165.13Z" fill="#DBDBDB"/>
<path d="M163.54 83.9398V64.0298H158.85V83.9398H163.54Z" fill="#EBEBEB"/>
<path d="M220.748 105.332L183.931 68.9365L178.44 74.4907L215.257 110.886L220.748 105.332Z" fill="#C7C7C7"/>
<path d="M211.033 97.8849L196.874 83.8877L193.577 87.2231L207.736 101.22L211.033 97.8849Z" fill="#DBDBDB"/>
<path d="M178.399 110.94V71.6201H165.139V110.94H178.399Z" fill="#A6A6A6"/>
<path d="M178.39 106.77V103.11H165.13V106.77H178.39Z" fill="#C7C7C7"/>
<path d="M178.399 100.7V99.2798H165.139V100.7H178.399Z" fill="#C7C7C7"/>
<path d="M132.23 111.52L146.641 77.5259L138.213 73.9535L123.803 107.947L132.23 111.52Z" fill="#A6A6A6"/>
<path d="M133.188 107.367L134.545 104.206L126.128 100.593L124.771 103.754L133.188 107.367Z" fill="#C7C7C7"/>
<path d="M141.862 87.1777L143.219 84.0166L134.801 80.4037L133.445 83.5648L141.862 87.1777Z" fill="#C7C7C7"/>
<path d="M140.407 90.5746L140.936 89.3433L132.518 85.7303L131.99 86.9617L140.407 90.5746Z" fill="#C7C7C7"/>
<path d="M424.1 326.59H326.31V447.46H424.1V326.59Z" fill="#EBEBEB"/>
<path d="M428.829 321.57H321.569V326.59H428.829V321.57Z" fill="#DBDBDB"/>
<path d="M462.57 321.57H428.84V326.59H462.57V321.57Z" fill="#EBEBEB"/>
<path d="M457.23 326.59H424.1V447.46H457.23V326.59Z" fill="#DBDBDB"/>
<path d="M413.57 382.71H336.84V339.33H413.57V382.71ZM337.09 382.46H413.32V339.58H337.09V382.46Z" fill="#C7C7C7"/>
<path d="M379.44 352.01H364.5V360.6H379.44V352.01Z" fill="#C7C7C7"/>
<path d="M384 360.07H368.79V352.53H384V360.07ZM369 359.82H383.69V352.82H369V359.82Z" fill="#C7C7C7"/>
<path d="M413.57 437.19H336.84V393.81H413.57V437.19ZM337.09 436.94H413.32V394.06H337.09V436.94Z" fill="#C7C7C7"/>
<path d="M379.44 406.49H364.5V415.08H379.44V406.49Z" fill="#C7C7C7"/>
<path d="M384 414.55H368.79V407H384V414.55ZM369 414.3H383.69V407.3H369V414.3Z" fill="#C7C7C7"/>
<path d="M463.06 447.46L409.5 447.7L355.93 447.79L248.79 447.96L141.65 447.79L88.0895 447.7L34.5195 447.46L88.0895 447.21L141.65 447.13L248.79 446.96L355.93 447.13L409.5 447.21L463.06 447.46Z" fill="#263238"/>
<path d="M437.89 447.46H443.62L403.49 235.4H389.22L437.89 447.46Z" fill="#455A64"/>
<path d="M389.22 235.4L396.42 266.76H409.42L403.5 235.43L403.49 235.4H389.22Z" fill="#37474F"/>
<path d="M379.35 447.46H385.08L383.8 235.4H369.54L379.35 447.46Z" fill="#455A64"/>
<path d="M369.54 235.4L370.99 266.76H383.99L383.8 235.43V235.4H369.54Z" fill="#37474F"/>
<path d="M326.539 447.46H320.819L352.409 235.4H366.679L326.539 447.46Z" fill="#455A64"/>
<path d="M347.74 266.76H360.74L366.68 235.4H352.41L352.4 235.43L347.74 266.76Z" fill="#37474F"/>
<path d="M338.29 360.75H421.56V356.61H338.29V360.75Z" fill="#455A64"/>
<path d="M462.603 156.861C465.527 97.6957 433.833 48.0483 391.811 45.9711C349.79 43.8938 313.353 90.1732 310.429 149.339C307.504 208.505 339.198 258.152 381.22 260.229C423.242 262.307 459.678 216.027 462.603 156.861Z" fill="#0B7D77"/>
<path d="M375.19 44.9102L393.07 46.0202L379.45 260.13L361.56 259.02L375.19 44.9102Z" fill="#0B7D77"/>
<g opacity="0.1">
<path d="M375.19 44.9102L393.07 46.0202L379.45 260.13L361.56 259.02L375.19 44.9102Z" fill="black"/>
</g>
<path d="M446.142 155.841C449.067 96.6747 417.372 47.0274 375.35 44.9501C333.329 42.8729 296.892 89.1523 293.968 148.318C291.043 207.484 322.737 257.131 364.759 259.208C406.781 261.286 443.217 215.006 446.142 155.841Z" fill="#0B7D77"/>
<path d="M429.412 155.013C431.694 108.86 406.968 70.1317 374.186 68.5112C341.404 66.8907 312.979 102.992 310.697 149.145C308.416 195.298 333.142 234.027 365.924 235.647C398.706 237.268 427.131 201.167 429.412 155.013Z" fill="white"/>
<path d="M412.842 154.195C414.487 120.916 396.664 92.9911 373.033 91.823C349.402 90.6548 328.912 116.686 327.267 149.964C325.622 183.243 343.445 211.168 367.076 212.336C390.707 213.504 411.197 187.473 412.842 154.195Z" fill="#0B7D77"/>
<path d="M396.103 153.367C397.105 133.106 386.255 116.105 371.868 115.394C357.482 114.683 345.008 130.531 344.007 150.792C343.005 171.053 353.856 188.054 368.242 188.765C382.628 189.476 395.102 173.628 396.103 153.367Z" fill="white"/>
<path d="M381.619 150C382.239 159 377.559 167.15 371.159 168.32C364.759 169.49 359.089 163.2 358.479 154.25C357.869 145.3 362.539 137.1 368.929 135.92C375.319 134.74 380.999 141 381.619 150Z" fill="#0B7D77"/>
<path opacity="0.4" d="M446.142 155.841C449.067 96.6747 417.372 47.0274 375.35 44.9501C333.329 42.8729 296.892 89.1523 293.968 148.318C291.043 207.484 322.737 257.131 364.759 259.208C406.781 261.286 443.217 215.006 446.142 155.841Z" fill="white"/>
<path d="M298.24 388C298.585 379.263 298.465 370.514 297.88 361.79C296.592 343.797 293.846 325.939 289.67 308.39C287.38 298.51 284.56 288.79 281.62 279.09C281.53 278.79 281.07 278.88 281.15 279.18C290.23 313.39 297.69 348.7 297.15 384.26C297.01 394.26 295.86 403.99 294.91 413.88C294.91 414.15 295.32 414.25 295.38 413.98C297.28 405.56 297.89 396.69 298.24 388Z" fill="#0B7D77"/>
<path d="M281.15 279.22C281.15 279.22 267.38 314.16 270.46 322.37C273.54 330.58 279.9 332.37 279.9 332.37C279.9 332.37 271.48 344.37 277.36 355.67C283.24 366.97 296.36 366.42 297.19 379.2C297.19 379.16 297.92 325.7 281.15 279.22Z" fill="#0B7D77"/>
<path d="M295.699 357.09C295.719 357.028 295.719 356.962 295.699 356.9C293.889 333.048 289.411 309.474 282.349 286.62C282.349 286.56 282.219 286.62 282.239 286.62C284.959 296.84 287.369 307.113 289.469 317.44C287.621 315.689 285.361 314.43 282.899 313.78C282.849 313.78 282.829 313.83 282.899 313.85C285.488 314.799 287.812 316.352 289.679 318.38C290.089 320.38 290.479 322.38 290.849 324.46C287.779 321.02 283.509 319.32 279.239 317.7C279.179 317.7 279.149 317.77 279.239 317.79C283.689 319.6 288.109 321.93 291.129 325.79C292.176 331.59 293.096 337.407 293.889 343.24C291.665 340.912 288.813 339.28 285.679 338.54C285.589 338.54 285.529 338.66 285.629 338.69C288.862 339.621 291.753 341.473 293.949 344.02H294.009C294.279 346.07 294.539 348.13 294.779 350.18C293.058 348.727 291.117 347.555 289.029 346.71C288.979 346.71 288.949 346.78 289.029 346.8C291.16 347.723 293.11 349.017 294.789 350.62C294.815 350.629 294.844 350.629 294.869 350.62C295.089 352.62 295.319 354.54 295.519 356.5C292.42 352.754 288.398 349.879 283.849 348.16C283.831 348.153 283.81 348.154 283.793 348.163C283.775 348.171 283.761 348.186 283.754 348.205C283.748 348.223 283.749 348.244 283.757 348.262C283.766 348.28 283.781 348.293 283.799 348.3C288.29 350.284 292.236 353.323 295.299 357.16C295.333 357.202 295.379 357.234 295.431 357.25C295.482 357.266 295.538 357.266 295.589 357.25C295.889 360.25 296.159 363.25 296.379 366.25C296.379 366.25 296.449 366.3 296.449 366.25C296.159 363.26 295.999 360.17 295.699 357.09Z" fill="#263238"/>
<path d="M284.639 310.34C282.147 308.79 279.301 307.902 276.369 307.76C276.356 307.76 276.343 307.765 276.334 307.774C276.325 307.784 276.319 307.796 276.319 307.81C276.319 307.823 276.325 307.836 276.334 307.845C276.343 307.855 276.356 307.86 276.369 307.86C279.2 308.391 281.95 309.289 284.549 310.53C284.649 310.58 284.739 310.41 284.639 310.34Z" fill="#263238"/>
<path d="M286.31 347.33C284.394 346.231 282.287 345.509 280.1 345.2C280.02 345.2 280.02 345.31 280.1 345.32C282.237 345.746 284.304 346.47 286.24 347.47C286.32 347.51 286.39 347.37 286.31 347.33Z" fill="#263238"/>
<path d="M334.419 322.94C328.602 326.965 323.258 331.634 318.489 336.86C313.577 342.395 309.784 348.831 307.319 355.81C302.09 370.361 299.28 385.67 298.999 401.13C298.818 409.69 299.64 418.241 301.449 426.61C301.461 426.673 301.498 426.73 301.551 426.766C301.605 426.803 301.671 426.817 301.734 426.805C301.798 426.793 301.854 426.756 301.891 426.703C301.927 426.649 301.941 426.583 301.929 426.52C299.677 411.752 299.761 396.721 302.179 381.98C304.539 367.52 308.259 351.8 317.439 340.05C322.439 333.66 328.679 328.63 334.849 323.43C335.169 323.15 334.759 322.7 334.419 322.94Z" fill="#0B7D77"/>
<path d="M301 390.72C304.315 385.36 308.212 380.384 312.62 375.88C319.5 368.99 325.3 364.1 326.2 359.55C327.1 355 319.3 351.64 319.3 351.64C319.3 351.64 328.83 353.35 331.43 349.35C334.03 345.35 335.3 322.19 335.3 322.19C335.3 322.19 318 334.57 309.91 351.92C301.82 369.27 301 390.72 301 390.72Z" fill="#0B7D77"/>
<path d="M329.129 343.92C327.987 343.755 326.83 343.715 325.679 343.8C325.652 343.808 325.628 343.824 325.611 343.846C325.594 343.869 325.585 343.896 325.585 343.925C325.585 343.953 325.594 343.981 325.611 344.003C325.628 344.026 325.652 344.042 325.679 344.05C326.819 344.05 327.969 343.99 329.109 344.05C329.123 344.047 329.136 344.04 329.146 344.03C329.156 344.019 329.163 344.006 329.165 343.992C329.167 343.978 329.165 343.963 329.158 343.95C329.152 343.937 329.142 343.927 329.129 343.92Z" fill="#263238"/>
<path d="M316.65 366.39C314.821 366.434 313.014 366.796 311.31 367.46C311.31 367.46 311.31 367.55 311.31 367.54C313.08 367.12 314.86 366.95 316.65 366.65C316.684 366.65 316.717 366.636 316.741 366.612C316.766 366.587 316.78 366.554 316.78 366.52C316.78 366.485 316.766 366.452 316.741 366.428C316.717 366.403 316.684 366.39 316.65 366.39V366.39Z" fill="#263238"/>
<path d="M312.909 358.63C312.148 358.621 311.388 358.688 310.639 358.83C310.569 358.83 310.569 358.97 310.639 358.97C311.398 359.008 312.158 358.971 312.909 358.86C313.049 358.84 313.049 358.63 312.909 358.63Z" fill="#263238"/>
<path d="M250.209 347.52C255.85 349.43 261.254 351.977 266.319 355.11C271.576 358.45 276.134 362.78 279.739 367.86C287.351 378.423 293.181 390.162 296.999 402.61C299.118 409.498 300.43 416.609 300.909 423.8C300.899 423.846 300.873 423.888 300.836 423.918C300.798 423.948 300.752 423.964 300.704 423.964C300.656 423.964 300.61 423.948 300.573 423.918C300.536 423.888 300.51 423.846 300.499 423.8C298.901 411.325 295.358 399.178 289.999 387.8C284.739 376.65 278.109 364.8 267.999 357.4C262.469 353.4 256.259 350.75 250.069 347.97C249.649 347.86 249.879 347.41 250.209 347.52Z" fill="#0B7D77"/>
<path d="M292.91 394.65C288.989 391.08 284.686 387.955 280.08 385.33C272.91 381.33 267.08 378.73 265.31 375.25C263.54 371.77 269.07 367.25 269.07 367.25C269.07 367.25 261.75 370.83 258.72 368.2C255.69 365.57 249.31 347.11 249.31 347.11C249.31 347.11 266.2 353.11 276.75 365.3C287.3 377.49 292.91 394.65 292.91 394.65Z" fill="#0B7D77"/>
<path d="M264.149 358.37C263.394 358.318 262.634 358.362 261.889 358.5C261.871 358.5 261.853 358.507 261.84 358.52C261.827 358.533 261.819 358.551 261.819 358.57C261.819 358.588 261.827 358.606 261.84 358.619C261.853 358.632 261.871 358.64 261.889 358.64C262.629 358.56 263.359 358.59 264.109 358.57C264.136 358.575 264.163 358.57 264.186 358.555C264.208 358.54 264.224 358.516 264.229 358.49C264.235 358.463 264.229 358.436 264.214 358.413C264.199 358.391 264.176 358.375 264.149 358.37Z" fill="#263238"/>
<path d="M314.689 447.08H276.569L281.999 407.26L283.389 397.06H307.859L309.249 407.26L314.689 447.08Z" fill="#455A64"/>
<path d="M309.25 407.26H282L283.39 397.06H307.86L309.25 407.26Z" fill="#263238"/>
<path d="M311.36 393.51H279.89V402.16H311.36V393.51Z" fill="#455A64"/>
<path d="M311.951 130.973L46.7275 146.544L49.5343 194.352L314.758 178.78L311.951 130.973Z" fill="#0B7D77"/>
<path d="M311.18 117.9L315.52 191.84L369.25 151.59L311.18 117.9Z" fill="#0B7D77"/>
<g opacity="0.5">
<path d="M369.25 151.59L315.52 191.83L314.75 178.78L49.5297 194.35L46.7197 146.54L311.94 130.97L311.17 117.9L369.25 151.59Z" fill="white"/>
<path d="M47.1801 197L44.0801 144.2L309.29 128.63L308.41 113.42L373.78 151.33L313.29 196.63L312.4 181.43L47.1801 197ZM49.3601 148.9L51.8801 191.72L317.1 176.13L317.74 187.04L364.74 151.85L313.94 122.4L314.58 133.32L49.3601 148.9Z" fill="#0B7D77"/>
</g>
<path d="M181.83 396.46C181.83 396.46 180.83 436.07 180.83 436.1C180.83 443.42 181.01 449.84 181.4 453.1V453.16C181.413 453.945 181.601 454.717 181.95 455.42V455.42C184.14 456.89 242.66 458.42 244.72 457.78C246.78 457.14 245.13 451.22 242.91 449.35C240.69 447.48 218.56 437 218.56 437L219.2 397.41L181.83 396.46Z" fill="#EB9481"/>
<path d="M180.76 428.24C180.76 428.24 180.83 436.07 180.82 436.1C180.82 443.42 181 449.84 181.39 453.1V453.16C181.489 453.932 181.673 454.69 181.94 455.42V455.42C184.13 456.89 242.65 458.42 244.71 457.78C246.77 457.14 245.12 451.22 242.9 449.35C240.68 447.48 218.56 437 218.56 437V429L180.76 428.24Z" fill="white"/>
<path d="M222.14 437C218.25 436.36 213.51 437.06 210.6 439.89C210.49 440 210.65 440.15 210.77 440.11C214.456 438.834 218.268 437.955 222.14 437.49C222.197 437.478 222.248 437.448 222.284 437.403C222.321 437.358 222.341 437.302 222.341 437.245C222.341 437.187 222.321 437.131 222.284 437.087C222.248 437.042 222.197 437.011 222.14 437Z" fill="#263238"/>
<path d="M225 438.62C221.1 437.98 216.37 438.68 213.46 441.5C213.35 441.61 213.51 441.77 213.63 441.73C217.315 440.454 221.127 439.575 225 439.11C225.056 439.099 225.107 439.068 225.144 439.023C225.18 438.979 225.2 438.923 225.2 438.865C225.2 438.807 225.18 438.751 225.144 438.707C225.107 438.662 225.056 438.631 225 438.62Z" fill="#263238"/>
<path d="M227.82 440.25C223.92 439.61 219.19 440.3 216.28 443.13C216.17 443.24 216.28 443.4 216.45 443.36C220.132 442.083 223.94 441.204 227.81 440.74C227.866 440.73 227.918 440.7 227.955 440.656C227.993 440.612 228.014 440.557 228.015 440.499C228.016 440.441 227.997 440.385 227.962 440.34C227.926 440.294 227.876 440.263 227.82 440.25Z" fill="#263238"/>
<path d="M244.75 457.87C242.69 458.5 184.17 456.98 181.98 455.51C181.14 454.97 180.86 446.43 180.83 436.1V435.77L218.59 436.33V436.97C218.59 436.97 240.73 447.57 242.97 449.45C245.21 451.33 246.81 457.24 244.75 457.87Z" fill="#37474F"/>
<path d="M180.82 435.77V436.1C180.87 446.43 181.14 454.97 181.98 455.51C182.98 456.18 195.66 456.86 209.36 457.35C225.77 457.93 243.63 458.22 244.75 457.87C246.81 457.24 245.15 451.31 242.94 449.44C240.73 447.57 218.56 437 218.56 437V436.37L206 436.15L180.82 435.77Z" fill="#0B7D77"/>
<path d="M244.14 455.58C234.29 455.08 194.48 454 184.7 454.26C184.62 454.26 184.62 454.32 184.7 454.32C194.46 455.03 234.27 455.79 244.14 455.74C244.35 455.74 244.35 455.59 244.14 455.58Z" fill="#263238"/>
<path opacity="0.1" d="M206 436.15C206.92 442.47 208.33 451.79 209.36 457.35C225.77 457.93 243.63 458.22 244.75 457.87C246.81 457.24 245.15 451.31 242.94 449.44C240.73 447.57 218.56 437 218.56 437V436.37L206 436.15Z" fill="black"/>
<path d="M177.42 436.31L219.77 436.72C219.77 436.72 222.17 367.72 222.35 344.78C222.56 318.51 221.07 239.78 221.07 239.78H189.41C189.41 239.78 180.92 257.15 185.77 276.68L187.11 346.97L177.42 436.31Z" fill="#263238"/>
<path d="M180.56 428.9C181.678 428.75 182.803 428.66 183.93 428.63C185.18 428.54 186.43 428.45 187.68 428.4C190.09 428.29 192.5 428.25 194.91 428.24C199.78 428.24 204.64 428.24 209.5 428.41C212.27 428.5 215.03 428.61 217.79 428.77C217.9 428.77 217.89 428.94 217.79 428.94C212.97 429.12 208.14 429.19 203.32 429.29C198.5 429.39 193.68 429.47 188.87 429.38C187.48 429.38 186.1 429.38 184.72 429.26C183.34 429.14 181.93 429.26 180.58 429.06C180.5 429.05 180.46 428.92 180.56 428.9Z" fill="#37474F"/>
<path d="M216.72 390.84C217.21 379.44 217.58 368.03 217.89 356.63C218.51 333.81 218.673 310.986 218.38 288.16C218.22 275.36 217.88 262.56 217.5 249.76C217.5 249.61 217.71 249.62 217.72 249.76C218.93 272.67 219.4 295.63 219.42 318.57C219.44 341.51 219 364.23 217.84 387C217.21 399.79 216.43 412.6 215.23 425.35C215.23 425.46 215.05 425.46 215.05 425.35C215.57 413.86 216.22 402.36 216.72 390.84Z" fill="#37474F"/>
<path d="M227.13 402.75C227.13 402.75 227.45 441.04 227.45 441.07C227.45 448.39 227.62 454.81 228.01 458.12C228.004 458.136 228.004 458.154 228.01 458.17C228.011 458.956 228.199 459.731 228.56 460.43C228.556 460.446 228.556 460.464 228.56 460.48C230.74 461.95 289.26 463.48 291.32 462.83C293.38 462.18 291.74 456.28 289.51 454.41C287.28 452.54 265.13 441.94 265.13 441.94L264.45 403.67L227.13 402.75Z" fill="#EB9481"/>
<path d="M227.38 433.2C227.38 433.2 227.45 441.04 227.45 441.07C227.45 448.39 227.62 454.81 228.01 458.12C228.004 458.136 228.004 458.154 228.01 458.17C228.102 458.943 228.287 459.702 228.56 460.43C228.556 460.447 228.556 460.464 228.56 460.48C230.74 461.95 289.26 463.48 291.32 462.83C293.38 462.18 291.74 456.28 289.51 454.41C287.28 452.54 265.13 441.94 265.13 441.94L265.18 433.94L227.38 433.2Z" fill="white"/>
<path d="M268.77 442C264.87 441.36 260.14 442.05 257.23 444.88C257.12 444.99 257.23 445.15 257.4 445.11C261.082 443.833 264.89 442.954 268.76 442.49C268.817 442.48 268.868 442.45 268.905 442.406C268.943 442.362 268.964 442.307 268.965 442.249C268.966 442.191 268.948 442.135 268.912 442.09C268.876 442.044 268.826 442.013 268.77 442Z" fill="#263238"/>
<path d="M271.61 443.59C267.71 442.95 262.98 443.64 260.07 446.47C259.96 446.58 260.07 446.74 260.24 446.7C263.922 445.423 267.73 444.544 271.6 444.08C271.656 444.07 271.708 444.04 271.745 443.996C271.783 443.952 271.804 443.897 271.805 443.839C271.806 443.781 271.787 443.725 271.752 443.68C271.716 443.634 271.666 443.602 271.61 443.59Z" fill="#263238"/>
<path d="M274.45 445.22C270.55 444.58 265.81 445.22 262.91 448.1C262.79 448.21 262.91 448.37 263.08 448.33C266.762 447.053 270.57 446.174 274.44 445.71C274.497 445.7 274.548 445.67 274.586 445.626C274.623 445.582 274.644 445.527 274.645 445.469C274.646 445.411 274.628 445.355 274.592 445.31C274.556 445.264 274.506 445.233 274.45 445.22Z" fill="#263238"/>
<path d="M291.37 462.83C289.31 463.47 230.8 461.95 228.61 460.48C227.77 459.93 227.49 451.39 227.45 441.07C227.45 440.96 227.45 440.85 227.45 440.74L265.21 441.3V441.94C265.21 441.94 287.34 452.54 289.58 454.41C291.82 456.28 293.44 462.21 291.37 462.83Z" fill="#0B7D77"/>
<path d="M290.77 460.55C280.91 460.05 241.11 458.97 231.32 459.23C231.25 459.23 231.24 459.23 231.32 459.29C241.08 460 280.9 460.75 290.77 460.71C291 460.71 291 460.56 290.77 460.55Z" fill="#263238"/>
<path d="M207.78 280.26C207.78 280.26 225.15 335.02 225.47 345.08C225.73 353.66 224.64 441.7 224.64 441.7L268.64 441.96C268.64 441.96 264.93 352.18 264.24 343.24C262.96 326.52 248.31 280.62 237.84 239.73H190.4C190.4 239.73 190.81 261.15 200.55 276.63C200.55 276.63 205 278.67 207.78 280.26Z" fill="#263238"/>
<path d="M227 433.59C232.08 433.44 237.35 433.29 242.43 433.42C247.51 433.55 252.53 433.62 257.56 433.92C260.41 434.09 263.26 434.19 266.11 434.47C266.2 434.47 266.2 434.62 266.11 434.62C261.03 434.92 255.93 434.86 250.85 434.81C245.77 434.76 240.76 434.71 235.72 434.48C232.86 434.35 230.02 434.21 227.17 434.01C226.83 434 226.67 433.6 227 433.59Z" fill="#37474F"/>
<path d="M232.61 248.92C234.18 254.15 253.61 325.92 255.61 336.34C257.61 346.76 260.32 415.18 260.13 426.15C260.13 427.51 260.08 428.87 260.03 430.23C260.03 430.257 260.02 430.282 260.001 430.301C259.982 430.32 259.957 430.33 259.93 430.33C259.904 430.33 259.878 430.32 259.859 430.301C259.841 430.282 259.83 430.257 259.83 430.23C259.53 419.33 256.62 347.53 254.75 336.84C253 326.34 233.64 255 232.29 249C232.29 248.962 232.303 248.925 232.326 248.895C232.349 248.866 232.382 248.844 232.419 248.835C232.456 248.826 232.494 248.829 232.529 248.845C232.564 248.86 232.592 248.887 232.61 248.92Z" fill="#37474F"/>
<path d="M218.66 281.32C216.471 281.304 214.287 281.107 212.13 280.73C209.991 280.265 207.879 279.687 205.8 279C203.753 278.536 201.679 278.202 199.59 278C197.487 277.694 195.439 277.084 193.51 276.19C193.42 276.19 193.35 276.28 193.44 276.32C195.308 277.328 197.258 278.174 199.27 278.85C201.35 279.51 203.53 279.6 205.65 280.12C207.787 280.755 209.961 281.256 212.16 281.62C214.329 281.885 216.523 281.845 218.68 281.5C218.77 281.45 218.74 281.32 218.66 281.32Z" fill="#37474F"/>
<path d="M221.429 324.88C221.009 323.25 220.619 321.63 220.179 320.01C219.289 316.74 218.389 313.47 217.399 310.23C215.399 303.79 213.579 297.31 211.509 290.91C210.329 287.27 209.269 283.6 207.889 280.03C207.883 280.011 207.869 279.996 207.851 279.988C207.833 279.979 207.813 279.978 207.794 279.985C207.776 279.991 207.761 280.005 207.752 280.023C207.744 280.041 207.743 280.061 207.749 280.08C208.449 283.4 209.429 286.65 210.309 289.92C211.189 293.19 212.129 296.45 213.079 299.71C214.949 306.17 216.789 312.65 218.839 319.07C219.406 320.87 219.999 322.663 220.619 324.45C221.249 326.27 221.749 328.15 222.509 329.92C222.559 330.02 222.689 329.98 222.669 329.92C222.379 328.19 221.859 326.54 221.429 324.88Z" fill="#37474F"/>
<path d="M226.63 186.69C223.45 187.11 217.97 181.36 216.26 177.29C216.569 175.143 216.986 173.014 217.51 170.91C217.92 168.91 218.32 166.58 218.51 164.47L231.42 169.05C230.394 171.621 229.686 174.307 229.31 177.05C229.29 177.339 229.29 177.63 229.31 177.92C229.31 177.92 229.31 178.01 229.31 178.07C229.45 179.72 229.71 186.29 226.63 186.69Z" fill="#EB9481"/>
<path d="M216.39 176.24C223.17 178.52 228.08 174.7 230.32 172.36C230.87 170.46 231.45 169.05 231.45 169.05L218.54 164.47C218.32 166.58 217.92 168.87 217.54 170.91C217.06 173.15 216.6 175.1 216.39 176.24Z" fill="#263238"/>
<path d="M235.45 148.91C237.06 153.57 235.07 167.29 231.82 170.45C227.12 175.04 219.17 175.75 215.21 170.04C211.38 164.5 214.29 146.67 217.94 143.77C223.31 139.5 233.07 142 235.45 148.91Z" fill="#EB9481"/>
<path d="M221.94 157.64C221.94 157.64 222.01 157.69 222 157.73C221.85 158.65 221.84 159.73 222.64 160.15C222.64 160.15 222.64 160.21 222.64 160.15C221.62 159.93 221.65 158.49 221.94 157.64Z" fill="#263238"/>
<path d="M222.89 156.78C224.4 156.85 224.13 159.86 222.74 159.78C221.35 159.7 221.63 156.71 222.89 156.78Z" fill="#263238"/>
<path d="M216.72 157.17C216.72 157.17 216.64 157.17 216.64 157.24C216.64 158.18 216.37 159.24 215.5 159.47V159.53C216.54 159.47 216.82 158.06 216.72 157.17Z" fill="#263238"/>
<path d="M216 156.12C214.51 155.88 214.14 158.87 215.51 159.12C216.88 159.37 217.22 156.33 216 156.12Z" fill="#263238"/>
<path d="M224.2 155.51C223.8 155.37 223.45 155.17 223.07 155C222.69 154.83 222.27 154.68 222.07 154.25C222.011 154.122 221.995 153.978 222.026 153.841C222.057 153.704 222.132 153.58 222.24 153.49C222.483 153.349 222.759 153.275 223.04 153.275C223.321 153.275 223.597 153.349 223.84 153.49C224.379 153.695 224.821 154.095 225.08 154.61C225.134 154.734 225.149 154.871 225.125 155.003C225.1 155.136 225.037 155.259 224.942 155.355C224.848 155.452 224.727 155.518 224.595 155.545C224.463 155.573 224.325 155.561 224.2 155.51V155.51Z" fill="#263238"/>
<path d="M214.94 154.51C215.36 154.51 215.75 154.38 216.16 154.31C216.6 154.291 217.024 154.134 217.37 153.86C217.454 153.748 217.5 153.611 217.5 153.47C217.5 153.329 217.454 153.193 217.37 153.08C217.174 152.878 216.929 152.731 216.658 152.656C216.387 152.58 216.101 152.578 215.83 152.65C215.253 152.709 214.718 152.98 214.33 153.41C214.245 153.515 214.194 153.643 214.183 153.778C214.172 153.912 214.201 154.047 214.266 154.164C214.331 154.282 214.43 154.378 214.55 154.44C214.67 154.501 214.806 154.526 214.94 154.51Z" fill="#263238"/>
<path d="M221.45 163.31C221.184 163.657 220.848 163.945 220.464 164.156C220.08 164.366 219.656 164.493 219.22 164.53C218.839 164.585 218.452 164.585 218.07 164.53L217.86 164.48L217.65 164.43C217.604 164.415 217.563 164.386 217.534 164.346C217.505 164.306 217.49 164.259 217.49 164.21V164.21C217.485 164.18 217.485 164.15 217.49 164.12V164.12V164C217.54 163.28 217.7 162.2 217.7 162.2C217.43 162.31 216.04 162.79 216.09 162.42C216.462 159.199 217.155 156.023 218.16 152.94C218.166 152.922 218.178 152.907 218.193 152.896C218.208 152.885 218.226 152.879 218.245 152.879C218.264 152.879 218.282 152.885 218.297 152.896C218.313 152.907 218.324 152.922 218.33 152.94C218.01 155.94 217.17 158.82 216.8 161.81C217.291 161.626 217.807 161.515 218.33 161.48C218.43 161.48 217.98 163.57 217.98 163.89C218.562 164 219.16 163.992 219.739 163.866C220.318 163.741 220.866 163.501 221.35 163.16C221.45 163.17 221.51 163.24 221.45 163.31Z" fill="#263238"/>
<path d="M218.53 164.16C218.879 164.705 219.361 165.152 219.93 165.46C220.24 165.611 220.589 165.664 220.93 165.61C221.69 165.48 221.77 164.8 221.68 164.21C221.631 163.892 221.547 163.58 221.43 163.28C220.58 163.87 219.565 164.178 218.53 164.16V164.16Z" fill="#263238"/>
<path d="M219.93 165.46C220.24 165.611 220.589 165.664 220.93 165.61C221.69 165.48 221.77 164.8 221.68 164.21C221.29 164.192 220.906 164.305 220.588 164.532C220.271 164.759 220.039 165.086 219.93 165.46Z" fill="#FF98B9"/>
<path d="M231.87 158C231.12 155.15 233.04 150.6 231.73 149.26C228.91 146.35 222.39 151.11 218.16 150.85C213.93 150.59 212.87 147.85 213.84 144.58C214.81 141.31 217.79 139.27 222.44 138.9C226.488 138.713 230.472 139.951 233.7 142.4C233.7 142.4 232.78 140.67 233.21 140.18C233.64 139.69 235.53 141.43 236.09 142.18C236.498 142.789 236.793 143.466 236.96 144.18C237.581 144.069 238.214 144.049 238.84 144.12C239.748 144.249 240.583 144.691 241.2 145.37C241.26 145.63 239.75 145.71 238.7 145.69C238.7 145.69 240.47 148.42 240.28 150.63C240.09 152.84 235.91 163.13 235.08 163.19C234 163.23 232.18 159.12 231.87 158Z" fill="#263238"/>
<path d="M238.32 145.37C238.32 145.37 238.23 145.37 238.26 145.37C239.221 146.258 239.914 147.398 240.26 148.66C240.582 150.18 240.488 151.759 239.99 153.23C238.987 156.026 237.69 158.708 236.12 161.23C236.116 161.239 236.113 161.248 236.112 161.258C236.111 161.267 236.112 161.277 236.114 161.286C236.117 161.296 236.122 161.304 236.128 161.312C236.134 161.319 236.142 161.326 236.15 161.33C236.159 161.335 236.168 161.338 236.178 161.339C236.187 161.34 236.197 161.339 236.206 161.336C236.216 161.333 236.224 161.328 236.232 161.322C236.239 161.316 236.246 161.309 236.25 161.3C238.086 158.663 239.496 155.754 240.43 152.68C241.09 150.12 240.69 147 238.32 145.37Z" fill="#263238"/>
<path d="M232 148.15C230.764 147.92 229.496 147.92 228.26 148.15C227.112 148.467 226.007 148.924 224.97 149.51C222.595 150.747 219.919 151.287 217.25 151.07C217.25 151.07 217.25 151.12 217.25 151.12C219.68 151.501 222.168 151.153 224.4 150.12C225.507 149.542 226.649 149.034 227.82 148.6C229.184 148.314 230.585 148.246 231.97 148.4C231.986 148.402 232.003 148.401 232.019 148.396C232.035 148.392 232.05 148.384 232.063 148.374C232.076 148.364 232.087 148.351 232.095 148.337C232.103 148.322 232.108 148.306 232.11 148.29C232.112 148.274 232.111 148.257 232.106 148.241C232.102 148.225 232.094 148.21 232.084 148.197C232.074 148.184 232.061 148.173 232.047 148.165C232.032 148.157 232.016 148.152 232 148.15V148.15Z" fill="#263238"/>
<path d="M231.26 141C229.658 140.054 227.926 139.347 226.12 138.9C224.403 138.408 222.612 138.222 220.83 138.35C217.76 138.63 214.83 140.35 213.91 143.45C213.408 145.02 213.512 146.722 214.2 148.22C214.212 148.236 214.229 148.247 214.249 148.252C214.268 148.257 214.289 148.255 214.307 148.247C214.326 148.239 214.341 148.225 214.35 148.208C214.36 148.19 214.363 148.169 214.36 148.15C213.806 146.776 213.712 145.26 214.093 143.828C214.473 142.397 215.307 141.127 216.47 140.21C219.11 138.21 222.61 138.29 225.69 139C227.608 139.472 229.471 140.142 231.25 141C231.25 141 231.27 141 231.26 141Z" fill="#263238"/>
<path d="M232.78 160.12C232.78 160.12 235.78 155.66 237.78 156.73C239.78 157.8 237.59 164.22 235.25 165.14C234.959 165.277 234.643 165.354 234.322 165.366C234 165.378 233.679 165.325 233.378 165.211C233.078 165.096 232.803 164.921 232.572 164.698C232.34 164.474 232.156 164.206 232.03 163.91L232.78 160.12Z" fill="#EB9481"/>
<path d="M182.09 250.61C182.22 250.78 243.09 256.29 243.71 255.71C244.56 254.9 240.93 193.99 230.06 181.55C227.39 178.48 217.94 174.8 214.83 176.71C206.76 181.71 201.78 192.92 198.59 199.45C196.22 204.29 193.18 212.62 190.36 221.18C185.71 235.29 181.64 250 182.09 250.61Z" fill="#0B7D77"/>
<path d="M218.81 194.62C218.974 195.658 219.284 196.668 219.73 197.62C220.16 198.577 220.719 199.472 221.39 200.28C221.231 199.24 220.921 198.23 220.47 197.28C220.041 196.322 219.482 195.427 218.81 194.62V194.62ZM229.05 234.51C229.216 235.549 229.529 236.559 229.98 237.51C230.4 238.476 230.96 239.375 231.64 240.18C231.29 238.098 230.396 236.146 229.05 234.52V234.51ZM203.77 232.6C203.935 233.639 204.248 234.649 204.7 235.6C205.118 236.566 205.681 237.463 206.37 238.26C206.206 237.219 205.889 236.208 205.43 235.26C205.006 234.299 204.447 233.403 203.77 232.6V232.6ZM186.45 245.18C188.527 244.818 190.475 243.922 192.1 242.58C190.021 242.935 188.072 243.832 186.45 245.18V245.18ZM227.68 213.62C228.718 213.456 229.728 213.146 230.68 212.7C231.643 212.274 232.539 211.712 233.34 211.03C232.301 211.196 231.291 211.509 230.34 211.96C229.377 212.38 228.481 212.939 227.68 213.62V213.62ZM211.34 182.77C212.379 182.606 213.388 182.296 214.34 181.85C215.306 181.424 216.205 180.862 217.01 180.18C214.933 180.546 212.985 181.437 211.35 182.77H211.34ZM228.73 187.31C229.345 186.46 229.836 185.527 230.19 184.54C230.441 183.857 230.635 183.154 230.77 182.44L230.49 182.06C230.063 182.752 229.708 183.485 229.43 184.25C229.048 185.23 228.813 186.261 228.73 187.31V187.31ZM204.46 212.31C205.075 211.456 205.566 210.52 205.92 209.53C206.298 208.552 206.533 207.525 206.62 206.48C206.008 207.331 205.516 208.263 205.16 209.25C204.781 210.238 204.546 211.275 204.46 212.33V212.31ZM200.67 252.31L201.24 252.36C201.324 251.968 201.377 251.57 201.4 251.17C201.122 251.551 200.878 251.956 200.67 252.38V252.31ZM238.29 254.66C238.905 253.81 239.396 252.877 239.75 251.89C240.132 250.909 240.368 249.878 240.45 248.83C239.238 250.553 238.494 252.562 238.29 254.66V254.66ZM189.7 223.19C189.94 223.303 190.18 223.403 190.42 223.49C191.402 223.867 192.432 224.102 193.48 224.19C192.629 223.574 191.692 223.086 190.7 222.74L189.94 222.48L189.7 223.19ZM215.36 247.37C217.082 248.586 219.092 249.331 221.19 249.53C220.34 248.918 219.407 248.43 218.42 248.08C217.44 247.696 216.409 247.457 215.36 247.37V247.37ZM213.36 223.37C214.213 223.986 215.149 224.478 216.14 224.83C217.101 225.206 218.112 225.441 219.14 225.53C217.419 224.313 215.409 223.569 213.31 223.37H213.36ZM235.15 196.72C235.659 197.111 236.209 197.447 236.79 197.72C236.73 197.46 236.66 197.21 236.6 196.95C236.114 196.837 235.619 196.767 235.12 196.74L235.15 196.72ZM202.39 191.85C203.262 192.17 204.174 192.365 205.1 192.43C204.385 191.9 203.601 191.469 202.77 191.15L202.39 191.85Z" fill="white"/>
<path d="M224.72 191.13C240.33 194.84 264.63 198.51 272.63 193.45C276.72 190.86 286.22 168.18 288.87 155.45C289.56 152.14 262.41 147.5 261.55 151C260.39 155.72 257.67 170.6 256.33 172.94C255.56 174.28 238.33 176.28 224.45 178.48C208.17 181.08 212.05 188.12 224.72 191.13Z" fill="#EB9481"/>
<path d="M266 122.29C266.657 122.355 267.287 122.582 267.835 122.95C268.383 123.318 268.831 123.816 269.14 124.4C269.948 123.379 271.086 122.671 272.36 122.4C274.63 122.01 276.23 125.4 276.23 125.4C277.289 124.507 278.592 123.953 279.97 123.81C282.18 123.66 284.29 126.81 284.29 126.81C284.989 126.591 285.73 126.537 286.454 126.654C287.178 126.77 287.864 127.053 288.46 127.48C292.67 131.01 291.35 150.28 287.97 157.97L262.26 154.09C262.26 154.09 258.81 139.57 259.38 135.09C259.84 131.4 262 121.91 266 122.29Z" fill="#EB9481"/>
<path d="M269 124.46C267.685 128.384 266.856 132.454 266.53 136.58C266.53 136.67 266.66 136.69 266.67 136.58C267.09 132.58 268.61 128.5 269.19 124.49C269.24 124.4 269.07 124.36 269 124.46Z" fill="#263238"/>
<path d="M275.9 125.47C275.648 126.378 275.52 127.317 275.52 128.26C275.45 129.26 275.41 130.26 275.37 131.26C275.31 133.26 275.293 135.26 275.32 137.26C275.32 137.35 275.46 137.37 275.47 137.26C275.53 135.26 275.63 133.26 275.79 131.26C275.86 130.26 275.95 129.26 276.04 128.26C276.188 127.331 276.232 126.388 276.17 125.45C276.16 125.421 276.14 125.396 276.115 125.379C276.089 125.362 276.058 125.354 276.027 125.356C275.996 125.358 275.967 125.371 275.944 125.391C275.921 125.412 275.906 125.439 275.9 125.47V125.47Z" fill="#263238"/>
<path d="M284.26 126.92C284.049 127.742 283.978 128.594 284.05 129.44C284.05 130.35 284.05 131.26 284.05 132.17C284 133.99 283.96 135.81 283.85 137.62C283.85 137.72 283.99 137.73 283.99 137.62C284.11 135.78 284.25 133.93 284.35 132.09C284.4 131.18 284.45 130.27 284.49 129.37C284.602 128.544 284.568 127.704 284.39 126.89C284.39 126.89 284.28 126.88 284.26 126.92Z" fill="#263238"/>
<path d="M246.55 198.39L245.55 173.94C245.55 173.94 228.49 175.04 218.82 178.59C209.15 182.14 212.44 187.41 221.82 191.07C231.2 194.73 246.55 198.39 246.55 198.39Z" fill="#0B7D77"/>
<path d="M242.54 175.21C241.559 174.828 240.528 174.592 239.48 174.51C240.332 175.126 241.268 175.618 242.26 175.97C243.237 176.35 244.264 176.586 245.31 176.67C244.463 176.05 243.53 175.558 242.54 175.21V175.21ZM229.43 184.21C229.052 185.191 228.817 186.222 228.73 187.27C229.344 186.416 229.836 185.48 230.19 184.49C230.563 183.528 230.798 182.518 230.89 181.49C230.277 182.341 229.786 183.273 229.43 184.26V184.21ZM246.15 188.91C245.294 189.09 244.461 189.368 243.67 189.74C242.704 190.161 241.805 190.721 241 191.4C242.038 191.236 243.048 190.926 244 190.48C244.767 190.137 245.495 189.711 246.17 189.21L246.15 188.91ZM214.46 180.91C214.014 181.28 213.638 181.727 213.35 182.23C213.68 182.11 214.01 181.98 214.35 181.84C215.315 181.414 216.214 180.852 217.02 180.17C216.137 180.304 215.276 180.557 214.46 180.92V180.91Z" fill="white"/>
<path d="M241.16 175.38C241.046 182.316 241.404 189.252 242.23 196.14C242.23 196.14 242.39 196.14 242.39 196.14C242.44 190.46 241.68 179.14 241.39 175.38C241.4 175.31 241.16 175.31 241.16 175.38Z" fill="#263238"/>
<path d="M246.42 195.32C246.58 196.32 246.67 197.32 246.8 198.38V198.7L246.45 198.63C244.31 198.18 242.17 197.75 240.05 197.23C237.93 196.71 235.81 196.17 233.71 195.57C231.61 194.97 229.51 194.35 227.45 193.63C225.39 192.91 223.32 192.19 221.31 191.3L227.65 192.96C229.76 193.51 231.87 194.06 233.97 194.63L240.28 196.35C242.38 196.91 244.47 197.56 246.57 198.15L246.27 198.4C246.35 197.37 246.35 196.35 246.42 195.32Z" fill="#263238"/>
<path d="M226.87 193.2C226.092 193.389 225.286 193.44 224.49 193.35C223.692 193.278 222.917 193.047 222.21 192.67C222.61 192.67 223 192.72 223.39 192.75L224.54 192.85C225.322 192.924 226.1 193.041 226.87 193.2V193.2Z" fill="#263238"/>
<path d="M78.1793 436.11C74.7393 434.25 70.0793 433.38 66.4493 435.11C66.3093 435.17 66.4493 435.37 66.5293 435.37C70.3846 435.356 74.2303 435.758 77.9993 436.57C78.0574 436.583 78.1183 436.575 78.1709 436.547C78.2235 436.518 78.2643 436.473 78.286 436.417C78.3077 436.362 78.3089 436.3 78.2893 436.244C78.2698 436.188 78.2307 436.14 78.1793 436.11V436.11Z" fill="#263238"/>
<path d="M80.3091 438.551C76.8691 436.691 72.2091 435.821 68.5791 437.551C68.4391 437.611 68.5791 437.811 68.6591 437.811C72.5209 437.792 76.3733 438.191 80.1491 439.001C80.2025 439.003 80.2551 438.988 80.2993 438.958C80.3436 438.928 80.3771 438.885 80.395 438.834C80.4129 438.784 80.4142 438.729 80.3987 438.678C80.3833 438.627 80.3519 438.582 80.3091 438.551Z" fill="#263238"/>
<path d="M82.4397 441C78.9997 439.14 74.3397 438.27 70.7097 440C70.5697 440.06 70.7097 440.26 70.7997 440.26C74.6592 440.251 78.5083 440.66 82.2797 441.48C82.3434 441.501 82.4128 441.496 82.4728 441.466C82.5329 441.436 82.5785 441.383 82.5997 441.32C82.6209 441.256 82.616 441.187 82.586 441.127C82.556 441.067 82.5034 441.021 82.4397 441V441Z" fill="#263238"/>
<path d="M84.5796 443.43C81.1296 441.57 76.4796 440.7 72.8396 442.43C72.6996 442.49 72.8396 442.69 72.9296 442.69C76.7891 442.682 80.6381 443.091 84.4096 443.91C84.4733 443.933 84.5432 443.929 84.6042 443.9C84.6651 443.871 84.7121 443.819 84.7346 443.755C84.7571 443.692 84.7535 443.622 84.7244 443.561C84.6953 443.5 84.6433 443.453 84.5796 443.43Z" fill="#263238"/>
<path d="M87.6591 429.81C86.8591 427.37 83.8891 427.4 81.9491 428.19C78.6448 429.617 75.7726 431.886 73.6191 434.77C73.6067 434.779 73.5966 434.791 73.5897 434.805C73.5827 434.819 73.5791 434.835 73.5791 434.85C73.5791 434.866 73.5827 434.881 73.5897 434.895C73.5966 434.909 73.6067 434.921 73.6191 434.93C73.5391 435.21 73.6891 435.59 74.0391 435.57C77.4291 435.42 81.0391 435.68 84.2991 434.5C86.2291 433.81 88.4191 432.12 87.6591 429.81ZM79.1691 434.3C77.5091 434.41 75.8591 434.44 74.1691 434.62C75.7991 433.34 77.3591 432 79.1691 430.88C80.004 430.33 80.8761 429.839 81.7791 429.41C83.1891 428.77 88.1791 428.04 86.2391 431.85C85.1591 434 81.1491 434.16 79.1691 434.3Z" fill="#263238"/>
<path d="M64.62 430.83C67.23 433.08 70.72 434.13 73.83 435.47C73.901 435.494 73.9768 435.5 74.0509 435.489C74.125 435.478 74.1954 435.449 74.2561 435.405C74.3167 435.361 74.366 435.303 74.3997 435.236C74.4335 435.169 74.4507 435.095 74.45 435.02C74.466 435.021 74.4821 435.017 74.4967 435.011C74.5113 435.004 74.524 434.994 74.5339 434.981C74.5437 434.968 74.5503 434.953 74.5531 434.937C74.5559 434.921 74.5548 434.905 74.55 434.89C73.5631 431.431 71.6835 428.293 69.1 425.79C67.57 424.35 64.81 423.27 63.19 425.27C61.57 427.27 63.1 429.51 64.62 430.83ZM63.81 427.69C63.35 423.44 67.81 425.89 68.81 426.99C69.4956 427.717 70.1367 428.485 70.73 429.29C71.97 430.96 72.96 432.77 74.03 434.54C72.54 433.79 71.03 433.17 69.49 432.48C67.73 431.65 64.06 430 63.81 427.69Z" fill="#263238"/>
<path d="M39.5996 430.87C39.3796 432.2 39.1596 433.5 38.9596 434.76C37.6396 442.85 36.8596 449.09 37.4696 449.66C39.3296 451.43 95.1596 462.66 97.2496 462.38C99.3396 462.1 98.7296 456.16 96.9096 454C95.7996 452.69 88.1696 447.05 82.3596 442.84C78.6196 440.14 75.6396 438.01 75.6396 438.01L86.8396 401.81L49.2996 394.4C49.2996 394.4 39.9996 428.73 39.5996 430.87Z" fill="#FFC4C0"/>
<path d="M97.2496 462.38C95.1596 462.63 39.3296 451.43 37.4696 449.66C36.8596 449.08 37.6396 442.85 38.9596 434.76C39.1596 433.51 39.3696 432.2 39.5996 430.87C39.7296 430.12 40.9596 425.44 42.4896 419.67C47.9296 420.75 69.7596 425.14 79.0196 427L75.6196 438C75.6196 438 78.6196 440.12 82.3396 442.83C88.1496 447.04 95.7796 452.67 96.8796 453.99C98.7196 456.16 99.3296 462.11 97.2496 462.38Z" fill="#EBEBEB"/>
<path d="M97.7095 462.74C96.3295 462.9 72.1195 458.09 54.5695 454.15C50.5095 453.24 46.8095 452.37 43.8295 451.63C39.7195 450.63 36.9795 449.81 36.5895 449.44C35.9095 448.78 40.1895 425.89 40.9395 423.24L78.0595 430.92L75.8795 437.78C75.8795 437.78 95.5395 451.94 97.4095 454.16C99.2795 456.38 99.8395 462.47 97.7095 462.74Z" fill="#0B7D77"/>
<path d="M96.8395 460.18C87.3095 458 48.6995 450 39.1195 448.54C39.0395 448.54 39.0295 448.54 39.1195 448.6C48.4995 451 87.1795 458.66 96.7995 460.34C96.9995 460.37 96.9995 460.23 96.8395 460.18Z" fill="#263238"/>
<path d="M86.79 422.14C87.19 421.95 98.07 375.25 103.03 356.21C110.19 328.73 117.13 283.94 119.21 274.61C123.504 263.868 126.42 252.625 127.89 241.15C127.89 241.15 82.75 241.15 82.75 241.15C82.75 241.15 70.92 263.78 77 279.78C77.56 281.25 69.12 337.78 64.75 346.97C60.98 354.89 43.75 412.89 43.75 412.89L86.79 422.14Z" fill="#37474F"/>
<path d="M86.5499 412.57C85.4499 412.17 84.2699 411.97 83.1299 411.67C81.9899 411.37 80.7199 411.06 79.5099 410.79C77.0899 410.24 74.6699 409.72 72.2499 409.19C67.3999 408.14 62.5399 407.19 57.6799 406.19C56.3466 405.917 55.0133 405.657 53.6799 405.41C52.3671 405.09 51.0286 404.886 49.6799 404.8C49.6674 404.807 49.657 404.817 49.6498 404.83C49.6425 404.842 49.6387 404.856 49.6387 404.87C49.6387 404.885 49.6425 404.899 49.6498 404.911C49.657 404.923 49.6674 404.933 49.6799 404.94C50.781 405.352 51.9151 405.67 53.0699 405.89C54.2699 406.19 55.4799 406.47 56.6899 406.74C59.0699 407.28 61.4499 407.83 63.8399 408.35C68.6399 409.35 73.4499 410.46 78.2699 411.44C79.6399 411.71 80.9999 411.99 82.3799 412.22C83.7599 412.45 85.1199 412.81 86.4999 412.91C86.6199 412.9 86.7499 412.64 86.5499 412.57Z" fill="#263238"/>
<path d="M107.399 272.54C106.529 277.24 105.809 281.97 105.029 286.68C104.639 289.09 104.109 291.47 103.709 293.87C103.309 296.27 102.939 298.59 102.559 300.95C101.026 310.45 99.5092 319.947 98.0092 329.44C97.2626 334.16 96.5059 338.873 95.7392 343.58C95.0348 348.224 94.0834 352.827 92.8892 357.37C91.6492 361.91 90.1892 366.37 88.7992 370.88L84.5492 384.7C81.7392 393.86 82.1392 395.42 79.6192 404.7C79.3092 405.85 78.9892 407 78.6192 408.15C78.6182 408.175 78.6261 408.2 78.6415 408.221C78.6569 408.241 78.6789 408.255 78.7037 408.261C78.7285 408.267 78.7545 408.264 78.7774 408.253C78.8003 408.242 78.8187 408.223 78.8292 408.2C81.9392 399.12 81.5092 397.56 84.3992 388.4C87.2892 379.24 90.2492 370.16 92.9992 361C94.332 356.541 95.3972 352.006 96.1892 347.42C96.9892 342.7 97.6892 337.97 98.4492 333.24C99.9426 323.747 101.459 314.25 102.999 304.75C103.739 300.09 104.559 295.42 105.139 290.75C105.739 285.89 106.579 281.06 107.299 276.22C107.479 275.03 107.649 273.85 107.809 272.66C107.809 272.39 107.449 272.28 107.399 272.54Z" fill="#263238"/>
<path d="M146.219 439.22C142.369 438.48 137.669 439.04 134.709 441.76C134.599 441.87 134.709 442.03 134.879 441.99C138.56 440.826 142.355 440.061 146.199 439.71C146.256 439.701 146.309 439.673 146.347 439.63C146.386 439.587 146.408 439.531 146.41 439.474C146.413 439.416 146.395 439.359 146.36 439.313C146.325 439.267 146.275 439.234 146.219 439.22Z" fill="#263238"/>
<path d="M149 440.91C145.16 440.17 140.45 440.73 137.5 443.45C137.38 443.56 137.5 443.72 137.66 443.68C141.347 442.515 145.149 441.751 149 441.4C149.056 441.388 149.107 441.358 149.144 441.313C149.18 441.268 149.2 441.212 149.2 441.155C149.2 441.097 149.18 441.041 149.144 440.997C149.107 440.952 149.056 440.921 149 440.91Z" fill="#263238"/>
<path d="M151.739 442.6C147.899 441.86 143.199 442.42 140.239 445.14C140.129 445.25 140.239 445.41 140.409 445.37C144.09 444.206 147.885 443.441 151.729 443.09C151.786 443.08 151.838 443.05 151.875 443.006C151.913 442.963 151.934 442.907 151.935 442.849C151.936 442.792 151.917 442.735 151.882 442.69C151.846 442.644 151.796 442.613 151.739 442.6V442.6Z" fill="#263238"/>
<path d="M154.51 444.29C150.67 443.55 145.96 444.11 143.01 446.83C142.89 446.94 143.01 447.1 143.17 447.06C146.85 445.896 150.646 445.132 154.49 444.78C154.547 444.771 154.599 444.742 154.638 444.699C154.676 444.656 154.698 444.601 154.701 444.543C154.703 444.485 154.685 444.428 154.651 444.382C154.616 444.336 154.566 444.303 154.51 444.29V444.29Z" fill="#263238"/>
<path d="M153.369 430.38C151.869 428.29 149.049 429.2 147.439 430.54C144.704 432.885 142.634 435.91 141.439 439.31C141.433 439.324 141.43 439.34 141.431 439.356C141.432 439.371 141.436 439.387 141.444 439.4C141.452 439.414 141.463 439.425 141.476 439.434C141.489 439.443 141.504 439.448 141.519 439.45C141.519 439.74 141.789 440.06 142.119 439.94C145.309 438.78 148.849 437.94 151.579 435.84C153.209 434.62 154.789 432.35 153.369 430.38ZM146.619 437.2C145.069 437.8 143.499 438.33 141.969 438.99C143.139 437.29 144.229 435.54 145.569 433.99C146.2 433.213 146.885 432.481 147.619 431.8C148.769 430.8 153.319 428.58 152.619 432.8C152.219 435.08 148.469 436.47 146.619 437.2Z" fill="#263238"/>
<path d="M131.699 438.25C134.859 439.62 138.499 439.57 141.869 439.92C141.944 439.922 142.018 439.905 142.086 439.873C142.153 439.84 142.212 439.793 142.257 439.733C142.303 439.674 142.334 439.605 142.349 439.532C142.363 439.458 142.36 439.382 142.339 439.31C142.35 439.3 142.359 439.288 142.365 439.274C142.371 439.26 142.374 439.245 142.374 439.23C142.374 439.215 142.371 439.201 142.365 439.187C142.359 439.173 142.35 439.161 142.339 439.15C140.358 436.145 137.624 433.71 134.409 432.09C132.519 431.19 129.559 430.98 128.619 433.37C127.679 435.76 129.849 437.45 131.699 438.25ZM129.999 435.5C128.289 431.58 133.229 432.6 134.599 433.32C135.476 433.801 136.318 434.343 137.119 434.94C138.809 436.16 140.289 437.59 141.839 438.94C140.199 438.67 138.549 438.54 136.889 438.33C134.899 438.1 130.919 437.66 129.999 435.5Z" fill="#263238"/>
<path d="M107.699 434.79C107.699 437.07 108.699 459.88 109.389 460.32C111.559 461.7 168.509 461.86 170.499 461.21C172.489 460.56 170.749 454.82 168.499 453.06C167.159 451.98 158.589 447.93 152.069 444.93C147.879 443 144.539 441.5 144.539 441.5L144.719 434.81L145.239 404.38H107.639C107.639 404.38 107.449 420 107.699 434.79Z" fill="#FFC4C0"/>
<path d="M170.51 461.21C168.51 461.86 111.56 461.69 109.4 460.32C108.69 459.87 107.73 437.07 107.7 434.8C107.7 433.29 107.7 431.8 107.64 430.26H144.83L144.75 434.8L144.56 441.47L152.09 444.91C158.6 447.91 167.17 451.98 168.52 453.05C170.75 454.82 172.49 460.55 170.51 461.21Z" fill="#EBEBEB"/>
<path d="M171.85 461.67C170.53 462.11 145.85 462.11 127.85 461.67C123.69 461.57 119.85 461.44 116.85 461.3C112.62 461.09 109.78 460.85 109.32 460.55C108.52 460.04 107.39 436.75 107.61 434.01L145.23 434.2L145.37 441.37C145.37 441.37 167.62 451.5 169.89 453.31C172.16 455.12 173.89 461 171.85 461.67Z" fill="#0B7D77"/>
<path d="M170.489 459.34C160.719 459.04 121.289 458.75 111.609 459.19C111.539 459.19 111.529 459.25 111.609 459.25C121.289 459.76 160.719 459.73 170.489 459.5C170.699 459.49 170.699 459.34 170.489 459.34Z" fill="#263238"/>
<path d="M100.999 281.53C100.999 281.53 107.429 344.63 107.529 346.11C107.529 346.7 104.769 423.81 104.769 423.81H147.299C147.299 423.81 145.779 351.55 145.129 342.64C145.059 341.64 142.309 277.46 129.929 241.15H82.6895C82.6895 241.15 83.0995 262.48 92.7995 277.91C95.5973 278.965 98.3348 280.173 100.999 281.53V281.53Z" fill="#37474F"/>
<path d="M144.61 415.84C143.44 415.67 142.25 415.71 141.07 415.65C139.89 415.59 138.6 415.53 137.36 415.5C134.88 415.45 132.36 415.43 129.92 415.4C124.92 415.34 120 415.4 115.04 415.4H110.98C109.613 415.349 108.244 415.42 106.89 415.61C106.82 415.61 106.83 415.74 106.89 415.76C108.047 415.941 109.218 416.028 110.39 416.02C111.63 416.07 112.87 416.1 114.11 416.12C116.55 416.17 118.99 416.23 121.44 416.26C126.35 416.32 131.27 416.41 136.19 416.39C137.59 416.39 138.98 416.39 140.38 416.34C141.78 416.29 143.18 416.34 144.56 416.18C144.74 416.15 144.82 415.87 144.61 415.84Z" fill="#263238"/>
<path d="M134.999 349.64C133.879 326.91 131.489 304.28 128.479 281.74C126.839 269.39 124.909 257.06 121.569 245.04C121.569 245.04 121.479 245.04 121.489 245.04C124.093 256.037 126.057 267.176 127.369 278.4C128.769 289.5 130.109 300.62 131.239 311.76C133.529 334.36 134.549 357.04 134.689 379.76C134.769 392.54 134.429 398.56 134.069 411.33C134.069 411.45 134.249 411.44 134.259 411.33C136.109 388.61 136.079 372.4 134.999 349.64Z" fill="#263238"/>
<path d="M132.689 249.94C132.689 249.922 132.682 249.904 132.669 249.891C132.655 249.877 132.638 249.87 132.619 249.87C132.601 249.87 132.583 249.877 132.57 249.891C132.556 249.904 132.549 249.922 132.549 249.94C132.729 252.63 133.189 255.56 131.989 258.1C130.939 260.33 128.929 261.59 127.079 263.1C127.079 263.15 127.079 263.24 127.159 263.22C129.609 262.48 132.059 261.12 133.029 258.6C134.109 255.81 133.519 252.74 132.689 249.94Z" fill="#263238"/>
<path d="M112.21 280.14C110.237 280.082 108.263 280.149 106.3 280.34C104.376 280.442 102.448 280.408 100.53 280.24C99.5671 280.14 98.6119 279.98 97.6696 279.76C96.6696 279.53 95.7696 279.17 94.7996 278.9C93.9187 278.708 93.0035 278.742 92.1396 279C91.1396 279.23 90.1396 279.39 89.0496 279.53C86.682 279.875 84.2816 279.935 81.8996 279.71C81.8096 279.71 81.7696 279.84 81.8996 279.86C83.9025 280.279 85.9433 280.49 87.9896 280.49C89.038 280.466 90.0837 280.373 91.1196 280.21C92.0705 279.931 93.0591 279.803 94.0496 279.83C95.021 280.089 95.976 280.406 96.9096 280.78C97.8607 281.046 98.8299 281.244 99.8096 281.37C101.772 281.63 103.755 281.69 105.73 281.55C107.957 281.5 110.168 281.164 112.31 280.55C112.364 280.537 112.411 280.502 112.44 280.454C112.469 280.407 112.478 280.349 112.465 280.295C112.451 280.24 112.417 280.194 112.369 280.165C112.321 280.135 112.264 280.127 112.21 280.14Z" fill="#263238"/>
<path d="M106.499 331.77C106.126 327.683 105.726 323.597 105.299 319.51C104.439 311.33 103.629 303.15 102.789 294.97C102.309 290.33 101.969 285.65 101.209 281.05C101.209 280.93 100.999 280.93 101.009 281.05C101.069 285.15 101.509 289.25 101.859 293.34C102.209 297.43 102.569 301.52 102.949 305.61C103.719 313.79 104.449 321.98 105.409 330.15C105.682 332.463 105.969 334.797 106.269 337.15C106.579 339.47 106.989 341.78 107.269 344.1C107.269 344.121 107.278 344.142 107.293 344.157C107.308 344.172 107.328 344.18 107.349 344.18C107.37 344.18 107.391 344.172 107.406 344.157C107.421 344.142 107.429 344.121 107.429 344.1C107.069 340 106.879 335.86 106.499 331.77Z" fill="#263238"/>
<path d="M106.83 189.86C107.15 190.74 112.2 196.08 116.31 195.37C117.65 195.14 116.71 187.77 116.71 187.77L116.76 187.21L117.53 179.38L107.86 174.74L106.47 174.14C106.47 174.14 106.4 176.3 106.35 178.98C106.35 179.11 106.35 179.23 106.35 179.37C106.35 179.51 106.35 179.66 106.35 179.8V181.02C106.35 181.34 106.35 181.64 106.35 181.96C106.35 182.28 106.35 182.61 106.35 182.96C106.347 185.269 106.507 187.574 106.83 189.86V189.86Z" fill="#FFC4C0"/>
<path d="M106.35 179C107.382 181.046 108.848 182.843 110.646 184.264C112.444 185.686 114.53 186.698 116.76 187.23L117.53 179.4L107.86 174.76L106.47 174.16C106.47 174.16 106.4 176.3 106.35 179Z" fill="#263238"/>
<path d="M129.55 228.82L129.93 241.15H82.75C82.75 241.15 88.31 204.6 100.75 191.15C106.97 184.39 113.58 185.66 118.24 190.38C119.41 191.58 132.3 208.38 133.78 215.48C135.07 221.68 129.55 228.82 129.55 228.82Z" fill="#0B7D77"/>
<path opacity="0.1" d="M129.88 239.68H83C83.06 239.3 83.14 238.86 83.23 238.36H129.85L129.88 239.68ZM129.73 234.68H83.92C83.83 235.14 83.74 235.58 83.66 236H129.77L129.73 234.68ZM129.62 230.99H84.69C84.59 231.44 84.5 231.88 84.41 232.31H129.66L129.62 230.99ZM85.53 227.29C85.43 227.74 85.32 228.18 85.22 228.61H129.71C129.9 228.36 130.22 227.9 130.6 227.29H85.53ZM86.44 223.6L86.11 224.92H131.93C132.15 224.5 132.35 224.06 132.55 223.6H86.44ZM87.44 219.91L87.08 221.23H133.4C133.52 220.8 133.63 220.36 133.72 219.91H87.44ZM133.92 216.22H88.52C88.38 216.66 88.25 217.1 88.12 217.54H134C133.995 217.095 133.965 216.651 133.91 216.21L133.92 216.22ZM132.82 212.53H89.7C89.55 212.97 89.41 213.41 89.26 213.85H133.32C133.18 213.42 133 213 132.81 212.52L132.82 212.53ZM130.98 208.83H91C90.83 209.27 90.67 209.71 90.51 210.16H131.67C131.46 209.71 131.22 209.27 131 208.82L130.98 208.83ZM128.81 205.14H92.47C92.2833 205.58 92.1033 206.02 91.93 206.46H129.61C129.35 206.013 129.08 205.57 128.8 205.13L128.81 205.14ZM126.43 201.45H94.12C93.91 201.89 93.7 202.33 93.5 202.77H127.29L126.43 201.45ZM123.89 197.76H96.05C95.8 198.19 95.55 198.63 95.32 199.08H124.79C124.49 198.62 124.18 198.18 123.88 197.75L123.89 197.76ZM121.2 194.07H98.37C98.06 194.5 97.77 194.94 97.48 195.39H122.16L121.2 194.07ZM118.29 190.38H101.44C101.213 190.607 100.983 190.847 100.75 191.1C100.517 191.353 100.337 191.553 100.21 191.7H119.37C118.85 191 118.47 190.57 118.28 190.37L118.29 190.38ZM112.17 186.68H107.65C106.531 186.953 105.462 187.398 104.48 188H115.32C114.339 187.402 113.274 186.953 112.16 186.67L112.17 186.68Z" fill="#030402"/>
<path d="M114.13 200.69C122.58 203.93 154.07 211.14 160.7 205.63C171.11 196.98 179.25 181.48 183.45 168.77C184.9 164.35 157.15 160.54 155.63 165.53C153.63 172.03 148.63 183.86 147.3 185.89C145.97 187.92 127.14 188.26 114.44 189.45C103.84 190.44 103.41 196.59 114.13 200.69Z" fill="#FFC4C0"/>
<path d="M158.93 136C159.688 135.744 160.507 135.727 161.276 135.951C162.045 136.174 162.726 136.628 163.23 137.25C164.054 136.172 165.228 135.415 166.55 135.11C168.91 134.69 170.61 138.2 170.61 138.2C171.696 137.257 173.041 136.665 174.47 136.5C176.77 136.32 178.99 139.62 178.99 139.62C180.466 139.305 182.007 139.532 183.33 140.26C186.78 142.36 186.86 148.52 186.96 152.44C187.06 156.36 183.65 167.56 183.22 169.76L159.1 172.09C159.1 172.09 151.7 161.69 153.2 148.51C153.65 144.59 156.07 137.07 158.93 136Z" fill="#FFC4C0"/>
<path d="M162.829 137.42C161.349 141.42 161.139 145.68 160.689 149.9C160.695 149.915 160.705 149.929 160.719 149.938C160.732 149.947 160.748 149.952 160.764 149.952C160.781 149.952 160.797 149.947 160.81 149.938C160.824 149.929 160.834 149.915 160.839 149.9C161.239 145.69 162.459 141.62 163.029 137.44C163.049 137.35 162.869 137.31 162.829 137.42Z" fill="#263238"/>
<path d="M170.279 138.27C170.029 139.216 169.908 140.192 169.919 141.17C169.859 142.17 169.819 143.24 169.789 144.27C169.789 146.34 169.789 148.42 169.789 150.49C169.789 150.58 169.929 150.6 169.929 150.49C169.982 148.423 170.072 146.357 170.199 144.29C170.266 143.257 170.346 142.227 170.439 141.2C170.582 140.234 170.616 139.254 170.539 138.28C170.527 138.257 170.509 138.237 170.486 138.223C170.464 138.209 170.438 138.201 170.412 138.2C170.386 138.199 170.359 138.205 170.336 138.217C170.313 138.229 170.293 138.248 170.279 138.27V138.27Z" fill="#263238"/>
<path d="M179 139.68C178.792 140.54 178.727 141.429 178.81 142.31C178.81 143.26 178.81 144.2 178.81 145.15C178.81 147.04 178.76 148.92 178.67 150.81C178.67 150.91 178.81 150.92 178.81 150.81C178.92 148.89 179.05 146.97 179.13 145.06C179.13 144.06 179.21 143.17 179.24 142.23C179.351 141.373 179.31 140.503 179.12 139.66C179.117 139.644 179.108 139.63 179.095 139.621C179.082 139.611 179.066 139.608 179.05 139.61C179.034 139.613 179.02 139.622 179.01 139.635C179.001 139.648 178.997 139.664 179 139.68V139.68Z" fill="#263238"/>
<path d="M149.8 179L172.25 197.27C172.25 197.27 163.71 206.92 159.07 207.91C154.43 208.9 129.32 207.46 115.07 201.7C100.82 195.94 104.46 190.35 114.87 189.13C125.28 187.91 144.57 185.62 145.2 185.24C145.83 184.86 149.8 179 149.8 179Z" fill="#0B7D77"/>
<path opacity="0.1" d="M117.159 202.49C116.452 202.243 115.762 201.983 115.089 201.71C114.359 201.41 113.669 201.12 113.029 200.83L105.799 194.92C105.647 194.375 105.678 193.795 105.889 193.27L117.159 202.49ZM108.629 190.76C108.205 190.959 107.8 191.197 107.419 191.47L123.069 204.26C124.069 204.51 125.069 204.75 126.009 204.96L108.629 190.76ZM112.869 189.45C112.289 189.56 111.749 189.68 111.229 189.82L130.999 206C131.879 206.16 132.759 206.31 133.639 206.45L112.869 189.45ZM117.869 188.79L116.039 189L138.109 207C138.929 207.11 139.749 207.21 140.549 207.29L117.869 188.79ZM122.959 188.19L121.149 188.41L144.819 207.75L147.109 207.93L122.959 188.19ZM128.049 187.58L126.239 187.8L151.129 208.14L153.279 208.2L128.049 187.58ZM133.119 186.95L131.309 187.18L156.959 208.18C157.583 208.157 158.204 208.094 158.819 207.99L133.119 186.95ZM138.119 186.31L136.319 186.55L161.319 206.96C161.709 206.74 162.099 206.49 162.499 206.22L138.119 186.31ZM143.119 185.63L141.339 185.88L164.419 204.75C164.769 204.48 165.119 204.19 165.419 203.9L143.119 185.63ZM146.489 183.63C146.189 184.04 145.919 184.4 145.689 184.63L167.249 202.26L168.249 201.34L146.489 183.63ZM148.639 180.63L147.879 181.71L169.879 199.71L170.789 198.71L148.639 180.63Z" fill="#030402"/>
<path d="M167.129 199.53C161.129 194.24 155.049 188.96 148.549 184.28C148.536 184.271 148.519 184.267 148.504 184.27C148.488 184.273 148.473 184.282 148.464 184.295C148.455 184.308 148.451 184.325 148.454 184.341C148.457 184.357 148.466 184.371 148.479 184.38C154.319 189.85 160.679 194.77 167.019 199.64C167.099 199.7 167.199 199.59 167.129 199.53Z" fill="#263238"/>
<path d="M103.069 157.51C102.665 157.816 102.179 157.998 101.673 158.031C101.166 158.065 100.661 157.95 100.219 157.7C98.9593 157.2 97.3493 155.9 95.9793 156.81C94.4393 157.81 94.9793 160.04 95.7093 161.36C96.4159 162.472 97.0441 163.631 97.5893 164.83C98.0219 165.988 98.2454 167.214 98.2493 168.45C98.2493 170.94 96.8893 173.24 97.0493 175.72C97.2593 178.72 100.049 180.88 102.429 182.24C104.809 183.6 107.709 184.15 110.429 185.1C112.713 185.974 114.739 187.409 116.322 189.271C117.906 191.134 118.995 193.366 119.489 195.76C119.76 196.936 119.917 198.134 119.959 199.34C119.959 200.63 119.869 201.93 119.959 203.22C119.999 203.951 120.213 204.662 120.584 205.293C120.954 205.925 121.471 206.459 122.089 206.85C123.271 207.471 124.555 207.874 125.879 208.04C125.921 208.052 125.959 208.075 125.988 208.107C126.017 208.14 126.037 208.18 126.044 208.223C126.052 208.266 126.047 208.31 126.03 208.35C126.013 208.39 125.985 208.425 125.949 208.45C125.228 208.948 124.473 209.396 123.689 209.79C123.013 210.181 122.266 210.432 121.492 210.53C120.717 210.628 119.931 210.57 119.179 210.36C117.479 209.76 116.459 208.17 115.529 206.73C114.508 205.006 113.071 203.566 111.349 202.54C109.572 201.6 107.648 200.967 105.659 200.67C101.809 200.01 97.8693 200.21 94.0393 199.4C92.1823 199.07 90.4111 198.369 88.8319 197.338C87.2526 196.307 85.898 194.968 84.8493 193.4C83.8198 191.807 83.1382 190.015 82.8493 188.14C82.6354 186.092 82.7433 184.024 83.1693 182.01C83.9717 177.693 84.257 173.295 84.0193 168.91C83.8696 166.844 83.6093 164.788 83.2393 162.75C82.8503 160.848 82.6593 158.911 82.6693 156.97C82.7097 155.287 83.1933 153.645 84.0711 152.209C84.949 150.773 86.1901 149.593 87.6693 148.79C89.1245 147.937 90.7744 147.473 92.4608 147.441C94.1472 147.41 95.8133 147.812 97.2993 148.61C102.119 151.36 103.699 156.89 103.069 157.51Z" fill="#263238"/>
<path d="M97.6992 177.91C98.2494 179.241 99.0652 180.445 100.097 181.449C101.129 182.453 102.354 183.236 103.699 183.75C106.449 184.75 109.469 184.81 112.269 185.75C114.872 186.518 117.192 188.034 118.939 190.11C120.418 192.186 121.189 194.682 121.139 197.23C121.239 200.11 120.949 202.98 121.259 205.85C121.259 205.9 121.179 205.92 121.169 205.85C120.169 200.85 122.099 195.25 118.969 190.78C117.06 188.301 114.355 186.557 111.309 185.84C108.659 185.09 105.799 185.02 103.249 183.93C101.969 183.348 100.819 182.515 99.8658 181.481C98.9126 180.447 98.176 179.233 97.6992 177.91V177.91Z" fill="#263238"/>
<path d="M82.3597 191.74C82.1025 190.061 82.1567 188.349 82.5197 186.69C82.8897 184.69 83.3597 182.69 83.7897 180.69C83.4397 182.4 83.1497 184.13 82.8497 185.86C82.5106 187.487 82.3995 189.153 82.5197 190.81C82.7451 192.446 83.3359 194.01 84.2482 195.386C85.1605 196.762 86.3709 197.915 87.7897 198.76C90.6697 200.53 93.9497 200.87 97.2497 200.88C100.183 200.828 103.116 200.972 106.03 201.31C109.296 201.668 112.45 202.707 115.29 204.36C115.29 204.36 115.29 204.46 115.29 204.43C109.57 201.08 103.01 201.25 96.6097 201.26C93.4437 201.411 90.3004 200.655 87.5497 199.08C86.2249 198.281 85.0799 197.216 84.1867 195.953C83.2935 194.69 82.6715 193.255 82.3597 191.74V191.74Z" fill="#263238"/>
<path d="M101.07 160.72C101.25 160.72 103.69 158.16 103.95 157.91C104.21 157.66 106.79 155.27 106.83 155.1C105.993 154.261 105.011 153.584 103.93 153.1C103.28 152.96 101.34 154.58 101.02 154.88C100.7 155.18 99.0197 157.1 99.1797 157.76C99.6265 158.852 100.267 159.855 101.07 160.72V160.72Z" fill="#0B7D77"/>
<path d="M127.71 165.83C131.33 179.16 123.82 182.96 120.87 183.61C118.23 184.2 109.28 186.38 104.31 173.49C99.3396 160.6 104.39 154.71 110.31 152.78C116.23 150.85 124.1 152.49 127.71 165.83Z" fill="#FFC4C0"/>
<path d="M126.269 163.13C125.949 163.13 125.649 163.13 125.269 163.13C124.923 163.179 124.57 163.108 124.269 162.93C124.189 162.86 124.133 162.765 124.112 162.66C124.09 162.556 124.103 162.447 124.149 162.35C124.275 162.172 124.446 162.03 124.644 161.938C124.843 161.847 125.062 161.81 125.279 161.83C125.723 161.811 126.158 161.957 126.499 162.24C126.566 162.305 126.614 162.387 126.639 162.477C126.664 162.567 126.665 162.661 126.642 162.752C126.619 162.842 126.572 162.925 126.506 162.991C126.441 163.057 126.359 163.105 126.269 163.13V163.13Z" fill="#263238"/>
<path d="M117.62 165.33C117.917 165.223 118.207 165.1 118.49 164.96C118.821 164.87 119.113 164.673 119.32 164.4C119.368 164.304 119.382 164.194 119.36 164.089C119.338 163.984 119.282 163.889 119.2 163.82C119.014 163.709 118.801 163.65 118.585 163.65C118.368 163.65 118.156 163.709 117.97 163.82C117.54 163.959 117.181 164.26 116.97 164.66C116.937 164.751 116.931 164.85 116.951 164.945C116.972 165.04 117.019 165.128 117.086 165.197C117.154 165.267 117.24 165.317 117.334 165.34C117.428 165.363 117.527 165.36 117.62 165.33V165.33Z" fill="#263238"/>
<path d="M120.27 168.27C120.27 168.27 120.21 168.33 120.27 168.37C120.5 169.28 120.61 170.37 119.85 170.85C119.85 170.85 119.85 170.91 119.85 170.9C120.8 170.54 120.64 169.1 120.27 168.27Z" fill="#263238"/>
<path d="M119.239 167.5C117.739 167.71 118.239 170.7 119.669 170.5C121.099 170.3 120.499 167.31 119.239 167.5Z" fill="#263238"/>
<path d="M118.679 167.76C118.449 167.98 118.249 168.32 117.939 168.41C117.629 168.5 117.249 168.25 116.939 167.99C117.039 168.57 117.359 169.11 117.939 169.09C118.519 169.07 118.829 168.49 118.869 167.88C118.889 167.81 118.769 167.67 118.679 167.76Z" fill="#263238"/>
<path d="M125.149 166.86C125.149 166.86 125.229 166.86 125.239 166.93C125.369 167.86 125.679 168.93 126.569 169.07V169.12C125.519 169.15 125.129 167.76 125.149 166.86Z" fill="#263238"/>
<path d="M125.809 165.75C127.289 165.37 127.919 168.34 126.559 168.69C125.199 169.04 124.579 166.06 125.809 165.75Z" fill="#263238"/>
<path d="M126.48 165.81C126.74 165.92 127.04 166.15 127.32 166.11C127.6 166.07 127.82 165.69 127.96 165.34C127.96 165.34 127.96 165.34 128.02 165.34C128.15 165.91 128.09 166.54 127.57 166.76C127.05 166.98 126.62 166.56 126.37 166.02C126.32 165.94 126.37 165.77 126.48 165.81Z" fill="#263238"/>
<path d="M124.77 171.34C124.77 171.34 125.22 172.68 125.35 173.34C125.35 173.4 125.21 173.46 124.99 173.52C124.451 173.73 123.865 173.787 123.295 173.687C122.725 173.586 122.194 173.331 121.76 172.95C121.75 172.938 121.744 172.923 121.743 172.907C121.743 172.892 121.747 172.876 121.757 172.864C121.766 172.851 121.779 172.842 121.794 172.837C121.809 172.833 121.825 172.834 121.84 172.84C122.785 173.248 123.838 173.34 124.84 173.1C124.84 172.91 123.98 170.83 124.08 170.8C124.593 170.748 125.111 170.765 125.62 170.85C124.75 168.03 123.44 165.36 122.62 162.54C122.612 162.519 122.612 162.496 122.621 162.476C122.629 162.455 122.644 162.438 122.664 162.428C122.684 162.419 122.707 162.416 122.728 162.422C122.749 162.428 122.768 162.441 122.78 162.46C124.278 165.273 125.494 168.227 126.41 171.28C126.48 171.63 125.05 171.4 124.77 171.34Z" fill="#263238"/>
<path d="M124.84 173C124.612 173.619 124.23 174.169 123.73 174.6C123.444 174.827 123.094 174.96 122.73 174.98C121.95 174.98 121.73 174.36 121.67 173.75C121.63 173.418 121.63 173.082 121.67 172.75C122.671 173.176 123.784 173.264 124.84 173V173Z" fill="#263238"/>
<path d="M123.73 174.62C123.444 174.847 123.094 174.98 122.73 175C121.95 175 121.73 174.38 121.67 173.77C122.059 173.658 122.474 173.681 122.848 173.836C123.222 173.99 123.533 174.266 123.73 174.62Z" fill="#FF98B9"/>
<path d="M106.289 177.77C107.459 177.56 106.289 170.2 106.289 170.2C106.289 170.2 110.869 167.75 111.079 160.79C111.328 162.815 110.98 164.869 110.079 166.7C110.079 166.7 118.079 164.21 120.149 156.7C120.149 156.7 119.469 160.45 118.429 161.94C120.374 160.898 121.908 159.227 122.779 157.2C122.779 157.2 124.989 160.86 126.309 161.73C126.309 161.73 124.799 147.85 110.209 151.66C107.588 152.297 105.192 153.642 103.284 155.548C101.375 157.455 100.028 159.849 99.3891 162.47C98.3391 166.94 99.8291 172.25 101.669 175.23C102.819 177 106.289 177.77 106.289 177.77Z" fill="#263238"/>
<path d="M110 171.31C110 171.31 106.61 167.31 104.75 168.53C102.89 169.75 105.75 175.8 108.09 176.44C108.387 176.543 108.702 176.584 109.015 176.562C109.329 176.54 109.635 176.455 109.915 176.312C110.195 176.17 110.443 175.972 110.645 175.731C110.847 175.49 110.998 175.211 111.09 174.91L110 171.31Z" fill="#FFC4C0"/>
</svg>
