<svg width="48" height="48" viewBox="0 0 48 48" fill="none" xmlns="http://www.w3.org/2000/svg">
<g clip-path="url(#clip0_3338_43783)">
<path d="M35.3 12.7C32.4 9.8 28.42 8 24 8C15.16 8 8.02002 15.16 8.02002 24C8.02002 32.84 15.16 40 24 40C31.46 40 37.68 34.9 39.46 28H35.3C33.66 32.66 29.22 36 24 36C17.38 36 12 30.62 12 24C12 17.38 17.38 12 24 12C27.32 12 30.28 13.38 32.44 15.56L26 22H40V8L35.3 12.7Z" fill="#323338"/>
</g>
<defs>
<clipPath id="clip0_3338_43783">
<rect width="48" height="48" fill="white"/>
</clipPath>
</defs>
</svg>
