<svg width="48" height="48" viewBox="0 0 48 48" fill="none" xmlns="http://www.w3.org/2000/svg">
<g clip-path="url(#clip0_3349_14274)">
<path d="M24 12C26.2 12 28 13.8 28 16C28 18.2 26.2 20 24 20C21.8 20 20 18.2 20 16C20 13.8 21.8 12 24 12ZM24 32C29.4 32 35.6 34.58 36 36H12C12.46 34.56 18.62 32 24 32ZM24 8C19.58 8 16 11.58 16 16C16 20.42 19.58 24 24 24C28.42 24 32 20.42 32 16C32 11.58 28.42 8 24 8ZM24 28C18.66 28 8 30.68 8 36V40H40V36C40 30.68 29.34 28 24 28Z" fill="#323338"/>
</g>
<defs>
<clipPath id="clip0_3349_14274">
<rect width="48" height="48" fill="white"/>
</clipPath>
</defs>
</svg>
