<svg width="48" height="48" viewBox="0 0 48 48" fill="none" xmlns="http://www.w3.org/2000/svg">
<g clip-path="url(#clip0_3336_11351)">
<path d="M12 20C9.8 20 8 21.8 8 24C8 26.2 9.8 28 12 28C14.2 28 16 26.2 16 24C16 21.8 14.2 20 12 20ZM36 20C33.8 20 32 21.8 32 24C32 26.2 33.8 28 36 28C38.2 28 40 26.2 40 24C40 21.8 38.2 20 36 20ZM24 20C21.8 20 20 21.8 20 24C20 26.2 21.8 28 24 28C26.2 28 28 26.2 28 24C28 21.8 26.2 20 24 20Z" fill="#323338"/>
</g>
<defs>
<clipPath id="clip0_3336_11351">
<rect width="48" height="48" fill="white"/>
</clipPath>
</defs>
</svg>
