<svg width="48" height="48" viewBox="0 0 48 48" fill="none" xmlns="http://www.w3.org/2000/svg">
<g clip-path="url(#clip0_3292_8080)">
<path d="M22 36C22 38.2 20.2 40 18 40C15.8 40 14 38.2 14 36C14 33.8 15.8 32 18 32C20.2 32 22 33.8 22 36ZM18 20C15.8 20 14 21.8 14 24C14 26.2 15.8 28 18 28C20.2 28 22 26.2 22 24C22 21.8 20.2 20 18 20ZM18 8C15.8 8 14 9.8 14 12C14 14.2 15.8 16 18 16C20.2 16 22 14.2 22 12C22 9.8 20.2 8 18 8ZM30 16C32.2 16 34 14.2 34 12C34 9.8 32.2 8 30 8C27.8 8 26 9.8 26 12C26 14.2 27.8 16 30 16ZM30 20C27.8 20 26 21.8 26 24C26 26.2 27.8 28 30 28C32.2 28 34 26.2 34 24C34 21.8 32.2 20 30 20ZM30 32C27.8 32 26 33.8 26 36C26 38.2 27.8 40 30 40C32.2 40 34 38.2 34 36C34 33.8 32.2 32 30 32Z" fill="#323338"/>
</g>
<defs>
<clipPath id="clip0_3292_8080">
<rect width="48" height="48" fill="white"/>
</clipPath>
</defs>
</svg>
