<svg width="48" height="48" viewBox="0 0 48 48" fill="none" xmlns="http://www.w3.org/2000/svg">
<g clip-path="url(#clip0_3331_11932)">
<path d="M32 16H28V22H22V26H28V32H32V26H38V22H32V16ZM4 24C4 18.42 7.28 13.6 12.02 11.36V7.04C5.04 9.52 0 16.18 0 24C0 31.82 5.04 38.48 12.02 40.96V36.64C7.28 34.4 4 29.58 4 24ZM30 6C20.08 6 12 14.08 12 24C12 33.92 20.08 42 30 42C39.92 42 48 33.92 48 24C48 14.08 39.92 6 30 6ZM30 38C22.28 38 16 31.72 16 24C16 16.28 22.28 10 30 10C37.72 10 44 16.28 44 24C44 31.72 37.72 38 30 38Z" fill="#323338"/>
</g>
<defs>
<clipPath id="clip0_3331_11932">
<rect width="48" height="48" fill="white"/>
</clipPath>
</defs>
</svg>
