<svg width="48" height="48" viewBox="0 0 48 48" fill="none" xmlns="http://www.w3.org/2000/svg">
<g clip-path="url(#clip0_3275_2883)">
<path d="M41.08 10.46L38.3 7.1C37.76 6.42 36.94 6 36 6H12C11.06 6 10.24 6.42 9.68 7.1L6.92 10.46C6.34 11.14 6 12.04 6 13V38C6 40.2 7.8 42 10 42H38C40.2 42 42 40.2 42 38V13C42 12.04 41.66 11.14 41.08 10.46ZM12.48 10H35.52L37.14 11.94H10.88L12.48 10ZM10 38V16H38V38H10ZM26.9 20H21.1V26H16L24 34L32 26H26.9V20Z" fill="#323338"/>
</g>
<defs>
<clipPath id="clip0_3275_2883">
<rect width="48" height="48" fill="white"/>
</clipPath>
</defs>
</svg>
