<svg width="48" height="48" viewBox="0 0 48 48" fill="none" xmlns="http://www.w3.org/2000/svg">
<g clip-path="url(#clip0_3332_12943)">
<path d="M30.1399 2.02002H18.1399V6.02002H30.1399V2.02002ZM22.1399 28.02H26.1399V16.02H22.1399V28.02ZM38.1999 14.78L41.0399 11.94C40.1799 10.92 39.2399 9.96002 38.2199 9.12002L35.3799 11.96C32.2799 9.48002 28.3799 8.00002 24.1399 8.00002C14.1999 8.00002 6.13989 16.06 6.13989 26C6.13989 35.94 14.1799 44 24.1399 44C34.0999 44 42.1399 35.94 42.1399 26C42.1399 21.78 40.6599 17.88 38.1999 14.78ZM24.1399 40.02C16.3999 40.02 10.1399 33.76 10.1399 26.02C10.1399 18.28 16.3999 12.02 24.1399 12.02C31.8799 12.02 38.1399 18.28 38.1399 26.02C38.1399 33.76 31.8799 40.02 24.1399 40.02Z" fill="#323338"/>
</g>
<defs>
<clipPath id="clip0_3332_12943">
<rect width="48" height="48" fill="white"/>
</clipPath>
</defs>
</svg>
