<svg width="48" height="48" viewBox="0 0 48 48" fill="none" xmlns="http://www.w3.org/2000/svg">
<g clip-path="url(#clip0_3290_3630)">
<path d="M14.68 12.82L1.71997 25.8L14.7 38.76L27.68 25.8L14.68 12.82ZM7.37997 25.8L14.7 18.48L22 25.8L14.68 33.12L7.37997 25.8ZM38.72 13.28C35.22 9.76002 30.6 8.00002 26 8.00002V1.52002L17.52 10L26 18.48V12C29.58 12 33.16 13.36 35.9 16.1C41.36 21.56 41.36 30.44 35.9 35.9C33.16 38.64 29.58 40 26 40C24.06 40 22.12 39.58 20.32 38.78L17.34 41.76C20.04 43.24 23.02 44 26 44C30.6 44 35.22 42.24 38.72 38.72C45.76 31.7 45.76 20.3 38.72 13.28Z" fill="#323338"/>
</g>
<defs>
<clipPath id="clip0_3290_3630">
<rect width="48" height="48" fill="white"/>
</clipPath>
</defs>
</svg>
