<svg width="48" height="48" viewBox="0 0 48 48" fill="none" xmlns="http://www.w3.org/2000/svg">
<g clip-path="url(#clip0_3357_22739)">
<path d="M24 44C26.2 44 28 42.2 28 40H20C20 42.2 21.8 44 24 44ZM36 32V22C36 15.86 32.74 10.72 27 9.36V8C27 6.34 25.66 5 24 5C22.34 5 21 6.34 21 8V9.36C15.28 10.72 12 15.84 12 22V32L8 36V38H40V36L36 32ZM32 34H16V22C16 17.04 19.02 13 24 13C28.98 13 32 17.04 32 22V34Z" fill="#323338"/>
</g>
<defs>
<clipPath id="clip0_3357_22739">
<rect width="48" height="48" fill="white"/>
</clipPath>
</defs>
</svg>
