<svg width="48" height="48" viewBox="0 0 48 48" fill="none" xmlns="http://www.w3.org/2000/svg">
<g clip-path="url(#clip0_3349_14280)">
<path d="M40 8H8C5.8 8 4 9.8 4 12V36C4 38.2 5.8 40 8 40H40C42.2 40 44 38.2 44 36V12C44 9.8 42.2 8 40 8ZM40 36H8V12H40V36ZM8 0H40V4H8V0ZM8 44H40V48H8V44ZM24 24C26.76 24 29 21.76 29 19C29 16.24 26.76 14 24 14C21.24 14 19 16.24 19 19C19 21.76 21.24 24 24 24ZM24 17C25.1 17 26 17.9 26 19C26 20.1 25.1 21 24 21C22.9 21 22 20.1 22 19C22 17.9 22.9 17 24 17ZM34 31.98C34 27.8 27.38 26 24 26C20.62 26 14 27.8 14 31.98V34H34V31.98ZM17.62 31C18.84 29.96 21.68 29 24 29C26.34 29 29.18 29.96 30.4 31H17.62Z" fill="#323338"/>
</g>
<defs>
<clipPath id="clip0_3349_14280">
<rect width="48" height="48" fill="white"/>
</clipPath>
</defs>
</svg>
