<svg width="500" height="500" viewBox="0 0 500 500" fill="none" xmlns="http://www.w3.org/2000/svg">
<path d="M417.4 82.3403H443.88V71.1503H417.4V82.3403Z" fill="#EBEBEB"/>
<path d="M459 68.6002H431.8V56.6602H459V68.6002ZM432.52 67.8502H458.25V57.4102H432.55L432.52 67.8502Z" fill="#EBEBEB"/>
<path d="M361.57 281.14H334.34V269.2H361.57V281.14ZM335.09 280.39H360.82V270H335.09V280.39Z" fill="#EBEBEB"/>
<path d="M376.34 267H349.11V255.09H376.34V267ZM349.86 266.25H375.59V255.84H349.86V266.25Z" fill="#EBEBEB"/>
<path d="M364.2 280.77H390.68V269.58H364.2V280.77Z" fill="#EBEBEB"/>
<path d="M165.66 120.51H138.43V108.57H165.66V120.51ZM139.18 119.76H164.91V109.32H139.18V119.76Z" fill="#EBEBEB"/>
<path d="M68.2 68.6002H41V56.6602H68.2V68.6002ZM41.72 67.8502H67.45V57.4102H41.72V67.8502Z" fill="#EBEBEB"/>
<path d="M83.0002 401.41H55.7402V389.47H83.0002V401.41ZM56.5202 400.66H82.2202V390.22H56.4902L56.5202 400.66Z" fill="#EBEBEB"/>
<path d="M41.3403 386.93H67.8203V375.74H41.3403V386.93Z" fill="#EBEBEB"/>
<path d="M417.4 401.04H443.88V389.85H417.4V401.04Z" fill="#EBEBEB"/>
<path d="M87.6904 286.63H86.6904V453.04H87.6904V286.63Z" fill="#EBEBEB"/>
<path d="M87.1898 287.13C86.6198 287.132 86.062 286.965 85.587 286.65C85.1121 286.334 84.7414 285.885 84.5219 285.359C84.3024 284.833 84.2439 284.254 84.3539 283.694C84.4639 283.135 84.7374 282.621 85.1398 282.217C85.5422 281.813 86.0553 281.538 86.6143 281.426C87.1732 281.314 87.7528 281.371 88.2796 281.588C88.8064 281.806 89.2568 282.175 89.5737 282.649C89.8906 283.123 90.0598 283.68 90.0598 284.25C90.0598 285.012 89.7578 285.743 89.2198 286.283C88.6819 286.823 87.9519 287.127 87.1898 287.13V287.13ZM87.1898 282.38C86.8171 282.378 86.4523 282.487 86.1416 282.693C85.8309 282.899 85.5884 283.192 85.4448 283.536C85.3013 283.88 85.2632 284.259 85.3355 284.624C85.4077 284.99 85.5869 285.326 85.8505 285.589C86.114 285.853 86.4499 286.032 86.8155 286.104C87.1811 286.177 87.5599 286.139 87.9039 285.995C88.2478 285.852 88.5413 285.609 88.7471 285.298C88.9529 284.988 89.0618 284.623 89.0598 284.25C89.0572 283.755 88.8593 283.281 88.5092 282.931C88.1591 282.581 87.685 282.383 87.1898 282.38V282.38Z" fill="#EBEBEB"/>
<path d="M81.3004 453.04H80.3004V368.58L62.1504 334.36V272.87H63.1504V334.11L81.3004 368.34V453.04Z" fill="#EBEBEB"/>
<path d="M62.6495 273.37C62.0799 273.37 61.5231 273.201 61.0495 272.885C60.5759 272.569 60.2067 272.119 59.9888 271.592C59.7708 271.066 59.7137 270.487 59.8249 269.928C59.936 269.37 60.2103 268.857 60.6131 268.454C61.0158 268.051 61.529 267.777 62.0877 267.666C62.6463 267.555 63.2254 267.612 63.7517 267.83C64.2779 268.048 64.7277 268.417 65.0442 268.89C65.3606 269.364 65.5295 269.921 65.5295 270.49C65.5295 271.254 65.2261 271.987 64.686 272.527C64.1459 273.067 63.4134 273.37 62.6495 273.37ZM62.6495 268.62C62.2773 268.62 61.9134 268.731 61.604 268.938C61.2946 269.145 61.0537 269.439 60.9117 269.783C60.7697 270.127 60.7331 270.506 60.8064 270.871C60.8798 271.236 61.0598 271.571 61.3237 271.833C61.5877 272.096 61.9236 272.274 62.2889 272.345C62.6543 272.417 63.0326 272.378 63.3759 272.234C63.7193 272.091 64.0122 271.848 64.2176 271.538C64.4229 271.227 64.5315 270.863 64.5295 270.49C64.5295 270.244 64.4808 270 64.3862 269.772C64.2916 269.545 64.153 269.338 63.9783 269.165C63.8036 268.991 63.5963 268.853 63.3682 268.76C63.1402 268.666 62.8959 268.619 62.6495 268.62V268.62Z" fill="#EBEBEB"/>
<path d="M74.9496 453.04H73.9496V372.25L52.5596 334.41V293.86H53.5596V334.15L74.9496 371.99V453.04Z" fill="#EBEBEB"/>
<path d="M53.0599 294.36C52.4895 294.362 51.9313 294.195 51.4561 293.879C50.981 293.563 50.6103 293.113 50.3911 292.587C50.1718 292.06 50.114 291.48 50.2248 290.921C50.3356 290.361 50.6101 289.847 51.0135 289.444C51.4168 289.04 51.9309 288.766 52.4905 288.655C53.0501 288.544 53.63 288.602 54.1567 288.821C54.6833 289.04 55.133 289.411 55.4487 289.886C55.7644 290.361 55.9319 290.92 55.9299 291.49C55.9273 292.25 55.624 292.979 55.0864 293.517C54.5487 294.054 53.8203 294.357 53.0599 294.36V294.36ZM53.0599 289.61C52.6877 289.608 52.3232 289.717 52.0127 289.922C51.7022 290.127 51.4597 290.42 51.3159 290.764C51.1721 291.107 51.1334 291.485 51.2048 291.851C51.2762 292.216 51.4545 292.552 51.717 292.816C51.9795 293.08 52.3145 293.26 52.6794 293.333C53.0444 293.407 53.4229 293.37 53.767 293.228C54.1111 293.086 54.4053 292.845 54.6124 292.536C54.8194 292.226 54.9299 291.862 54.9299 291.49C54.9299 290.993 54.7332 290.517 54.3828 290.164C54.0324 289.812 53.5568 289.613 53.0599 289.61V289.61Z" fill="#EBEBEB"/>
<path d="M409.42 453.04H408.42V267.21L408.51 267.08L435.15 230.73V162.56H436.15V231.06L409.42 267.54V453.04Z" fill="#EBEBEB"/>
<path d="M435.65 163.1C435.08 163.102 434.522 162.935 434.047 162.62C433.572 162.305 433.201 161.855 432.982 161.329C432.762 160.803 432.704 160.224 432.814 159.665C432.924 159.105 433.197 158.591 433.6 158.187C434.002 157.784 434.515 157.508 435.074 157.396C435.633 157.284 436.213 157.341 436.74 157.559C437.266 157.776 437.717 158.145 438.034 158.619C438.351 159.093 438.52 159.65 438.52 160.22C438.52 160.982 438.218 161.713 437.68 162.253C437.142 162.793 436.412 163.098 435.65 163.1V163.1ZM435.65 158.35C435.277 158.348 434.912 158.457 434.602 158.663C434.291 158.869 434.048 159.162 433.905 159.506C433.761 159.85 433.723 160.229 433.795 160.595C433.868 160.96 434.047 161.296 434.31 161.56C434.574 161.823 434.91 162.002 435.275 162.075C435.641 162.147 436.02 162.109 436.364 161.965C436.708 161.822 437.001 161.579 437.207 161.269C437.413 160.958 437.522 160.593 437.52 160.22C437.517 159.725 437.319 159.251 436.969 158.901C436.619 158.551 436.145 158.353 435.65 158.35V158.35Z" fill="#EBEBEB"/>
<path d="M416.3 453.04H415.3V271.62L415.4 271.49L442.03 235.13V187.55H443.03V235.46L416.3 271.94V453.04Z" fill="#EBEBEB"/>
<path d="M442.53 188.09C441.96 188.09 441.403 187.921 440.929 187.604C440.455 187.287 440.086 186.837 439.869 186.31C439.651 185.783 439.595 185.203 439.706 184.645C439.818 184.086 440.094 183.572 440.497 183.17C440.901 182.768 441.415 182.494 441.975 182.384C442.534 182.274 443.113 182.333 443.639 182.552C444.166 182.772 444.615 183.142 444.93 183.617C445.245 184.092 445.412 184.65 445.41 185.22C445.408 185.982 445.103 186.712 444.563 187.25C444.023 187.788 443.292 188.09 442.53 188.09V188.09ZM442.53 183.34C442.159 183.34 441.795 183.45 441.486 183.657C441.177 183.863 440.936 184.157 440.794 184.501C440.651 184.844 440.614 185.222 440.687 185.587C440.759 185.952 440.938 186.287 441.201 186.549C441.464 186.812 441.799 186.991 442.164 187.064C442.528 187.136 442.906 187.099 443.25 186.957C443.593 186.815 443.887 186.574 444.094 186.265C444.3 185.955 444.41 185.592 444.41 185.22C444.41 184.721 444.212 184.243 443.86 183.891C443.507 183.538 443.029 183.34 442.53 183.34V183.34Z" fill="#EBEBEB"/>
<path d="M402.79 226.63H401.79V453.04H402.79V226.63Z" fill="#EBEBEB"/>
<path d="M402.29 227.13C401.72 227.132 401.163 226.965 400.688 226.65C400.213 226.334 399.842 225.885 399.622 225.359C399.403 224.833 399.345 224.254 399.455 223.694C399.565 223.135 399.838 222.621 400.24 222.217C400.643 221.813 401.156 221.538 401.715 221.426C402.274 221.314 402.853 221.371 403.38 221.588C403.907 221.806 404.357 222.175 404.674 222.649C404.991 223.123 405.16 223.68 405.16 224.25C405.16 225.012 404.858 225.743 404.32 226.283C403.782 226.823 403.052 227.127 402.29 227.13V227.13ZM402.29 222.38C401.918 222.378 401.553 222.487 401.242 222.693C400.931 222.899 400.689 223.192 400.545 223.536C400.402 223.88 400.364 224.259 400.436 224.624C400.508 224.99 400.688 225.326 400.951 225.589C401.215 225.853 401.55 226.032 401.916 226.104C402.282 226.177 402.661 226.139 403.004 225.995C403.348 225.852 403.642 225.609 403.848 225.298C404.054 224.988 404.162 224.623 404.16 224.25C404.158 223.755 403.96 223.281 403.61 222.931C403.26 222.581 402.786 222.383 402.29 222.38V222.38Z" fill="#EBEBEB"/>
<path d="M396.4 453.04H395.4V308.58L377.25 274.36V212.87H378.25V274.11L396.4 308.34V453.04Z" fill="#EBEBEB"/>
<path d="M377.75 213.37C377.181 213.37 376.624 213.201 376.15 212.885C375.676 212.569 375.307 212.119 375.089 211.592C374.871 211.066 374.814 210.487 374.925 209.928C375.037 209.37 375.311 208.857 375.714 208.454C376.116 208.051 376.63 207.777 377.188 207.666C377.747 207.555 378.326 207.612 378.852 207.83C379.379 208.048 379.828 208.417 380.145 208.89C380.461 209.364 380.63 209.921 380.63 210.49C380.63 211.254 380.327 211.987 379.787 212.527C379.246 213.067 378.514 213.37 377.75 213.37V213.37ZM377.75 208.62C377.378 208.62 377.014 208.731 376.705 208.938C376.395 209.145 376.154 209.439 376.012 209.783C375.87 210.127 375.834 210.506 375.907 210.871C375.98 211.236 376.16 211.571 376.424 211.833C376.688 212.096 377.024 212.274 377.39 212.345C377.755 212.417 378.133 212.378 378.477 212.234C378.82 212.091 379.113 211.848 379.318 211.538C379.524 211.227 379.632 210.863 379.63 210.49C379.63 210.244 379.581 210 379.487 209.772C379.392 209.545 379.254 209.338 379.079 209.165C378.904 208.991 378.697 208.853 378.469 208.76C378.241 208.666 377.997 208.619 377.75 208.62Z" fill="#EBEBEB"/>
<path d="M390.05 453.04H389.05V312.25L367.66 274.41V233.86H368.66V274.15L390.05 311.99V453.04Z" fill="#EBEBEB"/>
<path d="M368.16 234.36C367.589 234.362 367.031 234.195 366.556 233.879C366.081 233.563 365.71 233.113 365.491 232.587C365.271 232.06 365.214 231.48 365.324 230.921C365.435 230.361 365.71 229.847 366.113 229.444C366.516 229.04 367.031 228.766 367.59 228.655C368.15 228.544 368.73 228.602 369.256 228.821C369.783 229.04 370.233 229.411 370.548 229.886C370.864 230.361 371.032 230.92 371.03 231.49C371.027 232.25 370.724 232.979 370.186 233.517C369.648 234.054 368.92 234.357 368.16 234.36V234.36ZM368.16 229.61C367.787 229.608 367.423 229.717 367.112 229.922C366.802 230.127 366.559 230.42 366.416 230.764C366.272 231.107 366.233 231.485 366.304 231.851C366.376 232.216 366.554 232.552 366.817 232.816C367.079 233.08 367.414 233.26 367.779 233.333C368.144 233.407 368.523 233.37 368.867 233.228C369.211 233.086 369.505 232.845 369.712 232.536C369.919 232.226 370.03 231.862 370.03 231.49C370.03 230.993 369.833 230.517 369.482 230.164C369.132 229.812 368.656 229.613 368.16 229.61V229.61Z" fill="#EBEBEB"/>
<path d="M423.23 165.9L429.11 156.41L426.21 154.61C425.793 154.348 425.456 153.976 425.238 153.535C425.019 153.094 424.926 152.601 424.97 152.11C425.02 151.555 425.04 150.997 425.03 150.44C425.015 149.95 425.136 149.465 425.379 149.04C425.623 148.614 425.98 148.265 426.41 148.03L429.41 146.42L424.13 136.57L421.13 138.19C420.697 138.418 420.209 138.522 419.72 138.49C419.231 138.458 418.761 138.292 418.36 138.01C417.903 137.692 417.429 137.398 416.94 137.13C416.508 136.896 416.148 136.547 415.901 136.122C415.654 135.697 415.529 135.212 415.54 134.72L415.65 131.3L404.48 131L404.38 134.43C404.358 134.921 404.201 135.397 403.926 135.805C403.65 136.212 403.268 136.536 402.82 136.74C402.58 136.85 402.33 136.98 402.09 137.11C401.85 137.24 401.61 137.37 401.38 137.51C400.962 137.767 400.481 137.904 399.99 137.904C399.499 137.904 399.018 137.767 398.6 137.51L395.67 135.7L389.79 145.19L392.7 147C393.116 147.262 393.452 147.635 393.669 148.076C393.886 148.517 393.976 149.01 393.93 149.5C393.878 150.052 393.862 150.606 393.88 151.16C393.891 151.65 393.768 152.135 393.522 152.559C393.277 152.984 392.92 153.334 392.49 153.57L389.49 155.18L394.77 165.03L397.77 163.41C398.204 163.182 398.692 163.078 399.181 163.11C399.669 163.142 400.14 163.308 400.54 163.59C400.996 163.908 401.47 164.199 401.96 164.46C402.392 164.695 402.751 165.044 402.998 165.469C403.245 165.894 403.37 166.379 403.36 166.87L403.25 170.3L414.42 170.65L414.52 167.22C414.541 166.731 414.697 166.257 414.97 165.851C415.244 165.445 415.625 165.123 416.07 164.92L416.81 164.54C417.06 164.41 417.3 164.28 417.53 164.14C417.95 163.883 418.433 163.747 418.925 163.747C419.418 163.747 419.9 163.883 420.32 164.14L423.23 165.9ZM413.77 158.85C412.176 159.701 410.366 160.061 408.567 159.884C406.769 159.706 405.063 159 403.666 157.853C402.269 156.707 401.244 155.172 400.719 153.443C400.194 151.714 400.193 149.868 400.717 148.138C401.241 146.409 402.266 144.873 403.662 143.726C405.058 142.579 406.763 141.871 408.562 141.692C410.36 141.514 412.171 141.873 413.765 142.723C415.36 143.573 416.667 144.877 417.52 146.47C418.088 147.529 418.441 148.689 418.56 149.885C418.678 151.08 418.56 152.288 418.212 153.437C417.864 154.587 417.292 155.657 416.53 156.586C415.768 157.515 414.83 158.284 413.77 158.85V158.85Z" fill="#EBEBEB"/>
<path d="M215.87 81.9201L212 75.1501L209.92 76.3401C209.621 76.5128 209.281 76.5987 208.936 76.5881C208.592 76.5775 208.257 76.4708 207.97 76.2801C207.647 76.0662 207.313 75.8693 206.97 75.6901C206.667 75.5337 206.414 75.2969 206.238 75.0058C206.061 74.7147 205.969 74.3805 205.97 74.0401V71.6401H198.15V74.0001C198.149 74.3401 198.055 74.6733 197.879 74.9641C197.703 75.2548 197.451 75.492 197.15 75.6501C196.8 75.8301 196.46 76.0301 196.15 76.2401C195.857 76.4408 195.513 76.5532 195.159 76.5639C194.804 76.5745 194.454 76.483 194.15 76.3001L192 75.1501L188.09 81.9201L190.17 83.1201C190.468 83.2948 190.711 83.5494 190.872 83.8551C191.033 84.1609 191.105 84.5056 191.08 84.8501C191.08 85.0401 191.08 85.2301 191.08 85.4201C191.08 85.6101 191.08 85.8101 191.08 86.0001C191.105 86.3422 191.034 86.6846 190.875 86.9885C190.716 87.2924 190.475 87.5458 190.18 87.7201L188.09 88.9301L192 95.7001L194.08 94.5001C194.38 94.3312 194.721 94.2483 195.065 94.2606C195.409 94.273 195.743 94.3801 196.03 94.5701C196.353 94.7841 196.686 94.981 197.03 95.1601C197.331 95.3174 197.584 95.5544 197.761 95.8453C197.937 96.1363 198.03 96.47 198.03 96.8101V99.2001H205.85V96.8101C205.847 96.4695 205.94 96.1349 206.116 95.8436C206.293 95.5522 206.547 95.3156 206.85 95.1601C207.2 94.9801 207.53 94.7801 207.85 94.5701C208.137 94.3801 208.471 94.273 208.815 94.2606C209.159 94.2483 209.5 94.3312 209.8 94.5001L212 95.7001L215.91 88.9301L213.83 87.7301C213.533 87.5546 213.29 87.2999 213.129 86.9943C212.969 86.6888 212.896 86.3445 212.92 86.0001C212.92 85.8101 212.92 85.6201 212.92 85.4201C212.92 85.2201 212.92 85.0401 212.92 84.8501C212.895 84.5056 212.967 84.1609 213.128 83.8551C213.289 83.5494 213.532 83.2948 213.83 83.1201L215.87 81.9201ZM208.39 85.4201C208.388 86.6883 208.01 87.9275 207.303 88.9807C206.597 90.0339 205.594 90.8539 204.421 91.337C203.249 91.82 201.959 91.9443 200.716 91.6942C199.473 91.4442 198.331 90.8309 197.437 89.932C196.542 89.0332 195.934 87.8891 195.69 86.6447C195.446 85.4002 195.576 84.1113 196.065 82.9409C196.553 81.7706 197.378 80.7715 198.434 80.07C199.491 79.3685 200.732 78.9962 202 79.0001C203.698 79.0054 205.325 79.6845 206.523 80.8882C207.721 82.0919 208.393 83.7218 208.39 85.4201V85.4201Z" fill="#EBEBEB"/>
<path d="M36.8496 452.83L90.1396 452.58L143.43 452.5L250 452.33L356.57 452.49L409.86 452.58L463.15 452.83L409.86 453.07L356.57 453.16L250 453.33L143.43 453.16L90.1396 453.07L36.8496 452.83Z" fill="#263238"/>
<path d="M126.3 453.041H125.226V317.799L125.333 317.659L153.955 278.59V205.321H155.03V278.934L154.922 279.084L126.3 318.153V453.041Z" fill="#EBEBEB"/>
<path d="M154.493 205.9C153.881 205.9 153.282 205.719 152.773 205.379C152.264 205.039 151.867 204.555 151.633 203.989C151.399 203.424 151.338 202.801 151.457 202.201C151.576 201.601 151.871 201.049 152.304 200.616C152.737 200.183 153.289 199.888 153.889 199.769C154.489 199.65 155.112 199.711 155.677 199.945C156.243 200.179 156.727 200.576 157.067 201.085C157.407 201.594 157.588 202.193 157.588 202.805C157.588 203.626 157.262 204.413 156.682 204.994C156.101 205.574 155.314 205.9 154.493 205.9V205.9ZM154.493 200.795C154.093 200.795 153.702 200.914 153.369 201.136C153.037 201.359 152.778 201.675 152.625 202.045C152.472 202.415 152.433 202.822 152.512 203.214C152.591 203.606 152.784 203.966 153.068 204.248C153.352 204.53 153.713 204.722 154.105 204.799C154.498 204.875 154.905 204.834 155.274 204.679C155.643 204.525 155.957 204.264 156.178 203.93C156.399 203.597 156.516 203.205 156.514 202.805C156.514 202.54 156.461 202.278 156.359 202.033C156.258 201.789 156.109 201.567 155.921 201.38C155.733 201.193 155.51 201.045 155.265 200.945C155.02 200.845 154.758 200.794 154.493 200.795Z" fill="#EBEBEB"/>
<path d="M133.695 453.04H132.62V322.538L132.728 322.398L161.36 283.329V232.179H162.435V283.673L162.328 283.823L133.695 322.881V453.04Z" fill="#EBEBEB"/>
<path d="M161.898 232.76C161.285 232.762 160.685 232.582 160.174 232.243C159.664 231.904 159.265 231.42 159.03 230.854C158.794 230.288 158.732 229.665 158.851 229.063C158.97 228.462 159.265 227.91 159.699 227.476C160.132 227.042 160.685 226.747 161.286 226.628C161.888 226.509 162.511 226.571 163.077 226.807C163.643 227.043 164.126 227.441 164.466 227.952C164.805 228.462 164.985 229.062 164.983 229.675C164.98 230.493 164.654 231.276 164.076 231.854C163.498 232.431 162.715 232.757 161.898 232.76V232.76ZM161.898 227.655C161.498 227.653 161.106 227.769 160.773 227.99C160.439 228.211 160.178 228.526 160.024 228.895C159.869 229.264 159.828 229.67 159.904 230.063C159.981 230.456 160.173 230.817 160.455 231.1C160.737 231.384 161.097 231.578 161.489 231.656C161.881 231.735 162.288 231.696 162.658 231.543C163.028 231.391 163.344 231.132 163.567 230.799C163.789 230.467 163.908 230.076 163.908 229.675C163.908 229.141 163.697 228.629 163.32 228.25C162.943 227.872 162.432 227.658 161.898 227.655V227.655Z" fill="#EBEBEB"/>
<path d="M134.05 249.527L140.38 239.327L137.253 237.392C136.805 237.113 136.445 236.715 136.211 236.242C135.978 235.769 135.881 235.241 135.931 234.716C135.963 234.118 135.963 233.519 135.931 232.921C135.914 232.393 136.045 231.871 136.309 231.413C136.573 230.955 136.959 230.581 137.425 230.331L140.649 228.59L134.974 218.003L131.75 219.744C131.282 219.989 130.756 220.1 130.229 220.066C129.702 220.032 129.194 219.854 128.762 219.55C128.27 219.209 127.76 218.893 127.236 218.605C126.77 218.354 126.382 217.98 126.117 217.522C125.851 217.065 125.718 216.543 125.731 216.014L125.957 212.349L113.962 211.973L113.854 215.66C113.831 216.188 113.662 216.699 113.366 217.137C113.07 217.575 112.659 217.923 112.178 218.142L111.382 218.54L110.619 218.981C110.17 219.252 109.655 219.395 109.131 219.395C108.606 219.395 108.091 219.252 107.642 218.981L104.461 217.046L98.1085 227.289L101.236 229.191C101.685 229.471 102.047 229.872 102.281 230.346C102.514 230.821 102.61 231.352 102.558 231.878C102.558 232.47 102.494 233.071 102.558 233.663C102.575 234.191 102.444 234.713 102.18 235.17C101.916 235.628 101.53 236.003 101.064 236.253L97.8398 237.994L103.515 248.57L106.739 246.84C107.205 246.591 107.732 246.476 108.259 246.509C108.786 246.541 109.295 246.719 109.727 247.022C110.215 247.364 110.721 247.68 111.243 247.968C111.708 248.218 112.096 248.593 112.361 249.05C112.627 249.508 112.761 250.03 112.747 250.558L112.64 254.234L124.635 254.61L124.753 250.924C124.774 250.398 124.941 249.888 125.235 249.451C125.529 249.015 125.939 248.669 126.419 248.452L127.214 248.054L127.977 247.613C128.428 247.337 128.947 247.191 129.477 247.191C130.006 247.191 130.525 247.337 130.976 247.613L134.05 249.527ZM123.893 242.003C122.179 242.922 120.231 243.312 118.295 243.124C116.359 242.935 114.523 242.177 113.018 240.946C111.512 239.714 110.407 238.063 109.839 236.203C109.272 234.342 109.27 232.355 109.832 230.494C110.394 228.632 111.495 226.978 112.997 225.742C114.499 224.506 116.333 223.743 118.269 223.55C120.204 223.356 122.153 223.741 123.87 224.655C125.586 225.57 126.993 226.972 127.913 228.686C129.132 230.981 129.394 233.665 128.641 236.152C127.888 238.64 126.181 240.728 123.893 241.96V242.003Z" fill="#EBEBEB"/>
<path d="M375.009 221.162H123.914V452.814H375.009V221.162Z" fill="#263238"/>
<path d="M393.27 228.847H162.94V276.289H393.27V228.847Z" fill="#37474F"/>
<path d="M118.089 276.289H162.94V228.847H118.089V276.289Z" fill="#455A64"/>
<path d="M313.413 236.683H171.593V240.692H313.413V236.683Z" fill="#455A64"/>
<path d="M313.413 243.626H171.593V247.635H313.413V243.626Z" fill="#455A64"/>
<path d="M313.413 250.558H171.593V254.567H313.413V250.558Z" fill="#455A64"/>
<path d="M313.413 257.5H171.593V261.51H313.413V257.5Z" fill="#455A64"/>
<path d="M313.413 264.444H171.593V268.453H313.413V264.444Z" fill="#455A64"/>
<path d="M334.736 240.649C334.738 241.436 334.506 242.206 334.071 242.861C333.635 243.516 333.015 244.028 332.288 244.33C331.562 244.633 330.762 244.713 329.99 244.561C329.218 244.409 328.508 244.031 327.951 243.475C327.394 242.919 327.014 242.211 326.859 241.439C326.705 240.667 326.783 239.867 327.084 239.14C327.385 238.413 327.894 237.791 328.548 237.354C329.203 236.916 329.972 236.683 330.759 236.683C331.812 236.683 332.822 237.1 333.567 237.844C334.313 238.587 334.733 239.596 334.736 240.649V240.649Z" fill="#0B7D77"/>
<path d="M347.828 240.649C347.83 241.436 347.598 242.206 347.163 242.861C346.727 243.516 346.107 244.028 345.38 244.33C344.654 244.633 343.854 244.713 343.082 244.561C342.309 244.409 341.6 244.031 341.043 243.475C340.485 242.919 340.106 242.211 339.951 241.439C339.797 240.667 339.875 239.867 340.176 239.14C340.476 238.413 340.986 237.791 341.64 237.354C342.294 236.916 343.064 236.683 343.851 236.683C344.904 236.683 345.914 237.1 346.659 237.844C347.404 238.587 347.825 239.596 347.828 240.649V240.649Z" fill="#0B7D77"/>
<path d="M360.918 240.649C360.92 241.436 360.689 242.206 360.253 242.861C359.818 243.516 359.197 244.028 358.471 244.33C357.744 244.633 356.944 244.713 356.172 244.561C355.4 244.409 354.691 244.031 354.133 243.475C353.576 242.919 353.196 242.211 353.042 241.439C352.888 240.667 352.966 239.867 353.267 239.14C353.567 238.413 354.077 237.791 354.731 237.354C355.385 236.916 356.155 236.683 356.942 236.683C357.994 236.683 359.004 237.1 359.75 237.844C360.495 238.587 360.915 239.596 360.918 240.649V240.649Z" fill="#263238"/>
<path d="M374.009 240.649C374.011 241.436 373.78 242.206 373.343 242.862C372.907 243.518 372.286 244.029 371.559 244.331C370.832 244.634 370.032 244.713 369.259 244.56C368.487 244.407 367.777 244.028 367.22 243.471C366.664 242.915 366.285 242.205 366.132 241.433C365.978 240.66 366.058 239.86 366.36 239.133C366.663 238.405 367.174 237.784 367.83 237.348C368.485 236.912 369.256 236.681 370.043 236.683C371.094 236.685 372.101 237.104 372.844 237.847C373.588 238.591 374.006 239.598 374.009 240.649V240.649Z" fill="#0B7D77"/>
<path d="M387.132 240.649C387.134 241.436 386.903 242.206 386.466 242.862C386.03 243.518 385.409 244.029 384.682 244.331C383.955 244.634 383.155 244.713 382.382 244.56C381.61 244.407 380.9 244.028 380.343 243.471C379.787 242.915 379.408 242.205 379.255 241.433C379.102 240.66 379.181 239.86 379.483 239.133C379.786 238.405 380.297 237.784 380.953 237.348C381.608 236.912 382.379 236.681 383.166 236.683C384.217 236.685 385.224 237.104 385.967 237.847C386.711 238.591 387.129 239.598 387.132 240.649V240.649Z" fill="white"/>
<path d="M334.736 252.567C334.736 253.354 334.503 254.122 334.066 254.776C333.629 255.43 333.008 255.94 332.281 256.241C331.554 256.542 330.755 256.621 329.983 256.467C329.212 256.314 328.503 255.935 327.947 255.379C327.391 254.823 327.012 254.114 326.859 253.343C326.705 252.571 326.784 251.772 327.085 251.045C327.386 250.319 327.896 249.698 328.55 249.261C329.204 248.824 329.972 248.59 330.759 248.59C331.814 248.59 332.825 249.009 333.571 249.755C334.317 250.501 334.736 251.512 334.736 252.567V252.567Z" fill="#0B7D77"/>
<path d="M347.828 252.567C347.828 253.354 347.594 254.122 347.157 254.776C346.72 255.43 346.099 255.94 345.373 256.241C344.646 256.542 343.846 256.621 343.075 256.467C342.304 256.314 341.595 255.935 341.039 255.379C340.483 254.823 340.104 254.114 339.95 253.343C339.797 252.571 339.876 251.772 340.177 251.045C340.478 250.319 340.987 249.698 341.641 249.261C342.295 248.824 343.064 248.59 343.851 248.59C344.905 248.59 345.917 249.009 346.663 249.755C347.409 250.501 347.828 251.512 347.828 252.567V252.567Z" fill="white"/>
<path d="M360.918 252.567C360.918 253.354 360.685 254.122 360.248 254.776C359.811 255.43 359.19 255.94 358.463 256.241C357.737 256.542 356.937 256.621 356.166 256.467C355.394 256.314 354.686 255.935 354.13 255.379C353.573 254.823 353.195 254.114 353.041 253.343C352.888 252.571 352.967 251.772 353.268 251.045C353.569 250.319 354.078 249.698 354.732 249.261C355.386 248.824 356.155 248.59 356.942 248.59C357.996 248.59 359.008 249.009 359.754 249.755C360.499 250.501 360.918 251.512 360.918 252.567V252.567Z" fill="#0B7D77"/>
<path d="M374.009 252.567C374.009 253.354 373.776 254.123 373.338 254.778C372.901 255.432 372.279 255.941 371.552 256.242C370.824 256.543 370.024 256.621 369.253 256.467C368.481 256.312 367.772 255.933 367.217 255.375C366.661 254.818 366.283 254.108 366.131 253.336C365.979 252.564 366.059 251.764 366.361 251.038C366.664 250.311 367.176 249.691 367.831 249.255C368.486 248.82 369.256 248.588 370.043 248.59C370.565 248.59 371.081 248.693 371.563 248.893C372.045 249.093 372.483 249.386 372.851 249.756C373.22 250.125 373.512 250.564 373.71 251.046C373.909 251.528 374.011 252.045 374.009 252.567V252.567Z" fill="white"/>
<path d="M387.132 252.567C387.132 253.354 386.899 254.123 386.461 254.778C386.024 255.432 385.402 255.941 384.675 256.242C383.948 256.543 383.147 256.621 382.376 256.467C381.604 256.312 380.895 255.933 380.34 255.375C379.784 254.818 379.406 254.108 379.254 253.336C379.102 252.564 379.182 251.764 379.485 251.038C379.787 250.311 380.299 249.691 380.954 249.255C381.609 248.82 382.379 248.588 383.166 248.59C383.688 248.59 384.205 248.693 384.686 248.893C385.168 249.093 385.606 249.386 385.974 249.756C386.343 250.125 386.635 250.564 386.833 251.046C387.032 251.528 387.134 252.045 387.132 252.567V252.567Z" fill="#0B7D77"/>
<path d="M334.736 264.477C334.738 265.264 334.506 266.034 334.071 266.689C333.635 267.344 333.015 267.856 332.288 268.158C331.562 268.461 330.762 268.541 329.99 268.389C329.218 268.237 328.508 267.859 327.951 267.303C327.394 266.748 327.014 266.039 326.859 265.267C326.705 264.496 326.783 263.695 327.084 262.968C327.385 262.241 327.894 261.619 328.548 261.182C329.203 260.744 329.972 260.511 330.759 260.511C331.812 260.511 332.822 260.928 333.567 261.672C334.313 262.415 334.733 263.424 334.736 264.477Z" fill="white"/>
<path d="M347.828 264.477C347.83 265.264 347.598 266.034 347.163 266.689C346.727 267.344 346.107 267.856 345.38 268.158C344.654 268.461 343.854 268.541 343.082 268.389C342.309 268.237 341.6 267.859 341.043 267.303C340.485 266.748 340.106 266.039 339.951 265.267C339.797 264.496 339.875 263.695 340.176 262.968C340.476 262.241 340.986 261.619 341.64 261.182C342.294 260.744 343.064 260.511 343.851 260.511C344.904 260.511 345.914 260.928 346.659 261.672C347.404 262.415 347.825 263.424 347.828 264.477V264.477Z" fill="#0B7D77"/>
<path d="M360.918 264.477C360.92 265.264 360.689 266.034 360.253 266.689C359.818 267.344 359.197 267.856 358.471 268.158C357.744 268.461 356.944 268.541 356.172 268.389C355.4 268.237 354.691 267.859 354.133 267.303C353.576 266.748 353.196 266.039 353.042 265.267C352.888 264.496 352.966 263.695 353.267 262.968C353.567 262.241 354.077 261.619 354.731 261.182C355.385 260.744 356.155 260.511 356.942 260.511C357.994 260.511 359.004 260.928 359.75 261.672C360.495 262.415 360.915 263.424 360.918 264.477Z" fill="#0B7D77"/>
<path d="M374.009 264.477C374.011 265.264 373.78 266.035 373.343 266.69C372.907 267.346 372.286 267.857 371.559 268.159C370.832 268.462 370.032 268.541 369.259 268.388C368.487 268.235 367.777 267.856 367.22 267.299C366.664 266.743 366.285 266.033 366.132 265.261C365.978 264.488 366.058 263.688 366.36 262.961C366.663 262.234 367.174 261.613 367.83 261.176C368.485 260.74 369.256 260.509 370.043 260.511C371.094 260.514 372.101 260.932 372.844 261.675C373.588 262.419 374.006 263.426 374.009 264.477V264.477Z" fill="#0B7D77"/>
<path d="M387.132 264.477C387.134 265.264 386.903 266.035 386.466 266.69C386.03 267.346 385.409 267.857 384.682 268.159C383.955 268.462 383.155 268.541 382.382 268.388C381.61 268.235 380.9 267.856 380.343 267.299C379.787 266.743 379.408 266.033 379.255 265.261C379.102 264.488 379.181 263.688 379.483 262.961C379.786 262.234 380.297 261.613 380.953 261.176C381.608 260.74 382.379 260.509 383.166 260.511C384.217 260.514 385.224 260.932 385.967 261.675C386.711 262.419 387.129 263.426 387.132 264.477V264.477Z" fill="#263238"/>
<path d="M321.548 236.683H319.259V268.454H321.548V236.683Z" fill="#263238"/>
<path d="M393.27 282.307H162.94V329.749H393.27V282.307Z" fill="#37474F"/>
<path d="M118.089 329.75H162.94V282.308H118.089V329.75Z" fill="#455A64"/>
<path d="M313.413 290.143H171.593V294.152H313.413V290.143Z" fill="#455A64"/>
<path d="M313.413 297.085H171.593V301.094H313.413V297.085Z" fill="#455A64"/>
<path d="M313.413 304.029H171.593V308.038H313.413V304.029Z" fill="#455A64"/>
<path d="M313.413 310.961H171.593V314.97H313.413V310.961Z" fill="#455A64"/>
<path d="M313.413 317.904H171.593V321.913H313.413V317.904Z" fill="#455A64"/>
<path d="M334.736 294.109C334.738 294.896 334.506 295.665 334.071 296.321C333.635 296.976 333.015 297.488 332.288 297.79C331.562 298.093 330.762 298.173 329.99 298.021C329.218 297.869 328.508 297.491 327.951 296.935C327.394 296.379 327.014 295.671 326.859 294.899C326.705 294.127 326.783 293.327 327.084 292.6C327.385 291.873 327.894 291.251 328.548 290.814C329.203 290.376 329.972 290.143 330.759 290.143C331.812 290.143 332.822 290.56 333.567 291.304C334.313 292.047 334.733 293.056 334.736 294.109Z" fill="#0B7D77"/>
<path d="M347.828 294.109C347.83 294.896 347.598 295.665 347.163 296.321C346.727 296.976 346.107 297.488 345.38 297.79C344.654 298.093 343.854 298.173 343.082 298.021C342.309 297.869 341.6 297.491 341.043 296.935C340.485 296.379 340.106 295.671 339.951 294.899C339.797 294.127 339.875 293.327 340.176 292.6C340.476 291.873 340.986 291.251 341.64 290.814C342.294 290.376 343.064 290.143 343.851 290.143C344.904 290.143 345.914 290.56 346.659 291.304C347.404 292.047 347.825 293.056 347.828 294.109V294.109Z" fill="#263238"/>
<path d="M360.918 294.109C360.92 294.896 360.689 295.665 360.253 296.321C359.818 296.976 359.197 297.488 358.471 297.79C357.744 298.093 356.944 298.173 356.172 298.021C355.4 297.869 354.691 297.491 354.133 296.935C353.576 296.379 353.196 295.671 353.042 294.899C352.888 294.127 352.966 293.327 353.267 292.6C353.567 291.873 354.077 291.251 354.731 290.814C355.385 290.376 356.155 290.143 356.942 290.143C357.994 290.143 359.004 290.56 359.75 291.304C360.495 292.047 360.915 293.056 360.918 294.109Z" fill="#0B7D77"/>
<path d="M374.009 294.109C374.011 294.896 373.78 295.666 373.343 296.322C372.907 296.978 372.286 297.489 371.559 297.791C370.832 298.094 370.032 298.173 369.259 298.02C368.487 297.867 367.777 297.488 367.22 296.931C366.664 296.375 366.285 295.665 366.132 294.893C365.978 294.12 366.058 293.32 366.36 292.593C366.663 291.865 367.174 291.244 367.83 290.808C368.485 290.372 369.256 290.14 370.043 290.143C371.094 290.145 372.101 290.564 372.844 291.307C373.588 292.05 374.006 293.058 374.009 294.109V294.109Z" fill="#0B7D77"/>
<path d="M387.132 294.109C387.134 294.896 386.903 295.666 386.466 296.322C386.03 296.978 385.409 297.489 384.682 297.791C383.955 298.094 383.155 298.173 382.382 298.02C381.61 297.867 380.9 297.488 380.343 296.931C379.787 296.375 379.408 295.665 379.255 294.893C379.102 294.12 379.181 293.32 379.483 292.593C379.786 291.865 380.297 291.244 380.953 290.808C381.608 290.372 382.379 290.14 383.166 290.143C384.217 290.145 385.224 290.564 385.967 291.307C386.711 292.05 387.129 293.058 387.132 294.109V294.109Z" fill="#0B7D77"/>
<path d="M330.759 310.005C332.955 310.005 334.736 308.224 334.736 306.028C334.736 303.832 332.955 302.051 330.759 302.051C328.563 302.051 326.782 303.832 326.782 306.028C326.782 308.224 328.563 310.005 330.759 310.005Z" fill="#0B7D77"/>
<path d="M347.828 306.028C347.828 306.815 347.594 307.583 347.157 308.237C346.72 308.891 346.099 309.401 345.373 309.702C344.646 310.003 343.846 310.082 343.075 309.928C342.304 309.775 341.595 309.396 341.039 308.84C340.483 308.284 340.104 307.575 339.95 306.804C339.797 306.032 339.876 305.233 340.177 304.506C340.478 303.78 340.987 303.158 341.641 302.721C342.295 302.285 343.064 302.051 343.851 302.051C344.905 302.051 345.917 302.47 346.663 303.216C347.409 303.962 347.828 304.973 347.828 306.028V306.028Z" fill="white"/>
<path d="M360.918 306.028C360.918 306.815 360.685 307.583 360.248 308.237C359.811 308.891 359.19 309.401 358.463 309.702C357.737 310.003 356.937 310.082 356.166 309.928C355.394 309.775 354.686 309.396 354.13 308.84C353.573 308.284 353.195 307.575 353.041 306.804C352.888 306.032 352.967 305.233 353.268 304.506C353.569 303.78 354.078 303.158 354.732 302.721C355.386 302.285 356.155 302.051 356.942 302.051C357.996 302.051 359.008 302.47 359.754 303.216C360.499 303.962 360.918 304.973 360.918 306.028V306.028Z" fill="#0B7D77"/>
<path d="M374.009 306.028C374.009 306.815 373.776 307.584 373.338 308.239C372.901 308.893 372.279 309.402 371.552 309.703C370.824 310.004 370.024 310.082 369.253 309.928C368.481 309.773 367.772 309.393 367.217 308.836C366.661 308.279 366.283 307.569 366.131 306.797C365.979 306.025 366.059 305.225 366.361 304.499C366.664 303.772 367.176 303.152 367.831 302.716C368.486 302.281 369.256 302.049 370.043 302.051C370.565 302.051 371.081 302.154 371.563 302.354C372.045 302.554 372.483 302.847 372.851 303.217C373.22 303.586 373.512 304.025 373.71 304.507C373.909 304.989 374.011 305.506 374.009 306.028V306.028Z" fill="white"/>
<path d="M387.132 306.028C387.132 306.815 386.899 307.584 386.461 308.239C386.024 308.893 385.402 309.402 384.675 309.703C383.948 310.004 383.147 310.082 382.376 309.928C381.604 309.773 380.895 309.393 380.34 308.836C379.784 308.279 379.406 307.569 379.254 306.797C379.102 306.025 379.182 305.225 379.485 304.499C379.787 303.772 380.299 303.152 380.954 302.716C381.609 302.281 382.379 302.049 383.166 302.051C383.688 302.051 384.205 302.154 384.686 302.354C385.168 302.554 385.606 302.847 385.974 303.217C386.343 303.586 386.635 304.025 386.833 304.507C387.032 304.989 387.134 305.506 387.132 306.028V306.028Z" fill="#0B7D77"/>
<path d="M334.736 317.937C334.738 318.724 334.506 319.494 334.071 320.149C333.635 320.804 333.015 321.316 332.288 321.618C331.562 321.921 330.762 322.001 329.99 321.849C329.218 321.697 328.508 321.319 327.951 320.763C327.394 320.208 327.014 319.499 326.859 318.727C326.705 317.956 326.783 317.155 327.084 316.428C327.385 315.701 327.894 315.079 328.548 314.642C329.203 314.204 329.972 313.971 330.759 313.971C331.812 313.971 332.822 314.388 333.567 315.132C334.313 315.875 334.733 316.884 334.736 317.937Z" fill="white"/>
<path d="M347.828 317.937C347.83 318.724 347.598 319.494 347.163 320.149C346.727 320.804 346.107 321.316 345.38 321.618C344.654 321.921 343.854 322.001 343.082 321.849C342.309 321.697 341.6 321.319 341.043 320.763C340.485 320.208 340.106 319.499 339.951 318.727C339.797 317.956 339.875 317.155 340.176 316.428C340.476 315.701 340.986 315.079 341.64 314.642C342.294 314.204 343.064 313.971 343.851 313.971C344.904 313.971 345.914 314.388 346.659 315.132C347.404 315.875 347.825 316.884 347.828 317.937Z" fill="#0B7D77"/>
<path d="M360.918 317.937C360.92 318.724 360.689 319.494 360.253 320.149C359.818 320.804 359.197 321.316 358.471 321.618C357.744 321.921 356.944 322.001 356.172 321.849C355.4 321.697 354.691 321.319 354.133 320.763C353.576 320.208 353.196 319.499 353.042 318.727C352.888 317.956 352.966 317.155 353.267 316.428C353.567 315.701 354.077 315.079 354.731 314.642C355.385 314.204 356.155 313.971 356.942 313.971C357.994 313.971 359.004 314.388 359.75 315.132C360.495 315.875 360.915 316.884 360.918 317.937Z" fill="#0B7D77"/>
<path d="M374.009 317.937C374.011 318.724 373.78 319.495 373.343 320.15C372.907 320.806 372.286 321.317 371.559 321.619C370.832 321.922 370.032 322.001 369.259 321.848C368.487 321.695 367.777 321.316 367.22 320.759C366.664 320.203 366.285 319.493 366.132 318.721C365.978 317.948 366.058 317.148 366.36 316.421C366.663 315.694 367.174 315.073 367.83 314.636C368.485 314.2 369.256 313.969 370.043 313.971C371.094 313.974 372.101 314.392 372.844 315.135C373.588 315.879 374.006 316.886 374.009 317.937V317.937Z" fill="#0B7D77"/>
<path d="M387.132 317.937C387.134 318.724 386.903 319.495 386.466 320.15C386.03 320.806 385.409 321.317 384.682 321.619C383.955 321.922 383.155 322.001 382.382 321.848C381.61 321.695 380.9 321.316 380.343 320.759C379.787 320.203 379.408 319.493 379.255 318.721C379.102 317.948 379.181 317.148 379.483 316.421C379.786 315.694 380.297 315.073 380.953 314.636C381.608 314.2 382.379 313.969 383.166 313.971C384.217 313.974 385.224 314.392 385.967 315.135C386.711 315.879 387.129 316.886 387.132 317.937V317.937Z" fill="#263238"/>
<path d="M321.548 290.143H319.259V321.914H321.548V290.143Z" fill="#263238"/>
<path d="M393.27 335.768H162.94V383.209H393.27V335.768Z" fill="#37474F"/>
<path d="M118.089 383.209H162.94V335.767H118.089V383.209Z" fill="#455A64"/>
<path d="M313.413 343.603H171.593V347.612H313.413V343.603Z" fill="#455A64"/>
<path d="M313.413 350.546H171.593V354.555H313.413V350.546Z" fill="#455A64"/>
<path d="M313.413 357.489H171.593V361.498H313.413V357.489Z" fill="#455A64"/>
<path d="M313.413 364.422H171.593V368.431H313.413V364.422Z" fill="#455A64"/>
<path d="M313.413 371.365H171.593V375.374H313.413V371.365Z" fill="#455A64"/>
<path d="M334.736 347.569C334.738 348.356 334.506 349.126 334.071 349.781C333.635 350.437 333.015 350.948 332.288 351.251C331.562 351.553 330.762 351.634 329.99 351.481C329.218 351.329 328.508 350.951 327.951 350.396C327.394 349.84 327.014 349.131 326.859 348.36C326.705 347.588 326.783 346.788 327.084 346.06C327.385 345.333 327.894 344.711 328.548 344.274C329.203 343.837 329.972 343.603 330.759 343.603C331.812 343.603 332.822 344.021 333.567 344.764C334.313 345.507 334.733 346.516 334.736 347.569Z" fill="#0B7D77"/>
<path d="M347.828 347.569C347.83 348.356 347.598 349.126 347.163 349.781C346.727 350.437 346.107 350.948 345.38 351.251C344.654 351.553 343.854 351.634 343.082 351.481C342.309 351.329 341.6 350.951 341.043 350.396C340.485 349.84 340.106 349.131 339.951 348.36C339.797 347.588 339.875 346.788 340.176 346.06C340.476 345.333 340.986 344.711 341.64 344.274C342.294 343.837 343.064 343.603 343.851 343.603C344.904 343.603 345.914 344.021 346.659 344.764C347.404 345.507 347.825 346.516 347.828 347.569V347.569Z" fill="white"/>
<path d="M360.918 347.569C360.92 348.356 360.689 349.126 360.253 349.781C359.818 350.437 359.197 350.948 358.471 351.251C357.744 351.553 356.944 351.634 356.172 351.481C355.4 351.329 354.691 350.951 354.133 350.396C353.576 349.84 353.196 349.131 353.042 348.36C352.888 347.588 352.966 346.788 353.267 346.06C353.567 345.333 354.077 344.711 354.731 344.274C355.385 343.837 356.155 343.603 356.942 343.603C357.994 343.603 359.004 344.021 359.75 344.764C360.495 345.507 360.915 346.516 360.918 347.569Z" fill="#0B7D77"/>
<path d="M374.009 347.569C374.011 348.356 373.78 349.127 373.343 349.782C372.907 350.438 372.286 350.949 371.559 351.252C370.832 351.554 370.032 351.634 369.259 351.481C368.487 351.328 367.777 350.949 367.22 350.392C366.664 349.835 366.285 349.125 366.132 348.353C365.978 347.581 366.058 346.78 366.36 346.053C366.663 345.326 367.174 344.705 367.83 344.269C368.485 343.833 369.256 343.601 370.043 343.603C371.094 343.606 372.101 344.025 372.844 344.768C373.588 345.511 374.006 346.518 374.009 347.569V347.569Z" fill="#0B7D77"/>
<path d="M387.132 347.569C387.134 348.356 386.903 349.127 386.466 349.782C386.03 350.438 385.409 350.949 384.682 351.252C383.955 351.554 383.155 351.634 382.382 351.481C381.61 351.328 380.9 350.949 380.343 350.392C379.787 349.835 379.408 349.125 379.255 348.353C379.102 347.581 379.181 346.78 379.483 346.053C379.786 345.326 380.297 344.705 380.953 344.269C381.608 343.833 382.379 343.601 383.166 343.603C384.217 343.606 385.224 344.025 385.967 344.768C386.711 345.511 387.129 346.518 387.132 347.569V347.569Z" fill="#0B7D77"/>
<path d="M330.759 363.466C332.955 363.466 334.736 361.685 334.736 359.489C334.736 357.293 332.955 355.512 330.759 355.512C328.563 355.512 326.782 357.293 326.782 359.489C326.782 361.685 328.563 363.466 330.759 363.466Z" fill="white"/>
<path d="M347.828 359.489C347.828 360.276 347.594 361.044 347.157 361.698C346.72 362.352 346.099 362.862 345.373 363.163C344.646 363.464 343.846 363.543 343.075 363.389C342.304 363.236 341.595 362.857 341.039 362.301C340.483 361.745 340.104 361.036 339.95 360.265C339.797 359.493 339.876 358.694 340.177 357.967C340.478 357.24 340.987 356.619 341.641 356.182C342.295 355.745 343.064 355.512 343.851 355.512C344.905 355.512 345.917 355.931 346.663 356.677C347.409 357.423 347.828 358.434 347.828 359.489V359.489Z" fill="#263238"/>
<path d="M360.918 359.489C360.918 360.276 360.685 361.044 360.248 361.698C359.811 362.352 359.19 362.862 358.463 363.163C357.737 363.464 356.937 363.543 356.166 363.389C355.394 363.236 354.686 362.857 354.13 362.301C353.573 361.745 353.195 361.036 353.041 360.265C352.888 359.493 352.967 358.694 353.268 357.967C353.569 357.24 354.078 356.619 354.732 356.182C355.386 355.745 356.155 355.512 356.942 355.512C357.996 355.512 359.008 355.931 359.754 356.677C360.499 357.423 360.918 358.434 360.918 359.489V359.489Z" fill="#0B7D77"/>
<path d="M374.009 359.489C374.009 360.276 373.776 361.045 373.338 361.699C372.901 362.354 372.279 362.863 371.552 363.164C370.824 363.465 370.024 363.543 369.253 363.389C368.481 363.234 367.772 362.854 367.217 362.297C366.661 361.74 366.283 361.03 366.131 360.258C365.979 359.486 366.059 358.686 366.361 357.96C366.664 357.233 367.176 356.613 367.831 356.177C368.486 355.742 369.256 355.51 370.043 355.512C370.565 355.512 371.081 355.615 371.563 355.815C372.045 356.015 372.483 356.308 372.851 356.678C373.22 357.047 373.512 357.486 373.71 357.968C373.909 358.45 374.011 358.967 374.009 359.489V359.489Z" fill="#263238"/>
<path d="M387.132 359.489C387.132 360.276 386.899 361.045 386.461 361.699C386.024 362.354 385.402 362.863 384.675 363.164C383.948 363.465 383.147 363.543 382.376 363.389C381.604 363.234 380.895 362.854 380.34 362.297C379.784 361.74 379.406 361.03 379.254 360.258C379.102 359.486 379.182 358.686 379.485 357.96C379.787 357.233 380.299 356.613 380.954 356.177C381.609 355.742 382.379 355.51 383.166 355.512C383.688 355.512 384.205 355.615 384.686 355.815C385.168 356.015 385.606 356.308 385.974 356.678C386.343 357.047 386.635 357.486 386.833 357.968C387.032 358.45 387.134 358.967 387.132 359.489V359.489Z" fill="white"/>
<path d="M334.736 371.397C334.738 372.184 334.506 372.954 334.071 373.609C333.635 374.265 333.015 374.776 332.288 375.079C331.562 375.381 330.762 375.462 329.99 375.31C329.218 375.157 328.508 374.779 327.951 374.224C327.394 373.668 327.014 372.959 326.859 372.188C326.705 371.416 326.783 370.616 327.084 369.889C327.385 369.161 327.894 368.54 328.548 368.102C329.203 367.665 329.972 367.431 330.759 367.431C331.812 367.431 332.822 367.849 333.567 368.592C334.313 369.336 334.733 370.344 334.736 371.397Z" fill="#0B7D77"/>
<path d="M347.828 371.397C347.83 372.184 347.598 372.954 347.163 373.609C346.727 374.265 346.107 374.776 345.38 375.079C344.654 375.381 343.854 375.462 343.082 375.31C342.309 375.157 341.6 374.779 341.043 374.224C340.485 373.668 340.106 372.959 339.951 372.188C339.797 371.416 339.875 370.616 340.176 369.889C340.476 369.161 340.986 368.54 341.64 368.102C342.294 367.665 343.064 367.431 343.851 367.431C344.904 367.431 345.914 367.849 346.659 368.592C347.404 369.336 347.825 370.344 347.828 371.397Z" fill="#0B7D77"/>
<path d="M360.918 371.397C360.92 372.184 360.689 372.954 360.253 373.609C359.818 374.265 359.197 374.776 358.471 375.079C357.744 375.381 356.944 375.462 356.172 375.31C355.4 375.157 354.691 374.779 354.133 374.224C353.576 373.668 353.196 372.959 353.042 372.188C352.888 371.416 352.966 370.616 353.267 369.889C353.567 369.161 354.077 368.54 354.731 368.102C355.385 367.665 356.155 367.431 356.942 367.431C357.994 367.431 359.004 367.849 359.75 368.592C360.495 369.336 360.915 370.344 360.918 371.397Z" fill="#0B7D77"/>
<path d="M374.009 371.397C374.011 372.185 373.78 372.955 373.343 373.611C372.907 374.266 372.286 374.778 371.559 375.08C370.832 375.382 370.032 375.462 369.259 375.309C368.487 375.156 367.777 374.777 367.22 374.22C366.664 373.663 366.285 372.953 366.132 372.181C365.978 371.409 366.058 370.608 366.36 369.881C366.663 369.154 367.174 368.533 367.83 368.097C368.485 367.661 369.256 367.429 370.043 367.431C371.094 367.434 372.101 367.853 372.844 368.596C373.588 369.339 374.006 370.346 374.009 371.397V371.397Z" fill="#0B7D77"/>
<path d="M387.132 371.397C387.134 372.185 386.903 372.955 386.466 373.611C386.03 374.266 385.409 374.778 384.682 375.08C383.955 375.382 383.155 375.462 382.382 375.309C381.61 375.156 380.9 374.777 380.343 374.22C379.787 373.663 379.408 372.953 379.255 372.181C379.102 371.409 379.181 370.608 379.483 369.881C379.786 369.154 380.297 368.533 380.953 368.097C381.608 367.661 382.379 367.429 383.166 367.431C384.217 367.434 385.224 367.853 385.967 368.596C386.711 369.339 387.129 370.346 387.132 371.397V371.397Z" fill="#0B7D77"/>
<path d="M321.548 343.603H319.259V375.374H321.548V343.603Z" fill="#263238"/>
<path d="M393.27 389.229H162.94V436.67H393.27V389.229Z" fill="#37474F"/>
<path d="M118.089 436.67H162.94V389.228H118.089V436.67Z" fill="#455A64"/>
<path d="M313.413 397.064H171.593V401.073H313.413V397.064Z" fill="#455A64"/>
<path d="M313.413 404.007H171.593V408.016H313.413V404.007Z" fill="#455A64"/>
<path d="M313.413 410.95H171.593V414.959H313.413V410.95Z" fill="#455A64"/>
<path d="M313.413 417.883H171.593V421.892H313.413V417.883Z" fill="#455A64"/>
<path d="M313.413 424.826H171.593V428.835H313.413V424.826Z" fill="#455A64"/>
<path d="M334.736 401.03C334.738 401.817 334.506 402.587 334.071 403.242C333.635 403.898 333.015 404.409 332.288 404.712C331.562 405.014 330.762 405.095 329.99 404.942C329.218 404.79 328.508 404.412 327.951 403.857C327.394 403.301 327.014 402.592 326.859 401.821C326.705 401.049 326.783 400.249 327.084 399.521C327.385 398.794 327.894 398.172 328.548 397.735C329.203 397.297 329.972 397.064 330.759 397.064C331.812 397.064 332.822 397.481 333.567 398.225C334.313 398.968 334.733 399.977 334.736 401.03Z" fill="white"/>
<path d="M347.828 401.03C347.83 401.817 347.598 402.587 347.163 403.242C346.727 403.898 346.107 404.409 345.38 404.712C344.654 405.014 343.854 405.095 343.082 404.942C342.309 404.79 341.6 404.412 341.043 403.857C340.485 403.301 340.106 402.592 339.951 401.821C339.797 401.049 339.875 400.249 340.176 399.521C340.476 398.794 340.986 398.172 341.64 397.735C342.294 397.297 343.064 397.064 343.851 397.064C344.904 397.064 345.914 397.481 346.659 398.225C347.404 398.968 347.825 399.977 347.828 401.03Z" fill="#0B7D77"/>
<path d="M360.918 401.03C360.92 401.817 360.689 402.587 360.253 403.242C359.818 403.898 359.197 404.409 358.471 404.712C357.744 405.014 356.944 405.095 356.172 404.942C355.4 404.79 354.691 404.412 354.133 403.857C353.576 403.301 353.196 402.592 353.042 401.821C352.888 401.049 352.966 400.249 353.267 399.521C353.567 398.794 354.077 398.172 354.731 397.735C355.385 397.297 356.155 397.064 356.942 397.064C357.994 397.064 359.004 397.481 359.75 398.225C360.495 398.968 360.915 399.977 360.918 401.03Z" fill="#0B7D77"/>
<path d="M374.009 401.03C374.019 401.819 373.795 402.594 373.364 403.255C372.933 403.916 372.315 404.434 371.589 404.743C370.863 405.052 370.061 405.138 369.286 404.99C368.51 404.842 367.797 404.466 367.236 403.911C366.675 403.356 366.291 402.646 366.135 401.873C365.978 401.099 366.055 400.297 366.356 399.567C366.657 398.837 367.169 398.214 367.825 397.776C368.482 397.338 369.254 397.105 370.043 397.107C371.086 397.11 372.087 397.523 372.829 398.256C373.571 398.99 373.995 399.986 374.009 401.03V401.03Z" fill="#0B7D77"/>
<path d="M387.132 401.03C387.134 401.817 386.903 402.588 386.466 403.243C386.03 403.899 385.409 404.41 384.682 404.713C383.955 405.015 383.155 405.095 382.382 404.942C381.61 404.788 380.9 404.41 380.343 403.853C379.787 403.296 379.408 402.586 379.255 401.814C379.102 401.042 379.181 400.241 379.483 399.514C379.786 398.787 380.297 398.166 380.953 397.73C381.608 397.294 382.379 397.062 383.166 397.064C384.217 397.067 385.224 397.486 385.967 398.229C386.711 398.972 387.129 399.979 387.132 401.03V401.03Z" fill="#0B7D77"/>
<path d="M334.736 412.949C334.736 413.736 334.503 414.505 334.066 415.159C333.629 415.813 333.008 416.322 332.281 416.623C331.554 416.924 330.755 417.003 329.983 416.85C329.212 416.696 328.503 416.318 327.947 415.761C327.391 415.205 327.012 414.497 326.859 413.725C326.705 412.954 326.784 412.154 327.085 411.428C327.386 410.701 327.896 410.08 328.55 409.643C329.204 409.206 329.972 408.973 330.759 408.973C331.814 408.973 332.825 409.392 333.571 410.137C334.317 410.883 334.736 411.895 334.736 412.949V412.949Z" fill="#263238"/>
<path d="M347.828 412.949C347.828 413.736 347.594 414.505 347.157 415.159C346.72 415.813 346.099 416.322 345.373 416.623C344.646 416.924 343.846 417.003 343.075 416.85C342.304 416.696 341.595 416.318 341.039 415.761C340.483 415.205 340.104 414.497 339.95 413.725C339.797 412.954 339.876 412.154 340.177 411.428C340.478 410.701 340.987 410.08 341.641 409.643C342.295 409.206 343.064 408.973 343.851 408.973C344.905 408.973 345.917 409.392 346.663 410.137C347.409 410.883 347.828 411.895 347.828 412.949V412.949Z" fill="#0B7D77"/>
<path d="M360.918 412.949C360.918 413.736 360.685 414.505 360.248 415.159C359.811 415.813 359.19 416.322 358.463 416.623C357.737 416.924 356.937 417.003 356.166 416.85C355.394 416.696 354.686 416.318 354.13 415.761C353.573 415.205 353.195 414.497 353.041 413.725C352.888 412.954 352.967 412.154 353.268 411.428C353.569 410.701 354.078 410.08 354.732 409.643C355.386 409.206 356.155 408.973 356.942 408.973C357.996 408.973 359.008 409.392 359.754 410.137C360.499 410.883 360.918 411.895 360.918 412.949V412.949Z" fill="white"/>
<path d="M374.009 412.949C374.009 413.736 373.776 414.506 373.338 415.16C372.901 415.814 372.279 416.324 371.552 416.624C370.824 416.925 370.024 417.003 369.253 416.849C368.481 416.695 367.772 416.315 367.217 415.758C366.661 415.2 366.283 414.491 366.131 413.719C365.979 412.947 366.059 412.147 366.361 411.42C366.664 410.694 367.176 410.073 367.831 409.638C368.486 409.202 369.256 408.971 370.043 408.973C370.565 408.973 371.081 409.076 371.563 409.276C372.045 409.476 372.483 409.769 372.851 410.138C373.22 410.507 373.512 410.946 373.71 411.428C373.909 411.911 374.011 412.428 374.009 412.949V412.949Z" fill="#263238"/>
<path d="M387.132 412.949C387.132 413.736 386.899 414.506 386.461 415.16C386.024 415.814 385.402 416.324 384.675 416.624C383.948 416.925 383.147 417.003 382.376 416.849C381.604 416.695 380.895 416.315 380.34 415.758C379.784 415.2 379.406 414.491 379.254 413.719C379.102 412.947 379.182 412.147 379.485 411.42C379.787 410.694 380.299 410.073 380.954 409.638C381.609 409.202 382.379 408.971 383.166 408.973C383.688 408.973 384.205 409.076 384.686 409.276C385.168 409.476 385.606 409.769 385.974 410.138C386.343 410.507 386.635 410.946 386.833 411.428C387.032 411.911 387.134 412.428 387.132 412.949V412.949Z" fill="#0B7D77"/>
<path d="M334.736 424.859C334.738 425.646 334.506 426.415 334.071 427.071C333.635 427.726 333.015 428.238 332.288 428.54C331.562 428.843 330.762 428.923 329.99 428.771C329.218 428.619 328.508 428.241 327.951 427.685C327.394 427.129 327.014 426.421 326.859 425.649C326.705 424.877 326.783 424.077 327.084 423.35C327.385 422.623 327.894 422.001 328.548 421.564C329.203 421.126 329.972 420.893 330.759 420.893C331.812 420.893 332.822 421.31 333.567 422.054C334.313 422.797 334.733 423.806 334.736 424.859Z" fill="#0B7D77"/>
<path d="M347.828 424.859C347.83 425.646 347.598 426.415 347.163 427.071C346.727 427.726 346.107 428.238 345.38 428.54C344.654 428.843 343.854 428.923 343.082 428.771C342.309 428.619 341.6 428.241 341.043 427.685C340.485 427.129 340.106 426.421 339.951 425.649C339.797 424.877 339.875 424.077 340.176 423.35C340.476 422.623 340.986 422.001 341.64 421.564C342.294 421.126 343.064 420.893 343.851 420.893C344.904 420.893 345.914 421.31 346.659 422.054C347.404 422.797 347.825 423.806 347.828 424.859Z" fill="#263238"/>
<path d="M360.918 424.859C360.92 425.646 360.689 426.415 360.253 427.071C359.818 427.726 359.197 428.238 358.471 428.54C357.744 428.843 356.944 428.923 356.172 428.771C355.4 428.619 354.691 428.241 354.133 427.685C353.576 427.129 353.196 426.421 353.042 425.649C352.888 424.877 352.966 424.077 353.267 423.35C353.567 422.623 354.077 422.001 354.731 421.564C355.385 421.126 356.155 420.893 356.942 420.893C357.994 420.893 359.004 421.31 359.75 422.054C360.495 422.797 360.915 423.806 360.918 424.859Z" fill="#0B7D77"/>
<path d="M374.009 424.859C374.011 425.646 373.78 426.416 373.343 427.072C372.907 427.728 372.286 428.239 371.559 428.541C370.832 428.844 370.032 428.923 369.259 428.77C368.487 428.617 367.777 428.238 367.22 427.681C366.664 427.125 366.285 426.415 366.132 425.643C365.978 424.87 366.058 424.07 366.36 423.343C366.663 422.615 367.174 421.994 367.83 421.558C368.485 421.122 369.256 420.89 370.043 420.893C371.095 420.893 372.104 421.31 372.848 422.054C373.591 422.798 374.009 423.807 374.009 424.859V424.859Z" fill="#0B7D77"/>
<path d="M387.132 424.859C387.134 425.646 386.903 426.416 386.466 427.072C386.03 427.728 385.409 428.239 384.682 428.541C383.955 428.844 383.155 428.923 382.382 428.77C381.61 428.617 380.9 428.238 380.343 427.681C379.787 427.125 379.408 426.415 379.255 425.643C379.102 424.87 379.181 424.07 379.483 423.343C379.786 422.615 380.297 421.994 380.953 421.558C381.608 421.122 382.379 420.89 383.166 420.893C384.218 420.893 385.227 421.31 385.971 422.054C386.714 422.798 387.132 423.807 387.132 424.859V424.859Z" fill="white"/>
<path d="M321.548 397.064H319.259V428.835H321.548V397.064Z" fill="#263238"/>
<path d="M306.372 221.162H156.245L144.626 119.196H294.754L306.372 221.162Z" fill="#A6A6A6"/>
<path d="M298.194 214.327H162.866L152.806 126.043H288.134L298.194 214.327Z" fill="#37474F"/>
<path d="M219.98 173.248L218.604 174.881L205.029 163.166L206.416 161.532L219.98 173.248Z" fill="#CEE5E4"/>
<path d="M216.487 161.532L218.389 163.166L208.523 174.881L206.631 173.248L216.487 161.532Z" fill="#CEE5E4"/>
<path d="M248.989 173.248L247.613 174.881L234.038 163.166L235.425 161.532L248.989 173.248Z" fill="#CEE5E4"/>
<path d="M245.496 161.532L247.398 163.166L237.531 174.881L235.64 173.248L245.496 161.532Z" fill="#CEE5E4"/>
<path d="M203.299 184.502L202.934 182.191H255.524L255.889 184.502H203.299Z" fill="#CEE5E4"/>
<path d="M350.428 214.327H157.298V221.162H350.428V214.327Z" fill="#A6A6A6"/>
<path d="M366.733 214.327H199.236V221.162H366.733V214.327Z" fill="#C7C7C7"/>
<path d="M288.617 130.321L288.134 126.043H152.806L153.289 130.321H288.617Z" fill="#263238"/>
<path d="M164.198 128.182C164.216 128.461 164.334 128.725 164.532 128.923C164.73 129.12 164.993 129.239 165.273 129.257C165.402 129.252 165.529 129.219 165.645 129.16C165.76 129.1 165.861 129.017 165.941 128.914C166.021 128.812 166.078 128.693 166.107 128.567C166.136 128.441 166.138 128.309 166.111 128.182C166.091 127.904 165.971 127.642 165.774 127.444C165.576 127.247 165.315 127.127 165.036 127.107C164.906 127.112 164.779 127.146 164.664 127.205C164.548 127.264 164.447 127.348 164.367 127.45C164.288 127.553 164.231 127.671 164.202 127.797C164.172 127.924 164.171 128.055 164.198 128.182V128.182Z" fill="#C7C7C7"/>
<path d="M160.275 128.182C160.295 128.461 160.415 128.723 160.612 128.92C160.809 129.117 161.071 129.237 161.35 129.257C161.479 129.252 161.606 129.219 161.722 129.16C161.837 129.1 161.939 129.017 162.018 128.914C162.098 128.812 162.155 128.693 162.184 128.567C162.213 128.441 162.215 128.309 162.188 128.182C162.168 127.904 162.048 127.642 161.851 127.444C161.654 127.247 161.392 127.127 161.113 127.107C160.984 127.112 160.857 127.146 160.741 127.205C160.626 127.264 160.524 127.348 160.445 127.45C160.365 127.553 160.308 127.671 160.279 127.797C160.25 127.924 160.248 128.055 160.275 128.182V128.182Z" fill="white"/>
<path d="M156.363 128.182C156.383 128.461 156.502 128.723 156.7 128.92C156.897 129.117 157.159 129.237 157.438 129.257C157.568 129.254 157.696 129.221 157.813 129.163C157.93 129.104 158.033 129.021 158.114 128.918C158.195 128.816 158.252 128.697 158.282 128.569C158.312 128.442 158.313 128.31 158.287 128.182C158.265 127.905 158.144 127.644 157.947 127.447C157.75 127.25 157.49 127.13 157.212 127.107C157.081 127.111 156.953 127.143 156.836 127.202C156.719 127.26 156.617 127.344 156.536 127.446C156.455 127.549 156.397 127.668 156.367 127.795C156.338 127.922 156.336 128.054 156.363 128.182V128.182Z" fill="#0B7D77"/>
<path d="M331.845 214.834C332.199 213.11 332.751 211.433 333.489 209.836C334.216 208.217 335.156 206.702 336.284 205.332C337.426 203.917 338.904 202.809 340.583 202.108C342.315 201.458 344.224 201.458 345.957 202.108C347.7 202.83 349.09 204.208 349.826 205.945C350.214 206.787 350.461 207.688 350.557 208.61C350.677 209.564 350.57 210.533 350.245 211.437C350.053 211.942 349.712 212.377 349.267 212.684C349.024 212.842 348.749 212.945 348.461 212.985C348.158 213.034 347.847 213.005 347.558 212.899C347.054 212.659 346.648 212.253 346.408 211.749C346.188 211.325 346.015 210.878 345.892 210.416C345.467 208.659 345.315 206.846 345.441 205.042C345.637 201.438 346.711 197.937 348.569 194.842C349.523 193.292 350.785 191.953 352.277 190.908C353.773 189.859 355.504 189.195 357.317 188.974C359.094 188.643 360.915 188.643 362.691 188.974C364.448 189.326 366.133 189.969 367.679 190.876C370.704 192.726 373.243 195.272 375.084 198.303C373.094 195.425 370.473 193.039 367.421 191.328C364.401 189.631 360.876 189.067 357.479 189.737C355.809 190.021 354.222 190.668 352.829 191.632C351.436 192.595 350.272 193.853 349.418 195.315C347.681 198.283 346.693 201.629 346.537 205.064C346.399 206.756 346.522 208.46 346.903 210.115C347.096 210.878 347.483 211.738 347.977 211.942C348.109 211.967 348.244 211.967 348.375 211.942C348.52 211.921 348.659 211.869 348.784 211.792C349.061 211.593 349.275 211.316 349.396 210.996C349.837 209.413 349.706 207.726 349.029 206.229C348.351 204.731 347.168 203.52 345.688 202.807C344.144 202.157 342.414 202.1 340.83 202.645C339.236 203.267 337.819 204.271 336.703 205.569C334.391 208.241 332.728 211.412 331.845 214.834V214.834Z" fill="#263238"/>
<path d="M172.624 142.166C169.21 141.416 165.671 141.453 162.274 142.273C160.613 142.664 159.073 143.458 157.792 144.584C156.556 145.734 155.791 147.3 155.642 148.98C155.565 150.638 156.114 152.265 157.179 153.537C158.16 154.852 159.605 155.744 161.22 156.031C161.561 156.076 161.907 156.012 162.209 155.848C162.338 155.778 162.449 155.679 162.531 155.558C162.611 155.45 162.662 155.325 162.682 155.193C162.682 154.687 162.134 153.946 161.532 153.43C160.249 152.326 158.797 151.433 157.233 150.786C154.113 149.345 150.689 148.688 147.259 148.873C145.575 148.965 143.933 149.426 142.447 150.223C140.962 151.02 139.669 152.133 138.66 153.484C136.506 156.191 135.392 159.581 135.522 163.039C135.632 166.534 136.544 169.958 138.187 173.045C136.331 170.022 135.225 166.598 134.963 163.06C134.864 161.273 135.064 159.483 135.554 157.761C136.059 156.032 136.879 154.411 137.972 152.978C139.003 151.471 140.386 150.238 142.003 149.389C143.617 148.542 145.387 148.034 147.205 147.895C150.804 147.669 154.404 148.322 157.695 149.797C159.362 150.512 160.907 151.484 162.274 152.678C162.633 152.994 162.951 153.355 163.219 153.752C163.556 154.197 163.734 154.742 163.724 155.3C163.681 155.596 163.571 155.878 163.401 156.124C163.231 156.37 163.007 156.573 162.746 156.719C162.269 156.973 161.725 157.075 161.188 157.009C160.235 156.891 159.324 156.545 158.533 155.999C157.757 155.489 157.067 154.857 156.491 154.128C155.292 152.673 154.709 150.806 154.868 148.926C155.058 147.07 155.931 145.35 157.319 144.101C158.706 142.937 160.36 142.135 162.134 141.768C163.871 141.403 165.649 141.266 167.422 141.36C169.181 141.427 170.927 141.698 172.624 142.166Z" fill="#263238"/>
<path d="M310.134 177.645C310.112 176.211 310.387 174.787 310.942 173.465C311.497 172.142 312.32 170.949 313.358 169.96C314.417 168.94 315.726 168.217 317.152 167.864C318.599 167.536 320.106 167.588 321.527 168.014C322.934 168.435 324.242 169.133 325.375 170.067C326.538 170.986 327.485 172.149 328.148 173.474C328.533 174.199 328.665 175.031 328.524 175.839C328.408 176.31 328.11 176.715 327.696 176.968C327.32 177.2 326.891 177.333 326.449 177.354C325.987 177.356 325.537 177.213 325.16 176.946C324.824 176.699 324.539 176.388 324.321 176.032C323.933 175.368 323.664 174.64 323.526 173.883C323.268 172.44 323.268 170.962 323.526 169.519C323.742 168.078 324.158 166.675 324.762 165.349C325.949 162.64 328.119 160.482 330.835 159.309C332.198 158.745 333.659 158.456 335.134 158.46C336.584 158.474 338.018 158.766 339.358 159.319C340.672 159.874 341.9 160.616 343.001 161.523C344.113 162.398 345.106 163.413 345.957 164.543C344.111 162.443 341.779 160.826 339.164 159.835C337.889 159.35 336.53 159.124 335.166 159.171C333.802 159.217 332.461 159.534 331.222 160.104C328.745 161.243 326.78 163.262 325.708 165.768C324.582 168.243 324.208 170.993 324.633 173.679C324.731 174.314 324.946 174.927 325.267 175.484C325.375 175.725 325.546 175.932 325.761 176.083C325.977 176.234 326.23 176.325 326.492 176.344C326.758 176.332 327.016 176.255 327.245 176.118C327.342 176.062 327.427 175.986 327.493 175.896C327.56 175.805 327.607 175.701 327.632 175.592C327.72 175.005 327.614 174.405 327.331 173.883C326.077 171.482 323.925 169.674 321.344 168.853C320.064 168.439 318.7 168.354 317.378 168.606C316.051 168.871 314.819 169.487 313.81 170.39C312.749 171.297 311.878 172.405 311.247 173.65C310.617 174.895 310.238 176.253 310.134 177.645V177.645Z" fill="#263238"/>
<path d="M391.27 212.759C392.638 210.913 393.428 208.702 393.54 206.407C393.652 204.112 393.08 201.835 391.898 199.864C390.716 197.894 388.976 196.318 386.898 195.336C384.82 194.355 382.498 194.011 380.225 194.35C377.952 194.688 375.83 195.693 374.128 197.237C372.426 198.781 371.22 200.795 370.663 203.024C370.106 205.254 370.222 207.598 370.998 209.762C371.773 211.925 373.172 213.81 375.019 215.178C377.495 217.012 380.598 217.787 383.645 217.334C386.693 216.88 389.435 215.235 391.27 212.759ZM386.304 209.073C385.665 209.936 384.785 210.59 383.774 210.953C382.764 211.315 381.668 211.37 380.626 211.11C379.584 210.849 378.643 210.286 377.922 209.491C377.2 208.696 376.731 207.704 376.573 206.642C376.415 205.58 376.575 204.495 377.034 203.524C377.493 202.553 378.23 201.74 379.151 201.188C380.072 200.636 381.136 200.37 382.208 200.422C383.281 200.475 384.313 200.845 385.176 201.485C386.328 202.344 387.094 203.624 387.306 205.046C387.517 206.468 387.157 207.916 386.304 209.073V209.073Z" fill="#A6A6A6"/>
<path d="M377.094 216.112L373.504 213.457L371.816 216.144L375.019 218.509L377.094 216.112Z" fill="#A6A6A6"/>
<path d="M371.161 209.835L370.506 205.418L367.421 206.127L368.001 210.061L371.161 209.835Z" fill="#A6A6A6"/>
<path d="M371.408 201.204L374.073 197.615L371.386 195.927L369.011 199.119L371.408 201.204Z" fill="#A6A6A6"/>
<path d="M377.685 195.272L382.102 194.616L381.403 191.521L377.47 192.101L377.685 195.272Z" fill="#A6A6A6"/>
<path d="M386.326 195.508L389.905 198.174L391.593 195.487L388.411 193.122L386.326 195.508Z" fill="#A6A6A6"/>
<path d="M392.259 201.796L392.914 206.213L395.999 205.504L395.419 201.57L392.259 201.796Z" fill="#A6A6A6"/>
<path d="M392.012 210.427L389.347 214.017L392.034 215.704L394.409 212.512L392.012 210.427Z" fill="#A6A6A6"/>
<path d="M385.735 216.359L381.307 217.015L382.016 220.11L385.95 219.53L385.735 216.359Z" fill="#A6A6A6"/>
<path d="M377.781 206.396L380.243 209.513L384.176 208.922L385.638 205.235L383.177 202.118L379.243 202.699L377.781 206.396ZM382.457 204.805C382.656 204.954 382.806 205.158 382.889 205.393C382.972 205.627 382.984 205.881 382.923 206.121C382.862 206.362 382.731 206.58 382.546 206.746C382.362 206.913 382.132 207.021 381.886 207.057C381.64 207.093 381.389 207.055 381.164 206.948C380.94 206.842 380.752 206.671 380.625 206.458C380.497 206.244 380.436 205.998 380.448 205.75C380.46 205.502 380.546 205.263 380.694 205.063C380.895 204.797 381.192 204.621 381.522 204.573C381.852 204.524 382.188 204.608 382.457 204.805V204.805Z" fill="#A6A6A6"/>
<path d="M349.246 163.662C348.888 163.429 348.468 163.308 348.041 163.315C347.614 163.322 347.199 163.455 346.848 163.699C346.497 163.942 346.227 164.285 346.072 164.683C345.916 165.081 345.883 165.516 345.976 165.933C346.069 166.35 346.285 166.73 346.595 167.024C346.904 167.318 347.295 167.513 347.716 167.584C348.137 167.655 348.57 167.599 348.959 167.423C349.349 167.247 349.677 166.96 349.902 166.596C350.197 166.119 350.295 165.544 350.172 164.996C350.049 164.447 349.717 163.969 349.246 163.662V163.662ZM349.687 166.457C349.49 166.771 349.205 167.02 348.867 167.171C348.528 167.323 348.153 167.371 347.788 167.309C347.422 167.247 347.084 167.077 346.815 166.822C346.546 166.568 346.359 166.239 346.277 165.877C346.195 165.516 346.223 165.138 346.356 164.792C346.489 164.447 346.722 164.148 347.025 163.935C347.329 163.722 347.688 163.604 348.059 163.595C348.429 163.587 348.794 163.689 349.106 163.888C349.313 164.018 349.493 164.188 349.634 164.388C349.775 164.588 349.876 164.813 349.93 165.052C349.983 165.29 349.99 165.537 349.948 165.778C349.906 166.02 349.817 166.25 349.687 166.457V166.457ZM349.246 163.662C348.888 163.429 348.468 163.308 348.041 163.315C347.614 163.322 347.199 163.455 346.848 163.699C346.497 163.942 346.227 164.285 346.072 164.683C345.916 165.081 345.883 165.516 345.976 165.933C346.069 166.35 346.285 166.73 346.595 167.024C346.904 167.318 347.295 167.513 347.716 167.584C348.137 167.655 348.57 167.599 348.959 167.423C349.349 167.247 349.677 166.96 349.902 166.596C350.197 166.119 350.295 165.544 350.172 164.996C350.049 164.447 349.717 163.969 349.246 163.662V163.662ZM349.687 166.457C349.49 166.771 349.205 167.02 348.867 167.171C348.528 167.323 348.153 167.371 347.788 167.309C347.422 167.247 347.084 167.077 346.815 166.822C346.546 166.568 346.359 166.239 346.277 165.877C346.195 165.516 346.223 165.138 346.356 164.792C346.489 164.447 346.722 164.148 347.025 163.935C347.329 163.722 347.688 163.604 348.059 163.595C348.429 163.587 348.794 163.689 349.106 163.888C349.313 164.018 349.493 164.188 349.634 164.388C349.775 164.588 349.876 164.813 349.93 165.052C349.983 165.29 349.99 165.537 349.948 165.778C349.906 166.02 349.817 166.25 349.687 166.457V166.457ZM349.246 163.662C348.888 163.429 348.468 163.308 348.041 163.315C347.614 163.322 347.199 163.455 346.848 163.699C346.497 163.942 346.227 164.285 346.072 164.683C345.916 165.081 345.883 165.516 345.976 165.933C346.069 166.35 346.285 166.73 346.595 167.024C346.904 167.318 347.295 167.513 347.716 167.584C348.137 167.655 348.57 167.599 348.959 167.423C349.349 167.247 349.677 166.96 349.902 166.596C350.197 166.119 350.295 165.544 350.172 164.996C350.049 164.447 349.717 163.969 349.246 163.662V163.662ZM349.687 166.457C349.49 166.771 349.205 167.02 348.867 167.171C348.528 167.323 348.153 167.371 347.788 167.309C347.422 167.247 347.084 167.077 346.815 166.822C346.546 166.568 346.359 166.239 346.277 165.877C346.195 165.516 346.223 165.138 346.356 164.792C346.489 164.447 346.722 164.148 347.025 163.935C347.329 163.722 347.688 163.604 348.059 163.595C348.429 163.587 348.794 163.689 349.106 163.888C349.313 164.018 349.493 164.188 349.634 164.388C349.775 164.588 349.876 164.813 349.93 165.052C349.983 165.29 349.99 165.537 349.948 165.778C349.906 166.02 349.817 166.25 349.687 166.457V166.457ZM350.493 161.674C349.744 161.204 348.872 160.967 347.989 160.992C347.105 161.017 346.249 161.304 345.528 161.816C344.807 162.328 344.254 163.042 343.939 163.868C343.624 164.694 343.561 165.594 343.758 166.456C343.954 167.318 344.402 168.102 345.044 168.71C345.687 169.317 346.494 169.721 347.366 169.869C348.237 170.018 349.133 169.904 349.94 169.544C350.748 169.183 351.43 168.591 351.901 167.843C352.516 166.843 352.713 165.641 352.45 164.497C352.186 163.353 351.483 162.358 350.493 161.728V161.674ZM350.181 166.768C349.922 167.177 349.547 167.5 349.104 167.697C348.661 167.893 348.17 167.953 347.693 167.871C347.215 167.788 346.773 167.565 346.422 167.232C346.072 166.898 345.827 166.467 345.721 165.995C345.614 165.522 345.65 165.029 345.824 164.577C345.998 164.125 346.302 163.734 346.697 163.455C347.093 163.175 347.563 163.019 348.047 163.006C348.531 162.994 349.008 163.125 349.418 163.383C349.691 163.555 349.927 163.779 350.113 164.042C350.299 164.305 350.431 164.603 350.502 164.917C350.573 165.232 350.581 165.557 350.526 165.875C350.471 166.192 350.354 166.496 350.181 166.768V166.768ZM349.902 166.596C350.134 166.237 350.254 165.817 350.247 165.39C350.239 164.962 350.104 164.547 349.859 164.196C349.614 163.846 349.27 163.576 348.871 163.422C348.472 163.268 348.037 163.237 347.62 163.332C347.203 163.427 346.824 163.644 346.531 163.956C346.238 164.267 346.045 164.659 345.976 165.081C345.907 165.503 345.966 165.936 346.144 166.325C346.323 166.714 346.613 167.04 346.978 167.263C347.456 167.554 348.029 167.648 348.575 167.523C349.121 167.399 349.597 167.066 349.902 166.596ZM349.687 166.457C349.49 166.771 349.205 167.02 348.867 167.171C348.528 167.323 348.153 167.371 347.788 167.309C347.422 167.247 347.084 167.077 346.815 166.822C346.546 166.568 346.359 166.239 346.277 165.877C346.195 165.516 346.223 165.138 346.356 164.792C346.489 164.447 346.722 164.148 347.025 163.935C347.329 163.722 347.688 163.604 348.059 163.595C348.429 163.587 348.794 163.689 349.106 163.888C349.313 164.018 349.493 164.188 349.634 164.388C349.775 164.588 349.876 164.813 349.93 165.052C349.983 165.29 349.99 165.537 349.948 165.778C349.906 166.02 349.817 166.25 349.687 166.457ZM349.246 163.662C348.888 163.429 348.468 163.308 348.041 163.315C347.614 163.322 347.199 163.455 346.848 163.699C346.497 163.942 346.227 164.285 346.072 164.683C345.916 165.081 345.883 165.516 345.976 165.933C346.069 166.35 346.285 166.73 346.595 167.024C346.904 167.318 347.295 167.513 347.716 167.584C348.137 167.655 348.57 167.599 348.959 167.423C349.349 167.247 349.677 166.96 349.902 166.596C350.197 166.119 350.295 165.544 350.172 164.996C350.049 164.447 349.717 163.969 349.246 163.662V163.662ZM349.687 166.457C349.49 166.771 349.205 167.02 348.867 167.171C348.528 167.323 348.153 167.371 347.788 167.309C347.422 167.247 347.084 167.077 346.815 166.822C346.546 166.568 346.359 166.239 346.277 165.877C346.195 165.516 346.223 165.138 346.356 164.792C346.489 164.447 346.722 164.148 347.025 163.935C347.329 163.722 347.688 163.604 348.059 163.595C348.429 163.587 348.794 163.689 349.106 163.888C349.313 164.018 349.493 164.188 349.634 164.388C349.775 164.588 349.876 164.813 349.93 165.052C349.983 165.29 349.99 165.537 349.948 165.778C349.906 166.02 349.817 166.25 349.687 166.457ZM349.246 163.662C348.888 163.429 348.468 163.308 348.041 163.315C347.614 163.322 347.199 163.455 346.848 163.699C346.497 163.942 346.227 164.285 346.072 164.683C345.916 165.081 345.883 165.516 345.976 165.933C346.069 166.35 346.285 166.73 346.595 167.024C346.904 167.318 347.295 167.513 347.716 167.584C348.137 167.655 348.57 167.599 348.959 167.423C349.349 167.247 349.677 166.96 349.902 166.596C350.197 166.119 350.295 165.544 350.172 164.996C350.049 164.447 349.717 163.969 349.246 163.662V163.662ZM349.687 166.457C349.49 166.771 349.205 167.02 348.867 167.171C348.528 167.323 348.153 167.371 347.788 167.309C347.422 167.247 347.084 167.077 346.815 166.822C346.546 166.568 346.359 166.239 346.277 165.877C346.195 165.516 346.223 165.138 346.356 164.792C346.489 164.447 346.722 164.148 347.025 163.935C347.329 163.722 347.688 163.604 348.059 163.595C348.429 163.587 348.794 163.689 349.106 163.888C349.313 164.018 349.493 164.188 349.634 164.388C349.775 164.588 349.876 164.813 349.93 165.052C349.983 165.29 349.99 165.537 349.948 165.778C349.906 166.02 349.817 166.25 349.687 166.457Z" fill="#A6A6A6"/>
<path d="M346.559 169.552L345.097 168.639L344.527 169.713L345.828 170.53L346.559 169.552Z" fill="#A6A6A6"/>
<path d="M344.087 167.317L343.711 165.64L342.539 166.006L342.883 167.5L344.087 167.317Z" fill="#A6A6A6"/>
<path d="M343.925 163.996L344.839 162.534L343.764 161.964L342.947 163.265L343.925 163.996Z" fill="#A6A6A6"/>
<path d="M346.161 161.534L347.838 161.147L347.472 159.986L345.989 160.319L346.161 161.534Z" fill="#A6A6A6"/>
<path d="M349.482 161.362L350.944 162.286L351.514 161.201L350.213 160.384L349.482 161.362Z" fill="#A6A6A6"/>
<path d="M351.943 163.597L352.33 165.285L353.491 164.919L353.158 163.425L351.943 163.597Z" fill="#A6A6A6"/>
<path d="M352.116 166.929L351.191 168.38L352.277 168.949L353.094 167.649L352.116 166.929Z" fill="#A6A6A6"/>
<path d="M349.88 169.39L348.192 169.766L348.558 170.938L350.052 170.594L349.88 169.39Z" fill="#A6A6A6"/>
<path d="M138.66 173.647C138.064 173.456 137.425 173.447 136.824 173.62C136.223 173.793 135.686 174.141 135.283 174.619C134.879 175.097 134.627 175.684 134.558 176.306C134.488 176.928 134.605 177.557 134.893 178.112C135.182 178.667 135.628 179.125 136.177 179.426C136.725 179.727 137.351 179.859 137.974 179.804C138.597 179.75 139.19 179.511 139.678 179.119C140.166 178.727 140.526 178.199 140.713 177.602C140.963 176.805 140.887 175.942 140.503 175.201C140.118 174.46 139.456 173.901 138.66 173.647V173.647ZM140.348 177.484C140.184 178.007 139.868 178.471 139.44 178.815C139.012 179.159 138.492 179.369 137.945 179.417C137.399 179.465 136.85 179.35 136.368 179.086C135.887 178.822 135.495 178.421 135.242 177.934C134.988 177.447 134.885 176.896 134.945 176.35C135.006 175.805 135.227 175.289 135.58 174.869C135.933 174.449 136.404 174.143 136.931 173.991C137.458 173.838 138.019 173.846 138.542 174.012C138.889 174.121 139.211 174.297 139.49 174.531C139.768 174.764 139.998 175.05 140.166 175.373C140.333 175.695 140.436 176.048 140.467 176.41C140.498 176.772 140.458 177.137 140.348 177.484V177.484ZM138.66 173.647C138.064 173.456 137.425 173.447 136.824 173.62C136.223 173.793 135.686 174.141 135.283 174.619C134.879 175.097 134.627 175.684 134.558 176.306C134.488 176.928 134.605 177.557 134.893 178.112C135.182 178.667 135.628 179.125 136.177 179.426C136.725 179.727 137.351 179.859 137.974 179.804C138.597 179.75 139.19 179.511 139.678 179.119C140.166 178.727 140.526 178.199 140.713 177.602C140.963 176.805 140.887 175.942 140.503 175.201C140.118 174.46 139.456 173.901 138.66 173.647V173.647ZM140.348 177.484C140.184 178.007 139.868 178.471 139.44 178.815C139.012 179.159 138.492 179.369 137.945 179.417C137.399 179.465 136.85 179.35 136.368 179.086C135.887 178.822 135.495 178.421 135.242 177.934C134.988 177.447 134.885 176.896 134.945 176.35C135.006 175.805 135.227 175.289 135.58 174.869C135.933 174.449 136.404 174.143 136.931 173.991C137.458 173.838 138.019 173.846 138.542 174.012C138.889 174.121 139.211 174.297 139.49 174.531C139.768 174.764 139.998 175.05 140.166 175.373C140.333 175.695 140.436 176.048 140.467 176.41C140.498 176.772 140.458 177.137 140.348 177.484V177.484ZM138.66 173.647C138.064 173.456 137.425 173.447 136.824 173.62C136.223 173.793 135.686 174.141 135.283 174.619C134.879 175.097 134.627 175.684 134.558 176.306C134.488 176.928 134.605 177.557 134.893 178.112C135.182 178.667 135.628 179.125 136.177 179.426C136.725 179.727 137.351 179.859 137.974 179.804C138.597 179.75 139.19 179.511 139.678 179.119C140.166 178.727 140.526 178.199 140.713 177.602C140.963 176.805 140.887 175.942 140.503 175.201C140.118 174.46 139.456 173.901 138.66 173.647V173.647ZM140.348 177.484C140.184 178.007 139.868 178.471 139.44 178.815C139.012 179.159 138.492 179.369 137.945 179.417C137.399 179.465 136.85 179.35 136.368 179.086C135.887 178.822 135.495 178.421 135.242 177.934C134.988 177.447 134.885 176.896 134.945 176.35C135.006 175.805 135.227 175.289 135.58 174.869C135.933 174.449 136.404 174.143 136.931 173.991C137.458 173.838 138.019 173.846 138.542 174.012C138.889 174.121 139.211 174.297 139.49 174.531C139.768 174.764 139.998 175.05 140.166 175.373C140.333 175.695 140.436 176.048 140.467 176.41C140.498 176.772 140.458 177.137 140.348 177.484V177.484ZM139.703 170.304C138.45 169.9 137.105 169.877 135.838 170.238C134.572 170.6 133.441 171.328 132.589 172.333C131.738 173.337 131.203 174.571 131.053 175.879C130.903 177.187 131.145 178.511 131.748 179.682C132.35 180.852 133.287 181.818 134.439 182.456C135.591 183.094 136.906 183.376 138.218 183.266C139.53 183.156 140.78 182.659 141.81 181.839C142.84 181.018 143.603 179.91 144.002 178.655C144.527 176.98 144.37 175.166 143.565 173.607C142.76 172.047 141.372 170.868 139.703 170.325V170.304ZM141.186 177.752C140.969 178.439 140.553 179.045 139.991 179.495C139.429 179.945 138.746 180.219 138.028 180.281C137.311 180.343 136.591 180.192 135.96 179.846C135.329 179.499 134.815 178.974 134.482 178.335C134.149 177.697 134.013 176.974 134.091 176.258C134.168 175.542 134.456 174.865 134.918 174.313C135.38 173.761 135.996 173.358 136.687 173.155C137.377 172.952 138.113 172.959 138.8 173.174C139.721 173.468 140.489 174.114 140.936 174.971C141.383 175.829 141.473 176.829 141.186 177.752V177.752ZM140.713 177.602C140.902 177.005 140.909 176.367 140.734 175.766C140.559 175.166 140.21 174.63 139.731 174.229C139.252 173.827 138.664 173.576 138.043 173.508C137.421 173.44 136.793 173.558 136.239 173.848C135.684 174.137 135.228 174.584 134.928 175.133C134.628 175.682 134.497 176.307 134.553 176.93C134.609 177.553 134.848 178.146 135.24 178.633C135.633 179.119 136.161 179.479 136.758 179.665C137.153 179.79 137.569 179.836 137.982 179.8C138.395 179.764 138.797 179.646 139.164 179.455C139.531 179.263 139.857 179.001 140.123 178.683C140.389 178.365 140.59 177.997 140.713 177.602V177.602ZM140.348 177.484C140.184 178.007 139.868 178.471 139.44 178.815C139.012 179.159 138.492 179.369 137.945 179.417C137.399 179.465 136.85 179.35 136.368 179.086C135.887 178.822 135.495 178.421 135.242 177.934C134.988 177.447 134.885 176.896 134.945 176.35C135.006 175.805 135.227 175.289 135.58 174.869C135.933 174.449 136.404 174.143 136.931 173.991C137.458 173.838 138.019 173.846 138.542 174.012C138.889 174.121 139.211 174.297 139.49 174.531C139.768 174.764 139.998 175.05 140.166 175.373C140.333 175.695 140.436 176.048 140.467 176.41C140.498 176.772 140.458 177.137 140.348 177.484V177.484ZM138.66 173.647C138.064 173.456 137.425 173.447 136.824 173.62C136.223 173.793 135.686 174.141 135.283 174.619C134.879 175.097 134.627 175.684 134.558 176.306C134.488 176.928 134.605 177.557 134.893 178.112C135.182 178.667 135.628 179.125 136.177 179.426C136.725 179.727 137.351 179.859 137.974 179.804C138.597 179.75 139.19 179.511 139.678 179.119C140.166 178.727 140.526 178.199 140.713 177.602C140.963 176.805 140.887 175.942 140.503 175.201C140.118 174.46 139.456 173.901 138.66 173.647V173.647ZM140.348 177.484C140.184 178.007 139.868 178.471 139.44 178.815C139.012 179.159 138.492 179.369 137.945 179.417C137.399 179.465 136.85 179.35 136.368 179.086C135.887 178.822 135.495 178.421 135.242 177.934C134.988 177.447 134.885 176.896 134.945 176.35C135.006 175.805 135.227 175.289 135.58 174.869C135.933 174.449 136.404 174.143 136.931 173.991C137.458 173.838 138.019 173.846 138.542 174.012C138.889 174.121 139.211 174.297 139.49 174.531C139.768 174.764 139.998 175.05 140.166 175.373C140.333 175.695 140.436 176.048 140.467 176.41C140.498 176.772 140.458 177.137 140.348 177.484V177.484ZM138.66 173.647C138.064 173.456 137.425 173.447 136.824 173.62C136.223 173.793 135.686 174.141 135.283 174.619C134.879 175.097 134.627 175.684 134.558 176.306C134.488 176.928 134.605 177.557 134.893 178.112C135.182 178.667 135.628 179.125 136.177 179.426C136.725 179.727 137.351 179.859 137.974 179.804C138.597 179.75 139.19 179.511 139.678 179.119C140.166 178.727 140.526 178.199 140.713 177.602C140.963 176.805 140.887 175.942 140.503 175.201C140.118 174.46 139.456 173.901 138.66 173.647V173.647ZM140.348 177.484C140.184 178.007 139.868 178.471 139.44 178.815C139.012 179.159 138.492 179.369 137.945 179.417C137.399 179.465 136.85 179.35 136.368 179.086C135.887 178.822 135.495 178.421 135.242 177.934C134.988 177.447 134.885 176.896 134.945 176.35C135.006 175.805 135.227 175.289 135.58 174.869C135.933 174.449 136.404 174.143 136.931 173.991C137.458 173.838 138.019 173.846 138.542 174.012C138.889 174.121 139.211 174.297 139.49 174.531C139.768 174.764 139.998 175.05 140.166 175.373C140.333 175.695 140.436 176.048 140.467 176.41C140.498 176.772 140.458 177.137 140.348 177.484V177.484Z" fill="#A6A6A6"/>
<path d="M137.005 183.127L134.566 182.353L134.157 184.126L136.328 184.804L137.005 183.127Z" fill="#A6A6A6"/>
<path d="M132.62 180.837L131.437 178.569L129.9 179.525L130.954 181.546L132.62 180.837Z" fill="#A6A6A6"/>
<path d="M131.137 176.119L131.911 173.679L130.137 173.271L129.449 175.442L131.137 176.119Z" fill="#A6A6A6"/>
<path d="M133.426 171.734L135.694 170.552L134.727 169.015L132.717 170.057L133.426 171.734Z" fill="#A6A6A6"/>
<path d="M138.145 170.25L140.584 171.014L140.993 169.251L138.822 168.563L138.145 170.25Z" fill="#A6A6A6"/>
<path d="M142.529 172.54L143.712 174.808L145.249 173.841L144.195 171.82L142.529 172.54Z" fill="#A6A6A6"/>
<path d="M144.013 177.248L143.239 179.687L145.013 180.096L145.701 177.935L144.013 177.248Z" fill="#A6A6A6"/>
<path d="M141.724 181.633L139.456 182.815L140.423 184.363L142.433 183.309L141.724 181.633Z" fill="#A6A6A6"/>
</svg>
